<svg width="48" height="48" viewBox="0 0 48 48" fill="none" xmlns="http://www.w3.org/2000/svg">
<g clip-path="url(#clip0_9305_39451)">
<rect width="32" height="32" transform="translate(8 8)" fill="white"/>
<mask id="path-2-inside-1_9305_39451" fill="white">
<path d="M10.6674 17.9183C10.6674 15.387 12.7194 13.335 15.2507 13.335H32.7507C35.282 13.335 37.334 15.387 37.334 17.9183V30.085C37.334 32.6163 35.282 34.6683 32.7507 34.6683H15.2507C12.7194 34.6683 10.6674 32.6163 10.6674 30.085V17.9183Z"/>
</mask>
<path d="M10.6674 17.9183C10.6674 15.387 12.7194 13.335 15.2507 13.335H32.7507C35.282 13.335 37.334 15.387 37.334 17.9183V30.085C37.334 32.6163 35.282 34.6683 32.7507 34.6683H15.2507C12.7194 34.6683 10.6674 32.6163 10.6674 30.085V17.9183Z" fill="#171D29"/>
<path d="M10.6674 13.335H37.334H10.6674ZM37.334 30.085C37.334 33.46 34.598 36.1961 31.2229 36.1961H16.7785C13.4034 36.1961 10.6674 33.46 10.6674 30.085C10.6674 31.7725 12.7194 33.1405 15.2507 33.1405H32.7507C35.282 33.1405 37.334 31.7725 37.334 30.085ZM10.6674 34.6683V13.335V34.6683ZM37.334 13.335V34.6683V13.335Z" fill="#333C4A" mask="url(#path-2-inside-1_9305_39451)"/>
<path d="M35.7014 17.2338C35.7939 16.6133 35.6242 15.9578 35.1785 15.4485L31.5331 11.2837C30.7278 10.3636 29.3299 10.2706 28.4098 11.076L26.3274 12.8987C25.8181 13.3444 25.5631 13.9717 25.5727 14.599C25.5727 14.599 25.3273 16.8196 25.2847 17.4603C25.2421 18.101 25.4556 18.7326 25.8785 19.2159L29.4135 23.2546C30.2943 24.2609 31.8242 24.3627 32.8305 23.4819L34.7868 21.7695C35.2699 21.3466 35.5653 20.7488 35.6079 20.1081L35.7014 17.2338Z" fill="#D9D9D9" stroke="#171D29" stroke-width="1.33333"/>
<mask id="mask0_9305_39451" style="mask-type:alpha" maskUnits="userSpaceOnUse" x="25" y="10" width="11" height="15">
<path d="M35.7014 17.2338C35.7939 16.6133 35.6242 15.9578 35.1785 15.4485L31.5331 11.2837C30.7278 10.3636 29.3299 10.2706 28.4098 11.076L26.3274 12.8987C25.8181 13.3444 25.5631 13.9717 25.5727 14.599C25.5727 14.599 25.3273 16.8196 25.2847 17.4603C25.2421 18.101 25.4556 18.7326 25.8785 19.2159L29.4135 23.2546C30.2943 24.2609 31.8242 24.3627 32.8305 23.4819L34.7868 21.7695C35.2699 21.3466 35.5653 20.7488 35.6079 20.1081L35.7014 17.2338Z" fill="#D9D9D9"/>
</mask>
<g mask="url(#mask0_9305_39451)">
<path d="M25.773 15.2601L25.6232 17.512C25.588 18.0412 25.7645 18.5628 26.1139 18.962L29.7191 23.0809C30.4466 23.9121 31.7101 23.9961 32.5413 23.2686L34.5778 21.4861C34.9769 21.1367 35.2209 20.6431 35.2561 20.1139L35.4059 17.8619C35.4411 17.3327 35.2646 16.8111 34.9153 16.412L31.31 12.293C30.5825 11.4619 29.319 11.3778 28.4879 12.1053L26.4513 13.8878C26.0522 14.2372 25.8082 14.7308 25.773 15.2601Z" fill="url(#paint0_linear_9305_39451)" stroke="url(#paint1_linear_9305_39451)" stroke-width="0.666667"/>
<mask id="path-7-outside-2_9305_39451" maskUnits="userSpaceOnUse" x="24.1101" y="8.79008" width="13.2646" height="13.5462" fill="black">
<rect fill="white" x="24.1101" y="8.79008" width="13.2646" height="13.5462"/>
<path d="M34.8663 15.7198C35.5203 16.4673 35.4442 17.6032 34.6969 18.2574L32.6143 20.0802C31.8669 20.7344 30.731 20.6593 30.0767 19.9121L26.4311 15.747C25.7768 14.9995 25.8524 13.863 26.5999 13.2087L28.6824 11.3859C29.43 10.7317 30.5665 10.8072 31.2208 11.5547L34.8663 15.7198Z"/>
</mask>
<path d="M34.8663 15.7198C35.5203 16.4673 35.4442 17.6032 34.6969 18.2574L32.6143 20.0802C31.8669 20.7344 30.731 20.6593 30.0767 19.9121L26.4311 15.747C25.7768 14.9995 25.8524 13.863 26.5999 13.2087L28.6824 11.3859C29.43 10.7317 30.5665 10.8072 31.2208 11.5547L34.8663 15.7198Z" fill="url(#paint2_linear_9305_39451)"/>
<path d="M34.8663 15.7198L35.1674 15.4564L35.1673 15.4564L34.8663 15.7198ZM34.6969 18.2574L34.9603 18.5584L34.9603 18.5584L34.6969 18.2574ZM30.0767 19.9121L29.7757 20.1755L29.7757 20.1756L30.0767 19.9121ZM26.4311 15.747L26.1301 16.0105L26.4311 15.747ZM28.6824 11.3859L28.419 11.0849L28.419 11.0849L28.6824 11.3859ZM31.2208 11.5547L31.5217 11.2913L31.2208 11.5547ZM34.8663 15.7198L34.5653 15.9832C35.0737 16.5643 35.0147 17.4475 34.4334 17.9564L34.6969 18.2574L34.9603 18.5584C35.8737 17.7588 35.9669 16.3703 35.1674 15.4564L34.8663 15.7198ZM34.6969 18.2574L34.4334 17.9564L32.3509 19.7792L32.6143 20.0802L32.8778 20.3812L34.9603 18.5584L34.6969 18.2574ZM32.6143 20.0802L32.3509 19.7792C31.7696 20.288 30.8863 20.2295 30.3776 19.6486L30.0767 19.9121L29.7757 20.1756C30.5757 21.0891 31.9643 21.1808 32.8778 20.3812L32.6143 20.0802ZM30.0767 19.9121L30.3777 19.6486L26.7321 15.4836L26.4311 15.747L26.1301 16.0105L29.7757 20.1755L30.0767 19.9121ZM26.4311 15.747L26.7321 15.4836C26.2233 14.9023 26.282 14.0185 26.8634 13.5097L26.5999 13.2087L26.3365 12.9077C25.4227 13.7075 25.3303 15.0967 26.1301 16.0105L26.4311 15.747ZM26.5999 13.2087L26.8634 13.5097L28.9459 11.6869L28.6824 11.3859L28.419 11.0849L26.3365 12.9077L26.5999 13.2087ZM28.6824 11.3859L28.9459 11.6869C29.5272 11.1782 30.411 11.2369 30.9198 11.8182L31.2208 11.5547L31.5217 11.2913C30.7219 10.3775 29.3328 10.2853 28.419 11.0849L28.6824 11.3859ZM31.2208 11.5547L30.9198 11.8182L34.5653 15.9833L34.8663 15.7198L35.1673 15.4564L31.5217 11.2913L31.2208 11.5547Z" fill="black" mask="url(#path-7-outside-2_9305_39451)"/>
<path d="M34.8663 15.7198L35.1674 15.4564L35.1673 15.4564L34.8663 15.7198ZM34.6969 18.2574L34.9603 18.5584L34.9603 18.5584L34.6969 18.2574ZM30.0767 19.9121L29.7757 20.1755L29.7757 20.1756L30.0767 19.9121ZM26.4311 15.747L26.1301 16.0105L26.4311 15.747ZM28.6824 11.3859L28.419 11.0849L28.419 11.0849L28.6824 11.3859ZM31.2208 11.5547L31.5217 11.2913L31.2208 11.5547ZM34.8663 15.7198L34.5653 15.9832C35.0737 16.5643 35.0147 17.4475 34.4334 17.9564L34.6969 18.2574L34.9603 18.5584C35.8737 17.7588 35.9669 16.3703 35.1674 15.4564L34.8663 15.7198ZM34.6969 18.2574L34.4334 17.9564L32.3509 19.7792L32.6143 20.0802L32.8778 20.3812L34.9603 18.5584L34.6969 18.2574ZM32.6143 20.0802L32.3509 19.7792C31.7696 20.288 30.8863 20.2295 30.3776 19.6486L30.0767 19.9121L29.7757 20.1756C30.5757 21.0891 31.9643 21.1808 32.8778 20.3812L32.6143 20.0802ZM30.0767 19.9121L30.3777 19.6486L26.7321 15.4836L26.4311 15.747L26.1301 16.0105L29.7757 20.1755L30.0767 19.9121ZM26.4311 15.747L26.7321 15.4836C26.2233 14.9023 26.282 14.0185 26.8634 13.5097L26.5999 13.2087L26.3365 12.9077C25.4227 13.7075 25.3303 15.0967 26.1301 16.0105L26.4311 15.747ZM26.5999 13.2087L26.8634 13.5097L28.9459 11.6869L28.6824 11.3859L28.419 11.0849L26.3365 12.9077L26.5999 13.2087ZM28.6824 11.3859L28.9459 11.6869C29.5272 11.1782 30.411 11.2369 30.9198 11.8182L31.2208 11.5547L31.5217 11.2913C30.7219 10.3775 29.3328 10.2853 28.419 11.0849L28.6824 11.3859ZM31.2208 11.5547L30.9198 11.8182L34.5653 15.9833L34.8663 15.7198L35.1673 15.4564L31.5217 11.2913L31.2208 11.5547Z" fill="url(#paint3_linear_9305_39451)" mask="url(#path-7-outside-2_9305_39451)"/>
</g>
<mask id="mask1_9305_39451" style="mask-type:alpha" maskUnits="userSpaceOnUse" x="25" y="10" width="11" height="11">
<path d="M28.9915 11.6682L26.8332 13.5573C26.2791 14.0423 26.2231 14.8846 26.7081 15.4387L30.4198 19.6794C30.9048 20.2335 31.7472 20.2895 32.3013 19.8045L34.4595 17.9155C35.0136 17.4305 35.0697 16.5881 34.5847 16.034L30.8729 11.7933C30.3879 11.2392 29.5456 11.1832 28.9915 11.6682Z" fill="url(#paint4_linear_9305_39451)" stroke="url(#paint5_linear_9305_39451)" stroke-width="0.8"/>
</mask>
<g mask="url(#mask1_9305_39451)">
<path d="M31.7524 16.122C30.0228 15.1055 29.1498 12.3894 28.7133 11.0313L27.691 11.6697C27.656 11.9245 27.7849 13.7076 29.0005 15.7439C30.2162 17.7802 32.7661 18.9483 33.6834 19.0743L35.1539 18.5754C34.3416 17.6849 34.432 17.6967 31.7524 16.122Z" fill="url(#paint6_linear_9305_39451)"/>
<path d="M29.5616 14.6553C29.7162 15.7981 30.6553 17.3677 31.8599 18.3357C33.5433 19.6885 34.1044 20.1395 34.3094 20.9153" stroke="#FFC800" stroke-width="0.4"/>
<path d="M27.5996 12.2803C27.7602 13.237 28.8155 16.1858 30.4094 17.3394C32.0033 18.4931 32.8633 18.6112 33.7233 18.7294" stroke="url(#paint7_linear_9305_39451)"/>
<path d="M30.5319 14.5792L30.563 14.1686C30.597 13.7199 30.9713 13.3733 31.4213 13.3739C31.5544 13.3741 31.6857 13.4052 31.8047 13.4648L32.6244 13.8749C33.1508 14.1392 33.5386 14.4029 33.7782 14.6606C34.1085 15.016 33.8408 15.5013 33.4542 15.7945C33.133 16.0381 32.741 16.1699 32.338 16.1699L32.1094 16.1699C31.6169 16.1699 31.1527 15.9394 30.8551 15.5469L30.793 15.4651C30.6007 15.2115 30.5079 14.8965 30.5319 14.5792Z" fill="url(#paint8_linear_9305_39451)"/>
<rect x="29.4589" y="14.8633" width="0.929021" height="1.15837" rx="0.46451" transform="rotate(-97.1772 29.4589 14.8633)" fill="#FFF3D7"/>
<rect x="28.7982" y="14.3242" width="1.3889" height="0.972227" rx="0.486113" transform="rotate(127.823 28.7982 14.3242)" fill="#B19B66"/>
</g>
<mask id="mask2_9305_39451" style="mask-type:alpha" maskUnits="userSpaceOnUse" x="20" y="17" width="12" height="14">
<path d="M31.1317 24.0952C31.2242 23.4746 31.0545 22.8191 30.6088 22.3099L26.9634 18.145C26.1581 17.225 24.7602 17.132 23.8401 17.9373L21.7577 19.76C21.2484 20.2057 20.9934 20.833 21.003 21.4603C21.003 21.4603 20.7576 23.681 20.715 24.3217C20.6724 24.9624 20.8859 25.594 21.3088 26.0772L24.8438 30.1159C25.7246 31.1223 27.2545 31.224 28.2608 30.3432L30.2171 28.6309C30.7002 28.2079 30.9956 27.6101 31.0382 26.9694L31.1317 24.0952Z" fill="#D9D9D9"/>
</mask>
<g mask="url(#mask2_9305_39451)">
<path d="M21.2099 22.1253L21.0601 24.3772C21.0249 24.9065 21.2014 25.428 21.5507 25.8272L25.156 29.9461C25.8834 30.7773 27.147 30.8613 27.9781 30.1338L30.0147 28.3513C30.4138 28.002 30.6578 27.5084 30.693 26.9791L30.8428 24.7272C30.878 24.1979 30.7015 23.6763 30.3521 23.2772L26.7469 19.1583C26.0194 18.3271 24.7559 18.2431 23.9247 18.9706L21.8882 20.7531C21.4891 21.1024 21.2451 21.596 21.2099 22.1253Z" fill="url(#paint9_linear_9305_39451)" stroke="url(#paint10_linear_9305_39451)" stroke-width="0.666667"/>
<mask id="path-18-outside-3_9305_39451" maskUnits="userSpaceOnUse" x="19.541" y="15.6582" width="13.2646" height="13.5462" fill="black">
<rect fill="white" x="19.541" y="15.6582" width="13.2646" height="13.5462"/>
<path d="M30.2972 22.588C30.9513 23.3354 30.8758 24.4706 30.1285 25.1249L28.046 26.9477C27.2985 27.6019 26.1627 27.5269 25.5083 26.7796L21.8627 22.6145C21.2084 21.867 21.284 20.7305 22.0316 20.0762L24.1141 18.2534C24.8616 17.5993 25.9974 17.6754 26.6517 18.4229L30.2972 22.588Z"/>
</mask>
<path d="M30.2972 22.588C30.9513 23.3354 30.8758 24.4706 30.1285 25.1249L28.046 26.9477C27.2985 27.6019 26.1627 27.5269 25.5083 26.7796L21.8627 22.6145C21.2084 21.867 21.284 20.7305 22.0316 20.0762L24.1141 18.2534C24.8616 17.5993 25.9974 17.6754 26.6517 18.4229L30.2972 22.588Z" fill="url(#paint11_linear_9305_39451)"/>
<path d="M30.2972 22.588L30.5983 22.3246L30.5982 22.3245L30.2972 22.588ZM30.1285 25.1249L30.392 25.4259L30.392 25.4259L30.1285 25.1249ZM25.5083 26.7796L25.2073 27.0431L25.2074 27.0431L25.5083 26.7796ZM21.8627 22.6145L21.5617 22.878L21.8627 22.6145ZM24.1141 18.2534L23.8507 17.9524L23.8506 17.9525L24.1141 18.2534ZM26.6517 18.4229L26.9527 18.1595L26.6517 18.4229ZM30.2972 22.588L29.9962 22.8514C30.5048 23.4326 30.4461 24.3152 29.865 24.824L30.1285 25.1249L30.392 25.4259C31.3054 24.6261 31.3977 23.2383 30.5983 22.3246L30.2972 22.588ZM30.1285 25.1249L29.8651 24.8239L27.7825 26.6467L28.046 26.9477L28.3094 27.2487L30.392 25.4259L30.1285 25.1249ZM28.046 26.9477L27.7825 26.6467C27.2011 27.1556 26.318 27.0971 25.8093 26.5161L25.5083 26.7796L25.2074 27.0431C26.0074 27.9568 27.3959 28.0483 28.3094 27.2487L28.046 26.9477ZM25.5083 26.7796L25.8093 26.5162L22.1637 22.3511L21.8627 22.6145L21.5617 22.878L25.2073 27.0431L25.5083 26.7796ZM21.8627 22.6145L22.1637 22.3511C21.6549 21.7698 21.7137 20.886 22.295 20.3772L22.0316 20.0762L21.7681 19.7752C20.8543 20.5751 20.7619 21.9642 21.5617 22.878L21.8627 22.6145ZM22.0316 20.0762L22.295 20.3772L24.3775 18.5544L24.1141 18.2534L23.8506 17.9525L21.7681 19.7752L22.0316 20.0762ZM24.1141 18.2534L24.3775 18.5545C24.9587 18.046 25.8418 18.1049 26.3507 18.6864L26.6517 18.4229L26.9527 18.1595C26.153 17.2459 24.7646 17.1527 23.8507 17.9524L24.1141 18.2534ZM26.6517 18.4229L26.3507 18.6864L29.9963 22.8514L30.2972 22.588L30.5982 22.3245L26.9527 18.1595L26.6517 18.4229Z" fill="black" mask="url(#path-18-outside-3_9305_39451)"/>
<path d="M30.2972 22.588L30.5983 22.3246L30.5982 22.3245L30.2972 22.588ZM30.1285 25.1249L30.392 25.4259L30.392 25.4259L30.1285 25.1249ZM25.5083 26.7796L25.2073 27.0431L25.2074 27.0431L25.5083 26.7796ZM21.8627 22.6145L21.5617 22.878L21.8627 22.6145ZM24.1141 18.2534L23.8507 17.9524L23.8506 17.9525L24.1141 18.2534ZM26.6517 18.4229L26.9527 18.1595L26.6517 18.4229ZM30.2972 22.588L29.9962 22.8514C30.5048 23.4326 30.4461 24.3152 29.865 24.824L30.1285 25.1249L30.392 25.4259C31.3054 24.6261 31.3977 23.2383 30.5983 22.3246L30.2972 22.588ZM30.1285 25.1249L29.8651 24.8239L27.7825 26.6467L28.046 26.9477L28.3094 27.2487L30.392 25.4259L30.1285 25.1249ZM28.046 26.9477L27.7825 26.6467C27.2011 27.1556 26.318 27.0971 25.8093 26.5161L25.5083 26.7796L25.2074 27.0431C26.0074 27.9568 27.3959 28.0483 28.3094 27.2487L28.046 26.9477ZM25.5083 26.7796L25.8093 26.5162L22.1637 22.3511L21.8627 22.6145L21.5617 22.878L25.2073 27.0431L25.5083 26.7796ZM21.8627 22.6145L22.1637 22.3511C21.6549 21.7698 21.7137 20.886 22.295 20.3772L22.0316 20.0762L21.7681 19.7752C20.8543 20.5751 20.7619 21.9642 21.5617 22.878L21.8627 22.6145ZM22.0316 20.0762L22.295 20.3772L24.3775 18.5544L24.1141 18.2534L23.8506 17.9525L21.7681 19.7752L22.0316 20.0762ZM24.1141 18.2534L24.3775 18.5545C24.9587 18.046 25.8418 18.1049 26.3507 18.6864L26.6517 18.4229L26.9527 18.1595C26.153 17.2459 24.7646 17.1527 23.8507 17.9524L24.1141 18.2534ZM26.6517 18.4229L26.3507 18.6864L29.9963 22.8514L30.2972 22.588L30.5982 22.3245L26.9527 18.1595L26.6517 18.4229Z" fill="url(#paint12_linear_9305_39451)" mask="url(#path-18-outside-3_9305_39451)"/>
</g>
<mask id="mask3_9305_39451" style="mask-type:alpha" maskUnits="userSpaceOnUse" x="21" y="17" width="10" height="11">
<path d="M24.4272 18.5295L22.269 20.4186C21.7149 20.9036 21.6589 21.7459 22.1439 22.3L25.8556 26.5407C26.3406 27.0948 27.183 27.1508 27.7371 26.6658L29.8953 24.7768C30.4494 24.2918 30.5055 23.4494 30.0205 22.8953L26.3087 18.6547C25.8237 18.1006 24.9814 18.0445 24.4272 18.5295Z" fill="url(#paint13_linear_9305_39451)" stroke="url(#paint14_linear_9305_39451)" stroke-width="0.8"/>
</mask>
<g mask="url(#mask3_9305_39451)">
<path d="M27.1852 22.9765C25.4556 21.96 24.5826 19.2439 24.1461 17.8858L23.1237 18.5242C23.0887 18.779 23.2176 20.5621 24.4333 22.5984C25.6489 24.6347 28.1989 25.8029 29.1162 25.9289L30.5867 25.43C29.7744 24.5395 29.8648 24.5513 27.1852 22.9765Z" fill="url(#paint15_linear_9305_39451)"/>
<path d="M23.0323 19.1396C23.193 20.0963 24.2482 23.0452 25.8422 24.1989C27.4361 25.3525 28.2961 25.4707 29.1561 25.5888" stroke="url(#paint16_linear_9305_39451)" stroke-width="0.9"/>
<path d="M23.1809 22.3548C23.2957 21.7775 24.0708 21.7444 24.0708 21.7444L24.8667 21.6677C24.7369 22.6131 26.3065 22.9017 26.6282 24.7993C26.1418 25.2857 25.3648 25.3491 24.8577 24.8843C24.719 24.7571 24.5861 24.6266 24.4771 24.5037C23.8268 23.7705 23.1809 22.3548 23.1809 22.3548Z" fill="url(#paint17_linear_9305_39451)"/>
<path d="M26.7695 21.7959L26.1174 19.874L27.0166 19.9976C27.6687 21.9194 29.467 22.1665 29.3435 23.0657L28.3208 23.8413L27.4217 23.7178L26.646 22.6951L26.7695 21.7959Z" fill="url(#paint18_linear_9305_39451)"/>
<rect width="0.694448" height="0.694448" rx="0.347224" transform="matrix(0.990692 0.136119 -0.1361 0.990695 22.1128 20.7646)" fill="#B19B66"/>
<rect width="0.72925" height="1.21542" rx="0.364625" transform="matrix(0.990692 0.136119 -0.1361 0.990695 28.7906 23.876)" fill="#FFF3D7"/>
<rect width="1.03027" height="1.71713" rx="0.515137" transform="matrix(-0.124949 -0.99217 0.992159 -0.124928 24.3844 21.7998)" fill="#FFF3D7"/>
</g>
<mask id="mask4_9305_39451" style="mask-type:alpha" maskUnits="userSpaceOnUse" x="11" y="18" width="12" height="15">
<path d="M22.1879 25.4911C22.2805 24.8706 22.1109 24.2151 21.6652 23.7058L18.0202 19.5407C17.2149 18.6205 15.817 18.5274 14.8968 19.3327L12.8143 21.1552C12.305 21.6009 12.0499 22.2281 12.0594 22.8554C12.0594 22.8554 11.8139 25.0761 11.7712 25.7168C11.7285 26.3574 11.942 26.9891 12.3649 27.4723L15.8995 31.5114C16.7803 32.5178 18.3101 32.6197 19.3165 31.7389L21.273 30.0268C21.7561 29.6039 22.0515 29.0061 22.0942 28.3654L22.1879 25.4911Z" fill="#D9D9D9"/>
</mask>
<g mask="url(#mask4_9305_39451)">
<path d="M12.262 23.5205L12.112 25.7723C12.0768 26.3016 12.2532 26.8232 12.6025 27.2224L16.2074 31.3416C16.9348 32.1728 18.1983 32.257 19.0296 31.5296L21.0662 29.7472C21.4654 29.3979 21.7095 28.9043 21.7447 28.375L21.8947 26.1231C21.9299 25.5939 21.7535 25.0723 21.4042 24.6731L17.7993 20.5539C17.0719 19.7227 15.8083 19.6385 14.9771 20.3659L12.9404 22.1483C12.5413 22.4976 12.2972 22.9912 12.262 23.5205Z" fill="url(#paint19_linear_9305_39451)" stroke="url(#paint20_linear_9305_39451)" stroke-width="0.666667"/>
<mask id="path-30-outside-4_9305_39451" maskUnits="userSpaceOnUse" x="10.5999" y="17.0528" width="13.2644" height="13.5463" fill="black">
<rect fill="white" x="10.5999" y="17.0528" width="13.2644" height="13.5463"/>
<path d="M21.356 23.9829C22.01 24.7305 21.9338 25.8663 21.1863 26.5205L19.1036 28.3431C18.3561 28.997 17.2209 28.9214 16.5667 28.1741L12.9215 24.0088C12.2673 23.2613 12.3424 22.1254 13.0898 21.4711L15.1725 19.6485C15.9201 18.9942 17.0565 19.0699 17.7108 19.8175L21.356 23.9829Z"/>
</mask>
<path d="M21.356 23.9829C22.01 24.7305 21.9338 25.8663 21.1863 26.5205L19.1036 28.3431C18.3561 28.997 17.2209 28.9214 16.5667 28.1741L12.9215 24.0088C12.2673 23.2613 12.3424 22.1254 13.0898 21.4711L15.1725 19.6485C15.9201 18.9942 17.0565 19.0699 17.7108 19.8175L21.356 23.9829Z" fill="url(#paint21_linear_9305_39451)"/>
<path d="M21.356 23.9829L21.657 23.7195L21.657 23.7195L21.356 23.9829ZM21.1863 26.5205L20.9229 26.2195L21.1863 26.5205ZM19.1036 28.3431L19.367 28.6442L19.367 28.6441L19.1036 28.3431ZM16.5667 28.1741L16.2657 28.4376L16.2657 28.4376L16.5667 28.1741ZM12.9215 24.0088L12.6205 24.2722L12.9215 24.0088ZM13.0898 21.4711L12.8263 21.1701L12.8263 21.1702L13.0898 21.4711ZM17.7108 19.8175L18.0118 19.5541L17.7108 19.8175ZM21.356 23.9829L21.0549 24.2463C21.5634 24.8275 21.5043 25.7106 20.9229 26.2195L21.1863 26.5205L21.4497 26.8215C22.3633 26.022 22.4566 24.6335 21.657 23.7195L21.356 23.9829ZM21.1863 26.5205L20.9229 26.2195L18.8402 28.0421L19.1036 28.3431L19.367 28.6441L21.4497 26.8215L21.1863 26.5205ZM19.1036 28.3431L18.8402 28.042C18.259 28.5505 17.3764 28.4918 16.8676 27.9107L16.5667 28.1741L16.2657 28.4376C17.0654 29.3511 18.4532 29.4435 19.367 28.6442L19.1036 28.3431ZM16.5667 28.1741L16.8677 27.9107L13.2225 23.7453L12.9215 24.0088L12.6205 24.2722L16.2657 28.4376L16.5667 28.1741ZM12.9215 24.0088L13.2225 23.7453C12.7136 23.1639 12.7722 22.2808 13.3532 21.7721L13.0898 21.4711L12.8263 21.1702C11.9126 21.9701 11.8209 23.3586 12.6205 24.2722L12.9215 24.0088ZM13.0898 21.4711L13.3532 21.7721L15.4359 19.9495L15.1725 19.6485L14.909 19.3475L12.8263 21.1701L13.0898 21.4711ZM15.1725 19.6485L15.4359 19.9495C16.0172 19.4407 16.901 19.4996 17.4097 20.081L17.7108 19.8175L18.0118 19.5541C17.212 18.6403 15.8229 18.5477 14.909 19.3475L15.1725 19.6485ZM17.7108 19.8175L17.4097 20.081L21.055 24.2463L21.356 23.9829L21.657 23.7195L18.0118 19.5541L17.7108 19.8175Z" fill="black" mask="url(#path-30-outside-4_9305_39451)"/>
<path d="M21.356 23.9829L21.657 23.7195L21.657 23.7195L21.356 23.9829ZM21.1863 26.5205L20.9229 26.2195L21.1863 26.5205ZM19.1036 28.3431L19.367 28.6442L19.367 28.6441L19.1036 28.3431ZM16.5667 28.1741L16.2657 28.4376L16.2657 28.4376L16.5667 28.1741ZM12.9215 24.0088L12.6205 24.2722L12.9215 24.0088ZM13.0898 21.4711L12.8263 21.1701L12.8263 21.1702L13.0898 21.4711ZM17.7108 19.8175L18.0118 19.5541L17.7108 19.8175ZM21.356 23.9829L21.0549 24.2463C21.5634 24.8275 21.5043 25.7106 20.9229 26.2195L21.1863 26.5205L21.4497 26.8215C22.3633 26.022 22.4566 24.6335 21.657 23.7195L21.356 23.9829ZM21.1863 26.5205L20.9229 26.2195L18.8402 28.0421L19.1036 28.3431L19.367 28.6441L21.4497 26.8215L21.1863 26.5205ZM19.1036 28.3431L18.8402 28.042C18.259 28.5505 17.3764 28.4918 16.8676 27.9107L16.5667 28.1741L16.2657 28.4376C17.0654 29.3511 18.4532 29.4435 19.367 28.6442L19.1036 28.3431ZM16.5667 28.1741L16.8677 27.9107L13.2225 23.7453L12.9215 24.0088L12.6205 24.2722L16.2657 28.4376L16.5667 28.1741ZM12.9215 24.0088L13.2225 23.7453C12.7136 23.1639 12.7722 22.2808 13.3532 21.7721L13.0898 21.4711L12.8263 21.1702C11.9126 21.9701 11.8209 23.3586 12.6205 24.2722L12.9215 24.0088ZM13.0898 21.4711L13.3532 21.7721L15.4359 19.9495L15.1725 19.6485L14.909 19.3475L12.8263 21.1701L13.0898 21.4711ZM15.1725 19.6485L15.4359 19.9495C16.0172 19.4407 16.901 19.4996 17.4097 20.081L17.7108 19.8175L18.0118 19.5541C17.212 18.6403 15.8229 18.5477 14.909 19.3475L15.1725 19.6485ZM17.7108 19.8175L17.4097 20.081L21.055 24.2463L21.356 23.9829L21.657 23.7195L18.0118 19.5541L17.7108 19.8175Z" fill="url(#paint22_linear_9305_39451)" mask="url(#path-30-outside-4_9305_39451)"/>
</g>
<mask id="mask5_9305_39451" style="mask-type:alpha" maskUnits="userSpaceOnUse" x="12" y="19" width="10" height="10">
<path d="M15.481 19.921L13.3226 21.8099C12.7685 22.2949 12.7124 23.1372 13.1973 23.6914L16.9087 27.9323C17.3936 28.4865 18.236 28.5426 18.7901 28.0576L20.9485 26.1688C21.5027 25.6838 21.5588 24.8415 21.0738 24.2873L17.3625 20.0463C16.8775 19.4922 16.0352 19.4361 15.481 19.921Z" fill="url(#paint23_linear_9305_39451)" stroke="url(#paint24_linear_9305_39451)" stroke-width="0.8"/>
</mask>
<g mask="url(#mask5_9305_39451)">
<path d="M18.2381 24.383C16.5086 23.3664 15.6359 20.6502 15.1995 19.2921L14.1771 19.9304C14.1421 20.1852 14.2708 21.9684 15.4862 24.0047C16.7017 26.0411 19.2515 27.2094 20.1688 27.3354L21.6394 26.8366C20.8272 25.9461 20.9175 25.9579 18.2381 24.383Z" fill="url(#paint25_linear_9305_39451)"/>
<path d="M13.8493 24.8212L14.0095 24.2734C14.2037 23.6095 14.9969 23.3385 15.5567 23.7447L16.3498 24.3203C17.3498 24.3164 17.7498 25.1986 17.6264 26.0957L16.6059 26.8695L15.7088 26.7462L14.935 25.7257L13.8493 24.8212Z" fill="url(#paint26_linear_9305_39451)"/>
<path d="M14.9274 22.1885C15.157 23.8879 16.5534 26.2221 18.3445 27.6618C20.8476 29.6737 21.682 30.3443 21.9867 31.4981" stroke="#FFC800"/>
<path d="M14.0902 20.5498C14.2507 21.5065 15.3057 24.4554 16.8995 25.6092C18.4933 26.7629 19.3533 26.8811 20.2133 26.9993" stroke="url(#paint27_linear_9305_39451)" stroke-width="0.4"/>
<rect width="0.736368" height="0.83332" rx="0.368184" transform="matrix(0.990684 0.136179 -0.13621 0.99068 19.7384 24.873)" fill="#FFF3D7"/>
</g>
<rect x="17.4286" y="14.1924" width="4.57143" height="4.57143" rx="2.28571" fill="#857854"/>
<mask id="mask6_9305_39451" style="mask-type:alpha" maskUnits="userSpaceOnUse" x="17" y="14" width="6" height="5">
<rect x="17.4294" y="14.1934" width="4.57143" height="4.57143" rx="2.28571" fill="#857854"/>
</mask>
<g mask="url(#mask6_9305_39451)">
<path d="M22.0009 16.9628C22.0009 15.2966 20.858 15.2995 17.4294 16.9637C17.4294 18.0712 17.8866 20.2863 19.7152 20.2863C22.0009 20.2863 22.0009 18.6241 22.0009 16.9628Z" fill="#535728"/>
</g>
</g>
<defs>
<linearGradient id="paint0_linear_9305_39451" x1="37.1404" y1="14.7523" x2="28.8107" y2="22.0431" gradientUnits="userSpaceOnUse">
<stop stop-color="#5F5D3F"/>
<stop offset="1" stop-color="#293633"/>
</linearGradient>
<linearGradient id="paint1_linear_9305_39451" x1="37.1404" y1="14.7523" x2="28.8107" y2="22.0431" gradientUnits="userSpaceOnUse">
<stop stop-color="#5F5D3F"/>
<stop offset="1" stop-color="#293633"/>
</linearGradient>
<linearGradient id="paint2_linear_9305_39451" x1="36.4506" y1="15.3582" x2="30.8968" y2="20.2192" gradientUnits="userSpaceOnUse">
<stop stop-color="#706E52"/>
<stop offset="1" stop-color="#AA8A5A"/>
</linearGradient>
<linearGradient id="paint3_linear_9305_39451" x1="35.811" y1="13.5776" x2="29.4248" y2="19.1673" gradientUnits="userSpaceOnUse">
<stop stop-color="#5F5D3F"/>
<stop offset="1" stop-color="#293633"/>
</linearGradient>
<linearGradient id="paint4_linear_9305_39451" x1="36.4482" y1="15.3618" x2="30.8951" y2="20.2224" gradientUnits="userSpaceOnUse">
<stop stop-color="#706E52"/>
<stop offset="1" stop-color="#AA8A5A"/>
</linearGradient>
<linearGradient id="paint5_linear_9305_39451" x1="36.4482" y1="15.3618" x2="30.8951" y2="20.2224" gradientUnits="userSpaceOnUse">
<stop stop-color="#706E52"/>
<stop offset="1" stop-color="#AA8A5A"/>
</linearGradient>
<linearGradient id="paint6_linear_9305_39451" x1="31.9239" y1="11.4724" x2="30.9787" y2="18.3523" gradientUnits="userSpaceOnUse">
<stop stop-color="#FFC800"/>
<stop offset="1" stop-color="#FFC760"/>
</linearGradient>
<linearGradient id="paint7_linear_9305_39451" x1="31.0395" y1="12.7529" x2="30.2834" y2="18.2568" gradientUnits="userSpaceOnUse">
<stop stop-color="#FFF6B8"/>
<stop offset="1" stop-color="#FFC753"/>
</linearGradient>
<linearGradient id="paint8_linear_9305_39451" x1="32.5241" y1="12.1726" x2="31.9934" y2="16.0351" gradientUnits="userSpaceOnUse">
<stop stop-color="#FFFBDF"/>
<stop offset="1" stop-color="#FFE48B"/>
</linearGradient>
<linearGradient id="paint9_linear_9305_39451" x1="32.5773" y1="21.6176" x2="24.2476" y2="28.9083" gradientUnits="userSpaceOnUse">
<stop stop-color="#5F5D3F"/>
<stop offset="1" stop-color="#293633"/>
</linearGradient>
<linearGradient id="paint10_linear_9305_39451" x1="32.5773" y1="21.6176" x2="24.2476" y2="28.9083" gradientUnits="userSpaceOnUse">
<stop stop-color="#5F5D3F"/>
<stop offset="1" stop-color="#293633"/>
</linearGradient>
<linearGradient id="paint11_linear_9305_39451" x1="31.8813" y1="22.2265" x2="26.3284" y2="27.0868" gradientUnits="userSpaceOnUse">
<stop stop-color="#706E52"/>
<stop offset="1" stop-color="#AA8A5A"/>
</linearGradient>
<linearGradient id="paint12_linear_9305_39451" x1="31.2417" y1="20.446" x2="24.8564" y2="26.0348" gradientUnits="userSpaceOnUse">
<stop stop-color="#5F5D3F"/>
<stop offset="1" stop-color="#293633"/>
</linearGradient>
<linearGradient id="paint13_linear_9305_39451" x1="31.884" y1="22.2232" x2="26.3309" y2="27.0837" gradientUnits="userSpaceOnUse">
<stop stop-color="#706E52"/>
<stop offset="1" stop-color="#AA8A5A"/>
</linearGradient>
<linearGradient id="paint14_linear_9305_39451" x1="31.884" y1="22.2232" x2="26.3309" y2="27.0837" gradientUnits="userSpaceOnUse">
<stop stop-color="#706E52"/>
<stop offset="1" stop-color="#AA8A5A"/>
</linearGradient>
<linearGradient id="paint15_linear_9305_39451" x1="27.3567" y1="18.3269" x2="26.4114" y2="25.2068" gradientUnits="userSpaceOnUse">
<stop stop-color="#FFC800"/>
<stop offset="1" stop-color="#FFC760"/>
</linearGradient>
<linearGradient id="paint16_linear_9305_39451" x1="26.4723" y1="19.6123" x2="25.716" y2="25.1162" gradientUnits="userSpaceOnUse">
<stop stop-color="#FFF6B8"/>
<stop offset="1" stop-color="#FFC753"/>
</linearGradient>
<linearGradient id="paint17_linear_9305_39451" x1="25.2222" y1="21.7162" x2="24.7027" y2="25.4975" gradientUnits="userSpaceOnUse">
<stop stop-color="#FFFBDF"/>
<stop offset="1" stop-color="#FFE48B"/>
</linearGradient>
<linearGradient id="paint18_linear_9305_39451" x1="27.9158" y1="20.1211" x2="27.4216" y2="23.7178" gradientUnits="userSpaceOnUse">
<stop stop-color="#FFFBDF"/>
<stop offset="1" stop-color="#FFE48B"/>
</linearGradient>
<linearGradient id="paint19_linear_9305_39451" x1="23.6294" y1="23.0137" x2="15.2991" y2="30.3037" gradientUnits="userSpaceOnUse">
<stop stop-color="#5F5D3F"/>
<stop offset="1" stop-color="#293633"/>
</linearGradient>
<linearGradient id="paint20_linear_9305_39451" x1="23.6294" y1="23.0137" x2="15.2991" y2="30.3037" gradientUnits="userSpaceOnUse">
<stop stop-color="#5F5D3F"/>
<stop offset="1" stop-color="#293633"/>
</linearGradient>
<linearGradient id="paint21_linear_9305_39451" x1="22.9401" y1="23.6215" x2="17.3868" y2="28.4814" gradientUnits="userSpaceOnUse">
<stop stop-color="#706E52"/>
<stop offset="1" stop-color="#AA8A5A"/>
</linearGradient>
<linearGradient id="paint22_linear_9305_39451" x1="22.3006" y1="21.841" x2="15.9149" y2="27.4293" gradientUnits="userSpaceOnUse">
<stop stop-color="#5F5D3F"/>
<stop offset="1" stop-color="#293633"/>
</linearGradient>
<linearGradient id="paint23_linear_9305_39451" x1="22.9374" y1="23.6153" x2="17.3839" y2="28.4754" gradientUnits="userSpaceOnUse">
<stop stop-color="#706E52"/>
<stop offset="1" stop-color="#AA8A5A"/>
</linearGradient>
<linearGradient id="paint24_linear_9305_39451" x1="22.9374" y1="23.6153" x2="17.3839" y2="28.4754" gradientUnits="userSpaceOnUse">
<stop stop-color="#706E52"/>
<stop offset="1" stop-color="#AA8A5A"/>
</linearGradient>
<linearGradient id="paint25_linear_9305_39451" x1="18.4101" y1="19.7334" x2="17.4644" y2="26.6132" gradientUnits="userSpaceOnUse">
<stop stop-color="#FFC800"/>
<stop offset="1" stop-color="#FFC760"/>
</linearGradient>
<linearGradient id="paint26_linear_9305_39451" x1="16.2027" y1="23.1568" x2="15.7094" y2="26.7453" gradientUnits="userSpaceOnUse">
<stop stop-color="#FFFBDF"/>
<stop offset="1" stop-color="#FFE48B"/>
</linearGradient>
<linearGradient id="paint27_linear_9305_39451" x1="17.5301" y1="21.0226" x2="16.7736" y2="26.5265" gradientUnits="userSpaceOnUse">
<stop stop-color="#FFF6B8"/>
<stop offset="1" stop-color="#FFC753"/>
</linearGradient>
<clipPath id="clip0_9305_39451">
<rect width="32" height="32" fill="white" transform="translate(8 8)"/>
</clipPath>
</defs>
</svg>
