<svg width="32" height="32" viewBox="0 0 32 32" fill="none" xmlns="http://www.w3.org/2000/svg">
<g clip-path="url(#clip0_7319_27805)">
<rect width="32" height="32" rx="16" fill="#E3FAFF"/>
<circle cx="16.0817" cy="37.2018" r="13.7985" fill="#38DEFF"/>
<path d="M29.6097 38.9918L28.6578 38.848L29.6097 38.9918ZM29.442 40.1016L30.3938 40.2455L29.442 40.1016ZM29.0935 41.4257L29.9929 41.7689L29.0935 41.4257ZM28.6926 42.4761L29.592 42.8194L28.6926 42.4761ZM28.2917 43.5266L27.3922 43.1834L28.2917 43.5266ZM27.5609 44.6552L26.8804 43.9743L27.5609 44.6552ZM26.7696 45.4462L27.4501 46.1271L26.7696 45.4462ZM25.9782 46.2371L25.2977 45.5562L25.9782 46.2371ZM24.9848 47.1695L25.621 47.892L24.9848 47.1695ZM23.3259 48.6302L22.6898 47.9077L23.3259 48.6302ZM22.1673 49.2636L21.9029 48.3379L22.1673 49.2636ZM20.0453 49.8696L20.3097 50.7953L20.0453 49.8696ZM18.7358 50.1908L18.9295 51.1338L18.7358 50.1908ZM17.6602 50.4117L17.4665 49.4687L17.6602 50.4117ZM16.5846 50.6327L16.7783 51.5757L16.5846 50.6327ZM12.9309 50.8327L12.9101 49.8702L12.9309 50.8327ZM11.5922 50.5436L12.0076 49.6751L11.5922 50.5436ZM10.5542 50.0471L10.1389 50.9156L10.5542 50.0471ZM9.51618 49.5507L9.93153 48.6822L9.51618 49.5507ZM8.41467 48.7296L9.13015 48.0855L8.41467 48.7296ZM7.65549 47.8862L8.37097 47.2421L7.65549 47.8862ZM6.89631 47.0429L6.18083 47.687L6.89631 47.0429ZM5.97336 46.0195L5.25905 46.6649L5.97336 46.0195ZM3.73618 43.228L4.6132 42.831L3.73618 43.228ZM3.26933 42.1966L2.3923 42.5936L3.26933 42.1966ZM2.80247 41.1653L3.67949 40.7683L2.80247 41.1653ZM2.26158 37.5761L1.30244 37.6587L2.26158 37.5761ZM2.41523 35.0592L1.45907 34.9473L2.41523 35.0592ZM2.92286 32.6016L3.79617 33.0067L2.92286 32.6016ZM3.88295 30.5317L3.00963 30.1266L3.88295 30.5317ZM4.57868 29.315L3.78611 28.7686L4.57868 29.315ZM7.90813 25.916L7.43364 25.0784L7.90813 25.916ZM10.1773 24.7729L9.86087 23.8637L10.1773 24.7729ZM11.2401 24.4031L11.5565 25.3123L11.2401 24.4031ZM12.3028 24.0332L11.9864 23.124L12.3028 24.0332ZM17.2126 23.6472L17.463 22.7177L17.2126 23.6472ZM19.3576 24.225L19.1072 25.1546L19.3576 24.225ZM20.6407 24.6528L20.9987 23.7591L20.6407 24.6528ZM21.6615 25.0618L21.3035 25.9554L21.6615 25.0618ZM23.8118 26.1709L24.4528 25.4526L23.8118 26.1709ZM25.4556 27.6376L24.8146 28.3559L25.4556 27.6376ZM26.442 28.5858L25.7502 29.2553L26.442 28.5858ZM27.2295 29.3996L27.9213 28.7302L27.2295 29.3996ZM28.017 30.2134L27.3252 30.8829L28.017 30.2134ZM28.6042 31.3996L27.6524 31.5443L28.6042 31.3996ZM28.9453 33.6427L29.897 33.4979L28.9453 33.6427ZM29.1664 34.8757L28.2249 35.0768L29.1664 34.8757ZM29.3566 35.7659L28.4151 35.9671L29.3566 35.7659ZM29.5468 36.6562L30.4882 36.4551L29.5468 36.6562ZM29.7774 37.882L30.7293 38.0259L29.7774 37.882ZM29.6097 38.9918L28.6578 38.848L28.4901 39.9578L29.442 40.1016L30.3938 40.2455L30.5616 39.1357L29.6097 38.9918ZM29.442 40.1016L28.4901 39.9578C28.4319 40.343 28.3333 40.7175 28.194 41.0824L29.0935 41.4257L29.9929 41.7689C30.1812 41.2754 30.315 40.7672 30.3938 40.2455L29.442 40.1016ZM29.0935 41.4257L28.194 41.0824L27.7931 42.1329L28.6926 42.4761L29.592 42.8194L29.9929 41.7689L29.0935 41.4257ZM28.6926 42.4761L27.7931 42.1329L27.3922 43.1834L28.2917 43.5266L29.1911 43.8699L29.592 42.8194L28.6926 42.4761ZM28.2917 43.5266L27.3922 43.1834C27.2765 43.4865 27.1073 43.7475 26.8804 43.9743L27.5609 44.6552L28.2415 45.3361C28.6612 44.9166 28.9791 44.4252 29.1911 43.8699L28.2917 43.5266ZM27.5609 44.6552L26.8804 43.9743L26.089 44.7653L26.7696 45.4462L27.4501 46.1271L28.2415 45.3361L27.5609 44.6552ZM26.7696 45.4462L26.089 44.7653L25.2977 45.5562L25.9782 46.2371L26.6588 46.918L27.4501 46.1271L26.7696 45.4462ZM25.9782 46.2371L25.2977 45.5562C24.9885 45.8652 24.6722 46.1622 24.3486 46.447L24.9848 47.1695L25.621 47.892C25.9753 47.58 26.3213 47.2554 26.6588 46.918L25.9782 46.2371ZM24.9848 47.1695L24.3486 46.447L23.5192 47.1773L24.1554 47.8999L24.7916 48.6224L25.621 47.892L24.9848 47.1695ZM24.1554 47.8999L23.5192 47.1773L22.6898 47.9077L23.3259 48.6302L23.9621 49.3527L24.7916 48.6224L24.1554 47.8999ZM23.3259 48.6302L22.6898 47.9077C22.458 48.1118 22.1987 48.2534 21.9029 48.3379L22.1673 49.2636L22.4317 50.1892C23.0029 50.0261 23.5161 49.7455 23.9621 49.3527L23.3259 48.6302ZM22.1673 49.2636L21.9029 48.3379L20.8419 48.6409L21.1063 49.5666L21.3707 50.4923L22.4317 50.1892L22.1673 49.2636ZM21.1063 49.5666L20.8419 48.6409L19.7809 48.944L20.0453 49.8696L20.3097 50.7953L21.3707 50.4923L21.1063 49.5666ZM20.0453 49.8696L19.7809 48.944C19.3706 49.0611 18.9577 49.1624 18.5421 49.2478L18.7358 50.1908L18.9295 51.1338C19.3929 51.0386 19.8529 50.9257 20.3097 50.7953L20.0453 49.8696ZM18.7358 50.1908L18.5421 49.2478L17.4665 49.4687L17.6602 50.4117L17.8539 51.3547L18.9295 51.1338L18.7358 50.1908ZM17.6602 50.4117L17.4665 49.4687L16.3909 49.6897L16.5846 50.6327L16.7783 51.5757L17.8539 51.3547L17.6602 50.4117ZM16.5846 50.6327L16.3909 49.6897C16.0108 49.7678 15.6149 49.8119 15.2022 49.8208L15.223 50.7833L15.2437 51.7457C15.7676 51.7344 16.2795 51.6782 16.7783 51.5757L16.5846 50.6327ZM15.223 50.7833L15.2022 49.8208L14.0562 49.8455L14.0769 50.808L14.0977 51.7704L15.2437 51.7457L15.223 50.7833ZM14.0769 50.808L14.0562 49.8455L12.9101 49.8702L12.9309 50.8327L12.9516 51.7952L14.0977 51.7704L14.0769 50.808ZM12.9309 50.8327L12.9101 49.8702C12.5932 49.8771 12.2963 49.8132 12.0076 49.6751L11.5922 50.5436L11.1769 51.412C11.7365 51.6797 12.332 51.8085 12.9516 51.7952L12.9309 50.8327ZM11.5922 50.5436L12.0076 49.6751L10.9696 49.1787L10.5542 50.0471L10.1389 50.9156L11.1769 51.412L11.5922 50.5436ZM10.5542 50.0471L10.9696 49.1787L9.93153 48.6822L9.51618 49.5507L9.10083 50.4192L10.1389 50.9156L10.5542 50.0471ZM9.51618 49.5507L9.93153 48.6822C9.61952 48.533 9.35476 48.335 9.13015 48.0855L8.41467 48.7296L7.69919 49.3736C8.09498 49.8133 8.56455 50.1627 9.10083 50.4192L9.51618 49.5507ZM8.41467 48.7296L9.13015 48.0855L8.37097 47.2421L7.65549 47.8862L6.94001 48.5303L7.69919 49.3736L8.41467 48.7296ZM7.65549 47.8862L8.37097 47.2421L7.61179 46.3988L6.89631 47.0429L6.18083 47.687L6.94001 48.5303L7.65549 47.8862ZM6.89631 47.0429L7.61179 46.3988C7.30121 46.0538 6.99316 45.7122 6.68766 45.3741L5.97336 46.0195L5.25905 46.6649C5.56375 47.0022 5.87101 47.3428 6.18083 47.687L6.89631 47.0429ZM5.97336 46.0195L6.68766 45.3741L5.94097 44.5477L5.22667 45.1931L4.51236 45.8385L5.25905 46.6649L5.97336 46.0195ZM5.22667 45.1931L5.94097 44.5477L5.19428 43.7213L4.47997 44.3667L3.76567 45.0121L4.51236 45.8385L5.22667 45.1931ZM4.47997 44.3667L5.19428 43.7213C4.95704 43.4587 4.76358 43.1633 4.6132 42.831L3.73618 43.228L2.85916 43.625C3.0903 44.1356 3.3927 44.5993 3.76567 45.0121L4.47997 44.3667ZM3.73618 43.228L4.6132 42.831L4.14635 41.7997L3.26933 42.1966L2.3923 42.5936L2.85916 43.625L3.73618 43.228ZM3.26933 42.1966L4.14635 41.7997L3.67949 40.7683L2.80247 41.1653L1.92545 41.5622L2.3923 42.5936L3.26933 42.1966ZM2.80247 41.1653L3.67949 40.7683C3.53387 40.4466 3.44621 40.111 3.41571 39.7569L2.45657 39.8395L1.49744 39.9221C1.54661 40.4929 1.68955 41.0411 1.92545 41.5622L2.80247 41.1653ZM2.45657 39.8395L3.41571 39.7569L3.31821 38.6252L2.35908 38.7078L1.39994 38.7904L1.49744 39.9221L2.45657 39.8395ZM2.35908 38.7078L3.31821 38.6252L3.22071 37.4935L2.26158 37.5761L1.30244 37.6587L1.39994 38.7904L2.35908 38.7078ZM2.26158 37.5761L3.22071 37.4935C3.18646 37.0959 3.19255 36.699 3.23907 36.3015L2.28291 36.1896L1.32676 36.0777C1.26515 36.604 1.25701 37.1314 1.30244 37.6587L2.26158 37.5761ZM2.28291 36.1896L3.23907 36.3015L3.37139 35.1711L2.41523 35.0592L1.45907 34.9473L1.32676 36.0777L2.28291 36.1896ZM2.41523 35.0592L3.37139 35.1711L3.5037 34.0407L2.54754 33.9288L1.59138 33.8169L1.45907 34.9473L2.41523 35.0592ZM2.54754 33.9288L3.5037 34.0407C3.54585 33.6806 3.64292 33.3371 3.79617 33.0067L2.92286 32.6016L2.04954 32.1965C1.8105 32.7119 1.65735 33.2532 1.59138 33.8169L2.54754 33.9288ZM2.92286 32.6016L3.79617 33.0067L4.27622 31.9717L3.4029 31.5667L2.52959 31.1616L2.04954 32.1965L2.92286 32.6016ZM3.4029 31.5667L4.27622 31.9717L4.75627 30.9368L3.88295 30.5317L3.00963 30.1266L2.52959 31.1616L3.4029 31.5667ZM3.88295 30.5317L4.75627 30.9368C4.92928 30.5638 5.13407 30.2054 5.37124 29.8615L4.57868 29.315L3.78611 28.7686C3.48794 29.201 3.22892 29.6538 3.00963 30.1266L3.88295 30.5317ZM4.57868 29.315L5.37124 29.8615L6.02632 28.9113L5.23376 28.3649L4.4412 27.8184L3.78611 28.7686L4.57868 29.315ZM5.23376 28.3649L6.02632 28.9113L6.68141 27.9612L5.88885 27.4148L5.09628 26.8683L4.4412 27.8184L5.23376 28.3649ZM5.88885 27.4148L6.68141 27.9612C6.86653 27.6927 7.09658 27.4822 7.37959 27.3218L6.90511 26.4842L6.43062 25.6466C5.89395 25.9506 5.4465 26.3604 5.09628 26.8683L5.88885 27.4148ZM6.90511 26.4842L7.37959 27.3218L8.38262 26.7537L7.90813 25.916L7.43364 25.0784L6.43062 25.6466L6.90511 26.4842ZM7.90813 25.916L8.38262 26.7537L9.38564 26.1855L8.91115 25.3479L8.43666 24.5102L7.43364 25.0784L7.90813 25.916ZM8.91115 25.3479L9.38564 26.1855C9.74628 25.9812 10.1155 25.8138 10.4937 25.6821L10.1773 24.7729L9.86087 23.8637C9.37056 24.0344 8.8957 24.2502 8.43666 24.5102L8.91115 25.3479ZM10.1773 24.7729L10.4937 25.6821L11.5565 25.3123L11.2401 24.4031L10.9236 23.4939L9.86087 23.8637L10.1773 24.7729ZM11.2401 24.4031L11.5565 25.3123L12.6193 24.9424L12.3028 24.0332L11.9864 23.124L10.9236 23.4939L11.2401 24.4031ZM12.3028 24.0332L12.6193 24.9424C12.9804 24.8167 13.3494 24.7365 13.7279 24.7011L13.6384 23.7426L13.5489 22.7841C13.0151 22.834 12.4938 22.9474 11.9864 23.124L12.3028 24.0332ZM13.6384 23.7426L13.7279 24.7011L14.8443 24.5969L14.7547 23.6383L14.6652 22.6798L13.5489 22.7841L13.6384 23.7426ZM14.7547 23.6383L14.8443 24.5969L15.9606 24.4926L15.871 23.5341L15.7815 22.5756L14.6652 22.6798L14.7547 23.6383ZM15.871 23.5341L15.9606 24.4926C16.3037 24.4605 16.6357 24.4888 16.9622 24.5768L17.2126 23.6472L17.463 22.7177C16.913 22.5695 16.3507 22.5224 15.7815 22.5756L15.871 23.5341ZM17.2126 23.6472L16.9622 24.5768L18.0347 24.8657L18.2851 23.9361L18.5355 23.0066L17.463 22.7177L17.2126 23.6472ZM18.2851 23.9361L18.0347 24.8657L19.1072 25.1546L19.3576 24.225L19.608 23.2955L18.5355 23.0066L18.2851 23.9361ZM19.3576 24.225L19.1072 25.1546C19.5093 25.2629 19.901 25.3935 20.2826 25.5464L20.6407 24.6528L20.9987 23.7591C20.546 23.5778 20.0824 23.4233 19.608 23.2955L19.3576 24.225ZM20.6407 24.6528L20.2826 25.5464L21.3035 25.9554L21.6615 25.0618L22.0195 24.1681L20.9987 23.7591L20.6407 24.6528ZM21.6615 25.0618L21.3035 25.9554L22.3244 26.3644L22.6824 25.4707L23.0404 24.5771L22.0195 24.1681L21.6615 25.0618ZM22.6824 25.4707L22.3244 26.3644C22.6376 26.4898 22.9183 26.6638 23.1709 26.8892L23.8118 26.1709L24.4528 25.4526C24.0337 25.0786 23.5615 24.7858 23.0404 24.5771L22.6824 25.4707ZM23.8118 26.1709L23.1709 26.8892L23.9927 27.6225L24.6337 26.9042L25.2746 26.1859L24.4528 25.4526L23.8118 26.1709ZM24.6337 26.9042L23.9927 27.6225L24.8146 28.3559L25.4556 27.6376L26.0965 26.9193L25.2746 26.1859L24.6337 26.9042ZM25.4556 27.6376L24.8146 28.3559C25.1324 28.6395 25.4443 28.9392 25.7502 29.2553L26.442 28.5858L27.1337 27.9164C26.7961 27.5674 26.4503 27.235 26.0965 26.9193L25.4556 27.6376ZM26.442 28.5858L25.7502 29.2553L26.5377 30.0691L27.2295 29.3996L27.9213 28.7302L27.1337 27.9164L26.442 28.5858ZM27.2295 29.3996L26.5377 30.0691L27.3252 30.8829L28.017 30.2134L28.7088 29.5439L27.9213 28.7302L27.2295 29.3996ZM28.017 30.2134L27.3252 30.8829C27.5076 31.0714 27.6127 31.2833 27.6524 31.5443L28.6042 31.3996L29.5559 31.2548C29.4562 30.5993 29.1698 30.0204 28.7088 29.5439L28.017 30.2134ZM28.6042 31.3996L27.6524 31.5443L27.823 32.6658L28.7747 32.5211L29.7265 32.3764L29.5559 31.2548L28.6042 31.3996ZM28.7747 32.5211L27.823 32.6658L27.9935 33.7874L28.9453 33.6427L29.897 33.4979L29.7265 32.3764L28.7747 32.5211ZM28.9453 33.6427L27.9935 33.7874C28.0654 34.2602 28.1424 34.6905 28.2249 35.0768L29.1664 34.8757L30.1078 34.6746C30.0349 34.3334 29.9645 33.9417 29.897 33.4979L28.9453 33.6427ZM29.1664 34.8757L28.2249 35.0768L28.4151 35.9671L29.3566 35.7659L30.298 35.5648L30.1078 34.6746L29.1664 34.8757ZM29.3566 35.7659L28.4151 35.9671L28.6053 36.8573L29.5468 36.6562L30.4882 36.4551L30.298 35.5648L29.3566 35.7659ZM29.5468 36.6562L28.6053 36.8573C28.6453 37.0446 28.6836 37.2081 28.7197 37.3328C28.7361 37.3897 28.7618 37.4731 28.7981 37.5556C28.8139 37.5914 28.8525 37.6761 28.9201 37.7671C28.9539 37.8127 29.0203 37.8947 29.1251 37.9725C29.23 38.0505 29.4294 38.1645 29.7045 38.1645V37.2018V36.2391C29.9762 36.2391 30.172 36.3517 30.2731 36.4268C30.374 36.5018 30.4364 36.5796 30.466 36.6195C30.5251 36.6991 30.5546 36.7668 30.5603 36.7799C30.5766 36.8169 30.5791 36.8321 30.5693 36.798C30.5528 36.7409 30.5259 36.6315 30.4882 36.4551L29.5468 36.6562ZM29.7045 37.2018V38.1645H29.7718V37.2018V36.2391H29.7045V37.2018ZM29.7718 37.2018V38.1645H29.839V37.2018V36.2391H29.7718V37.2018ZM29.839 37.2018V38.1645C29.454 38.1645 29.1983 37.9469 29.0762 37.7858C28.9705 37.6462 28.9314 37.5137 28.9183 37.4659C28.8896 37.3605 28.8885 37.2791 28.8884 37.2738C28.8874 37.2417 28.8898 37.2367 28.8854 37.2851C28.8779 37.3687 28.8592 37.5155 28.8255 37.7382L29.7774 37.882L30.7293 38.0259C30.7642 37.7951 30.79 37.6018 30.803 37.4587C30.8089 37.3937 30.8156 37.3037 30.8128 37.2149C30.8118 37.1812 30.8084 37.0786 30.7758 36.959C30.7608 36.9041 30.7194 36.7663 30.6109 36.6231C30.4862 36.4585 30.2274 36.2391 29.839 36.2391V37.2018ZM29.7774 37.882L28.8255 37.7382L28.6578 38.848L29.6097 38.9918L30.5616 39.1357L30.7293 38.0259L29.7774 37.882Z" fill="#38DEFF"/>
<circle cx="16.0835" cy="13.1343" r="5.13433" fill="#38DEFF"/>
<path d="M20.315 15.9258L19.3991 15.6295L20.315 15.9258ZM18.4944 17.4521L18.0359 16.6056L18.4944 17.4521ZM17.4969 17.9924L17.9555 18.8389L17.4969 17.9924ZM16.1939 18.2067L16.0334 19.1559L16.1939 18.2067ZM15.0654 18.0159L15.2259 17.0666L15.0654 18.0159ZM13.9369 17.825L13.7764 18.7743L13.9369 17.825ZM12.8696 17.1288L13.6774 16.6051L12.8696 17.1288ZM11.644 15.2386L10.8363 15.7624L11.644 15.2386ZM13.5042 9.32097L12.8529 8.61201L13.5042 9.32097ZM18.0323 8.2582L17.5131 9.06889L18.0323 8.2582ZM20.0272 9.53571L19.508 10.3464L20.0272 9.53571ZM20.6705 10.5366L21.6318 10.4861L20.6705 10.5366ZM20.7747 12.525L19.8134 12.5754L20.7747 12.525ZM21.0061 13.7891L21.9221 14.0854L21.0061 13.7891ZM20.6606 14.8574L19.7446 14.5612L19.3991 15.6295L20.315 15.9258L21.231 16.222L21.5765 15.1537L20.6606 14.8574ZM20.315 15.9258L19.3991 15.6295C19.3349 15.828 19.226 15.9609 19.0334 16.0653L19.4919 16.9117L19.9505 17.7582C20.573 17.4209 21.0128 16.8966 21.231 16.222L20.315 15.9258ZM19.4919 16.9117L19.0334 16.0653L18.0359 16.6056L18.4944 17.4521L18.953 18.2985L19.9505 17.7582L19.4919 16.9117ZM18.4944 17.4521L18.0359 16.6056L17.0384 17.146L17.4969 17.9924L17.9555 18.8389L18.953 18.2985L18.4944 17.4521ZM17.4969 17.9924L17.0384 17.146C16.8217 17.2633 16.6055 17.2999 16.3544 17.2575L16.1939 18.2067L16.0334 19.1559C16.7045 19.2694 17.357 19.1631 17.9555 18.8389L17.4969 17.9924ZM16.1939 18.2067L16.3544 17.2575L15.2259 17.0666L15.0654 18.0159L14.9049 18.9651L16.0334 19.1559L16.1939 18.2067ZM15.0654 18.0159L15.2259 17.0666L14.0974 16.8758L13.9369 17.825L13.7764 18.7743L14.9049 18.9651L15.0654 18.0159ZM13.9369 17.825L14.0974 16.8758C13.8972 16.842 13.7785 16.761 13.6774 16.6051L12.8696 17.1288L12.0619 17.6526C12.4616 18.2691 13.0544 18.6522 13.7764 18.7743L13.9369 17.825ZM12.8696 17.1288L13.6774 16.6051L13.0646 15.66L12.2568 16.1837L11.4491 16.7075L12.0619 17.6526L12.8696 17.1288ZM12.2568 16.1837L13.0646 15.66L12.4518 14.7149L11.644 15.2386L10.8363 15.7624L11.4491 16.7075L12.2568 16.1837ZM11.644 15.2386L12.4518 14.7149C12.3084 14.4939 12.256 14.2833 12.27 14.057L11.3091 13.9979L10.3482 13.9389C10.3079 14.5945 10.4788 15.211 10.8363 15.7624L11.644 15.2386ZM11.3091 13.9979L12.27 14.057L12.3363 12.9779L11.3754 12.9188L10.4146 12.8597L10.3482 13.9389L11.3091 13.9979ZM11.3754 12.9188L12.3363 12.9779L12.4027 11.8987L11.4418 11.8396L10.4809 11.7805L10.4146 12.8597L11.3754 12.9188ZM11.4418 11.8396L12.4027 11.8987C12.415 11.6982 12.481 11.5681 12.608 11.4515L11.9567 10.7425L11.3054 10.0336C10.8001 10.4978 10.5228 11.0991 10.4809 11.7805L11.4418 11.8396ZM11.9567 10.7425L12.608 11.4515L13.3817 10.7407L12.7304 10.0318L12.0792 9.3228L11.3054 10.0336L11.9567 10.7425ZM12.7304 10.0318L13.3817 10.7407L14.1555 10.0299L13.5042 9.32097L12.8529 8.61201L12.0792 9.3228L12.7304 10.0318ZM13.5042 9.32097L14.1555 10.0299C14.3572 9.84463 14.6018 9.70483 14.9056 9.61491L14.6325 8.69178L14.3594 7.76866C13.7911 7.93679 13.2835 8.21645 12.8529 8.61201L13.5042 9.32097ZM14.6325 8.69178L14.9056 9.61491L15.9728 9.29914L15.6997 8.37601L15.4266 7.45289L14.3594 7.76866L14.6325 8.69178ZM15.6997 8.37601L15.9728 9.29914L17.04 8.98336L16.7669 8.06024L16.4938 7.13712L15.4266 7.45289L15.6997 8.37601ZM16.7669 8.06024L17.04 8.98336C17.1892 8.93921 17.3237 8.94758 17.5131 9.06889L18.0323 8.2582L18.5515 7.4475C17.9258 7.04682 17.2167 6.92321 16.4938 7.13712L16.7669 8.06024ZM18.0323 8.2582L17.5131 9.06889L18.5106 9.70765L19.0297 8.89695L19.5489 8.08626L18.5515 7.4475L18.0323 8.2582ZM19.0297 8.89695L18.5106 9.70765L19.508 10.3464L20.0272 9.53571L20.5463 8.72501L19.5489 8.08626L19.0297 8.89695ZM20.0272 9.53571L19.508 10.3464C19.7106 10.4761 19.7072 10.5519 19.7091 10.587L20.6705 10.5366L21.6318 10.4861C21.5911 9.70875 21.1589 9.11727 20.5463 8.72501L20.0272 9.53571ZM20.6705 10.5366L19.7091 10.587L19.7612 11.5812L20.7226 11.5308L21.684 11.4803L21.6318 10.4861L20.6705 10.5366ZM20.7226 11.5308L19.7612 11.5812L19.8134 12.5754L20.7747 12.525L21.7361 12.4746L21.684 11.4803L20.7226 11.5308ZM20.7747 12.525L19.8134 12.5754C19.8245 12.7881 19.8414 12.9898 19.8709 13.1531C19.884 13.226 19.9099 13.3522 19.9665 13.4818C19.9939 13.5444 20.0534 13.6672 20.168 13.7878C20.2907 13.917 20.5329 14.097 20.8848 14.097V13.1343V12.1716C21.2237 12.1716 21.4533 12.3453 21.564 12.4618C21.6665 12.5697 21.7145 12.6735 21.7307 12.7107C21.7652 12.7895 21.7708 12.8395 21.7656 12.8108C21.7584 12.7711 21.7462 12.6681 21.7361 12.4746L20.7747 12.525ZM20.8848 13.1343V14.097H21.0123V13.1343V12.1716H20.8848V13.1343ZM21.0123 13.1343V14.097H21.1397V13.1343V12.1716H21.0123V13.1343ZM21.1397 13.1343V14.097C20.9649 14.097 20.7756 14.0479 20.606 13.9322C20.4446 13.8222 20.3503 13.6858 20.2978 13.5831C20.2047 13.4013 20.1997 13.2424 20.1986 13.2085C20.1954 13.1166 20.2104 13.0651 20.2022 13.1055C20.1911 13.1595 20.1587 13.2809 20.0901 13.4929L21.0061 13.7891L21.9221 14.0854C21.9947 13.8608 22.0551 13.6548 22.0886 13.4905C22.1027 13.4218 22.1279 13.2884 22.1228 13.142C22.1207 13.0808 22.1118 12.9015 22.0117 12.706C21.9557 12.5965 21.8571 12.455 21.6908 12.3415C21.5162 12.2225 21.3211 12.1716 21.1397 12.1716V13.1343ZM21.0061 13.7891L20.0901 13.4929L19.7446 14.5612L20.6606 14.8574L21.5765 15.1537L21.9221 14.0854L21.0061 13.7891Z" fill="#38DEFF"/>
</g>
<defs>
<clipPath id="clip0_7319_27805">
<rect width="32" height="32" rx="16" fill="white"/>
</clipPath>
</defs>
</svg>
