<svg width="40" height="40" viewBox="0 0 40 40" fill="none" xmlns="http://www.w3.org/2000/svg">
<g clip-path="url(#clip0_434_3535)">
<path d="M17 28.75C13.4375 28.3333 5 25 5 25H20.9375H35C35 25 27.5 28.3333 24 28.75V30H20H17V28.75Z" fill="#171D29" stroke="black" stroke-width="1.66667"/>
<path d="M19.9996 22.4996C23.646 22.4996 26.9256 22.7781 29.274 23.2184C30.4551 23.4398 31.3593 23.6948 31.9479 23.9557C32.1223 24.033 32.252 24.1057 32.3473 24.1666C32.252 24.2276 32.1223 24.3002 31.9479 24.3776C31.3593 24.6385 30.4551 24.8934 29.274 25.1149C26.9256 25.5552 23.646 25.8336 19.9996 25.8336C16.3532 25.8336 13.0736 25.5552 10.7252 25.1149C9.54433 24.8934 8.6409 24.6384 8.05237 24.3776C7.87714 24.2999 7.7464 24.2278 7.651 24.1666C7.7464 24.1055 7.87714 24.0334 8.05237 23.9557C8.6409 23.6948 9.54433 23.4398 10.7252 23.2184C13.0736 22.7781 16.3532 22.4997 19.9996 22.4996Z" fill="#171D29" stroke="#171D29" stroke-width="1.66667"/>
<path d="M7.07587 19.8186C8.92427 18.9584 14.4701 18.9584 20.0158 18.9584C25.5614 18.9584 31.1072 18.9584 32.9556 19.8186C34.8041 20.6788 33.8797 24.1197 32.9556 24.9799C32.0316 25.8401 8.92443 25.8401 7.07587 24.9799C5.22731 24.1197 5.22746 20.6788 7.07587 19.8186Z" fill="#C6C1A7" stroke="#383F20"/>
<path d="M8.36987 13.1783C9.88151 11.8431 11.9593 11.6971 14.1306 11.8307C15.2246 11.898 16.391 12.0417 17.5583 12.1647C18.7347 12.2886 19.9267 12.3942 21.1111 12.3942C23.5287 12.3942 25.9734 12.3939 28.0164 12.5533C29.0385 12.6331 29.9753 12.7536 30.7673 12.9391C31.5499 13.1224 32.2394 13.3797 32.7283 13.7614C33.2332 14.1556 33.6324 14.814 33.9167 15.5367C34.2058 16.2716 34.3983 17.1292 34.4558 17.9791C34.513 18.8259 34.4375 19.6953 34.1638 20.441C33.8882 21.1918 33.3982 21.8475 32.6179 22.1823C32.231 22.3482 31.6179 22.4546 30.8992 22.5309C30.1618 22.6091 29.2522 22.6604 28.2332 22.691C26.1939 22.7524 23.6863 22.7322 21.1794 22.6744C16.1639 22.5588 11.1227 22.2929 9.77417 22.2223C8.91217 22.177 8.21351 21.6905 7.71167 21.0221C7.21184 20.3564 6.88125 19.4813 6.73413 18.5573C6.44271 16.7266 6.8503 14.5206 8.36987 13.1783Z" fill="#EDEADB" stroke="#383F20"/>
<mask id="mask0_434_3535" style="mask-type:alpha" maskUnits="userSpaceOnUse" x="7" y="12" width="27" height="11">
<path d="M9.36304 14.3033C10.3857 13.4001 11.9036 13.1974 14.0388 13.3287C15.0894 13.3934 16.1967 13.529 17.4011 13.6559C18.588 13.7809 19.8445 13.8942 21.1111 13.8942C23.5459 13.8942 25.9266 13.8945 27.8992 14.0485C28.8842 14.1254 29.7376 14.2379 30.4255 14.399C31.1324 14.5646 31.5714 14.7603 31.8054 14.943C32.0071 15.1004 32.2802 15.4753 32.5203 16.0856C32.751 16.6721 32.9122 17.378 32.9597 18.0797C33.0076 18.7876 32.9357 19.4326 32.7556 19.9235C32.5792 20.404 32.3265 20.6745 32.0261 20.8033C31.8693 20.8706 31.4625 20.9631 30.741 21.0397C30.0568 21.1123 29.1892 21.1619 28.1882 21.192C26.1882 21.2522 23.7118 21.233 21.2146 21.1754C16.2234 21.0604 11.2021 20.7949 9.85327 20.7242C9.55491 20.7086 9.2286 20.5434 8.91187 20.1217C8.59085 19.6941 8.33369 19.0629 8.21558 18.3209C7.97392 16.8021 8.35659 15.1926 9.36304 14.3033Z" fill="#EDEADB" stroke="#E7FF86" stroke-width="2"/>
</mask>
<g mask="url(#mask0_434_3535)">
<path d="M7.7779 13.5536C10.548 10.7835 16.0096 12.8938 20.9276 12.8938C25.8456 12.8938 30.7637 12.8938 32.4029 14.1551C34.0421 15.4164 34.8671 20.658 32.4029 21.7227C29.9388 22.7874 12.1892 21.864 9.45226 21.7227C6.71532 21.5815 5.00781 16.3237 7.7779 13.5536Z" fill="#FFF9DD"/>
<path d="M7.7779 13.5536C10.548 10.7835 16.0096 12.8938 20.9276 12.8938C25.8456 12.8938 30.7637 12.8938 32.4029 14.1551C34.0421 15.4164 34.8671 20.658 32.4029 21.7227C29.9388 22.7874 12.1892 21.864 9.45226 21.7227C6.71532 21.5815 5.00781 16.3237 7.7779 13.5536Z" fill="#8D8D8D" fill-opacity="0.2"/>
<path d="M11.3896 13.017C11.9771 13.0171 12.6523 13.3793 13.5342 14.2611C13.5148 14.2417 13.5543 14.2753 13.6162 14.4301C13.6735 14.5732 13.7305 14.7702 13.7803 15.0189C13.8798 15.5167 13.9346 16.1419 13.9346 16.7855C13.9346 17.4291 13.8798 18.0535 13.7803 18.5511C13.7305 18.8002 13.6735 18.9978 13.6162 19.141C13.5546 19.2951 13.5153 19.3289 13.5342 19.3099C13.1955 19.6486 12.9492 20.1036 12.8096 20.3304C12.6384 20.6085 12.5078 20.7793 12.3359 20.9047C12.0322 21.1261 11.2541 21.4409 8.93164 20.891C7.79027 20.6207 7.25967 20.3215 7.02637 20.1019C6.86155 19.9468 6.82354 19.8202 6.8457 19.5961C6.87647 19.2854 7.01919 18.9102 7.25098 18.3412C7.45786 17.8333 7.7364 17.1676 7.84277 16.476C7.95621 15.7379 8.60337 14.8615 9.51074 14.1097C9.94243 13.7521 10.387 13.4625 10.7646 13.267C11.1838 13.0499 11.3897 13.0175 11.3896 13.017Z" fill="#C6C1A7" stroke="url(#paint0_linear_434_3535)" stroke-width="2"/>
<path d="M11.5 11.5C13.5 12 14.5 13 15 14.5C15.3536 15.5607 15.5 17.5 15 19C14.5 20.5 13.5 22.5 11 22.5" stroke="#F2EFD8"/>
</g>
<circle cx="9.85616" cy="14.7917" r="0.833333" fill="#F8FFE9"/>
<circle cx="9.85616" cy="19.7917" r="0.833333" fill="#F8FFE9"/>
<circle cx="12" cy="17" r="1" fill="#9AB99C"/>
</g>
<defs>
<linearGradient id="paint0_linear_434_3535" x1="17.9349" y1="20.0171" x2="12.3947" y2="15.4003" gradientUnits="userSpaceOnUse">
<stop stop-color="#C6C1A7"/>
</linearGradient>
<clipPath id="clip0_434_3535">
<rect width="40" height="40" fill="white"/>
</clipPath>
</defs>
</svg>
