<svg width="40" height="40" viewBox="0 0 40 40" fill="none" xmlns="http://www.w3.org/2000/svg">
<g clip-path="url(#clip0_434_3630)">
<g clip-path="url(#clip1_434_3630)">
<path d="M36.1605 16.2882C36.1288 16.7624 36.0646 17.4425 35.9369 18.2599C35.681 19.8975 35.1707 22.0737 34.1537 24.2433C33.1373 26.4116 31.6215 28.5613 29.3607 30.1691C27.1044 31.7735 24.0772 32.8585 20.0004 32.8585C15.9235 32.8585 12.8963 31.7735 10.64 30.1691C8.37922 28.5614 6.86349 26.4116 5.84705 24.2433C4.83007 22.0737 4.31875 19.8975 4.06287 18.2599C3.93517 17.4426 3.87099 16.7624 3.83923 16.2882C3.83809 16.2711 3.83737 16.254 3.8363 16.2374L19.8412 21.923L20.0004 21.9796L20.1586 21.923L36.1625 16.2374C36.1614 16.254 36.1617 16.2711 36.1605 16.2882Z" fill="#171D29" stroke="#333C4A" stroke-width="0.949516"/>
<path d="M20 23.1114C10.7833 23.1114 4.59998 19.2002 4.59998 15.5558C4.59998 11.9114 10.7833 8.00024 20 8.00024C29.2166 8.00024 35.4166 11.9114 35.4166 15.5558C35.4166 19.2002 29.2166 23.1114 20 23.1114Z" fill="url(#paint0_linear_434_3630)"/>
<path d="M20 9.33329C28.65 9.33329 34.1667 13.0133 34.1667 15.5555C34.1667 18.0977 28.65 21.7777 20 21.7777C11.35 21.7777 5.85004 18.0977 5.85004 15.5555C5.85004 13.0133 11.3667 9.33329 20 9.33329ZM20 6.66663C10.8 6.66663 3.33337 10.6488 3.33337 15.5555C3.33337 20.4622 10.8 24.4444 20 24.4444C29.2 24.4444 36.6667 20.4622 36.6667 15.5555C36.6667 10.6488 29.2 6.66663 20 6.66663Z" fill="#171D29"/>
<circle cx="9.16671" cy="15.8333" r="0.833333" fill="#DCE4CA"/>
<circle cx="27.5" cy="15.8333" r="0.833333" fill="#DCE4CA"/>
<circle cx="22.5" cy="12.5" r="0.833333" fill="#DCE4CA"/>
<circle cx="22.5" cy="19.1667" r="0.833333" fill="#DCE4CA"/>
<circle cx="15.8333" cy="19.1667" r="0.833333" fill="#DCE4CA"/>
<ellipse cx="13.5259" cy="18.0794" rx="1.66667" ry="0.833333" transform="rotate(-22.7353 13.5259 18.0794)" fill="black"/>
<ellipse cx="11.8393" cy="12.9591" rx="1.66667" ry="0.833333" transform="rotate(17.3528 11.8393 12.9591)" fill="black"/>
<ellipse cx="25.1933" cy="16.555" rx="1.66667" ry="0.833333" transform="rotate(30 25.1933 16.555)" fill="black"/>
<ellipse cx="28.4922" cy="12.9029" rx="1.66667" ry="0.833333" transform="rotate(-15 28.4922 12.9029)" fill="black"/>
<ellipse cx="20" cy="15" rx="3.33333" ry="1.66667" fill="#B78561"/>
<path d="M22.848 15.7694L23.5528 16.214L22.848 15.7694ZM21.8431 16.4847L22.2415 17.2166L21.8431 16.4847ZM21.2391 16.5432L21.4728 15.7434L21.2391 16.5432ZM20.9161 16.4489L20.6824 17.2488L20.9161 16.4489ZM19.3991 16.1698L19.3131 16.9987L19.3991 16.1698ZM18.4641 16.2249L18.3549 15.3987L18.4641 16.2249ZM18.1417 16.2675L18.251 17.0936L18.1417 16.2675ZM17.6331 16.0776L18.2835 15.5565L17.6331 16.0776ZM16.8733 13.9696L16.6186 13.1761L16.8733 13.9696ZM19.4751 13.524L19.2696 12.7164L19.4751 13.524ZM19.7807 13.4462L19.5753 12.6386L19.7807 13.4462ZM21.9671 13.4801L22.3846 12.759L21.9671 13.4801ZM22.5331 13.8079L22.1155 14.529L22.5331 13.8079ZM22.9454 14.2288L23.6899 13.8544L22.9454 14.2288ZM23.204 14.743L22.4595 15.1174L23.204 14.743ZM23.1715 15.2565L22.4667 14.8119L23.1715 15.2565ZM23.0098 15.5129L22.3049 15.0684L22.1432 15.3248L22.848 15.7694L23.5528 16.214L23.7146 15.9575L23.0098 15.5129ZM22.848 15.7694L22.1432 15.3248C22.1155 15.3687 22.0763 15.409 22.0069 15.4468L22.4052 16.1788L22.8036 16.9107C23.1088 16.7446 23.3648 16.512 23.5528 16.214L22.848 15.7694ZM22.4052 16.1788L22.0069 15.4468L21.7258 15.5998L22.1242 16.3317L22.5225 17.0637L22.8036 16.9107L22.4052 16.1788ZM22.1242 16.3317L21.7258 15.5998L21.4448 15.7527L21.8431 16.4847L22.2415 17.2166L22.5225 17.0637L22.1242 16.3317ZM21.8431 16.4847L21.4448 15.7527C21.4434 15.7535 21.4457 15.7521 21.4514 15.7503C21.4572 15.7485 21.4641 15.747 21.4712 15.7463C21.4783 15.7457 21.4829 15.746 21.4843 15.7461C21.4855 15.7463 21.4819 15.746 21.4728 15.7434L21.2391 16.5432L21.0054 17.3431C21.4199 17.4643 21.8499 17.4298 22.2415 17.2166L21.8431 16.4847ZM21.2391 16.5432L21.4728 15.7434L21.1498 15.649L20.9161 16.4489L20.6824 17.2488L21.0054 17.3431L21.2391 16.5432ZM20.9161 16.4489L21.1498 15.649L20.8268 15.5546L20.5931 16.3545L20.3593 17.1544L20.6824 17.2488L20.9161 16.4489ZM20.5931 16.3545L20.8268 15.5546C20.5703 15.4797 20.3162 15.4271 20.0657 15.4011L19.9797 16.23L19.8938 17.0589C20.0304 17.073 20.1851 17.1035 20.3593 17.1544L20.5931 16.3545ZM19.9797 16.23L20.0657 15.4011L19.7754 15.371L19.6894 16.1999L19.6034 17.0288L19.8938 17.0589L19.9797 16.23ZM19.6894 16.1999L19.7754 15.371L19.485 15.3409L19.3991 16.1698L19.3131 16.9987L19.6034 17.0288L19.6894 16.1999ZM19.3991 16.1698L19.485 15.3409C19.2197 15.3134 18.9496 15.3201 18.6772 15.3561L18.7864 16.1823L18.8956 17.0084C19.053 16.9876 19.1914 16.986 19.3131 16.9987L19.3991 16.1698ZM18.7864 16.1823L18.6772 15.3561L18.3549 15.3987L18.4641 16.2249L18.5733 17.051L18.8956 17.0084L18.7864 16.1823ZM18.4641 16.2249L18.3549 15.3987L18.0325 15.4414L18.1417 16.2675L18.251 17.0936L18.5733 17.051L18.4641 16.2249ZM18.1417 16.2675L18.0325 15.4414C18.0338 15.4412 18.0789 15.436 18.1449 15.4606C18.2145 15.4866 18.261 15.5285 18.2835 15.5565L17.6331 16.0776L16.9827 16.5986C17.3085 17.0052 17.7787 17.1561 18.251 17.0936L18.1417 16.2675ZM17.6331 16.0776L18.2835 15.5565L18.0972 15.324L17.4468 15.845L16.7964 16.3661L16.9827 16.5986L17.6331 16.0776ZM17.4468 15.845L18.0972 15.324L17.9108 15.0914L17.2605 15.6125L16.6101 16.1335L16.7964 16.3661L17.4468 15.845ZM17.2605 15.6125L17.9108 15.0914C17.8428 15.0065 17.7723 14.8901 17.7059 14.7322L16.9376 15.055L16.1694 15.3779C16.2851 15.6531 16.4298 15.9084 16.6101 16.1335L17.2605 15.6125ZM16.9376 15.055L17.7059 14.7322L17.5693 14.4073L16.8011 14.7302L16.0329 15.0531L16.1694 15.3779L16.9376 15.055ZM16.8011 14.7302L17.5693 14.4073L17.4328 14.0824L16.6645 14.4053L15.8963 14.7282L16.0329 15.0531L16.8011 14.7302ZM16.6645 14.4053L17.4328 14.0824C17.4364 14.0911 17.508 14.2686 17.4 14.494C17.3494 14.5996 17.279 14.6698 17.2225 14.7111C17.1699 14.7496 17.1312 14.762 17.128 14.763L16.8733 13.9696L16.6186 13.1761C16.3943 13.2481 16.0712 13.4102 15.8969 13.7738C15.7193 14.1445 15.8016 14.5029 15.8963 14.7282L16.6645 14.4053ZM16.8733 13.9696L17.128 14.763L17.4733 14.6522L17.2187 13.8587L16.964 13.0652L16.6186 13.1761L16.8733 13.9696ZM17.2187 13.8587L17.4733 14.6522L17.8187 14.5413L17.564 13.7479L17.3093 12.9544L16.964 13.0652L17.2187 13.8587ZM17.564 13.7479L17.8187 14.5413C17.9851 14.4879 18.127 14.4646 18.2476 14.4612L18.2243 13.6282L18.201 12.7952C17.9016 12.8036 17.6033 12.86 17.3093 12.9544L17.564 13.7479ZM18.2243 13.6282L18.2476 14.4612L18.5627 14.4524L18.5393 13.6194L18.516 12.7864L18.201 12.7952L18.2243 13.6282ZM18.5393 13.6194L18.5627 14.4524L18.8777 14.4436L18.8544 13.6105L18.831 12.7775L18.516 12.7864L18.5393 13.6194ZM18.8544 13.6105L18.8777 14.4436C19.1492 14.436 19.4172 14.3986 19.6805 14.3316L19.4751 13.524L19.2696 12.7164C19.1254 12.7531 18.9795 12.7734 18.831 12.7775L18.8544 13.6105ZM19.4751 13.524L19.6805 14.3316L19.9862 14.2538L19.7807 13.4462L19.5753 12.6386L19.2696 12.7164L19.4751 13.524ZM19.7807 13.4462L19.9862 14.2538L20.2919 14.176L20.0864 13.3684L19.8809 12.5608L19.5753 12.6386L19.7807 13.4462ZM20.0864 13.3684L20.2919 14.176C20.4214 14.1431 20.5562 14.1274 20.6986 14.1302L20.7151 13.2971L20.7315 12.4639C20.4432 12.4582 20.159 12.4901 19.8809 12.5608L20.0864 13.3684ZM20.7151 13.2971L20.6986 14.1302L21.0216 14.1366L21.038 13.3034L21.0545 12.4703L20.7315 12.4639L20.7151 13.2971ZM21.038 13.3034L21.0216 14.1366L21.3446 14.143L21.361 13.3098L21.3775 12.4767L21.0545 12.4703L21.038 13.3034ZM21.361 13.3098L21.3446 14.143C21.417 14.1444 21.4813 14.1618 21.5495 14.2013L21.9671 13.4801L22.3846 12.759C22.0755 12.5799 21.7357 12.4838 21.3775 12.4767L21.361 13.3098ZM21.9671 13.4801L21.5495 14.2013L21.8325 14.3652L22.2501 13.644L22.6677 12.9228L22.3846 12.759L21.9671 13.4801ZM22.2501 13.644L21.8325 14.3652L22.1155 14.529L22.5331 13.8079L22.9507 13.0867L22.6677 12.9228L22.2501 13.644ZM22.5331 13.8079L22.1155 14.529C22.1835 14.5684 22.1972 14.5959 22.2009 14.6033L22.9454 14.2288L23.6899 13.8544C23.5212 13.519 23.26 13.2658 22.9507 13.0867L22.5331 13.8079ZM22.9454 14.2288L22.2009 14.6033L22.3302 14.8603L23.0747 14.4859L23.8192 14.1115L23.6899 13.8544L22.9454 14.2288ZM23.0747 14.4859L22.3302 14.8603L22.4595 15.1174L23.204 14.743L23.9485 14.3685L23.8192 14.1115L23.0747 14.4859ZM23.204 14.743L22.4595 15.1174C22.4442 15.087 22.4239 15.0262 22.4289 14.9473C22.4337 14.8707 22.4595 14.8233 22.4667 14.8119L23.1715 15.2565L23.8764 15.7011C24.1299 15.2991 24.1743 14.8176 23.9485 14.3685L23.204 14.743ZM23.1715 15.2565L22.4667 14.8119L22.3049 15.0684L23.0098 15.5129L23.7146 15.9575L23.8764 15.7011L23.1715 15.2565Z" fill="#B78561"/>
</g>
</g>
<defs>
<linearGradient id="paint0_linear_434_3630" x1="20.0083" y1="8.00024" x2="20.0083" y2="23.1114" gradientUnits="userSpaceOnUse">
<stop stop-color="#4A5A2B"/>
<stop offset="1" stop-color="#707457"/>
</linearGradient>
<clipPath id="clip0_434_3630">
<rect width="40" height="40" fill="white"/>
</clipPath>
<clipPath id="clip1_434_3630">
<rect width="33.3333" height="26.6667" fill="white" transform="translate(3.33337 6.66663)"/>
</clipPath>
</defs>
</svg>
