<svg width="24" height="24" viewBox="0 0 24 24" fill="none" xmlns="http://www.w3.org/2000/svg">
<g clip-path="url(#clip0_433_6865)">
<path d="M16.9897 11H3.01038C3.01038 14.5 4 21 10 21C16 21 16.9897 14.5 16.9897 11Z" stroke="black" stroke-width="1.7"/>
<path d="M17 12.3171C17 12.3171 20.3517 11.2122 20.9103 13.1273C21.469 15.0424 19.2345 16 19.2345 16" stroke="black" stroke-width="1.7"/>
<path d="M6.5 3C7.25462 3.44026 8.5 5.5 6.5 7C8 7 8 8 8 9" stroke="black" stroke-width="1.7" stroke-linejoin="bevel"/>
<path d="M11.9999 2.99995C14 2.99988 14.4999 5.99995 11.9999 6.49994C12.9999 6.99995 12.5978 8.2886 11.4999 8.49994" stroke="black" stroke-width="1.7" stroke-linejoin="bevel"/>
</g>
<defs>
<clipPath id="clip0_433_6865">
<rect width="24" height="24" fill="white"/>
</clipPath>
</defs>
</svg>
