<svg width="12" height="12" viewBox="0 0 12 12" fill="none" xmlns="http://www.w3.org/2000/svg">
<path d="M3.08876 3.01363C2.66212 2.9287 2.43467 3.26136 2.37427 3.43831C1.65979 3.54448 2.08848 4.5 2.66006 4.5C3.23165 4.5 3.66035 4.28766 3.80324 4.18149C4.08904 4.28766 4.08903 4.39383 4.51773 4.39383C4.94641 4.39383 5.08931 3.93377 4.94641 3.75682C4.99405 3.59189 4.94641 3.23359 4.37483 3.1198C3.80324 3.00601 3.66034 3.28473 3.66034 3.43831C3.64758 3.33214 3.51539 3.09857 3.08876 3.01363Z" fill="#67E6FF"/>
<path d="M2.89752 3.16413L2.70026 2.78768L2.89752 3.16413ZM3.78352 2.94667L3.84918 2.52677L3.78352 2.94667ZM3.96489 2.97503L3.89923 3.39493L3.96489 2.97503ZM4.46901 4.0942L4.76523 4.39895L4.46901 4.0942ZM4.06233 4.26571L4.12778 4.68564L4.06233 4.26571ZM3.78815 4.30844L3.7227 3.88851L3.78815 4.30844ZM3.51397 4.35117L3.44852 3.93124L3.51397 4.35117ZM2.29139 4.40274L2.28743 3.97776L2.29139 4.40274ZM2.26152 3.59271L1.86065 3.45155L2.26152 3.59271ZM2.36128 3.35087L2.78166 3.2884L2.36128 3.35087ZM2.36994 3.40916L1.94956 3.47163L2.36994 3.40916ZM2.89752 3.16413L3.09478 3.54058L3.35641 3.40349L3.15915 3.02704L2.96189 2.65059L2.70026 2.78768L2.89752 3.16413ZM3.15915 3.02704L3.35641 3.40349C3.42162 3.36931 3.46962 3.35201 3.50202 3.34406C3.53404 3.3362 3.54331 3.33927 3.53649 3.3382L3.60215 2.91831L3.66781 2.49841C3.41684 2.45917 3.17168 2.54066 2.96189 2.65059L3.15915 3.02704ZM3.60215 2.91831L3.53649 3.3382L3.71786 3.36657L3.78352 2.94667L3.84918 2.52677L3.66781 2.49841L3.60215 2.91831ZM3.78352 2.94667L3.71786 3.36657L3.89923 3.39493L3.96489 2.97503L4.03055 2.55513L3.84918 2.52677L3.78352 2.94667ZM3.96489 2.97503L3.89923 3.39493C3.90563 3.39593 3.94934 3.40528 4.02913 3.48333L4.32632 3.17951L4.6235 2.87569C4.46323 2.71892 4.26598 2.59195 4.03055 2.55513L3.96489 2.97503ZM4.32632 3.17951L4.02913 3.48333L4.20918 3.65945L4.50637 3.35562L4.80355 3.0518L4.6235 2.87569L4.32632 3.17951ZM4.50637 3.35562L4.20918 3.65945L4.38924 3.83556L4.68642 3.53174L4.9836 3.22792L4.80355 3.0518L4.50637 3.35562ZM4.68642 3.53174L4.38924 3.83556C4.42175 3.86737 4.38107 3.84264 4.36841 3.76153C4.36116 3.71504 4.36578 3.6639 4.38428 3.61606C4.40171 3.57097 4.4256 3.5437 4.43776 3.53188L4.73398 3.83664L5.03021 4.14139C5.15101 4.02397 5.24179 3.84545 5.20826 3.63052C5.17975 3.44778 5.07112 3.31353 4.9836 3.22792L4.68642 3.53174ZM4.73398 3.83664L4.43776 3.53188L4.30527 3.66066L4.60149 3.96542L4.89772 4.27017L5.03021 4.14139L4.73398 3.83664ZM4.60149 3.96542L4.30527 3.66066L4.17278 3.78944L4.46901 4.0942L4.76523 4.39895L4.89772 4.27017L4.60149 3.96542ZM4.46901 4.0942L4.17278 3.78944C4.17206 3.79014 4.13389 3.82442 3.99689 3.84578L4.06233 4.26571L4.12778 4.68564C4.35635 4.65001 4.5893 4.56995 4.76523 4.39895L4.46901 4.0942ZM4.06233 4.26571L3.99689 3.84578L3.7227 3.88851L3.78815 4.30844L3.8536 4.72837L4.12778 4.68564L4.06233 4.26571ZM3.78815 4.30844L3.7227 3.88851L3.44852 3.93124L3.51397 4.35117L3.57941 4.7711L3.8536 4.72837L3.78815 4.30844ZM3.51397 4.35117L3.44852 3.93124C3.28865 3.95616 3.11263 3.97007 2.91969 3.97187L2.92365 4.39685L2.92761 4.82183C3.15617 4.8197 3.3737 4.80316 3.57941 4.7711L3.51397 4.35117ZM2.92365 4.39685L2.91969 3.97187L2.60356 3.97481L2.60752 4.39979L2.61148 4.82477L2.92761 4.82183L2.92365 4.39685ZM2.60752 4.39979L2.60356 3.97481L2.28743 3.97776L2.29139 4.40274L2.29535 4.82772L2.61148 4.82477L2.60752 4.39979ZM2.29139 4.40274L2.28743 3.97776C2.26174 3.978 2.26434 3.97483 2.28391 3.98084C2.30548 3.98747 2.35848 4.00905 2.40624 4.06705C2.45662 4.12823 2.47181 4.19422 2.4734 4.23741C2.47476 4.27423 2.46654 4.29009 2.47156 4.27585L2.07068 4.13469L1.66981 3.99354C1.62201 4.12927 1.56865 4.38703 1.75006 4.60735C1.91546 4.80823 2.16058 4.82897 2.29535 4.82772L2.29139 4.40274ZM2.07068 4.13469L2.47156 4.27585L2.56698 4.00486L2.1661 3.8637L1.76523 3.72254L1.66981 3.99354L2.07068 4.13469ZM2.1661 3.8637L2.56698 4.00486L2.6624 3.73386L2.26152 3.59271L1.86065 3.45155L1.76523 3.72254L2.1661 3.8637ZM2.26152 3.59271L2.6624 3.73386C2.69393 3.64431 2.71501 3.58802 2.72706 3.55881C2.73555 3.53823 2.73193 3.54989 2.71935 3.57119C2.71537 3.57793 2.70551 3.59422 2.69006 3.61379C2.68239 3.62351 2.63848 3.68082 2.55853 3.7234C2.51352 3.74736 2.43201 3.78002 2.32642 3.77174C2.21074 3.76266 2.11728 3.70852 2.05454 3.6435C1.95612 3.5415 1.94257 3.42459 1.94089 3.41333L2.36128 3.35087L2.78166 3.2884C2.77963 3.27471 2.76548 3.15616 2.66622 3.05329C2.60306 2.98783 2.50913 2.93346 2.39291 2.92434C2.28678 2.91601 2.20467 2.94883 2.15902 2.97314C2.07775 3.01641 2.0323 3.0752 2.02284 3.08719C2.00561 3.10902 1.99372 3.12835 1.98749 3.13891C1.96587 3.17551 1.94942 3.21497 1.94128 3.2347C1.92008 3.2861 1.89273 3.36044 1.86065 3.45155L2.26152 3.59271ZM2.36128 3.35087L1.94089 3.41333L1.94522 3.44248L2.36561 3.38001L2.78599 3.31755L2.78166 3.2884L2.36128 3.35087ZM2.36561 3.38001L1.94522 3.44248L1.94956 3.47163L2.36994 3.40916L2.79032 3.34669L2.78599 3.31755L2.36561 3.38001ZM2.36994 3.40916L1.94956 3.47163C1.96307 3.56255 2.00672 3.65415 2.08391 3.72509C2.15484 3.79027 2.23086 3.81682 2.28005 3.8281C2.36864 3.84841 2.44192 3.83552 2.46379 3.83157C2.5207 3.82128 2.57129 3.80156 2.59843 3.79055C2.66281 3.76442 2.74367 3.72456 2.83315 3.67767L2.6359 3.30122L2.43864 2.92477C2.35371 2.96927 2.30303 2.9931 2.27876 3.00295C2.26157 3.00993 2.27856 3.00127 2.31258 2.99512C2.32301 2.99324 2.38752 2.98068 2.47003 2.9996C2.51618 3.01018 2.58983 3.0356 2.65906 3.09922C2.73455 3.16859 2.77717 3.2582 2.79032 3.34669L2.36994 3.40916ZM2.6359 3.30122L2.83315 3.67767L3.09478 3.54058L2.89752 3.16413L2.70026 2.78768L2.43864 2.92477L2.6359 3.30122Z" fill="#67E6FF"/>
<path d="M7.63696 7.22328C5.79374 9.08237 3.83983 8.47394 1.99633 8.47419C1.99633 8.47419 4.989 7.61005 6.30557 6.16411C7.62214 4.71817 7.04097 1.51102 7.04097 1.51102C8.35792 2.75005 9.48019 5.36419 7.63696 7.22328Z" fill="#EDE028"/>
<path d="M2.87786 8.54857L2.84213 8.97206L2.87786 8.54857ZM3.42442 8.59468L3.46015 8.17118L3.42442 8.59468ZM4.09844 8.607L4.1184 9.03153L4.09844 8.607ZM4.65161 8.58098L4.63164 8.15645L4.65161 8.58098ZM5.20478 8.55497L5.22474 8.9795L5.20478 8.55497ZM5.85138 8.39146L6.03523 8.77464L5.85138 8.39146ZM6.85502 7.90991L6.67117 7.52674L6.85502 7.90991ZM7.36939 7.49659L7.7048 7.7576L7.36939 7.49659ZM8.32654 6.0385L7.91256 5.94234L8.32654 6.0385ZM8.44977 5.50797L8.03579 5.41181L8.44977 5.50797ZM8.573 4.97744L8.98698 5.0736L8.573 4.97744ZM8.54519 4.33282L8.94956 4.20201L8.54519 4.33282ZM8.20797 3.29039L8.61233 3.15958L8.20797 3.29039ZM7.89557 2.71405L7.56593 2.9823L7.89557 2.71405ZM7.21339 1.87576L7.54303 1.60751L7.21339 1.87576ZM7.03311 1.9236L6.60999 1.96354L7.03311 1.9236ZM7.12698 2.91797L7.5501 2.87803L7.12698 2.91797ZM7.12053 3.55676L7.54319 3.60132L7.12053 3.55676ZM7.00559 4.64685L6.58294 4.60229L7.00559 4.64685ZM6.80027 5.27244L6.43319 5.05825L6.80027 5.27244ZM6.24518 6.22373L5.87811 6.00953L6.24518 6.22373ZM5.77601 6.67143L5.57928 6.29471L5.77601 6.67143ZM4.80011 7.18107L4.99685 7.5578L4.80011 7.18107ZM3.20032 7.90824L3.02949 7.51909L3.20032 7.90824ZM2.72443 8.12426L2.54033 7.74121L2.72443 8.12426ZM2.16712 8.39211L2.35122 8.77517L2.16712 8.39211ZM2.87786 8.54857L2.84213 8.97206L3.38869 9.01817L3.42442 8.59468L3.46015 8.17118L2.91359 8.12507L2.87786 8.54857ZM3.42442 8.59468L3.38869 9.01817C3.63071 9.03859 3.87399 9.04302 4.1184 9.03153L4.09844 8.607L4.07847 8.18247C3.87084 8.19223 3.66477 8.18845 3.46015 8.17118L3.42442 8.59468ZM4.09844 8.607L4.1184 9.03153L4.67157 9.00552L4.65161 8.58098L4.63164 8.15645L4.07847 8.18247L4.09844 8.607ZM4.65161 8.58098L4.67157 9.00552L5.22474 8.9795L5.20478 8.55497L5.18481 8.13044L4.63164 8.15645L4.65161 8.58098ZM5.20478 8.55497L5.22474 8.9795C5.50791 8.96619 5.77915 8.8975 6.03523 8.77464L5.85138 8.39146L5.66753 8.00828C5.51353 8.08217 5.3537 8.1225 5.18481 8.13044L5.20478 8.55497ZM5.85138 8.39146L6.03523 8.77464L6.53705 8.53386L6.3532 8.15069L6.16935 7.76751L5.66753 8.00828L5.85138 8.39146ZM6.3532 8.15069L6.53705 8.53386L7.03887 8.29309L6.85502 7.90991L6.67117 7.52674L6.16935 7.76751L6.3532 8.15069ZM6.85502 7.90991L7.03887 8.29309C7.3024 8.16665 7.526 7.98737 7.7048 7.7576L7.36939 7.49659L7.03398 7.23559C6.93705 7.36015 6.81773 7.45642 6.67117 7.52674L6.85502 7.90991ZM7.36939 7.49659L7.7048 7.7576L8.04221 7.32401L7.7068 7.063L7.37139 6.80199L7.03398 7.23559L7.36939 7.49659ZM7.7068 7.063L8.04221 7.32401L8.37962 6.89042L8.04421 6.62941L7.7088 6.3684L7.37139 6.80199L7.7068 7.063ZM8.04421 6.62941L8.37962 6.89042C8.55497 6.66508 8.6761 6.41197 8.74051 6.13466L8.32654 6.0385L7.91256 5.94234C7.87626 6.09858 7.80918 6.23941 7.7088 6.3684L8.04421 6.62941ZM8.32654 6.0385L8.74051 6.13466L8.86375 5.60413L8.44977 5.50797L8.03579 5.41181L7.91256 5.94234L8.32654 6.0385ZM8.44977 5.50797L8.86375 5.60413L8.98698 5.0736L8.573 4.97744L8.15902 4.88128L8.03579 5.41181L8.44977 5.50797ZM8.573 4.97744L8.98698 5.0736C9.05489 4.78124 9.04205 4.48791 8.94956 4.20201L8.54519 4.33282L8.14082 4.46363C8.18612 4.60367 8.19182 4.74009 8.15902 4.88128L8.573 4.97744ZM8.54519 4.33282L8.94956 4.20201L8.78094 3.68079L8.37658 3.81161L7.97221 3.94242L8.14082 4.46363L8.54519 4.33282ZM8.37658 3.81161L8.78094 3.68079L8.61233 3.15958L8.20797 3.29039L7.8036 3.4212L7.97221 3.94242L8.37658 3.81161ZM8.20797 3.29039L8.61233 3.15958C8.52748 2.89727 8.39824 2.65842 8.22521 2.44579L7.89557 2.71405L7.56593 2.9823C7.67163 3.1122 7.75066 3.25758 7.8036 3.4212L8.20797 3.29039ZM7.89557 2.71405L8.22521 2.44579L7.88412 2.02665L7.55448 2.29491L7.22484 2.56316L7.56593 2.9823L7.89557 2.71405ZM7.55448 2.29491L7.88412 2.02665L7.54303 1.60751L7.21339 1.87576L6.88375 2.14402L7.22484 2.56316L7.55448 2.29491ZM7.21339 1.87576L7.54303 1.60751C7.50057 1.55533 7.44707 1.49555 7.38484 1.44709C7.35359 1.42276 7.30562 1.38973 7.24313 1.3656C7.18039 1.34137 7.07631 1.31625 6.9548 1.34849C6.68305 1.42059 6.62626 1.67234 6.61581 1.72832C6.59975 1.81433 6.60401 1.90026 6.60999 1.96354L7.03311 1.9236L7.45622 1.88365C7.45261 1.84537 7.4572 1.85311 7.45136 1.88436C7.45114 1.88556 7.41449 2.10593 7.17279 2.17006C7.0663 2.19832 6.97973 2.17506 6.93696 2.15854C6.89445 2.14213 6.86893 2.12267 6.86262 2.11775C6.85025 2.10812 6.85653 2.11057 6.88375 2.14402L7.21339 1.87576ZM7.03311 1.9236L6.60999 1.96354L6.65693 2.46073L7.08004 2.42079L7.50316 2.38084L7.45622 1.88365L7.03311 1.9236ZM7.08004 2.42079L6.65693 2.46073L6.70386 2.95792L7.12698 2.91797L7.5501 2.87803L7.50316 2.38084L7.08004 2.42079ZM7.12698 2.91797L6.70386 2.95792C6.72014 3.13038 6.71867 3.31488 6.69787 3.5122L7.12053 3.55676L7.54319 3.60132C7.56934 3.35322 7.57218 3.11186 7.5501 2.87803L7.12698 2.91797ZM7.12053 3.55676L6.69787 3.5122L6.6404 4.05724L7.06306 4.10181L7.48572 4.14637L7.54319 3.60132L7.12053 3.55676ZM7.06306 4.10181L6.6404 4.05724L6.58294 4.60229L7.00559 4.64685L7.42825 4.69142L7.48572 4.14637L7.06306 4.10181ZM7.00559 4.64685L6.58294 4.60229C6.56579 4.76486 6.51642 4.91561 6.43319 5.05825L6.80027 5.27244L7.16734 5.48663C7.31092 5.24057 7.39843 4.97426 7.42825 4.69142L7.00559 4.64685ZM6.80027 5.27244L6.43319 5.05825L6.15565 5.53389L6.52272 5.74808L6.8898 5.96227L7.16734 5.48663L6.80027 5.27244ZM6.52272 5.74808L6.15565 5.53389L5.87811 6.00953L6.24518 6.22373L6.61226 6.43792L6.8898 5.96227L6.52272 5.74808ZM6.24518 6.22373L5.87811 6.00953C5.80503 6.13477 5.70767 6.22766 5.57928 6.29471L5.77601 6.67143L5.97275 7.04815C6.24311 6.90696 6.45853 6.70138 6.61226 6.43792L6.24518 6.22373ZM5.77601 6.67143L5.57928 6.29471L5.09133 6.54953L5.28806 6.92625L5.4848 7.30297L5.97275 7.04815L5.77601 6.67143ZM5.28806 6.92625L5.09133 6.54953L4.60338 6.80435L4.80011 7.18107L4.99685 7.5578L5.4848 7.30297L5.28806 6.92625ZM4.80011 7.18107L4.60338 6.80435C4.41238 6.90409 4.21963 6.99664 4.02511 7.08203L4.19594 7.47119L4.36677 7.86034C4.57906 7.76715 4.78908 7.66629 4.99685 7.5578L4.80011 7.18107ZM4.19594 7.47119L4.02511 7.08203L3.5273 7.30056L3.69813 7.68972L3.86896 8.07887L4.36677 7.86034L4.19594 7.47119ZM3.69813 7.68972L3.5273 7.30056L3.02949 7.51909L3.20032 7.90824L3.37116 8.2974L3.86896 8.07887L3.69813 7.68972ZM3.20032 7.90824L3.02949 7.51909C2.82442 7.60911 2.66066 7.68338 2.54033 7.74121L2.72443 8.12426L2.90853 8.50732C3.01592 8.45571 3.16942 8.38596 3.37116 8.2974L3.20032 7.90824ZM2.72443 8.12426L2.54033 7.74121L2.26167 7.87513L2.44577 8.25819L2.62987 8.64124L2.90853 8.50732L2.72443 8.12426ZM2.44577 8.25819L2.26167 7.87513L1.98302 8.00905L2.16712 8.39211L2.35122 8.77517L2.62987 8.64124L2.44577 8.25819ZM2.16712 8.39211L1.98302 8.00905C1.95623 8.02193 1.92264 8.03977 1.88848 8.0637C1.8586 8.08464 1.80244 8.12784 1.75637 8.19913C1.70405 8.2801 1.6563 8.41486 1.70363 8.57007C1.74535 8.70688 1.83861 8.78182 1.88572 8.81348C1.97443 8.8731 2.07108 8.8935 2.11206 8.9017C2.16886 8.91306 2.23178 8.92057 2.29558 8.92595L2.33131 8.50245L2.36704 8.07896C2.31918 8.07492 2.29152 8.07076 2.2788 8.06822C2.25027 8.06251 2.29848 8.06676 2.35983 8.10799C2.39325 8.13045 2.4781 8.19565 2.51667 8.32214C2.56085 8.46703 2.51523 8.59091 2.47029 8.66045C2.43162 8.72029 2.38812 8.7515 2.37617 8.75987C2.36738 8.76603 2.36061 8.77003 2.35698 8.77209C2.35503 8.77319 2.35356 8.77397 2.35265 8.77444C2.35173 8.77492 2.35123 8.77516 2.35122 8.77517L2.16712 8.39211ZM2.33131 8.50245L2.29558 8.92595L2.84213 8.97206L2.87786 8.54857L2.91359 8.12507L2.36704 8.07896L2.33131 8.50245Z" fill="#EDE028"/>
<path d="M6.67751 7.52727C5.82423 7.3574 5.36933 8.02272 5.24854 8.37662C3.81958 8.58896 4.67695 10.5 5.82013 10.5C6.9633 10.5 7.82069 10.0753 8.10648 9.86299C8.67807 10.0753 8.67806 10.2877 9.53545 10.2877C10.3928 10.2877 10.6786 9.36753 10.3928 9.01363C10.4881 8.68378 10.3928 7.96719 9.24965 7.73961C8.10648 7.51202 7.82069 8.06946 7.82069 8.37662C7.79516 8.16428 7.53079 7.69714 6.67751 7.52727Z" fill="#67E6FF"/>
<path d="M5.77563 7.59852L5.42376 7.36016L5.77563 7.59852ZM7.63039 7.92289L7.35835 8.24941L7.63039 7.92289ZM7.84071 8.09812L8.11275 7.77159L7.84071 8.09812ZM8.60334 7.93262L8.3802 7.57091L8.60334 7.93262ZM10.0715 8.12L9.66723 8.25118L10.0715 8.12ZM10.2477 8.66295L10.6519 8.53177L10.2477 8.66295ZM10.3247 9.22091L9.90004 9.20457L10.3247 9.22091ZM10.3027 9.79391L10.7274 9.81025L10.3027 9.79391ZM10.0015 10.1318L9.92733 9.71335L10.0015 10.1318ZM9.42119 10.2347L9.49536 10.6532L9.42119 10.2347ZM8.89954 10.2403L8.98203 9.82339L8.89954 10.2403ZM8.66804 10.1945L8.58555 10.6114L8.66804 10.1945ZM8.43654 10.1487L8.51903 9.73179L8.43654 10.1487ZM7.88865 10.1111L7.8776 9.68628L7.88865 10.1111ZM7.25588 10.1276L7.26693 10.5525L7.25588 10.1276ZM6.66562 10.2322L6.80666 10.6331L6.66562 10.2322ZM6.11789 10.4249L5.97685 10.0239L6.11789 10.4249ZM5.58379 10.3959L5.7682 10.013L5.58379 10.3959ZM5.06333 10.1452L4.87891 10.5281L5.06333 10.1452ZM5.23474 8.28376L4.81436 8.34623L5.23474 8.28376ZM5.24394 8.34567L5.66433 8.2832L5.24394 8.34567ZM5.59993 7.85788L5.9518 8.09624L6.1275 7.83687L5.77563 7.59852L5.42376 7.36016L5.24806 7.61953L5.59993 7.85788ZM5.77563 7.59852L6.1275 7.83687C6.13821 7.82106 6.14569 7.81398 6.14837 7.81169C6.15065 7.80974 6.1501 7.81064 6.14729 7.8118C6.14454 7.81292 6.1444 7.81233 6.14926 7.81196C6.15464 7.81156 6.16716 7.8114 6.18846 7.81535L6.26592 7.39747L6.34339 6.97959C6.17506 6.94838 5.99648 6.95495 5.8248 7.02535C5.65246 7.09602 5.52052 7.21732 5.42376 7.36016L5.77563 7.59852ZM6.26592 7.39747L6.18846 7.81535L6.50306 7.87367L6.58052 7.45579L6.65799 7.03791L6.34339 6.97959L6.26592 7.39747ZM6.58052 7.45579L6.50306 7.87367L6.81766 7.93199L6.89512 7.51411L6.97259 7.09623L6.65799 7.03791L6.58052 7.45579ZM6.89512 7.51411L6.81766 7.93199C6.96795 7.95985 7.07255 8.01131 7.14802 8.07418L7.42006 7.74766L7.69209 7.42113C7.48712 7.25036 7.24177 7.14613 6.97259 7.09623L6.89512 7.51411ZM7.42006 7.74766L7.14802 8.07418L7.35835 8.24941L7.63039 7.92289L7.90242 7.59636L7.69209 7.42113L7.42006 7.74766ZM7.63039 7.92289L7.35835 8.24941L7.56868 8.42464L7.84071 8.09812L8.11275 7.77159L7.90242 7.59636L7.63039 7.92289ZM7.84071 8.09812L7.56868 8.42464C7.6768 8.51472 7.81396 8.59527 7.97885 8.62104C8.15339 8.64833 8.31846 8.60774 8.45829 8.52147L8.23514 8.15977L8.012 7.79806C8.01786 7.79445 8.03121 7.78754 8.05132 7.78317C8.07194 7.7787 8.09245 7.77848 8.11012 7.78124C8.14354 7.78647 8.14485 7.79833 8.11275 7.77159L7.84071 8.09812ZM8.23514 8.15977L8.45829 8.52147L8.64239 8.4079L8.41924 8.04619L8.1961 7.68449L8.012 7.79806L8.23514 8.15977ZM8.41924 8.04619L8.64239 8.4079L8.82649 8.29432L8.60334 7.93262L8.3802 7.57091L8.1961 7.68449L8.41924 8.04619ZM8.60334 7.93262L8.82649 8.29432C8.85707 8.27546 8.92856 8.24765 9.07595 8.25129L9.08643 7.82641L9.0969 7.40154C8.84564 7.39535 8.59508 7.43834 8.3802 7.57091L8.60334 7.93262ZM9.08643 7.82641L9.07595 8.25129L9.37494 8.25866L9.38542 7.83379L9.39589 7.40891L9.0969 7.40154L9.08643 7.82641ZM9.38542 7.83379L9.37494 8.25866L9.67393 8.26603L9.6844 7.84116L9.69488 7.41629L9.39589 7.40891L9.38542 7.83379ZM9.6844 7.84116L9.67393 8.26603C9.69216 8.26648 9.69963 8.26874 9.69932 8.26864C9.6991 8.26858 9.69711 8.26796 9.69386 8.26639C9.69057 8.2648 9.68656 8.2625 9.68225 8.25939C9.67792 8.25628 9.67399 8.25285 9.67062 8.24937C9.66726 8.24591 9.66501 8.24296 9.66369 8.24105C9.66106 8.2372 9.66333 8.23915 9.66723 8.25118L10.0715 8.12L10.4757 7.98883C10.4241 7.8297 10.3305 7.67877 10.1791 7.56971C10.0293 7.46183 9.85831 7.42032 9.69488 7.41629L9.6844 7.84116ZM10.0715 8.12L9.66723 8.25118L9.75532 8.52265L10.1596 8.39147L10.5638 8.2603L10.4757 7.98883L10.0715 8.12ZM10.1596 8.39147L9.75532 8.52265L9.84341 8.79412L10.2477 8.66295L10.6519 8.53177L10.5638 8.2603L10.1596 8.39147ZM10.2477 8.66295L9.84341 8.79412C9.88662 8.9273 9.90547 9.06334 9.90004 9.20457L10.3247 9.22091L10.7494 9.23725C10.7587 8.9965 10.7261 8.76056 10.6519 8.53177L10.2477 8.66295ZM10.3247 9.22091L9.90004 9.20457L9.88902 9.49107L10.3137 9.50741L10.7384 9.52375L10.7494 9.23725L10.3247 9.22091ZM10.3137 9.50741L9.88902 9.49107L9.87799 9.77757L10.3027 9.79391L10.7274 9.81025L10.7384 9.52375L10.3137 9.50741ZM10.3027 9.79391L9.87799 9.77757C9.87751 9.79017 9.87591 9.78958 9.87919 9.78034C9.88286 9.77001 9.89068 9.75447 9.9046 9.73886C9.91841 9.72337 9.93189 9.71488 9.93906 9.7113C9.94525 9.7082 9.94304 9.71057 9.92733 9.71335L10.0015 10.1318L10.0757 10.5503C10.2378 10.5216 10.4085 10.451 10.5391 10.3044C10.6709 10.1566 10.7209 9.97743 10.7274 9.81025L10.3027 9.79391ZM10.0015 10.1318L9.92733 9.71335L9.63718 9.76478L9.71135 10.1833L9.78552 10.6017L10.0757 10.5503L10.0015 10.1318ZM9.71135 10.1833L9.63718 9.76478L9.34702 9.81621L9.42119 10.2347L9.49536 10.6532L9.78552 10.6017L9.71135 10.1833ZM9.42119 10.2347L9.34702 9.81621C9.19303 9.8435 9.07361 9.84151 8.98203 9.82339L8.89954 10.2403L8.81705 10.6572C9.03414 10.7002 9.26249 10.6944 9.49536 10.6532L9.42119 10.2347ZM8.89954 10.2403L8.98203 9.82339L8.75053 9.77759L8.66804 10.1945L8.58555 10.6114L8.81705 10.6572L8.89954 10.2403ZM8.66804 10.1945L8.75053 9.77759L8.51903 9.73179L8.43654 10.1487L8.35405 10.5656L8.58555 10.6114L8.66804 10.1945ZM8.43654 10.1487L8.51903 9.73179C8.32551 9.6935 8.11 9.68023 7.8776 9.68628L7.88865 10.1111L7.89971 10.536C8.08915 10.5311 8.23891 10.5428 8.35405 10.5656L8.43654 10.1487ZM7.88865 10.1111L7.8776 9.68628L7.56121 9.69451L7.57227 10.1194L7.58332 10.5442L7.89971 10.536L7.88865 10.1111ZM7.57227 10.1194L7.56121 9.69451L7.24483 9.70274L7.25588 10.1276L7.26693 10.5525L7.58332 10.5442L7.57227 10.1194ZM7.25588 10.1276L7.24483 9.70274C6.99357 9.70928 6.75257 9.75105 6.52458 9.83126L6.66562 10.2322L6.80666 10.6331C6.94383 10.5848 7.09634 10.5569 7.26693 10.5525L7.25588 10.1276ZM6.66562 10.2322L6.52458 9.83126L6.25071 9.9276L6.39175 10.3285L6.53279 10.7294L6.80666 10.6331L6.66562 10.2322ZM6.39175 10.3285L6.25071 9.9276L5.97685 10.0239L6.11789 10.4249L6.25893 10.8258L6.53279 10.7294L6.39175 10.3285ZM6.11789 10.4249L5.97685 10.0239C5.90022 10.0509 5.83932 10.0472 5.7682 10.013L5.58379 10.3959L5.39937 10.7788C5.67523 10.9116 5.9704 10.9273 6.25893 10.8258L6.11789 10.4249ZM5.58379 10.3959L5.7682 10.013L5.50797 9.88764L5.32356 10.2705L5.13914 10.6535L5.39937 10.7788L5.58379 10.3959ZM5.32356 10.2705L5.50797 9.88764L5.24774 9.76231L5.06333 10.1452L4.87891 10.5281L5.13914 10.6535L5.32356 10.2705ZM5.06333 10.1452L5.24774 9.76231C5.21157 9.74489 5.20101 9.73142 5.19922 9.72903C5.19823 9.72771 5.19259 9.72091 5.18944 9.69688L4.76804 9.75204L4.34663 9.8072C4.39011 10.1394 4.58686 10.3875 4.87891 10.5281L5.06333 10.1452ZM4.76804 9.75204L5.18944 9.69688L5.15438 9.42903L4.73298 9.48419L4.31157 9.53935L4.34663 9.8072L4.76804 9.75204ZM4.73298 9.48419L5.15438 9.42903L5.11933 9.16118L4.69792 9.21634L4.27652 9.2715L4.31157 9.53935L4.73298 9.48419ZM4.69792 9.21634L5.11933 9.16118C5.1078 9.0731 5.12825 9.05028 5.13406 9.04315L4.80468 8.77457L4.47531 8.50599C4.29202 8.73076 4.2413 9.00245 4.27652 9.2715L4.69792 9.21634ZM4.80468 8.77457L5.13406 9.04315L5.27588 8.86923L4.9465 8.60065L4.61713 8.33207L4.47531 8.50599L4.80468 8.77457ZM4.9465 8.60065L5.27588 8.86923L5.4177 8.69531L5.08832 8.42673L4.75895 8.15815L4.61713 8.33207L4.9465 8.60065ZM5.08832 8.42673L5.4177 8.69531C5.43925 8.66889 5.45666 8.64823 5.47031 8.63266C5.47708 8.62494 5.48243 8.61902 5.4865 8.61464C5.48851 8.61249 5.49005 8.61087 5.49117 8.60972C5.49229 8.60856 5.4928 8.60806 5.49275 8.60811C5.49273 8.60813 5.49183 8.60902 5.49013 8.61056C5.48849 8.61205 5.48545 8.61475 5.48116 8.61826C5.47581 8.62264 5.45405 8.64039 5.42021 8.65802C5.40749 8.66464 5.28835 8.73084 5.13007 8.69196C5.03327 8.66818 4.94812 8.61083 4.88972 8.53039C4.83738 8.4583 4.82047 8.38736 4.81436 8.34623L5.23474 8.28376L5.65513 8.22129C5.64138 8.12879 5.56943 7.92461 5.33283 7.86649C5.17092 7.82672 5.04673 7.89416 5.02752 7.90416C4.96016 7.93925 4.91192 7.98726 4.89892 7.99994C4.85605 8.04181 4.80735 8.09879 4.75895 8.15815L5.08832 8.42673ZM5.23474 8.28376L4.81436 8.34623L4.81896 8.37718L5.23934 8.31471L5.65973 8.25225L5.65513 8.22129L5.23474 8.28376ZM5.23934 8.31471L4.81896 8.37718L4.82356 8.40813L5.24394 8.34567L5.66433 8.2832L5.65973 8.25225L5.23934 8.31471ZM5.24394 8.34567L4.82356 8.40813C4.83074 8.4565 4.85729 8.5779 4.97231 8.67423C5.10294 8.78363 5.25022 8.78224 5.33328 8.76518C5.40775 8.74988 5.45991 8.71839 5.48083 8.705C5.50648 8.68858 5.52584 8.67247 5.53747 8.66225C5.57705 8.62747 5.60912 8.58736 5.62491 8.56736C5.66518 8.51635 5.71676 8.44321 5.77611 8.35561L5.42424 8.11725L5.07237 7.8789C5.01458 7.96421 4.97755 8.01559 4.95772 8.04072C4.94346 8.05878 4.95261 8.04465 4.9764 8.02374C4.98408 8.01699 4.99994 8.0036 5.02253 7.98913C5.04039 7.9777 5.08995 7.94741 5.16225 7.93256C5.24315 7.91594 5.3887 7.91424 5.51806 8.02257C5.63181 8.11783 5.65752 8.23742 5.66433 8.2832L5.24394 8.34567ZM5.42424 8.11725L5.77611 8.35561L5.9518 8.09624L5.59993 7.85788L5.24806 7.61953L5.07237 7.8789L5.42424 8.11725Z" fill="#67E6FF"/>
</svg>
