<svg width="41" height="40" viewBox="0 0 41 40" fill="none" xmlns="http://www.w3.org/2000/svg">
<g clip-path="url(#clip0_434_3607)">
<path d="M3.83337 11.6666C3.83337 8.9052 6.07195 6.66663 8.83337 6.66663H32.1667C34.9281 6.66663 37.1667 8.9052 37.1667 11.6666V28.3333C37.1667 31.0947 34.9281 33.3333 32.1667 33.3333H8.83337C6.07195 33.3333 3.83337 31.0947 3.83337 28.3333V11.6666Z" fill="#171D29"/>
<path d="M3.83337 6.66663H37.1667H3.83337ZM37.1667 28.3333C37.1667 31.555 34.555 34.1666 31.3334 34.1666H9.66671C6.44505 34.1666 3.83337 31.555 3.83337 28.3333C3.83337 30.6345 6.07195 32.5 8.83337 32.5H32.1667C34.9281 32.5 37.1667 30.6345 37.1667 28.3333ZM3.83337 33.3333V6.66663V33.3333ZM37.1667 6.66663V33.3333V6.66663Z" fill="#333C4A"/>
<path d="M37.0342 8.59453C37.0998 8.80667 37.1362 9.02681 37.1437 9.25496L37.1661 9.9394C37.1736 10.1675 37.0983 10.3689 36.9403 10.5436L36.4662 11.0674C36.3081 11.2421 36.1743 11.4176 36.0646 11.5941L35.7357 12.1234C35.6261 12.2999 35.54 12.5014 35.4777 12.728L35.2905 13.4078C35.2281 13.6344 35.1018 13.8042 34.9115 13.917L34.3406 14.2556C34.1504 14.3684 34.0105 14.5475 33.921 14.7929L33.6526 15.529C33.5632 15.7744 33.4068 15.9264 33.1836 15.9851L32.5138 16.1611C32.2906 16.2198 32.0734 16.2776 31.8622 16.3347L31.2287 16.506C31.0176 16.5631 30.8215 16.6546 30.6404 16.7805L30.0973 17.1581C29.9163 17.284 29.7256 17.3932 29.5254 17.4856L28.9248 17.7629C28.7246 17.8553 28.5153 17.9088 28.297 17.9233L27.6422 17.9668C27.4239 17.9813 27.2083 17.9441 26.9953 17.8551L26.3564 17.5881C26.1435 17.4991 25.9289 17.4818 25.7129 17.5363L25.0647 17.6997C24.8487 17.7542 24.638 17.7473 24.4328 17.6792L23.8171 17.4749C23.6118 17.4068 23.4037 17.326 23.1926 17.2326L22.5593 16.9522C22.3483 16.8587 22.1879 16.7057 22.0781 16.4933L21.749 15.8559C21.6393 15.6435 21.5999 15.4214 21.6308 15.1897L21.7236 14.4945C21.7545 14.2628 21.7434 14.032 21.6903 13.8021L21.531 13.1124C21.4779 12.8825 21.5024 12.6656 21.6044 12.4617L21.9106 11.85C22.0127 11.6461 22.123 11.45 22.2415 11.2618L22.5969 10.6971C22.7154 10.5089 22.8686 10.3534 23.0564 10.2306L23.6199 9.86219C23.8077 9.73939 23.9811 9.60867 24.14 9.47004L24.6168 9.05417C24.7758 8.91554 24.9292 8.76771 25.0771 8.61068L25.5208 8.13958C25.6687 7.98255 25.8173 7.81765 25.9667 7.64489L26.4148 7.12658C26.5642 6.95381 26.7439 6.83629 26.9541 6.774L27.5847 6.58713C27.7949 6.52484 28.0111 6.49181 28.2332 6.48805L28.8995 6.47678C29.1216 6.47302 29.3174 6.36877 29.487 6.16401L29.9956 5.54976C30.1651 5.34501 30.3595 5.22121 30.5788 5.17837L31.2364 5.04983C31.4556 5.00698 31.6773 4.99177 31.9015 5.00418L32.5739 5.04143C32.798 5.05384 33.0097 5.12502 33.2089 5.25497L33.8067 5.64483C34.0059 5.77478 34.1962 5.88931 34.3774 5.98842L34.921 6.28575C35.1022 6.38486 35.2588 6.50781 35.3907 6.65459L35.7866 7.09492C35.9186 7.2417 36.0475 7.34216 36.1733 7.39629L36.5507 7.55871C36.6765 7.61284 36.7722 7.74598 36.8377 7.95812L37.0342 8.59453Z" fill="#54A568"/>
<path d="M14.1449 11.4808C14.3122 11.6205 14.4672 11.7766 14.61 11.9492L15.0381 12.4671C15.1808 12.6398 15.2468 12.8459 15.2361 13.0855L15.204 13.8044C15.1932 14.044 15.201 14.2675 15.2274 14.4747L15.3063 15.0964C15.3327 15.3036 15.3907 15.515 15.4805 15.7305L15.7498 16.377C15.8396 16.5925 15.8429 16.8055 15.7599 17.0158L15.5107 17.6469C15.4277 17.8572 15.4204 18.0889 15.4888 18.3418L15.6941 19.1005C15.7626 19.3534 15.7216 19.5713 15.5712 19.7542L15.12 20.303C14.9696 20.486 14.8221 20.6622 14.6775 20.8317L14.2437 21.3402C14.0991 21.5097 13.9834 21.6982 13.8966 21.9058L13.6362 22.5287C13.5494 22.7364 13.4442 22.9345 13.3206 23.1232L12.9498 23.6891C12.8262 23.8778 12.6745 24.0371 12.4945 24.1671L11.9548 24.557C11.7749 24.6869 11.5715 24.7706 11.3446 24.8079L10.6641 24.9198C10.4373 24.9571 10.245 25.0577 10.0874 25.2218L9.61429 25.714C9.4566 25.8781 9.27434 25.9909 9.0675 26.0524L8.44698 26.237C8.24014 26.2985 8.02791 26.3614 7.81027 26.4256L7.15737 26.6182C6.93974 26.6824 6.72209 26.6828 6.50441 26.6196L5.85137 26.4299C5.6337 26.3667 5.44387 26.2533 5.28191 26.0899L4.79601 25.5997C4.63404 25.4363 4.44513 25.3164 4.22928 25.24L3.58172 25.0107C3.36587 24.9343 3.2033 24.7957 3.09401 24.595L2.76614 23.9927C2.65685 23.7919 2.56344 23.5863 2.48591 23.3756L2.25332 22.7438C2.17579 22.5332 2.15026 22.314 2.17673 22.0862L2.25615 21.4029C2.28263 21.1752 2.29919 20.9549 2.30584 20.7421L2.3258 20.1036C2.33245 19.8908 2.33315 19.6755 2.3279 19.4579L2.31216 18.8051C2.30691 18.5874 2.30088 18.3626 2.29408 18.1305L2.27368 17.4341C2.26688 17.202 2.32158 16.9895 2.43777 16.7968L2.78635 16.2185C2.90254 16.0257 3.0434 15.8527 3.20894 15.6996L3.70557 15.2401C3.87111 15.087 3.95543 14.8753 3.95852 14.605L3.96781 13.7941C3.97091 13.5237 4.04321 13.299 4.18473 13.1199L4.60928 12.5825C4.7508 12.4033 4.91022 12.2431 5.08755 12.1017L5.61955 11.6775C5.79688 11.5362 6.00107 11.4437 6.23213 11.4002L6.92529 11.2695C7.15634 11.226 7.37066 11.1689 7.56824 11.0981L8.16099 10.886C8.35857 10.8152 8.55862 10.7655 8.76113 10.7369L9.36866 10.6508C9.57117 10.6221 9.7722 10.5728 9.97174 10.5029L10.5704 10.2932C10.7699 10.2233 10.9638 10.2365 11.1521 10.3328L11.7169 10.6217C11.9052 10.718 12.1043 10.7768 12.3141 10.798L12.9438 10.8616C13.1537 10.8828 13.2697 10.89 13.292 10.8832L13.3587 10.8627C13.3809 10.8559 13.4757 10.9223 13.643 11.062L14.1449 11.4808Z" fill="#54A568"/>
<path d="M37.0342 8.59453C37.0998 8.80667 37.1362 9.02681 37.1437 9.25496L37.1661 9.9394C37.1736 10.1675 37.0983 10.3689 36.9403 10.5436L36.4662 11.0674C36.3081 11.2421 36.1743 11.4176 36.0646 11.5941L35.7357 12.1234C35.6261 12.2999 35.54 12.5014 35.4777 12.728L35.2905 13.4078C35.2281 13.6344 35.1018 13.8042 34.9115 13.917L34.3406 14.2556C34.1504 14.3684 34.0105 14.5475 33.921 14.7929L33.6526 15.529C33.5632 15.7744 33.4068 15.9264 33.1836 15.9851L32.5138 16.1611C32.2906 16.2198 32.0734 16.2776 31.8622 16.3347L31.2287 16.506C31.0176 16.5631 30.8215 16.6546 30.6404 16.7805L30.0973 17.1581C29.9163 17.284 29.7256 17.3932 29.5254 17.4856L28.9248 17.7629C28.7246 17.8553 28.5153 17.9088 28.297 17.9233L27.6422 17.9668C27.4239 17.9813 27.2083 17.9441 26.9953 17.8551L26.3564 17.5881C26.1435 17.4991 25.9289 17.4818 25.7129 17.5363L25.0647 17.6997C24.8487 17.7542 24.638 17.7473 24.4328 17.6792L23.8171 17.4749C23.6118 17.4068 23.4037 17.326 23.1926 17.2326L22.5593 16.9522C22.3483 16.8587 22.1879 16.7057 22.0781 16.4933L21.749 15.8559C21.6393 15.6435 21.5999 15.4214 21.6308 15.1897L21.7236 14.4945C21.7545 14.2628 21.7434 14.032 21.6903 13.8021L21.531 13.1124C21.4779 12.8825 21.5024 12.6656 21.6044 12.4617L21.9106 11.85C22.0127 11.6461 22.123 11.45 22.2415 11.2618L22.5969 10.6971C22.7154 10.5089 22.8686 10.3534 23.0564 10.2306L23.6199 9.86219C23.8077 9.73939 23.9811 9.60867 24.14 9.47004L24.6168 9.05417C24.7758 8.91554 24.9292 8.76771 25.0771 8.61068L25.5208 8.13958C25.6687 7.98255 25.8173 7.81765 25.9667 7.64489L26.4148 7.12658C26.5642 6.95381 26.7439 6.83629 26.9541 6.774L27.5847 6.58713C27.7949 6.52484 28.0111 6.49181 28.2332 6.48805L28.8995 6.47678C29.1216 6.47302 29.3174 6.36877 29.487 6.16401L29.9956 5.54976C30.1651 5.34501 30.3595 5.22121 30.5788 5.17837L31.2364 5.04983C31.4556 5.00698 31.6773 4.99177 31.9015 5.00418L32.5739 5.04143C32.798 5.05384 33.0097 5.12502 33.2089 5.25497L33.8067 5.64483C34.0059 5.77478 34.1962 5.88931 34.3774 5.98842L34.921 6.28575C35.1022 6.38486 35.2588 6.50781 35.3907 6.65459L35.7866 7.09492C35.9186 7.2417 36.0475 7.34216 36.1733 7.39629L36.5507 7.55871C36.6765 7.61284 36.7722 7.74598 36.8377 7.95812L37.0342 8.59453Z" stroke="#171D29" stroke-linejoin="bevel"/>
<path d="M14.1449 11.4808C14.3122 11.6205 14.4672 11.7766 14.61 11.9492L15.0381 12.4671C15.1808 12.6398 15.2468 12.8459 15.2361 13.0855L15.204 13.8044C15.1932 14.044 15.201 14.2675 15.2274 14.4747L15.3063 15.0964C15.3327 15.3036 15.3907 15.515 15.4805 15.7305L15.7498 16.377C15.8396 16.5925 15.8429 16.8055 15.7599 17.0158L15.5107 17.6469C15.4277 17.8572 15.4204 18.0889 15.4888 18.3418L15.6941 19.1005C15.7626 19.3534 15.7216 19.5713 15.5712 19.7542L15.12 20.303C14.9696 20.486 14.8221 20.6622 14.6775 20.8317L14.2437 21.3402C14.0991 21.5097 13.9834 21.6982 13.8966 21.9058L13.6362 22.5287C13.5494 22.7364 13.4442 22.9345 13.3206 23.1232L12.9498 23.6891C12.8262 23.8778 12.6745 24.0371 12.4945 24.1671L11.9548 24.557C11.7749 24.6869 11.5715 24.7706 11.3446 24.8079L10.6641 24.9198C10.4373 24.9571 10.245 25.0577 10.0874 25.2218L9.61429 25.714C9.4566 25.8781 9.27434 25.9909 9.0675 26.0524L8.44698 26.237C8.24014 26.2985 8.02791 26.3614 7.81027 26.4256L7.15737 26.6182C6.93974 26.6824 6.72209 26.6828 6.50441 26.6196L5.85137 26.4299C5.6337 26.3667 5.44387 26.2533 5.28191 26.0899L4.79601 25.5997C4.63404 25.4363 4.44513 25.3164 4.22928 25.24L3.58172 25.0107C3.36587 24.9343 3.2033 24.7957 3.09401 24.595L2.76614 23.9927C2.65685 23.7919 2.56344 23.5863 2.48591 23.3756L2.25332 22.7438C2.17579 22.5332 2.15026 22.314 2.17673 22.0862L2.25615 21.4029C2.28263 21.1752 2.29919 20.9549 2.30584 20.7421L2.3258 20.1036C2.33245 19.8908 2.33315 19.6755 2.3279 19.4579L2.31216 18.8051C2.30691 18.5874 2.30088 18.3626 2.29408 18.1305L2.27368 17.4341C2.26688 17.202 2.32158 16.9895 2.43777 16.7968L2.78635 16.2185C2.90254 16.0257 3.0434 15.8527 3.20894 15.6996L3.70557 15.2401C3.87111 15.087 3.95543 14.8753 3.95852 14.605L3.96781 13.7941C3.97091 13.5237 4.04321 13.299 4.18473 13.1199L4.60928 12.5825C4.7508 12.4033 4.91022 12.2431 5.08755 12.1017L5.61955 11.6775C5.79688 11.5362 6.00107 11.4437 6.23213 11.4002L6.92529 11.2695C7.15634 11.226 7.37066 11.1689 7.56824 11.0981L8.16099 10.886C8.35857 10.8152 8.55862 10.7655 8.76113 10.7369L9.36866 10.6508C9.57117 10.6221 9.7722 10.5728 9.97174 10.5029L10.5704 10.2932C10.7699 10.2233 10.9638 10.2365 11.1521 10.3328L11.7169 10.6217C11.9052 10.718 12.1043 10.7768 12.3141 10.798L12.9438 10.8616C13.1537 10.8828 13.2697 10.89 13.292 10.8832L13.3587 10.8627C13.3809 10.8559 13.4757 10.9223 13.643 11.062L14.1449 11.4808Z" stroke="#171D29" stroke-linejoin="bevel"/>
<path d="M26 14.5C27 13 31.1 8.9 33.5 8.5" stroke="#338D68"/>
<path d="M5 17.1709C6.77345 16.847 12.5709 16.9443 14.5268 18.3915" stroke="#338D68"/>
<mask id="mask0_434_3607" style="mask-type:alpha" maskUnits="userSpaceOnUse" x="6" y="15" width="10" height="10">
<path d="M8.6865 15.1882C7.24741 15.1273 6.43662 17.2554 6.37586 18.6944C6.31488 20.1334 8.94558 22.6952 11.1993 23.9438C13.453 25.1924 15.6379 21.2484 15.0097 19.0595C13.6924 16.1207 10.1254 15.2491 8.6865 15.1882Z" fill="url(#paint0_linear_434_3607)"/>
</mask>
<g mask="url(#mask0_434_3607)">
<path d="M8.6865 15.1882C7.24741 15.1273 6.43662 17.2554 6.37586 18.6944C6.31488 20.1334 8.94558 22.6952 11.1993 23.9438C13.453 25.1924 15.6379 21.2484 15.0097 19.0595C13.6924 16.1207 10.1254 15.2491 8.6865 15.1882Z" fill="url(#paint1_linear_434_3607)"/>
<path d="M10.5 25C9.12187 23.5001 10.382 21.618 11.5 20.5C12.5 19.5 12 17.5 13.5 17" stroke="white" stroke-width="1.66667" stroke-linecap="square"/>
</g>
<mask id="mask1_434_3607" style="mask-type:alpha" maskUnits="userSpaceOnUse" x="10" y="15" width="10" height="10">
<path d="M13.2414 15.1098C11.8023 15.0489 10.9916 17.177 10.9308 18.616C10.8698 20.055 13.5005 22.6169 15.7542 23.8654C18.0079 25.114 20.1929 21.1701 19.5647 18.9812C18.2473 16.0423 14.6803 15.1707 13.2414 15.1098Z" fill="url(#paint2_linear_434_3607)"/>
</mask>
<g mask="url(#mask1_434_3607)">
<path d="M13.2414 15.1098C11.8023 15.0489 10.9916 17.177 10.9308 18.616C10.8698 20.055 13.5005 22.6169 15.7542 23.8654C18.0079 25.114 20.1929 21.1701 19.5647 18.9812C18.2473 16.0423 14.6803 15.1707 13.2414 15.1098Z" fill="url(#paint3_linear_434_3607)"/>
<path d="M15.5 23.5C15.5 21.5 16.4001 19.5513 17 19C17.5999 18.4487 15.8554 17.8172 17.4161 15.0001" stroke="white" stroke-width="1.66667" stroke-linecap="square"/>
</g>
<mask id="mask2_434_3607" style="mask-type:alpha" maskUnits="userSpaceOnUse" x="14" y="12" width="9" height="10">
<path d="M16.3965 12.351C14.9574 12.2901 14.1466 14.4182 14.0858 15.8572C14.0248 17.2962 16.6555 19.8581 18.9092 21.1066C21.1629 22.3552 23.3479 18.4113 22.7197 16.2224C21.4024 13.2835 17.8353 12.4119 16.3965 12.351Z" fill="url(#paint4_linear_434_3607)"/>
</mask>
<g mask="url(#mask2_434_3607)">
<path d="M16.3965 12.351C14.9574 12.2901 14.1466 14.4182 14.0858 15.8572C14.0248 17.2962 16.6555 19.8581 18.9092 21.1066C21.1629 22.3552 23.3479 18.4113 22.7197 16.2224C21.4024 13.2835 17.8353 12.4119 16.3965 12.351Z" fill="url(#paint5_linear_434_3607)"/>
<path d="M17.0359 21.9369C16.3701 20.0119 18.5 19 18.9247 18.0508C19.2575 17.3071 19.2215 15.7929 21.7761 13.8318" stroke="white" stroke-width="1.66667" stroke-linecap="square"/>
</g>
<mask id="mask3_434_3607" style="mask-type:alpha" maskUnits="userSpaceOnUse" x="17" y="10" width="10" height="10">
<path d="M20.0069 10.465C18.5678 10.4041 17.7571 12.5322 17.6963 13.9712C17.6353 15.4102 20.266 17.9721 22.5197 19.2207C24.7734 20.4692 26.9584 16.5253 26.3302 14.3364C25.0129 11.3976 21.4458 10.5259 20.0069 10.465Z" fill="url(#paint6_linear_434_3607)"/>
</mask>
<g mask="url(#mask3_434_3607)">
<path d="M20.0069 10.465C18.5678 10.4041 17.7571 12.5322 17.6963 13.9712C17.6353 15.4102 20.266 17.9721 22.5197 19.2207C24.7734 20.4692 26.9584 16.5253 26.3302 14.3364C25.0129 11.3976 21.4458 10.5259 20.0069 10.465Z" fill="url(#paint7_linear_434_3607)"/>
<path d="M20.3374 21.0107C19.836 19.0366 22 18 22.5466 17.2974C23.0469 16.6543 23.0323 15.0725 25.7429 13.3333" stroke="white" stroke-width="1.66667" stroke-linecap="square"/>
</g>
<mask id="mask4_434_3607" style="mask-type:alpha" maskUnits="userSpaceOnUse" x="21" y="8" width="10" height="10">
<path d="M23.6178 8.57904C22.1787 8.51814 21.3679 10.6462 21.3071 12.0852C21.2462 13.5242 23.8768 16.0861 26.1306 17.3347C28.3843 18.5832 30.5692 14.6393 29.941 12.4504C28.6237 9.51157 25.0566 8.63992 23.6178 8.57904Z" fill="url(#paint8_linear_434_3607)"/>
</mask>
<g mask="url(#mask4_434_3607)">
<path d="M23.6178 8.57904C22.1787 8.51814 21.3679 10.6462 21.3071 12.0852C21.2462 13.5242 23.8768 16.0861 26.1306 17.3347C28.3843 18.5832 30.5692 14.6393 29.941 12.4504C28.6237 9.51157 25.0566 8.63992 23.6178 8.57904Z" fill="url(#paint9_linear_434_3607)"/>
<path d="M26.0698 18.7738C24.6917 17.274 25.4001 15.0513 26 14.5C26.5999 13.9487 28.8151 13.0492 28.5 10" stroke="white" stroke-width="1.66667" stroke-linecap="square"/>
</g>
<ellipse cx="30.5" cy="25.8334" rx="3.33333" ry="2.5" fill="#FF730F"/>
<path d="M33.5639 26.7235L32.7663 26.482L33.5639 26.7235ZM33.255 27.2555L32.645 26.6877L33.255 27.2555ZM32.8168 27.7262L33.4267 28.294L32.8168 27.7262ZM32.2664 27.9357L32.2015 28.7665L32.2664 27.9357ZM31.6037 27.8839L31.6685 27.0531L31.6037 27.8839ZM30.9908 27.8575L30.9891 28.6908L30.9908 27.8575ZM30.4276 27.8564L30.4259 28.6897L30.4276 27.8564ZM29.8288 27.9086L29.6921 27.0865L29.8288 27.9086ZM29.1945 28.0141L29.3312 28.8361L29.1945 28.0141ZM28.254 27.3804L27.637 27.9406L28.254 27.3804ZM27.7232 26.9647L28.1406 26.2434L27.7232 26.9647ZM27.9909 24.4617L27.4678 23.8129L27.9909 24.4617ZM28.47 24.0707L27.9394 23.4281L28.47 24.0707ZM29.4989 23.3828L29.7423 24.1798L29.4989 23.3828ZM29.8096 23.2879L29.5662 22.4909L29.8096 23.2879ZM30.7483 23.1704L30.5631 23.9829L30.7483 23.1704ZM31.911 23.6343L32.5444 23.0928L31.911 23.6343ZM32.3331 24.128L31.6996 24.6695L32.3331 24.128ZM32.8181 24.5152L32.4383 25.257L32.8181 24.5152ZM33.0921 24.6555L32.7123 25.3973L33.0921 24.6555ZM33.6884 25.1604L34.503 24.9849L33.6884 25.1604ZM33.7367 25.3847L32.922 25.5601L33.7367 25.3847ZM33.785 25.609L32.9703 25.7845L33.785 25.609ZM33.7435 26.1301L32.9459 25.8886L33.7435 26.1301ZM33.6537 26.4268L32.8561 26.1853L32.7663 26.482L33.5639 26.7235L34.3615 26.9649L34.4513 26.6682L33.6537 26.4268ZM33.5639 26.7235L32.7663 26.482C32.7446 26.5535 32.7078 26.6203 32.645 26.6877L33.255 27.2555L33.8649 27.8233C34.0943 27.5769 34.2634 27.2889 34.3615 26.9649L33.5639 26.7235ZM33.255 27.2555L32.645 26.6877L32.4259 26.923L33.0359 27.4908L33.6458 28.0586L33.8649 27.8233L33.255 27.2555ZM33.0359 27.4908L32.4259 26.923L32.2069 27.1584L32.8168 27.7262L33.4267 28.294L33.6458 28.0586L33.0359 27.4908ZM32.8168 27.7262L32.2069 27.1584C32.2127 27.1521 32.235 27.1319 32.2732 27.1174C32.3106 27.1032 32.3347 27.1051 32.3312 27.1049L32.2664 27.9357L32.2015 28.7665C32.6658 28.8027 33.101 28.644 33.4267 28.294L32.8168 27.7262ZM32.2664 27.9357L32.3312 27.1049L31.9999 27.079L31.935 27.9098L31.8702 28.7406L32.2015 28.7665L32.2664 27.9357ZM31.935 27.9098L31.9999 27.079L31.6685 27.0531L31.6037 27.8839L31.5388 28.7147L31.8702 28.7406L31.935 27.9098ZM31.6037 27.8839L31.6685 27.0531C31.4302 27.0345 31.2046 27.0246 30.9924 27.0242L30.9908 27.8575L30.9891 28.6908C31.1524 28.6912 31.3353 28.6989 31.5388 28.7147L31.6037 27.8839ZM30.9908 27.8575L30.9924 27.0242L30.7109 27.0236L30.7092 27.8569L30.7075 28.6903L30.9891 28.6908L30.9908 27.8575ZM30.7092 27.8569L30.7109 27.0236L30.4293 27.023L30.4276 27.8564L30.4259 28.6897L30.7075 28.6903L30.7092 27.8569ZM30.4276 27.8564L30.4293 27.023C30.1892 27.0226 29.943 27.0448 29.6921 27.0865L29.8288 27.9086L29.9656 28.7306C30.1376 28.702 30.2906 28.6894 30.4259 28.6897L30.4276 27.8564ZM29.8288 27.9086L29.6921 27.0865L29.3749 27.1393L29.5117 27.9613L29.6484 28.7834L29.9656 28.7306L29.8288 27.9086ZM29.5117 27.9613L29.3749 27.1393L29.0577 27.1921L29.1945 28.0141L29.3312 28.8361L29.6484 28.7834L29.5117 27.9613ZM29.1945 28.0141L29.0577 27.1921C29.0647 27.1909 29.1084 27.1859 29.1696 27.2064C29.2324 27.2274 29.2714 27.2612 29.2865 27.2779L28.6695 27.8381L28.0526 28.3982C28.3906 28.7705 28.8539 28.9156 29.3312 28.8361L29.1945 28.0141ZM28.6695 27.8381L29.2865 27.2779L29.0787 27.049L28.4617 27.6092L27.8448 28.1694L28.0526 28.3982L28.6695 27.8381ZM28.4617 27.6092L29.0787 27.049L28.8709 26.8202L28.254 27.3804L27.637 27.9406L27.8448 28.1694L28.4617 27.6092ZM28.254 27.3804L28.8709 26.8202C28.6641 26.5924 28.4154 26.4024 28.1406 26.2434L27.7232 26.9647L27.3059 27.686C27.4616 27.7761 27.5669 27.8633 27.637 27.9406L28.254 27.3804ZM27.7232 26.9647L28.1406 26.2434L27.8176 26.0565L27.4003 26.7778L26.9829 27.4991L27.3059 27.686L27.7232 26.9647ZM27.4003 26.7778L27.8176 26.0565L27.4946 25.8696L27.0773 26.5909L26.6599 27.3122L26.9829 27.4991L27.4003 26.7778ZM27.0773 26.5909L27.4946 25.8696C27.4999 25.8727 27.5955 25.9309 27.6496 26.0784C27.705 26.229 27.6692 26.342 27.6627 26.3592L26.8836 26.0634L26.1045 25.7677C26.0118 26.012 25.9652 26.3264 26.0851 26.6528C26.2038 26.9762 26.4394 27.1846 26.6599 27.3122L27.0773 26.5909ZM26.8836 26.0634L27.6627 26.3592L27.792 26.0186L27.0129 25.7229L26.2338 25.4271L26.1045 25.7677L26.8836 26.0634ZM27.0129 25.7229L27.792 26.0186L27.9213 25.678L27.1422 25.3823L26.3631 25.0865L26.2338 25.4271L27.0129 25.7229ZM27.1422 25.3823L27.9213 25.678C27.9646 25.5638 28.0091 25.5174 28.0343 25.4971L27.5113 24.8483L26.9883 24.1996C26.6937 24.437 26.4922 24.7466 26.3631 25.0865L27.1422 25.3823ZM27.5113 24.8483L28.0343 25.4971L28.2741 25.3038L27.7511 24.655L27.2281 24.0063L26.9883 24.1996L27.5113 24.8483ZM27.7511 24.655L28.2741 25.3038L28.5139 25.1104L27.9909 24.4617L27.4678 23.8129L27.2281 24.0063L27.7511 24.655ZM27.9909 24.4617L28.5139 25.1104C28.6763 24.9795 28.8386 24.8471 29.0007 24.7133L28.47 24.0707L27.9394 23.4281C27.7823 23.5578 27.6251 23.6861 27.4678 23.8129L27.9909 24.4617ZM28.47 24.0707L29.0007 24.7133L29.24 24.5156L28.7094 23.873L28.1788 23.2305L27.9394 23.4281L28.47 24.0707ZM28.7094 23.873L29.24 24.5156L29.4794 24.3179L28.9488 23.6754L28.4182 23.0328L28.1788 23.2305L28.7094 23.873ZM28.9488 23.6754L29.4794 24.3179C29.5504 24.2593 29.6351 24.2125 29.7423 24.1798L29.4989 23.3828L29.2555 22.5858C28.9483 22.6796 28.6663 22.8279 28.4182 23.0328L28.9488 23.6754ZM29.4989 23.3828L29.7423 24.1798L30.053 24.0849L29.8096 23.2879L29.5662 22.4909L29.2555 22.5858L29.4989 23.3828ZM29.8096 23.2879L30.053 24.0849L30.3637 23.99L30.1203 23.193L29.877 22.396L29.5662 22.4909L29.8096 23.2879ZM30.1203 23.193L30.3637 23.99C30.4316 23.9693 30.4932 23.967 30.5631 23.9829L30.7483 23.1704L30.9335 22.358C30.5805 22.2775 30.2234 22.2902 29.877 22.396L30.1203 23.193ZM30.7483 23.1704L30.5631 23.9829L30.8803 24.0552L31.0655 23.2428L31.2507 22.4303L30.9335 22.358L30.7483 23.1704ZM31.0655 23.2428L30.8803 24.0552L31.1975 24.1276L31.3827 23.3151L31.5679 22.5026L31.2507 22.4303L31.0655 23.2428ZM31.3827 23.3151L31.1975 24.1276C31.2347 24.136 31.2535 24.1476 31.2775 24.1758L31.911 23.6343L32.5444 23.0928C32.2871 22.7918 31.9537 22.5905 31.5679 22.5026L31.3827 23.3151ZM31.911 23.6343L31.2775 24.1758L31.4886 24.4226L32.122 23.8812L32.7555 23.3397L32.5444 23.0928L31.911 23.6343ZM32.122 23.8812L31.4886 24.4226L31.6996 24.6695L32.3331 24.128L32.9665 23.5866L32.7555 23.3397L32.122 23.8812ZM32.3331 24.128L31.6996 24.6695C31.9071 24.9122 32.1536 25.1112 32.4383 25.257L32.8181 24.5152L33.1979 23.7734C33.1173 23.7322 33.0405 23.6731 32.9665 23.5866L32.3331 24.128ZM32.8181 24.5152L32.4383 25.257L32.7123 25.3973L33.0921 24.6555L33.4719 23.9137L33.1979 23.7734L32.8181 24.5152ZM33.0921 24.6555L32.7123 25.3973L32.9863 25.5375L33.3661 24.7958L33.7458 24.054L33.4719 23.9137L33.0921 24.6555ZM33.3661 24.7958L32.9863 25.5375C33.0085 25.5489 32.9901 25.5438 32.9593 25.509C32.9242 25.4693 32.8895 25.4092 32.8737 25.3358L33.6884 25.1604L34.503 24.9849C34.4016 24.5141 34.0701 24.22 33.7458 24.054L33.3661 24.7958ZM33.6884 25.1604L32.8737 25.3358L32.922 25.5601L33.7367 25.3847L34.5513 25.2093L34.503 24.9849L33.6884 25.1604ZM33.7367 25.3847L32.922 25.5601L32.9703 25.7845L33.785 25.609L34.5996 25.4336L34.5513 25.2093L33.7367 25.3847ZM33.785 25.609L32.9703 25.7845C32.9642 25.7558 32.9786 25.7806 32.9459 25.8886L33.7435 26.1301L34.5411 26.3715C34.6281 26.084 34.6702 25.7613 34.5996 25.4336L33.785 25.609ZM33.7435 26.1301L32.9459 25.8886L32.8561 26.1853L33.6537 26.4268L34.4513 26.6682L34.5411 26.3715L33.7435 26.1301Z" fill="#FF730F"/>
</g>
<defs>
<linearGradient id="paint0_linear_434_3607" x1="14.1694" y1="22.9651" x2="7.49938" y2="15.706" gradientUnits="userSpaceOnUse">
<stop stop-color="#ECDADC"/>
<stop offset="1" stop-color="#F1AC7A"/>
</linearGradient>
<linearGradient id="paint1_linear_434_3607" x1="14.1694" y1="22.9651" x2="7.49938" y2="15.706" gradientUnits="userSpaceOnUse">
<stop stop-color="#ECDADC"/>
<stop offset="1" stop-color="#F1AC7A"/>
</linearGradient>
<linearGradient id="paint2_linear_434_3607" x1="18.7244" y1="22.8868" x2="12.0543" y2="15.6276" gradientUnits="userSpaceOnUse">
<stop stop-color="#ECDADC"/>
<stop offset="1" stop-color="#F1AC7A"/>
</linearGradient>
<linearGradient id="paint3_linear_434_3607" x1="18.7244" y1="22.8868" x2="12.0543" y2="15.6276" gradientUnits="userSpaceOnUse">
<stop stop-color="#ECDADC"/>
<stop offset="1" stop-color="#F1AC7A"/>
</linearGradient>
<linearGradient id="paint4_linear_434_3607" x1="21.8794" y1="20.128" x2="15.2093" y2="12.8688" gradientUnits="userSpaceOnUse">
<stop stop-color="#ECDADC"/>
<stop offset="1" stop-color="#F1AC7A"/>
</linearGradient>
<linearGradient id="paint5_linear_434_3607" x1="21.8794" y1="20.128" x2="15.2093" y2="12.8688" gradientUnits="userSpaceOnUse">
<stop stop-color="#ECDADC"/>
<stop offset="1" stop-color="#F1AC7A"/>
</linearGradient>
<linearGradient id="paint6_linear_434_3607" x1="25.4899" y1="18.242" x2="18.8198" y2="10.9828" gradientUnits="userSpaceOnUse">
<stop stop-color="#ECDADC"/>
<stop offset="1" stop-color="#F1AC7A"/>
</linearGradient>
<linearGradient id="paint7_linear_434_3607" x1="25.4899" y1="18.242" x2="18.8198" y2="10.9828" gradientUnits="userSpaceOnUse">
<stop stop-color="#ECDADC"/>
<stop offset="1" stop-color="#F1AC7A"/>
</linearGradient>
<linearGradient id="paint8_linear_434_3607" x1="29.1007" y1="16.356" x2="22.4307" y2="9.09685" gradientUnits="userSpaceOnUse">
<stop stop-color="#ECDADC"/>
<stop offset="1" stop-color="#F1AC7A"/>
</linearGradient>
<linearGradient id="paint9_linear_434_3607" x1="29.1007" y1="16.356" x2="22.4307" y2="9.09685" gradientUnits="userSpaceOnUse">
<stop stop-color="#ECDADC"/>
<stop offset="1" stop-color="#F1AC7A"/>
</linearGradient>
<clipPath id="clip0_434_3607">
<rect width="40" height="40" fill="white" transform="translate(0.5)"/>
</clipPath>
</defs>
</svg>
