<svg width="16" height="16" viewBox="0 0 16 16" fill="none" xmlns="http://www.w3.org/2000/svg">
<g clip-path="url(#clip0_6925_47093)">
<g clip-path="url(#clip1_6925_47093)">
<circle cx="8.00016" cy="8.00016" r="6.66667" fill="#FF2626"/>
<path d="M9.29339 0.974902L9.82022 1.12985L10.3426 1.28923C10.6063 1.3687 10.8554 1.48236 11.0864 1.63011L11.5424 1.9223L12.0028 2.21449C12.1824 2.32946 12.3717 2.44834 12.5694 2.56423L13.0653 2.85641L13.5655 3.1486C13.8815 3.33377 14.1119 3.60594 14.2384 3.9499L14.6369 5.03011C14.7197 5.25624 14.7945 5.48272 14.8671 5.70745L15.2124 6.77881C15.2523 6.90221 15.2853 7.02239 15.3054 7.13298C15.3238 7.23485 15.3401 7.36791 15.3187 7.50485L15.2832 7.73063L15.2478 7.95199C15.2478 7.95199 15.2484 7.95537 15.2478 7.96084C15.2473 7.96623 15.244 7.9734 15.2434 7.98298C15.2421 8.00276 15.2439 8.02926 15.2434 8.06266C15.2423 8.12987 15.2435 8.21798 15.2478 8.32829L15.2921 9.47933C15.3066 9.84312 15.2024 10.1825 14.9866 10.4754L14.6413 10.9403L14.3004 11.4051C14.1475 11.6123 13.9868 11.8073 13.8179 11.9851L13.446 12.3791L13.0741 12.7687C12.9311 12.9191 12.7854 13.0778 12.6447 13.2468L12.2817 13.6851L11.9187 14.1189C11.693 14.3895 11.4027 14.5728 11.0598 14.6546L10.5108 14.783L9.96188 14.9158C9.71618 14.9741 9.46939 15.0165 9.22256 15.0442L8.6736 15.1062L8.12907 15.1681C7.84592 15.1999 7.5621 15.1869 7.2835 15.1283L6.74339 15.0132L6.20772 14.8981C5.94822 14.8434 5.69658 14.7635 5.45511 14.6546L4.45459 14.203C4.18145 14.0797 3.9402 13.9052 3.7374 13.6851L3.36995 13.2866L2.99808 12.8838C2.83864 12.7106 2.68794 12.531 2.54209 12.3481L2.20563 11.9275L1.86475 11.5025C1.71143 11.3102 1.56929 11.1028 1.43532 10.8827L1.13428 10.3913L0.833236 9.89548C0.632432 9.56482 0.578289 9.19488 0.669434 8.81969L0.943913 7.68636C0.999936 7.45575 1.05185 7.23353 1.10329 7.0223L1.23167 6.50433L1.35563 5.98636C1.41563 5.74013 1.49808 5.50063 1.60355 5.26917L1.82933 4.78219L2.05068 4.29522C2.16889 4.03586 2.32941 3.79984 2.52881 3.59574L3.28141 2.82542C3.46172 2.641 3.66057 2.47447 3.87464 2.32959L4.32178 2.02855L4.76891 1.72308C5.01737 1.55515 5.29268 1.44679 5.58792 1.39548L6.65042 1.20954C6.86795 1.1719 7.08943 1.1362 7.31006 1.09886L7.84574 1.00589L8.38584 0.91735C8.69187 0.865701 8.99606 0.885322 9.29339 0.974902ZM8.57178 2.03298L8.0361 2.12594L7.496 2.21449C7.27755 2.25146 7.06054 2.28791 6.84522 2.32516L5.78272 2.5111C5.64534 2.53487 5.51869 2.58264 5.40199 2.66162L4.95485 2.96709L4.50772 3.26813C4.35648 3.37049 4.2184 3.48811 4.09157 3.61787L3.33896 4.38818C3.23081 4.49889 3.14583 4.62486 3.08219 4.76449L2.86084 5.25147L2.63506 5.73844C2.55885 5.90566 2.50102 6.07963 2.45798 6.25641L2.32959 6.77438L2.20563 7.29235C2.15417 7.5037 2.0979 7.72559 2.04183 7.95641L1.90459 8.52308L1.76735 9.08532C1.74635 9.17175 1.75923 9.23499 1.80277 9.30667L2.10381 9.80251L2.40042 10.2939C2.51148 10.4763 2.62817 10.6456 2.75016 10.7986L3.09105 11.2192L3.42751 11.6442C3.55654 11.8059 3.69335 11.9643 3.8348 12.1179L4.20225 12.5163L4.57412 12.9192C4.67251 13.0256 4.78525 13.1108 4.91943 13.1715L5.41969 13.3973L5.91995 13.6187C6.08689 13.694 6.26253 13.7534 6.44235 13.7913L6.97803 13.902L7.51813 14.0171C7.67783 14.0506 7.83777 14.0574 8.00068 14.0392L8.54964 13.9772L9.09417 13.9197C9.2945 13.8972 9.49847 13.8614 9.70068 13.8134L10.2496 13.6806L10.7942 13.5522C10.8981 13.5276 10.9806 13.4774 11.0509 13.3929L11.414 12.959L11.777 12.5207C11.932 12.3346 12.0905 12.158 12.2507 11.9895L12.6226 11.5955L12.9944 11.2059C13.1292 11.0641 13.2612 10.9046 13.3884 10.7322L13.7293 10.2674L14.0746 9.80251C14.1381 9.71612 14.1629 9.6289 14.1588 9.5236L14.1366 8.95251L14.1145 8.37699C14.1053 8.14488 14.1035 7.92813 14.1278 7.7749L14.1632 7.55355L14.1942 7.3499C14.1936 7.34599 14.1907 7.34183 14.1897 7.33662C14.1818 7.29256 14.1672 7.22316 14.1366 7.12855L13.7913 6.05719C13.723 5.84586 13.6482 5.63321 13.57 5.41969L13.3752 4.87959L13.1759 4.34391C13.141 4.24855 13.0855 4.18059 12.9944 4.12699L12.4942 3.8348L11.9939 3.53818C11.7851 3.41575 11.5841 3.29375 11.3918 3.17074L10.9314 2.87855L10.4754 2.58636C10.3333 2.49541 10.1798 2.42353 10.015 2.37386L9.49261 2.21449L8.96579 2.05954C8.835 2.02025 8.705 2.01043 8.57178 2.03298Z" fill="#FF2626"/>
<path d="M8 4V9.33333" stroke="#FFFAF7" stroke-width="1.06667" stroke-linejoin="round"/>
<path d="M8 10.667V12.0003" stroke="#FFFAF7" stroke-width="1.06667" stroke-linejoin="round"/>
</g>
</g>
<defs>
<clipPath id="clip0_6925_47093">
<rect width="16" height="16" fill="white"/>
</clipPath>
<clipPath id="clip1_6925_47093">
<rect width="16" height="16" fill="white"/>
</clipPath>
</defs>
</svg>
