<svg width="12" height="12" viewBox="0 0 12 12" fill="none" xmlns="http://www.w3.org/2000/svg">
<g clip-path="url(#clip0_3278_83358)">
<circle cx="6" cy="6" r="2" fill="#FF893A"/>
<path d="M7.81088 6.37943L8.19125 6.56902L7.81088 6.37943ZM7.78062 6.44014L7.40025 6.25055L7.78062 6.44014ZM7.53588 7.15352L7.1206 7.06314L7.53588 7.15352ZM7.51952 7.22869L7.9348 7.31907L7.51952 7.22869ZM7.50316 7.30387L7.08788 7.21349L7.50316 7.30387ZM7.03643 7.79894L7.14479 8.2099L7.03643 7.79894ZM6.89135 7.8372L6.78299 7.42624L6.89135 7.8372ZM6.12849 8.04449L6.24299 8.45377L6.12849 8.04449ZM6.05572 8.06484L5.94122 7.65556L6.05572 8.06484ZM5.98296 8.0852L6.09745 8.49449L5.98296 8.0852ZM5.30631 7.92187L5.59356 7.60865L5.30631 7.92187ZM5.25019 7.87041L4.96293 8.18363L5.25019 7.87041ZM5.19407 7.81894L5.48132 7.50572L5.19407 7.81894ZM4.56368 7.35018L4.34734 7.71599L4.56368 7.35018ZM4.49972 7.31235L4.71607 6.94654L4.49972 7.31235ZM4.43577 7.27453L4.21943 7.64035L4.43577 7.27453ZM4.06032 5.75761L3.68216 5.56365L4.06032 5.75761ZM4.49056 5.01317L4.13541 4.77973L4.49056 5.01317ZM5.03989 4.43279L4.78593 4.09201L5.03989 4.43279ZM5.78589 4.10943L5.70758 3.69171L5.78589 4.10943ZM7.38392 4.59595L7.22125 4.98859L7.38392 4.59595ZM7.45334 4.62471L7.61601 4.23208L7.45334 4.62471ZM7.94533 5.15081L7.54295 5.28762L7.94533 5.15081ZM7.96962 5.22226L8.372 5.08545L7.96962 5.22226ZM7.99391 5.29371L7.59153 5.43052L7.99391 5.29371ZM8.07044 5.80791L8.46946 5.95423L8.07044 5.80791ZM8.05101 5.8609L7.65199 5.71458L8.05101 5.8609ZM7.84114 6.31872L7.46077 6.12913L7.84114 6.31872ZM7.81088 6.37943L7.43051 6.18984L7.40025 6.25055L7.78062 6.44014L8.161 6.62972L8.19125 6.56902L7.81088 6.37943ZM7.78062 6.44014L7.40025 6.25055C7.27672 6.49841 7.18436 6.77016 7.1206 7.06314L7.53588 7.15352L7.95116 7.2439C8.00191 7.01067 8.07272 6.80683 8.161 6.62972L7.78062 6.44014ZM7.53588 7.15352L7.1206 7.06314L7.10424 7.13832L7.51952 7.22869L7.9348 7.31907L7.95116 7.2439L7.53588 7.15352ZM7.51952 7.22869L7.10424 7.13832L7.08788 7.21349L7.50316 7.30387L7.91844 7.39424L7.9348 7.31907L7.51952 7.22869ZM7.50316 7.30387L7.08788 7.21349C7.07257 7.28384 7.04994 7.31683 7.03428 7.33343C7.01912 7.34951 6.99056 7.37152 6.92807 7.38799L7.03643 7.79894L7.14479 8.2099C7.33619 8.15943 7.51236 8.06545 7.65277 7.9165C7.7927 7.76808 7.87649 7.587 7.91844 7.39424L7.50316 7.30387ZM7.03643 7.79894L6.92807 7.38799L6.85553 7.40712L6.96389 7.81807L7.07225 8.22903L7.14479 8.2099L7.03643 7.79894ZM6.96389 7.81807L6.85553 7.40712L6.78299 7.42624L6.89135 7.8372L6.99971 8.24815L7.07225 8.22903L6.96389 7.81807ZM6.89135 7.8372L6.78299 7.42624C6.52703 7.49373 6.2707 7.56339 6.01399 7.6352L6.12849 8.04449L6.24299 8.45377C6.49564 8.38309 6.74788 8.31455 6.99971 8.24815L6.89135 7.8372ZM6.12849 8.04449L6.01399 7.6352L5.94122 7.65556L6.05572 8.06484L6.17022 8.47413L6.24299 8.45377L6.12849 8.04449ZM6.05572 8.06484L5.94122 7.65556L5.86846 7.67591L5.98296 8.0852L6.09745 8.49449L6.17022 8.47413L6.05572 8.06484ZM5.98296 8.0852L5.86846 7.67591C5.75663 7.7072 5.6827 7.6904 5.59356 7.60865L5.30631 7.92187L5.01905 8.2351C5.32275 8.51361 5.69992 8.6057 6.09745 8.49449L5.98296 8.0852ZM5.30631 7.92187L5.59356 7.60865L5.53744 7.55718L5.25019 7.87041L4.96293 8.18363L5.01905 8.2351L5.30631 7.92187ZM5.25019 7.87041L5.53744 7.55718L5.48132 7.50572L5.19407 7.81894L4.90681 8.13217L4.96293 8.18363L5.25019 7.87041ZM5.19407 7.81894L5.48132 7.50572C5.2637 7.30614 5.02988 7.13213 4.78002 6.98436L4.56368 7.35018L4.34734 7.71599C4.54516 7.83298 4.7316 7.97149 4.90681 8.13217L5.19407 7.81894ZM4.56368 7.35018L4.78002 6.98436L4.71607 6.94654L4.49972 7.31235L4.28338 7.67817L4.34734 7.71599L4.56368 7.35018ZM4.49972 7.31235L4.71607 6.94654L4.65211 6.90872L4.43577 7.27453L4.21943 7.64035L4.28338 7.67817L4.49972 7.31235ZM4.43577 7.27453L4.65211 6.90872C4.52477 6.83341 4.4462 6.73162 4.40501 6.58162L3.99518 6.69413L3.58534 6.80665C3.68393 7.16575 3.89908 7.4509 4.21943 7.64035L4.43577 7.27453ZM3.99518 6.69413L4.40501 6.58162L4.38505 6.50889L3.97521 6.6214L3.56538 6.73392L3.58534 6.80665L3.99518 6.69413ZM3.97521 6.6214L4.38505 6.50889L4.36508 6.43616L3.95524 6.54867L3.54541 6.66119L3.56538 6.73392L3.97521 6.6214ZM3.95524 6.54867L4.36508 6.43616C4.32257 6.28131 4.33719 6.14905 4.40489 6.01705L4.02674 5.82309L3.64858 5.62912C3.48119 5.95547 3.44815 6.30693 3.54541 6.66119L3.95524 6.54867ZM4.02674 5.82309L4.40489 6.01705L4.43848 5.95157L4.06032 5.75761L3.68216 5.56365L3.64858 5.62912L4.02674 5.82309ZM4.06032 5.75761L4.43848 5.95157L4.47206 5.8861L4.0939 5.69213L3.71575 5.49817L3.68216 5.56365L4.06032 5.75761ZM4.0939 5.69213L4.47206 5.8861C4.58364 5.66857 4.69654 5.47354 4.81045 5.30025L4.4553 5.0668L4.10016 4.83336C3.96729 5.0355 3.83927 5.25736 3.71575 5.49817L4.0939 5.69213ZM4.4553 5.0668L4.81045 5.30025L4.84571 5.24661L4.49056 5.01317L4.13541 4.77973L4.10016 4.83336L4.4553 5.0668ZM4.49056 5.01317L4.84571 5.24661L4.88096 5.19298L4.52581 4.95954L4.17066 4.7261L4.13541 4.77973L4.49056 5.01317ZM4.52581 4.95954L4.88096 5.19298C4.97651 5.04762 5.09578 4.92117 5.24121 4.81279L4.98725 4.47201L4.73329 4.13124C4.51025 4.29745 4.32189 4.49602 4.17066 4.7261L4.52581 4.95954ZM4.98725 4.47201L5.24121 4.81279L5.29385 4.77356L5.03989 4.43279L4.78593 4.09201L4.73329 4.13124L4.98725 4.47201ZM5.03989 4.43279L5.29385 4.77356L5.34649 4.73434L5.09253 4.39356L4.83857 4.05278L4.78593 4.09201L5.03989 4.43279ZM5.09253 4.39356L5.34649 4.73434C5.47701 4.63707 5.62537 4.57193 5.79748 4.53966L5.71917 4.12194L5.64086 3.70422C5.34592 3.75951 5.07652 3.87545 4.83857 4.05278L5.09253 4.39356ZM5.71917 4.12194L5.79748 4.53966L5.8642 4.52715L5.78589 4.10943L5.70758 3.69171L5.64086 3.70422L5.71917 4.12194ZM5.78589 4.10943L5.8642 4.52715L5.93092 4.51464L5.85261 4.09692L5.7743 3.6792L5.70758 3.69171L5.78589 4.10943ZM5.85261 4.09692L5.93092 4.51464C6.07252 4.4881 6.19773 4.50668 6.32205 4.57073L6.5167 4.19293L6.71135 3.81513C6.41726 3.6636 6.09975 3.61818 5.7743 3.6792L5.85261 4.09692ZM6.5167 4.19293L6.32205 4.57073L6.38182 4.60153L6.57647 4.22372L6.77112 3.84592L6.71135 3.81513L6.5167 4.19293ZM6.57647 4.22372L6.38182 4.60153L6.44159 4.63232L6.63624 4.25452L6.83089 3.87672L6.77112 3.84592L6.57647 4.22372ZM6.63624 4.25452L6.44159 4.63232C6.66237 4.74608 6.89924 4.85518 7.15183 4.95983L7.3145 4.56719L7.47717 4.17456C7.24382 4.07788 7.02852 3.97854 6.83089 3.87672L6.63624 4.25452ZM7.3145 4.56719L7.15183 4.95983L7.22125 4.98859L7.38392 4.59595L7.54659 4.20332L7.47717 4.17456L7.3145 4.56719ZM7.38392 4.59595L7.22125 4.98859L7.29067 5.01735L7.45334 4.62471L7.61601 4.23208L7.54659 4.20332L7.38392 4.59595ZM7.45334 4.62471L7.29067 5.01735C7.42009 5.07097 7.4971 5.15277 7.54295 5.28762L7.94533 5.15081L8.3477 5.014C8.22351 4.64871 7.97252 4.37978 7.61601 4.23208L7.45334 4.62471ZM7.94533 5.15081L7.54295 5.28762L7.56724 5.35907L7.96962 5.22226L8.372 5.08545L8.3477 5.014L7.94533 5.15081ZM7.96962 5.22226L7.56724 5.35907L7.59153 5.43052L7.99391 5.29371L8.39629 5.1569L8.372 5.08545L7.96962 5.22226ZM7.99391 5.29371L7.59153 5.43052C7.62962 5.54253 7.64885 5.62136 7.65644 5.67237C7.65823 5.68436 7.65917 5.69351 7.65963 5.7001C7.65985 5.70335 7.65995 5.70579 7.65999 5.70748C7.66003 5.70917 7.66 5.70997 7.66 5.70995C7.66 5.70992 7.66004 5.70891 7.66022 5.707C7.6604 5.70509 7.66075 5.7021 7.66142 5.69815C7.66273 5.69045 7.6655 5.67773 7.67142 5.66159L8.07044 5.80791L8.46946 5.95423C8.52304 5.8081 8.51358 5.65746 8.49718 5.54724C8.47926 5.42686 8.44323 5.29495 8.39629 5.1569L7.99391 5.29371ZM8.07044 5.80791L7.67142 5.66159L7.66171 5.68809L8.06072 5.8344L8.45974 5.98072L8.46946 5.95423L8.07044 5.80791ZM8.06072 5.8344L7.66171 5.68809L7.65199 5.71458L8.05101 5.8609L8.45003 6.00722L8.45974 5.98072L8.06072 5.8344ZM8.05101 5.8609L7.65199 5.71458C7.62695 5.78288 7.56665 5.9167 7.46077 6.12913L7.84114 6.31872L8.22151 6.50831C8.32744 6.29578 8.40706 6.12439 8.45003 6.00722L8.05101 5.8609ZM7.84114 6.31872L7.46077 6.12913L7.43051 6.18984L7.81088 6.37943L8.19125 6.56902L8.22151 6.50831L7.84114 6.31872Z" fill="#FF893A"/>
<path d="M6.42501 1.5V1.64964L6.42524 1.72468C6.42526 1.7562 6.42804 1.81678 6.43628 1.91421L6.44912 2.06408L6.46175 2.21417C6.47337 2.35157 6.46646 2.52721 6.4489 2.72596L6.42501 3H6.42479L6.42343 3.01442L6.26027 3H5.57495V2.95808L5.57653 2.9396L5.60222 2.65114C5.61864 2.46529 5.62013 2.34843 5.61484 2.28583L5.60199 2.13574L5.58937 1.98588C5.5807 1.88335 5.57523 1.79384 5.57518 1.72536V1.65032L5.57495 1.52344V1.5H6.42501Z" fill="#FF893A"/>
<path d="M5.57498 10.5L5.57498 10.4682L5.57543 10.4597L5.58061 10.3355L5.58309 10.2604C5.58379 10.2401 5.58211 10.1883 5.5725 10.0923L5.5423 9.79237C5.52826 9.65215 5.53458 9.47422 5.55177 9.27494L5.57498 9.00496L5.57498 9L5.57543 9L5.57656 8.98648L5.73341 9L6.42504 9L6.42504 9.04147L6.42346 9.0595L6.39867 9.34796C6.38269 9.53326 6.3821 9.64784 6.38808 9.70763L6.41828 10.0076C6.4287 10.1116 6.43522 10.2101 6.43248 10.2897L6.43 10.3646L6.42977 10.3673L6.42504 10.4833L6.42504 10.5L5.57498 10.5Z" fill="#FF893A"/>
<path d="M3.42979 2.31403L3.43586 2.31816L3.44176 2.32245L3.4949 2.36044C3.56123 2.40802 3.62976 2.47313 3.6938 2.53853L3.87391 2.72239C3.94296 2.79291 4.03358 2.89316 4.14284 3.0189L4.29409 3.1931L4.29984 3.19883L4.29936 3.19931L4.30447 3.20503L4.22429 3.27467L3.69992 3.80108L3.67278 3.77404L3.66272 3.76243L3.50125 3.57646C3.39501 3.4542 3.31766 3.3691 3.26665 3.31701L3.08655 3.13314C3.06055 3.1066 3.03958 3.08655 3.02348 3.07192C3.00688 3.05683 2.99937 3.05109 2.99938 3.05109L2.95023 3.01581L2.86885 2.96178L2.83407 2.93859L2.78824 2.89294L3.17027 2.50943L3.34028 2.25445L3.42979 2.31403Z" fill="#FF893A"/>
<path d="M9.59994 8.79584L9.13993 9.27018L9.10949 9.23879L9.0265 9.13477L8.9937 9.09481C8.9921 9.09335 8.98917 9.09084 8.98476 9.0872C8.97179 9.07649 8.95132 9.0608 8.92106 9.04029L8.8081 8.96393L8.69514 8.88725C8.55232 8.79042 8.4287 8.63799 8.32205 8.48183L8.17394 8.26505L8.40756 8.09534L8.79586 7.69494L8.83744 7.73781L8.85815 7.76823L9.00626 7.98501C9.04841 8.04673 9.08357 8.09189 9.11169 8.12349C9.14038 8.15574 9.15498 8.16618 9.15499 8.1662L9.38076 8.3194C9.46235 8.37472 9.55646 8.44528 9.62567 8.52923L9.66865 8.58132L9.67085 8.58391L9.67305 8.58682L9.73173 8.65995L9.74302 8.67451L9.59994 8.79584Z" fill="#FF893A"/>
<path d="M9.33449 2.78892L9.3297 2.80135L9.32429 2.81346L9.29305 2.8823C9.23605 3.00753 9.13921 3.10909 9.05801 3.18364L8.95379 3.27957L8.84957 3.37518C8.76292 3.45471 8.63973 3.55171 8.48943 3.66265L8.26873 3.82567L8.10794 3.60784L7.69951 3.19941L7.73824 3.16069L7.9846 2.97871C8.1286 2.8724 8.22223 2.79701 8.27462 2.74892L8.48322 2.55753C8.50628 2.53636 8.52012 2.52163 8.52736 2.51307L8.54552 2.47292L8.61899 2.27994L8.69946 2.19947L9.03633 2.53634L9.3807 2.66781L9.33449 2.78892Z" fill="#FF893A"/>
<path d="M2.53112 8.99699L2.20416 8.65985L2.29202 8.56925L2.38882 8.53738L2.48672 8.50535L2.48704 8.5047L2.55983 8.38693L2.63263 8.26883C2.70706 8.1483 2.81878 8.02056 2.94595 7.89172L3.12653 7.70875L3.14002 7.69484L3.73182 8.30507L3.71315 8.32432L3.53241 8.50745C3.41866 8.62269 3.36114 8.69564 3.33849 8.73232L3.26585 8.85026L3.19289 8.9682C3.13295 9.06528 3.02709 9.21165 2.8562 9.28237L2.78952 9.31003L2.7754 9.31586L2.76097 9.32071L2.64346 9.35938L2.53112 8.99699Z" fill="#FF893A"/>
<path d="M1.50259 5.05448L1.51273 5.05065L1.5231 5.04749L1.59792 5.02406C1.72899 4.98305 1.87162 4.98561 1.98554 4.99521L2.13563 5.00806L2.28572 5.02068C2.3837 5.02894 2.52834 5.0401 2.72021 5.05448L2.99358 5.07499L2.99989 5.07499L2.99989 5.07544L3.00868 5.07612L2.99989 5.1933L2.99989 5.92505L2.9609 5.92505L2.94512 5.92392L2.65666 5.90229C2.464 5.88785 2.31607 5.87619 2.21406 5.86758L1.9141 5.84234C1.8956 5.84078 1.8803 5.83998 1.8679 5.83964L1.83658 5.83964L1.78767 5.85519L1.59905 5.92505L1.49989 5.92505L1.49989 5.43782L1.37549 5.10136L1.50259 5.05448Z" fill="#FF893A"/>
<path d="M10.4561 5.9442L10.4485 5.94623L10.4406 5.94803L10.3655 5.96426C10.2307 5.99365 10.0872 5.97707 9.97566 5.95727L9.8258 5.93068L9.67571 5.90386C9.62844 5.89548 9.52446 5.89039 9.34195 5.90341L9.05349 5.92392L9.03839 5.92505L9.00008 5.92505L9.00008 5.1773L8.99286 5.07611L9.00008 5.07566L9.00008 5.07499L9.00886 5.07499L9.28133 5.05561C9.48329 5.04119 9.67168 5.03997 9.82444 5.0671L10.1244 5.12028C10.1621 5.12698 10.1868 5.12956 10.2008 5.1302L10.2551 5.11848L10.4232 5.07499L10.5001 5.07499L10.5001 5.58926L10.583 5.91152L10.4561 5.9442Z" fill="#FF893A"/>
</g>
<defs>
<clipPath id="clip0_3278_83358">
<rect width="12" height="12" fill="white"/>
</clipPath>
</defs>
</svg>
