<svg width="40" height="40" viewBox="0 0 40 40" fill="none" xmlns="http://www.w3.org/2000/svg">
<g clip-path="url(#clip0_434_3586)">
<mask id="path-1-inside-1_434_3586" fill="white">
<path d="M3.33337 11.6666C3.33337 8.9052 5.57195 6.66663 8.33337 6.66663H31.6667C34.4281 6.66663 36.6667 8.9052 36.6667 11.6666V28.3333C36.6667 31.0947 34.4281 33.3333 31.6667 33.3333H8.33337C5.57195 33.3333 3.33337 31.0947 3.33337 28.3333V11.6666Z"/>
</mask>
<path d="M3.33337 11.6666C3.33337 8.9052 5.57195 6.66663 8.33337 6.66663H31.6667C34.4281 6.66663 36.6667 8.9052 36.6667 11.6666V28.3333C36.6667 31.0947 34.4281 33.3333 31.6667 33.3333H8.33337C5.57195 33.3333 3.33337 31.0947 3.33337 28.3333V11.6666Z" fill="#171D29"/>
<path d="M3.33337 6.66663H36.6667H3.33337ZM36.6667 28.3333C36.6667 32.0152 33.6819 35 30 35H10C6.31814 35 3.33337 32.0152 3.33337 28.3333C3.33337 30.1742 5.57195 31.6666 8.33337 31.6666H31.6667C34.4281 31.6666 36.6667 30.1742 36.6667 28.3333ZM3.33337 33.3333V6.66663V33.3333ZM36.6667 6.66663V33.3333V6.66663Z" fill="#333C4A" mask="url(#path-1-inside-1_434_3586)"/>
<path d="M10 13.6585C10 10.6817 13.2914 7.7049 16.5828 8.44904C20.6971 9.19333 26.7862 14.1051 28.1028 15.8912C29.4194 17.6774 24.8114 23.3334 21.52 23.3334C16.5828 21.8449 10 16.04 10 13.6585Z" fill="url(#paint0_linear_434_3586)"/>
<path d="M11.7834 20.3252C11.7834 17.3483 15.0749 14.3715 18.3663 15.1157C22.4806 15.86 28.5697 20.7718 29.8862 22.5579C31.2028 24.344 26.5948 30 23.3034 30C18.3663 28.5116 11.7834 22.7066 11.7834 20.3252Z" fill="url(#paint1_linear_434_3586)" stroke="url(#paint2_linear_434_3586)" stroke-width="2"/>
<mask id="mask0_434_3586" style="mask-type:alpha" maskUnits="userSpaceOnUse" x="11" y="15" width="20" height="15">
<path d="M11.7834 20.3252C11.7834 17.3483 15.0749 14.3715 18.3663 15.1157C22.4806 15.86 28.5697 20.7718 29.8862 22.5579C31.2028 24.344 26.5948 30 23.3034 30C18.3663 28.5116 11.7834 22.7066 11.7834 20.3252Z" fill="url(#paint3_linear_434_3586)"/>
</mask>
<g mask="url(#mask0_434_3586)">
<path d="M11.7834 20.3251C11.7834 17.3483 15.0749 14.3715 18.3663 15.1156C22.4806 15.8599 28.5697 20.7717 29.8862 22.5579C31.2028 24.344 26.5948 30 23.3034 30C18.3663 28.5116 11.7834 22.7066 11.7834 20.3251Z" fill="url(#paint4_linear_434_3586)"/>
<path d="M11.6666 18.3334C13.8888 18.6112 16.6055 20.7112 17.5 22.5C18.5 24.5 25.2777 27.2223 28.3333 28.3334" stroke="#FFD6A7" stroke-width="1.66667"/>
<path d="M26.6667 25.8333C24.6667 26.5 23.6112 28.8889 23.3334 30C23.3334 32 27.2223 29.1667 29.1667 27.5C30.2778 26.1111 31.6667 22.5 30.8334 22.5C28.3334 22.5 26.9445 25 26.6667 25.8333Z" fill="url(#paint5_linear_434_3586)"/>
</g>
<path d="M26.5 25.5C24.5 26 22.5 29.5 23.5 30.5C25.4999 30.5 27.9998 28.0001 28.5 27.5L28.5 27.5C29 27 31 24.5 30.5 23C29 22 26.5 24 26.5 25.5Z" stroke="url(#paint6_linear_434_3586)" stroke-linejoin="bevel"/>
</g>
<defs>
<linearGradient id="paint0_linear_434_3586" x1="19.1667" y1="8.33337" x2="19.1667" y2="23.3334" gradientUnits="userSpaceOnUse">
<stop stop-color="#FFF1C3"/>
<stop offset="1" stop-color="#F78833"/>
</linearGradient>
<linearGradient id="paint1_linear_434_3586" x1="20.9501" y1="15" x2="20.9501" y2="30" gradientUnits="userSpaceOnUse">
<stop stop-color="#FFF1C3"/>
<stop offset="1" stop-color="#AF4C00"/>
</linearGradient>
<linearGradient id="paint2_linear_434_3586" x1="24" y1="23.5" x2="29.5" y2="29.5" gradientUnits="userSpaceOnUse">
<stop stop-color="#FEFAF4"/>
<stop offset="1" stop-color="#F7E9E4"/>
</linearGradient>
<linearGradient id="paint3_linear_434_3586" x1="20.9501" y1="15" x2="20.9501" y2="30" gradientUnits="userSpaceOnUse">
<stop stop-color="#FFF1C3"/>
<stop offset="1" stop-color="#AF4C00"/>
</linearGradient>
<linearGradient id="paint4_linear_434_3586" x1="20.9501" y1="15" x2="20.9501" y2="30" gradientUnits="userSpaceOnUse">
<stop stop-color="#FFF1C3"/>
<stop offset="1" stop-color="#F78833"/>
</linearGradient>
<linearGradient id="paint5_linear_434_3586" x1="26" y1="25.5" x2="31.5" y2="30" gradientUnits="userSpaceOnUse">
<stop stop-color="#F7EAE5"/>
<stop offset="1" stop-color="white"/>
</linearGradient>
<linearGradient id="paint6_linear_434_3586" x1="26" y1="24" x2="29" y2="27" gradientUnits="userSpaceOnUse">
<stop stop-color="#FFFCF7"/>
<stop offset="1" stop-color="#FBF3EE"/>
</linearGradient>
<clipPath id="clip0_434_3586">
<rect width="40" height="40" fill="white"/>
</clipPath>
</defs>
</svg>
