<svg width="13" height="10" viewBox="0 0 13 10" fill="none" xmlns="http://www.w3.org/2000/svg">
<g clip-path="url(#clip0_7101_105362)">
<path fill-rule="evenodd" clip-rule="evenodd" d="M7.36723 0.55501C7.56094 0.501479 7.75802 0.486368 7.95512 0.51253L8.42387 0.573565C8.59889 0.596912 8.77304 0.637242 8.94193 0.693194L9.16947 0.767901L9.39457 0.843096C9.60421 0.912631 9.77889 1.04063 9.9102 1.2181L10.0528 1.40804L10.1934 1.59993C10.2923 1.73366 10.3868 1.872 10.4746 2.01253L10.5992 2.21175L10.7256 2.41341C10.8389 2.59476 10.898 2.79713 10.899 3.01107V3.4847C10.8997 3.65133 10.8936 3.81953 10.8804 3.98616L10.8614 4.22298L10.8428 4.46175C10.8268 4.66262 10.7697 4.85275 10.6719 5.02913L10.5567 5.24007L10.4395 5.44857C10.365 5.5827 10.2942 5.71966 10.2266 5.85872L10.1211 6.07649L10.0157 6.29232C9.93323 6.46186 9.82734 6.61818 9.70121 6.75862L9.38041 7.11751C9.25458 7.25758 9.11031 7.3778 8.95121 7.47835L8.5435 7.73616C8.403 7.8249 8.26044 7.90953 8.11723 7.98909L7.91068 8.10384L7.70219 8.21907C7.5721 8.29135 7.44471 8.37084 7.32035 8.4554L7.12113 8.59163L6.92387 8.72493C6.74919 8.84371 6.55435 8.91171 6.34525 8.92415L5.88578 8.95247C5.672 8.96498 5.46782 8.91286 5.28129 8.80501L5.07475 8.68538L4.86625 8.56575C4.71962 8.48087 4.57651 8.38812 4.43949 8.28939L4.05277 8.01009C3.92211 7.91592 3.7926 7.8193 3.6641 7.722L3.28178 7.43392C3.13501 7.32266 3.00494 7.19358 2.89066 7.04915L2.74027 6.86165L2.59281 6.67415C2.48882 6.54264 2.39129 6.40634 2.29984 6.26644L2.1685 6.06722L2.03959 5.868C1.94274 5.71977 1.8588 5.56327 1.79105 5.39925L1.69975 5.17659L1.60844 4.95638C1.53856 4.78682 1.48966 4.61061 1.46293 4.42903L1.42777 4.19222L1.39506 3.9554C1.36774 3.76945 1.36588 3.58292 1.39262 3.39778L1.42777 3.16341L1.46098 2.92903C1.48734 2.7467 1.53795 2.57156 1.61088 2.40413L1.70219 2.19075L1.79594 1.97493C1.86923 1.80691 1.96637 1.65165 2.08402 1.50862L2.23441 1.32356L2.38676 1.14095C2.51886 0.98052 2.68155 0.860157 2.87406 0.789385L3.08256 0.711749L3.2935 0.637042C3.3627 0.611652 3.41419 0.591125 3.44828 0.578448C3.4653 0.572118 3.47847 0.567116 3.48588 0.564288C3.48791 0.563488 3.49027 0.561846 3.49027 0.561846C3.5042 0.556065 3.51474 0.551313 3.51859 0.550127C3.53812 0.5443 3.55535 0.541376 3.55863 0.54085C3.56717 0.539528 3.5744 0.538672 3.57719 0.538409H3.60746C3.61851 0.537945 3.63506 0.536622 3.65434 0.535967C3.69442 0.534619 3.75418 0.531449 3.83256 0.529131L4.07182 0.521807L4.30863 0.517413C4.51447 0.511422 4.7123 0.551464 4.89652 0.641436L5.10551 0.744463L5.31645 0.847979C5.47455 0.925275 5.62592 1.01788 5.76859 1.12679L5.95854 1.27425L6.10355 1.38216L6.21391 1.23909L6.35941 1.0472C6.49678 0.866934 6.67989 0.744453 6.89848 0.683917L7.13285 0.617999L7.36723 0.55501ZM3.33598 0.704913C3.33461 0.707644 3.3332 0.710859 3.33207 0.71419C3.33826 0.701489 3.34539 0.689741 3.35209 0.679034C3.34706 0.686907 3.34082 0.695288 3.33598 0.704913ZM3.3848 0.6346C3.38221 0.637458 3.37909 0.6421 3.37553 0.646319C3.39131 0.627508 3.40867 0.614537 3.4224 0.603838C3.4131 0.611024 3.39819 0.620293 3.3848 0.6346Z" fill="#FF0051"/>
<path d="M10.6016 6.34668L10.6729 6.37891L10.7461 6.41016C10.8027 6.4351 10.8549 6.46819 10.9023 6.50781L11.0244 6.60938C11.0733 6.65039 11.115 6.69894 11.1475 6.75391L11.2266 6.89062C11.258 6.94414 11.2817 7.00226 11.2969 7.0625L11.3359 7.21582C11.3512 7.27668 11.3569 7.33973 11.3535 7.40234L11.3457 7.55957C11.3425 7.61955 11.3329 7.67943 11.3164 7.7373L11.2725 7.89062C11.2562 7.94744 11.2337 8.00194 11.207 8.05469L11.1357 8.19727C11.1093 8.2493 11.0777 8.29882 11.043 8.3457L10.9961 8.41016L10.9492 8.47363C10.915 8.51972 10.877 8.56345 10.8369 8.60449L10.7266 8.71875C10.6871 8.75914 10.6451 8.7971 10.6016 8.83301L10.54 8.88281L10.4795 8.93359C10.4359 8.96952 10.39 9.00408 10.3428 9.03516L10.21 9.12207C10.1633 9.15274 10.1147 9.18077 10.0654 9.20703L9.99512 9.24512L9.92578 9.28223C9.87695 9.30827 9.82604 9.33305 9.77539 9.35547L9.70312 9.3877L9.62988 9.41992C9.56001 9.45072 9.48587 9.45509 9.41309 9.43164L9.2666 9.38477C9.21255 9.36727 9.15892 9.34447 9.10742 9.31738L9.03711 9.28125L8.9668 9.24316C8.91771 9.2173 8.86896 9.18915 8.82227 9.15918L8.75586 9.11621L8.68848 9.07422C8.641 9.04374 8.59475 9.00996 8.55078 8.97461L8.42773 8.875C8.38334 8.83929 8.34036 8.80073 8.30078 8.75977L8.24609 8.70312L8.19141 8.64453C8.16542 8.6176 8.14253 8.58788 8.11914 8.55859L8.15234 8.54102L8.15332 8.54004L8.36035 8.42578C8.51181 8.34163 8.66243 8.25175 8.81055 8.1582L9.21875 7.90039C9.41478 7.7765 9.59497 7.62698 9.75293 7.45117L9.75391 7.4502L10.0742 7.09082C10.2303 6.9168 10.3627 6.7218 10.4658 6.50977H10.4648L10.5527 6.3291C10.569 6.33458 10.5858 6.33974 10.6016 6.34668ZM8.74902 6.28516C8.81218 6.28222 8.87569 6.28879 8.93652 6.30566L9.08789 6.34766C9.1497 6.36487 9.20775 6.39319 9.25977 6.43066L9.3877 6.52344C9.41212 6.54108 9.42488 6.54268 9.42773 6.54297L9.5293 6.52637C9.54479 6.52361 9.57144 6.51351 9.60938 6.48926L9.74219 6.40332C9.79644 6.3686 9.85601 6.34468 9.91895 6.33105L9.99609 6.31445L10.0039 6.31152C9.92302 6.47303 9.8221 6.62316 9.70117 6.75781L9.38086 7.11719C9.25507 7.25717 9.11019 7.37704 8.95117 7.47754L8.54395 7.73535C8.40349 7.82407 8.26036 7.90874 8.11719 7.98828L7.91113 8.10352L7.84766 8.1377L7.8252 8.09375C7.79889 8.04147 7.77775 7.98571 7.76074 7.92969L7.73828 7.85449L7.71484 7.77832C7.69744 7.72088 7.68618 7.6614 7.68164 7.60156L7.66895 7.44336C7.66445 7.38316 7.66749 7.32231 7.67676 7.2627L7.68848 7.18457L7.70117 7.10645C7.71082 7.04458 7.72933 6.98494 7.75684 6.92871L7.79199 6.85742L7.82715 6.78516C7.85548 6.7276 7.89307 6.67609 7.93945 6.63184L8.05469 6.52246C8.10077 6.47862 8.15305 6.44335 8.21094 6.41699L8.35547 6.35156C8.37943 6.34068 8.39927 6.33156 8.41406 6.3252C8.42608 6.32002 8.44189 6.31286 8.45312 6.30957L8.47656 6.30371L8.52539 6.29688C8.54197 6.29558 8.56434 6.29421 8.59082 6.29297L8.74902 6.28516Z" fill="#FF0051"/>
<path d="M3.66675 4.35004L5.79965 6.28516L8.66675 3.28516" stroke="#E3FAFF" stroke-width="0.7" stroke-miterlimit="10"/>
</g>
<defs>
<clipPath id="clip0_7101_105362">
<rect width="12" height="9" fill="white" transform="translate(0.666748 0.5)"/>
</clipPath>
</defs>
</svg>
