<svg width="12" height="13" viewBox="0 0 12 13" fill="none" xmlns="http://www.w3.org/2000/svg">
<g clip-path="url(#clip0_5898_53720)">
<g clip-path="url(#clip1_5898_53720)">
<g clip-path="url(#clip2_5898_53720)">
<circle cx="6.00049" cy="6.5" r="5" fill="url(#paint0_linear_5898_53720)" stroke="#38DEFF" stroke-width="0.75"/>
<circle cx="6" cy="6.5" r="4.5375" stroke="#21A8F1" stroke-width="0.075"/>
<g filter="url(#filter0_i_5898_53720)">
<mask id="path-3-outside-1_5898_53720" maskUnits="userSpaceOnUse" x="0.5" y="1" width="11" height="11" fill="black">
<rect fill="white" x="0.5" y="1" width="11" height="11"/>
<path d="M10.5 6.5C10.5 8.98528 8.48528 11 6 11C3.51472 11 1.5 8.98528 1.5 6.5C1.5 4.01472 3.51472 2 6 2C8.48528 2 10.5 4.01472 10.5 6.5Z"/>
</mask>
<g clip-path="url(#paint1_diamond_5898_53720_clip_path)" data-figma-skip-parse="true" mask="url(#path-3-outside-1_5898_53720)"><g transform="matrix(0.0135 0.00675 -0.00675 0.0135 -0.375001 3.5)"><rect x="0" y="0" width="873.333" height="417.778" fill="url(#paint1_diamond_5898_53720)" opacity="1" shape-rendering="crispEdges"/><rect x="0" y="0" width="873.333" height="417.778" transform="scale(1 -1)" fill="url(#paint1_diamond_5898_53720)" opacity="1" shape-rendering="crispEdges"/><rect x="0" y="0" width="873.333" height="417.778" transform="scale(-1 1)" fill="url(#paint1_diamond_5898_53720)" opacity="1" shape-rendering="crispEdges"/><rect x="0" y="0" width="873.333" height="417.778" transform="scale(-1)" fill="url(#paint1_diamond_5898_53720)" opacity="1" shape-rendering="crispEdges"/></g></g><path d="M10.5 6.5H10.425C10.425 8.94386 8.44386 10.925 6 10.925V11V11.075C8.5267 11.075 10.575 9.0267 10.575 6.5H10.5ZM6 11V10.925C3.55614 10.925 1.575 8.94386 1.575 6.5H1.5H1.425C1.425 9.0267 3.4733 11.075 6 11.075V11ZM1.5 6.5H1.575C1.575 4.05614 3.55614 2.075 6 2.075V2V1.925C3.4733 1.925 1.425 3.9733 1.425 6.5H1.5ZM6 2V2.075C8.44386 2.075 10.425 4.05614 10.425 6.5H10.5H10.575C10.575 3.9733 8.5267 1.925 6 1.925V2Z" data-figma-gradient-fill="{&#34;type&#34;:&#34;GRADIENT_DIAMOND&#34;,&#34;stops&#34;:[{&#34;color&#34;:{&#34;r&#34;:0.0,&#34;g&#34;:0.91666668653488159,&#34;b&#34;:1.0,&#34;a&#34;:0.60000002384185791},&#34;position&#34;:0.0},{&#34;color&#34;:{&#34;r&#34;:0.12941177189350128,&#34;g&#34;:0.65882354974746704,&#34;b&#34;:0.94509804248809814,&#34;a&#34;:0.0},&#34;position&#34;:1.0}],&#34;stopsVar&#34;:[{&#34;color&#34;:{&#34;r&#34;:0.0,&#34;g&#34;:0.91666668653488159,&#34;b&#34;:1.0,&#34;a&#34;:0.60000002384185791},&#34;position&#34;:0.0},{&#34;color&#34;:{&#34;r&#34;:0.12941177189350128,&#34;g&#34;:0.65882354974746704,&#34;b&#34;:0.94509804248809814,&#34;a&#34;:0.0},&#34;position&#34;:1.0}],&#34;transform&#34;:{&#34;m00&#34;:27.000001907348633,&#34;m01&#34;:-13.500000953674316,&#34;m02&#34;:-7.1250014305114746,&#34;m10&#34;:13.500000953674316,&#34;m11&#34;:27.000001907348633,&#34;m12&#34;:-16.750001907348633},&#34;opacity&#34;:1.0,&#34;blendMode&#34;:&#34;NORMAL&#34;,&#34;visible&#34;:true}" mask="url(#path-3-outside-1_5898_53720)"/>
</g>
<g filter="url(#filter1_i_5898_53720)">
<circle cx="6.00063" cy="6.49965" r="4.5" transform="rotate(-30 6.00063 6.49965)" fill="#38DEFF"/>
</g>
<path d="M3 5C3 5 4.20188 9.125 4.70039 9.125C5.19889 9.125 6.06353 5 6.06353 5C6.06353 5 6.69441 9.125 7.19292 9.125C7.69143 9.125 9 5.02966 9 5.02966" stroke="#171D29" stroke-width="0.8775" stroke-linecap="square" stroke-linejoin="bevel"/>
<path d="M8.25 6.875L9.75 6.875" stroke="#171D29" stroke-width="0.8775"/>
<path d="M2.25 6.875H3.75" stroke="#171D29" stroke-width="0.8775"/>
</g>
</g>
</g>
<defs>
<filter id="filter0_i_5898_53720" x="1.42505" y="1.9248" width="9.1499" height="9.15039" filterUnits="userSpaceOnUse" color-interpolation-filters="sRGB">
<feFlood flood-opacity="0" result="BackgroundImageFix"/>
<feBlend mode="normal" in="SourceGraphic" in2="BackgroundImageFix" result="shape"/>
<feColorMatrix in="SourceAlpha" type="matrix" values="0 0 0 0 0 0 0 0 0 0 0 0 0 0 0 0 0 0 127 0" result="hardAlpha"/>
<feOffset dy="63.75"/>
<feGaussianBlur stdDeviation="1.5"/>
<feComposite in2="hardAlpha" operator="arithmetic" k2="-1" k3="1"/>
<feColorMatrix type="matrix" values="0 0 0 0 0 0 0 0 0 0 0 0 0 0 0 0 0 0 0.25 0"/>
<feBlend mode="normal" in2="shape" result="effect1_innerShadow_5898_53720"/>
</filter>
<clipPath id="paint1_diamond_5898_53720_clip_path"><path d="M10.5 6.5H10.425C10.425 8.94386 8.44386 10.925 6 10.925V11V11.075C8.5267 11.075 10.575 9.0267 10.575 6.5H10.5ZM6 11V10.925C3.55614 10.925 1.575 8.94386 1.575 6.5H1.5H1.425C1.425 9.0267 3.4733 11.075 6 11.075V11ZM1.5 6.5H1.575C1.575 4.05614 3.55614 2.075 6 2.075V2V1.925C3.4733 1.925 1.425 3.9733 1.425 6.5H1.5ZM6 2V2.075C8.44386 2.075 10.425 4.05614 10.425 6.5H10.5H10.575C10.575 3.9733 8.5267 1.925 6 1.925V2Z" mask="url(#path-3-outside-1_5898_53720)"/></clipPath><filter id="filter1_i_5898_53720" x="1.49988" y="1.99902" width="9.00146" height="9.07646" filterUnits="userSpaceOnUse" color-interpolation-filters="sRGB">
<feFlood flood-opacity="0" result="BackgroundImageFix"/>
<feBlend mode="normal" in="SourceGraphic" in2="BackgroundImageFix" result="shape"/>
<feColorMatrix in="SourceAlpha" type="matrix" values="0 0 0 0 0 0 0 0 0 0 0 0 0 0 0 0 0 0 127 0" result="hardAlpha"/>
<feOffset dy="0.075"/>
<feGaussianBlur stdDeviation="0.0375"/>
<feComposite in2="hardAlpha" operator="arithmetic" k2="-1" k3="1"/>
<feColorMatrix type="matrix" values="0 0 0 0 0 0 0 0 0 0.477917 0 0 0 0 0.775 0 0 0 0.55 0"/>
<feBlend mode="normal" in2="shape" result="effect1_innerShadow_5898_53720"/>
</filter>
<linearGradient id="paint0_linear_5898_53720" x1="12.7505" y1="6.87506" x2="16.1255" y2="20.7501" gradientUnits="userSpaceOnUse">
<stop stop-color="#38DEFF"/>
<stop offset="1" stop-color="#218599" stop-opacity="0.8"/>
</linearGradient>
<linearGradient id="paint1_diamond_5898_53720" x1="0" y1="0" x2="500" y2="500" gradientUnits="userSpaceOnUse">
<stop stop-color="#00EAFF" stop-opacity="0.6"/>
<stop offset="1" stop-color="#21A8F1" stop-opacity="0"/>
</linearGradient>
<clipPath id="clip0_5898_53720">
<rect width="12" height="12" fill="white" transform="translate(0 0.5)"/>
</clipPath>
<clipPath id="clip1_5898_53720">
<rect width="12" height="12" fill="white" transform="translate(0 0.5)"/>
</clipPath>
<clipPath id="clip2_5898_53720">
<rect width="12" height="12" fill="white" transform="translate(0 0.5)"/>
</clipPath>
</defs>
</svg>
