<svg width="12" height="13" viewBox="0 0 12 13" fill="none" xmlns="http://www.w3.org/2000/svg">
<g clip-path="url(#clip0_6639_44888)">
<path d="M5.66611 10.1958C5.61434 10.1993 5.5153 10.1905 5.43271 10.1079L5.4249 10.1001L5.41708 10.0933C5.40417 10.0803 5.35249 10.0195 5.28427 9.94092L5.08017 9.70654L4.87704 9.47119C4.8136 9.39809 4.74337 9.33227 4.66708 9.27295L4.42197 9.08252L4.17587 8.89209C4.08185 8.81903 3.98935 8.74391 3.89755 8.66846L3.41904 8.27588C3.31274 8.1885 3.21582 8.0903 3.12997 7.98193L2.93662 7.73682L2.74228 7.4917C2.63858 7.36077 2.53835 7.14486 2.6622 6.92041L2.86142 6.55908C2.9048 6.48051 2.96187 6.38899 3.03037 6.2876L3.38193 5.76807C3.46885 5.63946 3.57702 5.53004 3.70517 5.44189L3.96591 5.26318L4.22568 5.08447C4.30061 5.03295 4.36624 4.97337 4.42197 4.90576L4.61923 4.6665L4.81552 4.42725C4.89067 4.33603 4.96715 4.24534 5.04404 4.15576L5.24521 3.92041L5.44736 3.68603C5.53213 3.58727 5.62246 3.49603 5.71787 3.41357L5.94052 3.22119L6.16415 3.02783C6.30487 2.90642 6.47553 2.8465 6.65927 2.84619L6.96787 2.84619L7.27744 2.84521C7.39217 2.84504 7.50743 2.84459 7.62216 2.84326L7.93076 2.83936L8.24033 2.83643C8.3572 2.83507 8.46979 2.8344 8.57724 2.83447L9.14365 2.83447C9.25261 2.83455 9.37592 2.86593 9.47568 2.96045C9.57157 3.0514 9.61024 3.16763 9.62412 3.26709L9.66708 3.57666L9.71005 3.88525C9.73069 4.0336 9.72707 4.18299 9.69931 4.33057L9.64169 4.63916L9.5831 4.94873C9.56811 5.0287 9.56777 5.10818 9.58212 5.18799L9.63779 5.49658L9.69345 5.80615C9.72974 6.00864 9.67883 6.2011 9.54794 6.35986L9.34872 6.60205L9.14853 6.84424C9.06985 6.93967 8.98861 7.03225 8.90537 7.12158L8.6954 7.34814L8.48447 7.57471C8.39844 7.66701 8.30716 7.75429 8.21201 7.8374L7.74521 8.24561C7.65238 8.32666 7.5561 8.40432 7.45712 8.479L7.2081 8.66748L6.95908 8.85498C6.88673 8.90959 6.8231 8.97312 6.76767 9.04443L6.57626 9.28955L6.38486 9.53564C6.31084 9.63087 6.24475 9.71111 6.18759 9.771L6.06162 9.90283L5.93662 10.0337C5.91244 10.059 5.88934 10.0823 5.87021 10.1001C5.86198 10.1077 5.84622 10.1221 5.82822 10.1353C5.8212 10.1404 5.79835 10.1576 5.76669 10.1714C5.7517 10.1779 5.71495 10.1924 5.66611 10.1958ZM7.68759 5.37646C7.99823 5.37646 8.25006 5.1246 8.25009 4.81396C8.25009 4.5033 7.99825 4.25146 7.68759 4.25146C7.37694 4.25147 7.12509 4.50331 7.12509 4.81396C7.12513 5.12459 7.37696 5.37646 7.68759 5.37646Z" fill="white"/>
</g>
<defs>
<clipPath id="clip0_6639_44888">
<rect width="9" height="9" fill="white" transform="translate(1.5 2)"/>
</clipPath>
</defs>
</svg>
