<svg width="16" height="16" viewBox="0 0 16 16" fill="none" xmlns="http://www.w3.org/2000/svg">
<g clip-path="url(#clip0_747_21848)">
<rect width="16" height="16" fill="white"/>
<path d="M7.78101 14.2933C7.6208 14.4271 7.41422 14.4803 7.20581 14.4408C7.01181 14.404 6.85761 14.2949 6.75171 14.2045L6.33276 13.848L5.9148 13.4906C5.73293 13.3353 5.56597 13.1638 5.4148 12.9769L4.71753 12.1136C4.60071 11.9692 4.47589 11.8333 4.34351 11.7064L3.94702 11.3265L3.54956 10.9467C3.41929 10.8218 3.28013 10.7054 3.13159 10.599L2.6814 10.2767L2.23023 9.95349C2.095 9.85661 1.94921 9.71273 1.87573 9.50622C1.79629 9.28259 1.82904 9.06248 1.91675 8.88122L2.11011 8.48083L2.30347 8.08142C2.40666 7.86838 2.55408 7.67328 2.73023 7.49451L3.50171 6.7113C3.63374 6.57733 3.75907 6.43641 3.87769 6.28943L4.22437 5.85974L4.57105 5.43103C4.70915 5.25985 4.85352 5.09386 5.00366 4.93396L5.37964 4.53357L5.75562 4.1322C5.91649 3.96092 6.09132 3.80285 6.27905 3.65857L6.72046 3.3197L7.16089 2.98083C7.30904 2.86699 7.442 2.75101 7.55933 2.63318L7.92066 2.27087L8.28101 1.90759C8.53019 1.65728 8.85043 1.54624 9.19312 1.55994L9.74292 1.58142L10.2917 1.60388C10.4652 1.61084 10.6399 1.60135 10.8142 1.57654L11.363 1.49841L11.9128 1.42029C12.1565 1.38558 12.4063 1.37667 12.6609 1.39197L13.2507 1.42712L13.8406 1.46326C14.023 1.47423 14.2614 1.52973 14.4421 1.72498C14.6298 1.92785 14.6614 2.17815 14.6443 2.37146L14.5955 2.92126L14.5466 3.47009C14.5278 3.6818 14.506 3.89419 14.4802 4.10583L14.4128 4.65564L14.3464 5.20544C14.3272 5.36386 14.3289 5.52213 14.3523 5.68103L14.5144 6.78064C14.5684 7.14839 14.4599 7.49399 14.1931 7.76013L13.8103 8.14197L13.4265 8.5238C13.3049 8.64512 13.1926 8.77967 13.0886 8.92615L12.7654 9.38025L12.4431 9.83533C12.293 10.0468 12.1159 10.2338 11.9128 10.3939L11.0437 11.0795C10.9007 11.1922 10.7666 11.3139 10.6423 11.4447L10.2634 11.8431L9.8855 12.2416C9.73531 12.3997 9.57931 12.5529 9.4187 12.7006L9.01343 13.0726L8.60913 13.4457C8.46167 13.5812 8.35554 13.6844 8.28687 13.7582L7.84741 14.2308L7.78101 14.2933ZM10.9998 6.00037C11.5519 6.00037 11.9995 5.55246 11.9998 5.00037C11.9998 4.44808 11.552 4.00037 10.9998 4.00037C10.4476 4.00048 9.99976 4.44815 9.99976 5.00037C9.99998 5.55239 10.4477 6.00025 10.9998 6.00037Z" fill="currentColor"/>
</g>
<defs>
<clipPath id="clip0_747_21848">
<rect width="16" height="16" fill="white"/>
</clipPath>
</defs>
</svg>
