<svg width="33" height="32" viewBox="0 0 33 32" fill="none" xmlns="http://www.w3.org/2000/svg">
<g clip-path="url(#clip0_8303_48023)">
<path d="M11.8997 10.0793C12.5824 5.66645 16.2998 3.6793 19.0997 4.07958C21.8996 4.47985 21.8998 8.87947 21.8998 8.87947" stroke="#171D29" stroke-width="1.33333"/>
<path d="M29.2286 13.0303C29.2032 13.4097 29.1521 13.9544 29.0499 14.6084C28.8451 15.9184 28.4366 17.6591 27.6231 19.3945C26.8099 21.1292 25.5968 22.8486 23.7881 24.1348C21.9831 25.4183 19.5614 26.2871 16.2999 26.2871C13.0384 26.2871 10.6166 25.4183 8.81158 24.1348C7.00313 22.8487 5.79072 21.1291 4.9776 19.3945C4.16412 17.6591 3.75557 15.9184 3.55084 14.6084C3.44866 13.9544 3.39754 13.4097 3.37213 13.0303C3.37121 13.0164 3.37006 13.0026 3.3692 12.9893L16.1729 17.5381H16.4278L29.2305 12.9893C29.2297 13.0026 29.2295 13.0165 29.2286 13.0303Z" fill="#171D29" stroke="#171D29" stroke-width="0.759613" stroke-linejoin="bevel"/>
<path d="M16.3005 18.4883C8.92713 18.4883 3.98047 15.3594 3.98047 12.4439C3.98047 9.5283 8.92713 6.39941 16.3005 6.39941C23.6738 6.39941 28.6338 9.5283 28.6338 12.4439C28.6338 15.3594 23.6738 18.4883 16.3005 18.4883Z" fill="url(#paint0_linear_8303_48023)"/>
<path d="M16.3004 7.46634C23.2204 7.46634 27.6337 10.4103 27.6337 12.4441C27.6337 14.4779 23.2204 17.4219 16.3004 17.4219C9.38037 17.4219 4.98037 14.4779 4.98037 12.4441C4.98037 10.4103 9.39371 7.46634 16.3004 7.46634ZM16.3004 5.33301C8.94037 5.33301 2.96704 8.51879 2.96704 12.4441C2.96704 16.3695 8.94037 19.5552 16.3004 19.5552C23.6604 19.5552 29.6337 16.3695 29.6337 12.4441C29.6337 8.51879 23.6604 5.33301 16.3004 5.33301Z" fill="#171D29"/>
<path d="M21.3004 14.6657C20.767 10.9324 16.967 9.33237 14.967 9.99906L16.7003 15.199L21.3004 14.6657Z" fill="#FFD4B7"/>
<path d="M12.3004 11.9995C12.893 7.33283 16.3004 4.66614 18.967 5.33282C21.6336 5.99951 20.3003 9.33283 20.3003 9.33283L16.3004 10.6662L12.3004 11.9995Z" fill="#FFD4B7"/>
<path d="M12.3008 11.9995C12.8934 7.33283 16.3008 4.66615 18.9675 5.33283C21.6341 5.99951 20.3008 9.33283 20.3008 9.33283" stroke="#F2BF93" stroke-width="1.33333"/>
<path d="M19.3004 15.9997C18.9448 13.1997 16.3004 11.333 14.3004 11.9997L15.1004 16.3997L19.3004 15.9997Z" fill="#FFD4B7"/>
<path d="M13.6338 13.333C14.1079 9.59968 16.967 7.33301 18.9671 7.99967C20.967 8.66634 20.3005 11.333 20.3005 11.333L13.6338 13.333Z" fill="#FFD4B7"/>
<path d="M14.3004 11.9997C16.3004 11.333 18.9448 13.1997 19.3004 15.9997" stroke="#F2BF93" stroke-width="1.33333"/>
<path d="M13.6342 13.333C14.1083 9.59968 16.9674 7.33301 18.9675 7.99967C20.9674 8.66634 20.3009 11.333 20.3009 11.333" stroke="#F2BF93" stroke-width="1.33333"/>
<path d="M14.967 9.99905C16.967 9.33236 20.767 10.9324 21.3004 14.6657" stroke="#F2BF93" stroke-width="1.33333"/>
<mask id="mask0_8303_48023" style="mask-type:alpha" maskUnits="userSpaceOnUse" x="5" y="10" width="7" height="5">
<path d="M11.6336 13.3329C12.3004 12.6662 11.6337 11.3329 10.967 10.6662C10.3004 9.99952 7.90036 10.1329 6.30036 10.6662C4.70036 11.1996 5.63368 13.9995 6.967 14.6662C8.96702 15.3328 10.967 13.9995 11.6336 13.3329Z" fill="url(#paint1_linear_8303_48023)"/>
</mask>
<g mask="url(#mask0_8303_48023)">
<path d="M11.6336 13.3329C12.3004 12.6662 11.6337 11.3329 10.967 10.6662C10.3004 9.99952 7.90036 10.1329 6.30036 10.6662C4.70036 11.1996 5.63368 13.9995 6.967 14.6662C8.96702 15.3328 10.967 13.9995 11.6336 13.3329Z" fill="url(#paint2_linear_8303_48023)"/>
<path d="M5.63367 9.99902C6.967 9.99902 7.63367 11.4657 7.63367 11.999C7.63367 12.5324 8.967 12.6657 9.63367 14.6657" stroke="white" stroke-width="1.33333" stroke-linecap="square"/>
</g>
<mask id="mask1_8303_48023" style="mask-type:alpha" maskUnits="userSpaceOnUse" x="8" y="10" width="7" height="6">
<path d="M14.8388 13.7136C15.4842 11.4279 13.548 10.666 12.2572 10.666C10.9664 10.666 9.11469 11.9895 8.3847 13.7136C7.73952 15.2374 10.9664 15.9993 12.2573 15.9993C13.5481 15.9993 14.5502 14.7358 14.8388 13.7136Z" fill="url(#paint3_linear_8303_48023)"/>
</mask>
<g mask="url(#mask1_8303_48023)">
<path d="M14.8388 13.7136C15.4842 11.4279 13.548 10.666 12.2572 10.666C10.9664 10.666 9.11469 11.9895 8.3847 13.7136C7.73952 15.2374 10.9664 15.9993 12.2573 15.9993C13.5481 15.9993 14.5502 14.7358 14.8388 13.7136Z" fill="url(#paint4_linear_8303_48023)"/>
<path d="M8.09247 12.5898C9.23626 11.9046 11.2262 12.7418 11.5003 13.1993C11.7744 13.6568 12.3224 13.1644 13.9221 14.5375" stroke="white" stroke-width="1.33333" stroke-linecap="square"/>
</g>
<circle cx="18.3006" cy="9.99967" r="0.666667" fill="#1CA388"/>
<circle cx="15.6335" cy="8.66667" r="0.666667" fill="#1CA388"/>
</g>
<defs>
<linearGradient id="paint0_linear_8303_48023" x1="16.3071" y1="6.39941" x2="16.3071" y2="18.4883" gradientUnits="userSpaceOnUse">
<stop stop-color="#FFE0AF"/>
<stop offset="1" stop-color="white"/>
</linearGradient>
<linearGradient id="paint1_linear_8303_48023" x1="5.4566" y1="12.5314" x2="11.9098" y2="12.5314" gradientUnits="userSpaceOnUse">
<stop stop-color="#ECDADC"/>
<stop offset="1" stop-color="#F1AC7A"/>
</linearGradient>
<linearGradient id="paint2_linear_8303_48023" x1="5.4566" y1="12.5314" x2="11.9098" y2="12.5314" gradientUnits="userSpaceOnUse">
<stop stop-color="#ECDADC"/>
<stop offset="1" stop-color="#F1AC7A"/>
</linearGradient>
<linearGradient id="paint3_linear_8303_48023" x1="8.38481" y1="13.5596" x2="14.6322" y2="13.5596" gradientUnits="userSpaceOnUse">
<stop stop-color="#ECDADC"/>
<stop offset="1" stop-color="#F1AC7A"/>
</linearGradient>
<linearGradient id="paint4_linear_8303_48023" x1="8.38481" y1="13.5596" x2="14.6322" y2="13.5596" gradientUnits="userSpaceOnUse">
<stop stop-color="#ECDADC"/>
<stop offset="1" stop-color="#F1AC7A"/>
</linearGradient>
<clipPath id="clip0_8303_48023">
<rect width="32" height="32" fill="white" transform="translate(0.299988)"/>
</clipPath>
</defs>
</svg>
