<svg width="40" height="40" viewBox="0 0 40 40" fill="none" xmlns="http://www.w3.org/2000/svg">
<g clip-path="url(#clip0_434_3392)">
<g clip-path="url(#clip1_434_3392)">
<path d="M36.1605 16.2882C36.1288 16.7624 36.0646 17.4425 35.9369 18.2599C35.681 19.8975 35.1707 22.0737 34.1537 24.2433C33.1373 26.4116 31.6215 28.5613 29.3607 30.1691C27.1044 31.7735 24.0772 32.8585 20.0004 32.8585C15.9235 32.8585 12.8963 31.7735 10.64 30.1691C8.37922 28.5614 6.86349 26.4116 5.84705 24.2433C4.83007 22.0737 4.31875 19.8975 4.06287 18.2599C3.93517 17.4426 3.87099 16.7624 3.83923 16.2882C3.83809 16.2711 3.83737 16.254 3.8363 16.2374L19.8412 21.923L20.0004 21.9796L20.1586 21.923L36.1625 16.2374C36.1614 16.254 36.1617 16.2711 36.1605 16.2882Z" fill="#171D29" stroke="#333C4A" stroke-width="0.949516"/>
<path d="M20 23.1114C10.7833 23.1114 4.59998 19.2002 4.59998 15.5558C4.59998 11.9114 10.7833 8.00024 20 8.00024C29.2166 8.00024 35.4166 11.9114 35.4166 15.5558C35.4166 19.2002 29.2166 23.1114 20 23.1114Z" fill="url(#paint0_linear_434_3392)"/>
<path d="M20 9.33329C28.65 9.33329 34.1667 13.0133 34.1667 15.5555C34.1667 18.0977 28.65 21.7777 20 21.7777C11.35 21.7777 5.85004 18.0977 5.85004 15.5555C5.85004 13.0133 11.3667 9.33329 20 9.33329ZM20 6.66663C10.8 6.66663 3.33337 10.6488 3.33337 15.5555C3.33337 20.4622 10.8 24.4444 20 24.4444C29.2 24.4444 36.6667 20.4622 36.6667 15.5555C36.6667 10.6488 29.2 6.66663 20 6.66663Z" fill="#171D29"/>
<path d="M24.8504 13.9205V13.8305C24.8504 13.4577 24.5482 13.1555 24.1754 13.1555C23.8026 13.1555 23.5004 13.4577 23.5004 13.8305V13.9205C23.5004 14.2933 23.8026 14.5955 24.1754 14.5955C24.5482 14.5955 24.8504 14.2933 24.8504 13.9205Z" fill="#B20000"/>
<path d="M15.2837 19.4128V19.3605C15.2837 19.1442 15.1083 18.9689 14.892 18.9689C14.6757 18.9689 14.5004 19.1442 14.5004 19.3605V19.4128C14.5004 19.6291 14.6757 19.8044 14.892 19.8044C15.1083 19.8044 15.2837 19.6291 15.2837 19.4128Z" fill="#B20000"/>
<path d="M12.3498 13.2784V12.8551C12.3498 12.2061 11.8237 11.6801 11.1748 11.6801C10.5258 11.6801 9.99976 12.2061 9.99976 12.8551V13.2784C9.99976 13.9273 10.5258 14.4534 11.1748 14.4534C11.8237 14.4534 12.3498 13.9273 12.3498 13.2784Z" fill="#938767"/>
<path d="M26.7578 11.5592C27.295 11.7979 27.2962 12.56 26.7596 12.8004C26.5835 12.8793 26.3821 12.8796 26.2058 12.8012L23.4746 11.5874C22.9374 11.3486 22.9363 10.5865 23.4728 10.3462C23.6489 10.2672 23.8503 10.2669 24.0267 10.3453L26.7578 11.5592Z" fill="#938767"/>
<path d="M21.5166 19.7321V19.3088C21.5166 18.6599 20.9906 18.1338 20.3416 18.1338C19.6927 18.1338 19.1666 18.6599 19.1666 19.3088V19.7321C19.1666 20.3811 19.6927 20.9071 20.3416 20.9071C20.9906 20.9071 21.5166 20.3811 21.5166 19.7321Z" fill="#938767"/>
<path d="M15.5227 18.2721C15.6929 18.3484 15.6914 18.5906 15.5202 18.6648C15.4649 18.6887 15.402 18.6883 15.347 18.6636L13.7774 17.9594C13.6072 17.883 13.6087 17.6408 13.7799 17.5667C13.8352 17.5427 13.898 17.5431 13.953 17.5678L15.5227 18.2721Z" fill="#938767"/>
<path d="M29.4755 16.5158H24.3078C24.0181 16.5158 23.7833 16.7506 23.7833 17.0403C23.7833 17.3299 24.0181 17.5647 24.3078 17.5647H29.4755C29.7652 17.5647 30 17.3299 30 17.0403C30 16.7506 29.7652 16.5158 29.4755 16.5158Z" fill="#938767"/>
<path d="M23.3334 12.3399V12.2999C23.3334 12.1342 23.1991 11.9999 23.0334 11.9999C22.8677 11.9999 22.7334 12.1342 22.7334 12.2999V12.3399C22.7334 12.5056 22.8677 12.6399 23.0334 12.6399C23.1991 12.6399 23.3334 12.5056 23.3334 12.3399Z" fill="#96C66B"/>
<path d="M25.4166 15.2737V15.2337C25.4166 15.068 25.2823 14.9337 25.1167 14.9337C24.951 14.9337 24.8167 15.068 24.8167 15.2337V15.2737C24.8167 15.4394 24.951 15.5737 25.1167 15.5737C25.2823 15.5737 25.4166 15.4394 25.4166 15.2737Z" fill="#96C66B"/>
<path d="M22.0898 17.9897L19.1664 15C15.6181 9.8596 24.9324 10.8898 25.905 13.8754L24.6089 16.6303L22.0898 17.9897Z" fill="#81C698"/>
<path d="M25.2412 13.0465L24.7032 13.6828L24.7032 13.6828L25.2412 13.0465ZM23.2516 11.8313L23.6419 11.0951L23.2516 11.8313ZM22.1328 11.4632L22.0099 12.2874L22.1328 11.4632ZM18.8162 12.1189L19.4344 12.6777L18.8162 12.1189ZM18.679 14.2698L17.963 14.6962L18.679 14.2698ZM19.4042 15.2089L18.8108 15.794L19.4042 15.2089ZM21.0354 16.9311L20.3391 17.3888L21.0354 16.9311ZM21.8167 17.5804L21.5602 18.3733L21.8167 17.5804ZM22.8329 17.5292L23.1065 18.3164L22.8329 17.5292ZM24.501 16.6565L24.6977 17.4663L24.501 16.6565ZM24.8582 16.0937L25.6139 16.4449C25.767 16.1154 25.9386 15.7944 26.1288 15.4818L25.4168 15.0488L24.7048 14.6157C24.4827 14.9809 24.2819 15.3566 24.1025 15.7425L24.8582 16.0937ZM25.4168 15.0488L26.1288 15.4818C26.4139 15.013 26.5584 14.4975 26.5387 13.9515L25.706 13.9814L24.8732 14.0113C24.8803 14.2106 24.832 14.4066 24.7048 14.6157L25.4168 15.0488ZM25.706 13.9814L26.5387 13.9515C26.5165 13.3335 26.2466 12.8052 25.7792 12.4101L25.2412 13.0465L24.7032 13.6828C24.8286 13.7889 24.8686 13.884 24.8732 14.0113L25.706 13.9814ZM25.2412 13.0465L25.7792 12.4101C25.4407 12.1239 25.0774 11.8739 24.6899 11.6608L24.2883 12.391L23.8867 13.1212C24.1769 13.2808 24.4488 13.4678 24.7032 13.6828L25.2412 13.0465ZM24.2883 12.391L24.6899 11.6608C24.3472 11.4724 23.9979 11.2838 23.6419 11.0951L23.2516 11.8313L22.8613 12.5676C23.2099 12.7524 23.5517 12.937 23.8867 13.1212L24.2883 12.391ZM23.2516 11.8313L23.6419 11.0951C23.2063 10.8641 22.7429 10.7116 22.2557 10.6389L22.1328 11.4632L22.0099 12.2874C22.3098 12.3321 22.5923 12.425 22.8613 12.5676L23.2516 11.8313ZM22.1328 11.4632L22.2557 10.6389C21.8216 10.5742 21.3853 10.5418 20.947 10.5417L20.9467 11.375L20.9465 12.2083C21.3026 12.2084 21.6569 12.2348 22.0099 12.2874L22.1328 11.4632ZM20.9467 11.375L20.947 10.5417C20.4758 10.5415 20.0123 10.6035 19.5586 10.7276L19.7783 11.5314L19.9981 12.3352C20.3079 12.2505 20.6234 12.2083 20.9465 12.2083L20.9467 11.375ZM19.7783 11.5314L19.5586 10.7276C19.0269 10.8729 18.5668 11.152 18.1979 11.5601L18.8162 12.1189L19.4344 12.6777C19.5848 12.5112 19.7662 12.3986 19.9981 12.3352L19.7783 11.5314ZM18.8162 12.1189L18.1979 11.5601C17.803 11.997 17.5935 12.5282 17.5672 13.1155L18.3997 13.1527L19.2322 13.1899C19.2419 12.9732 19.31 12.8153 19.4344 12.6777L18.8162 12.1189ZM18.3997 13.1527L17.5672 13.1155C17.542 13.6786 17.6748 14.2123 17.963 14.6962L18.679 14.2698L19.3949 13.8434C19.2748 13.6417 19.2214 13.4308 19.2322 13.1899L18.3997 13.1527ZM18.679 14.2698L17.963 14.6962C18.2014 15.0964 18.4843 15.4628 18.8108 15.794L19.4042 15.2089L19.9976 14.6238C19.7655 14.3884 19.5649 14.1286 19.3949 13.8434L18.679 14.2698ZM19.4042 15.2089L18.8108 15.794C19.1017 16.089 19.4001 16.3743 19.7061 16.6499L20.2638 16.0306L20.8214 15.4113C20.5401 15.158 20.2655 14.8955 19.9976 14.6238L19.4042 15.2089ZM20.2638 16.0306L19.7061 16.6499C19.946 16.8658 20.1568 17.1115 20.3391 17.3888L21.0354 16.9311L21.7318 16.4734C21.4726 16.079 21.169 15.7243 20.8214 15.4113L20.2638 16.0306ZM21.0354 16.9311L20.3391 17.3888C20.6349 17.839 21.035 18.2034 21.5602 18.3733L21.8167 17.5804L22.0731 16.7875C21.9982 16.7633 21.8774 16.6949 21.7318 16.4734L21.0354 16.9311ZM21.8167 17.5804L21.5602 18.3733C22.0743 18.5396 22.604 18.491 23.1065 18.3164L22.8329 17.5292L22.5594 16.7421C22.307 16.8298 22.1592 16.8153 22.0731 16.7875L21.8167 17.5804ZM22.8329 17.5292L23.1065 18.3164C23.5475 18.1631 23.9632 17.9593 24.352 17.7051L23.8961 17.0076L23.4401 16.3101C23.1662 16.4891 22.8732 16.633 22.5594 16.7421L22.8329 17.5292ZM23.8961 17.0076L24.352 17.7051C24.5126 17.6002 24.6318 17.5259 24.7141 17.4781C24.7556 17.454 24.7798 17.4413 24.7904 17.4361C24.7954 17.4336 24.7918 17.4356 24.7814 17.4399C24.7739 17.4429 24.7433 17.4552 24.6977 17.4663L24.501 16.6565L24.3042 15.8467C24.1931 15.8737 24.0991 15.9188 24.055 15.9404C23.9972 15.9689 23.9368 16.0022 23.8775 16.0367C23.7582 16.1059 23.6109 16.1984 23.4401 16.3101L23.8961 17.0076ZM24.501 16.6565L24.6977 17.4663C24.9619 17.4021 25.1226 17.2341 25.1735 17.1795C25.2465 17.1012 25.3045 17.0175 25.3478 16.9493C25.4362 16.8101 25.5253 16.6357 25.6139 16.4449L24.8582 16.0937L24.1025 15.7425C24.0249 15.9095 23.9714 16.0077 23.9407 16.0561C23.9244 16.0817 23.9288 16.0705 23.954 16.0435C23.9673 16.0292 23.9974 15.9985 24.0447 15.9646C24.0895 15.9325 24.1773 15.8776 24.3042 15.8467L24.501 16.6565Z" fill="#81C698"/>
<path d="M19.6484 12.337C20.807 12.9044 21.3905 14.6379 21.3905 14.6379C23.1725 18.3525 15.7535 16.2023 15.6118 14.2226C15.6118 14.2226 14.803 13.1805 15.0453 12.5194C15.5181 11.2289 18.1453 11.601 19.6484 12.337Z" fill="#B20000"/>
<path d="M15.478 13.8132L14.6877 14.0776L15.478 13.8132ZM15.9191 14.8603L15.1582 15.2002L15.9191 14.8603ZM16.1686 15.4191L15.4078 15.7589L16.1686 15.4191ZM16.5276 15.7858L16.1738 16.5403L16.5276 15.7858ZM17.0769 16.0434L17.4306 15.2889L17.0769 16.0434ZM17.6262 16.3009L17.2724 17.0554L17.6262 16.3009ZM19.2887 16.814L19.0635 17.6163L19.2887 16.814ZM19.7838 16.7759L19.4283 16.0221L19.7838 16.7759ZM20.3078 16.5288L19.9523 15.775L20.3078 16.5288ZM20.8318 16.2816L21.1872 17.0354L20.8318 16.2816ZM21.1454 15.9757L21.9188 16.2859L21.1454 15.9757ZM21.3193 15.542L20.5459 15.2318L21.3193 15.542ZM21.4933 15.1082L22.2667 15.4184L21.4933 15.1082ZM21.4465 14.6837L22.1785 14.2855L21.4465 14.6837ZM21.1684 14.1725L20.4364 14.5708L21.1684 14.1725ZM20.2054 12.7734L19.5706 13.3133L20.2054 12.7734ZM19.3932 12.0184L19.6911 11.2402L19.3932 12.0184ZM16.1064 11.9116L15.6922 11.1885L16.1064 11.9116ZM15.6732 12.1597L15.259 11.4366L15.6732 12.1597ZM15.1247 12.7567L14.3344 13.0211L15.1247 12.7567ZM15.3013 13.285L14.511 13.5493L14.6877 14.0776L15.478 13.8132L16.2683 13.5489L16.0916 13.0207L15.3013 13.285ZM15.478 13.8132L14.6877 14.0776C14.75 14.2638 14.8239 14.4518 14.9086 14.6414L15.6695 14.3016L16.4304 13.9617C16.3656 13.8167 16.3119 13.6791 16.2683 13.5489L15.478 13.8132ZM15.6695 14.3016L14.9086 14.6414L15.1582 15.2002L15.9191 14.8603L16.68 14.5205L16.4304 13.9617L15.6695 14.3016ZM15.9191 14.8603L15.1582 15.2002L15.4078 15.7589L16.1686 15.4191L16.9295 15.0792L16.68 14.5205L15.9191 14.8603ZM16.1686 15.4191L15.4078 15.7589C15.5633 16.1071 15.8265 16.3775 16.1738 16.5403L16.5276 15.7858L16.8813 15.0313C16.8836 15.0324 16.8959 15.039 16.91 15.0534C16.9241 15.0678 16.9295 15.0792 16.9295 15.0792L16.1686 15.4191ZM16.5276 15.7858L16.1738 16.5403L16.7231 16.7979L17.0769 16.0434L17.4306 15.2889L16.8813 15.0313L16.5276 15.7858ZM17.0769 16.0434L16.7231 16.7979L17.2724 17.0554L17.6262 16.3009L17.98 15.5464L17.4306 15.2889L17.0769 16.0434ZM17.6262 16.3009L17.2724 17.0554C17.478 17.1518 17.6898 17.2308 17.9075 17.2919L18.1327 16.4895L18.3579 15.6872C18.2293 15.6511 18.1035 15.6043 17.98 15.5464L17.6262 16.3009ZM18.1327 16.4895L17.9075 17.2919L18.4855 17.4541L18.7107 16.6518L18.9359 15.8494L18.3579 15.6872L18.1327 16.4895ZM18.7107 16.6518L18.4855 17.4541L19.0635 17.6163L19.2887 16.814L19.5139 16.0117L18.9359 15.8494L18.7107 16.6518ZM19.2887 16.814L19.0635 17.6163C19.422 17.717 19.7938 17.6925 20.1392 17.5296L19.7838 16.7759L19.4283 16.0221C19.437 16.018 19.4549 16.0118 19.4783 16.01C19.5012 16.0083 19.5146 16.0119 19.5139 16.0117L19.2887 16.814ZM19.7838 16.7759L20.1392 17.5296L20.6632 17.2825L20.3078 16.5288L19.9523 15.775L19.4283 16.0221L19.7838 16.7759ZM20.3078 16.5288L20.6632 17.2825L21.1872 17.0354L20.8318 16.2816L20.4764 15.5279L19.9523 15.775L20.3078 16.5288ZM20.8318 16.2816L21.1872 17.0354C21.4867 16.8941 21.7707 16.6552 21.9188 16.2859L21.1454 15.9757L20.3719 15.6656C20.391 15.6181 20.4188 15.5796 20.446 15.5531C20.4711 15.5286 20.4865 15.5231 20.4764 15.5279L20.8318 16.2816ZM21.1454 15.9757L21.9188 16.2859L22.0928 15.8522L21.3193 15.542L20.5459 15.2318L20.3719 15.6656L21.1454 15.9757ZM21.3193 15.542L22.0928 15.8522L22.2667 15.4184L21.4933 15.1082L20.7198 14.798L20.5459 15.2318L21.3193 15.542ZM21.4933 15.1082L22.2667 15.4184C22.4335 15.0027 22.3487 14.5984 22.1785 14.2855L21.4465 14.6837L20.7145 15.0819C20.7157 15.0841 20.6987 15.054 20.6923 14.9959C20.6854 14.9328 20.6939 14.8626 20.7198 14.798L21.4933 15.1082ZM21.4465 14.6837L22.1785 14.2855L21.9004 13.7743L21.1684 14.1725L20.4364 14.5708L20.7145 15.0819L21.4465 14.6837ZM21.1684 14.1725L21.9004 13.7743L21.6224 13.2631L20.8903 13.6614L20.1583 14.0596L20.4364 14.5708L21.1684 14.1725ZM20.8903 13.6614L21.6224 13.2631C21.5109 13.0583 21.3786 12.8664 21.2266 12.6877L20.5918 13.2276L19.957 13.7675C20.0365 13.861 20.1032 13.9582 20.1583 14.0596L20.8903 13.6614ZM20.5918 13.2276L21.2266 12.6877L20.8402 12.2334L20.2054 12.7734L19.5706 13.3133L19.957 13.7675L20.5918 13.2276ZM20.2054 12.7734L20.8402 12.2334L20.4538 11.7792L19.819 12.3191L19.1843 12.859L19.5706 13.3133L20.2054 12.7734ZM19.819 12.3191L20.4538 11.7792C20.2468 11.5358 19.9887 11.3541 19.6911 11.2402L19.3932 12.0184L19.0952 12.7967C19.134 12.8115 19.1598 12.8303 19.1843 12.859L19.819 12.3191ZM19.3932 12.0184L19.6911 11.2402L19.1297 11.0252L18.8317 11.8035L18.5337 12.5817L19.0952 12.7967L19.3932 12.0184ZM18.8317 11.8035L19.1297 11.0252L18.5682 10.8102L18.2702 11.5885L17.9723 12.3667L18.5337 12.5817L18.8317 11.8035ZM18.2702 11.5885L18.5682 10.8102C18.2581 10.6915 17.9313 10.6608 17.6046 10.7194L17.7518 11.5397L17.8991 12.3599C17.9272 12.3549 17.946 12.3567 17.9723 12.3667L18.2702 11.5885ZM17.7518 11.5397L17.6046 10.7194L17.0123 10.8258L17.1595 11.646L17.3067 12.4662L17.8991 12.3599L17.7518 11.5397ZM17.1595 11.646L17.0123 10.8258L16.42 10.9321L16.5672 11.7523L16.7144 12.5725L17.3067 12.4662L17.1595 11.646ZM16.5672 11.7523L16.42 10.9321C16.1674 10.9774 15.9198 11.0581 15.6922 11.1885L16.1064 11.9116L16.5206 12.6347C16.5526 12.6164 16.6122 12.5909 16.7144 12.5725L16.5672 11.7523ZM16.1064 11.9116L15.6922 11.1885L15.259 11.4366L15.6732 12.1597L16.0874 12.8828L16.5206 12.6347L16.1064 11.9116ZM15.6732 12.1597L15.259 11.4366L14.8257 11.6848L15.2399 12.4079L15.6541 13.131L16.0874 12.8828L15.6732 12.1597ZM15.2399 12.4079L14.8257 11.6848C14.6238 11.8004 14.4197 11.9952 14.3225 12.2894C14.2296 12.5706 14.2712 12.8323 14.3344 13.0211L15.1247 12.7567L15.915 12.4924C15.9252 12.523 15.9595 12.6474 15.905 12.8123C15.8463 12.9902 15.7262 13.0897 15.6541 13.131L15.2399 12.4079ZM15.1247 12.7567L14.3344 13.0211L14.511 13.5493L15.3013 13.285L16.0916 13.0207L15.915 12.4924L15.1247 12.7567Z" fill="#B20000"/>
</g>
</g>
<defs>
<linearGradient id="paint0_linear_434_3392" x1="20.0083" y1="8.00024" x2="20.0083" y2="23.1114" gradientUnits="userSpaceOnUse">
<stop stop-color="#C38829"/>
<stop offset="1" stop-color="#95743F"/>
</linearGradient>
<clipPath id="clip0_434_3392">
<rect width="40" height="40" fill="white"/>
</clipPath>
<clipPath id="clip1_434_3392">
<rect width="33.3333" height="26.6667" fill="white" transform="translate(3.33337 6.66663)"/>
</clipPath>
</defs>
</svg>
