<svg width="12" height="13" viewBox="0 0 12 13" fill="none" xmlns="http://www.w3.org/2000/svg">
<g clip-path="url(#clip0_8382_54452)">
<path d="M9.93427 7.84668L10.0056 7.87891L10.0788 7.91113C10.1354 7.93608 10.1876 7.96914 10.235 8.00879L10.3571 8.11035C10.406 8.15137 10.4477 8.1999 10.4802 8.25488L10.5593 8.3916C10.5908 8.44519 10.6144 8.50315 10.6296 8.56348L10.6686 8.7168C10.6839 8.77753 10.6895 8.83985 10.6862 8.90234L10.6784 9.06055C10.6752 9.12035 10.6655 9.17959 10.6491 9.2373L10.6052 9.39062C10.5889 9.44754 10.5665 9.50283 10.5397 9.55566L10.4684 9.69824C10.442 9.75028 10.4104 9.7998 10.3757 9.84668L10.3288 9.91016L10.2819 9.97461C10.2478 10.0207 10.2097 10.0635 10.1696 10.1045L10.0593 10.2188C10.0198 10.2591 9.97784 10.2981 9.93427 10.334L9.87274 10.3838L9.81219 10.4346C9.76865 10.4705 9.72265 10.5041 9.67548 10.5352L9.54266 10.623C9.49594 10.6538 9.44745 10.6817 9.39813 10.708L9.32782 10.7451L9.25848 10.7832C9.20965 10.8092 9.15874 10.8331 9.10809 10.8555L9.03583 10.8887L8.96259 10.9209C8.89276 10.9516 8.8185 10.9561 8.74579 10.9326L8.5993 10.8857C8.54528 10.8682 8.49159 10.8454 8.44012 10.8184L8.2995 10.7441C8.25042 10.7183 8.20165 10.6891 8.15497 10.6592L8.08856 10.6162L8.02118 10.5742C7.97386 10.5438 7.92732 10.5108 7.88348 10.4756L7.76044 10.375C7.71619 10.3394 7.67293 10.3016 7.63348 10.2607L7.52411 10.1455C7.49815 10.1186 7.47521 10.0888 7.45184 10.0596L7.48602 10.041H7.487L7.69305 9.92578C7.84464 9.84156 7.99599 9.75183 8.14423 9.6582L8.55145 9.40039C8.74752 9.27647 8.92765 9.12703 9.08563 8.95117L9.08661 8.9502L9.4079 8.5918C9.56396 8.41784 9.69544 8.22268 9.79852 8.01074V8.00977L9.88641 7.83008C9.90239 7.83549 9.91877 7.83987 9.93427 7.84668ZM8.08173 7.78516C8.14493 7.7822 8.20834 7.78975 8.26923 7.80664L8.42059 7.84863C8.48241 7.86584 8.54045 7.89416 8.59247 7.93164L8.7204 8.02344C8.74438 8.04076 8.75729 8.04359 8.76044 8.04395L8.862 8.02637C8.87749 8.02361 8.90414 8.01449 8.94208 7.99023L9.07489 7.9043C9.12913 7.86959 9.18873 7.84468 9.25165 7.83105L9.3288 7.81543L9.33759 7.8125C9.2567 7.97399 9.15576 8.12416 9.03485 8.25879L8.71356 8.61719C8.58778 8.75718 8.44387 8.878 8.28485 8.97852L7.87665 9.23633C7.73631 9.32496 7.59392 9.40978 7.45087 9.48926L7.24384 9.60352L7.18036 9.6377L7.1579 9.59375C7.13172 9.54164 7.1104 9.48648 7.09344 9.43066L7.07098 9.35449L7.04755 9.2793C7.03012 9.22184 7.01888 9.1624 7.01434 9.10254L7.00165 8.94434C6.99713 8.88411 7.0002 8.82332 7.00946 8.76367L7.02118 8.68555L7.03387 8.60742C7.04352 8.54545 7.06198 8.48503 7.08954 8.42871L7.12469 8.3584L7.15985 8.28613C7.18825 8.22836 7.22559 8.17622 7.27216 8.13184L7.38739 8.02246C7.43345 7.9787 7.48581 7.94331 7.54364 7.91699L7.68817 7.85156C7.71195 7.84077 7.73202 7.83252 7.74677 7.82617C7.75878 7.821 7.77459 7.81383 7.78583 7.81055L7.79755 7.80762L7.80927 7.80371L7.85809 7.79688C7.87464 7.79558 7.89712 7.79421 7.92352 7.79297L8.08173 7.78516Z" fill="#71E5C2"/>
<path d="M7.28906 2.0127L7.75781 2.07324C7.9327 2.0966 8.10662 2.13745 8.27539 2.19336L8.50293 2.26758L8.72852 2.34277C8.93803 2.41233 9.1129 2.54039 9.24414 2.71777L9.38672 2.9082L9.52734 3.09961C9.62626 3.23334 9.72076 3.37217 9.80859 3.5127L9.93262 3.71191L10.0596 3.91309C10.1728 4.09435 10.2314 4.29692 10.2324 4.51074V4.98438C10.2332 5.151 10.227 5.3197 10.2139 5.48633L10.1953 5.72266L10.1768 5.96191C10.1607 6.16271 10.1036 6.35297 10.0059 6.5293L9.89062 6.74023L9.77344 6.94824C9.69905 7.08224 9.6281 7.21948 9.56055 7.3584L9.45508 7.57617L9.34961 7.79199C9.2672 7.96149 9.16124 8.11837 9.03516 8.25879L8.71387 8.61719C8.58809 8.75719 8.44417 8.87799 8.28516 8.97852L7.87695 9.23633C7.73658 9.32499 7.59425 9.40976 7.45117 9.48926L7.24414 9.60352L7.03613 9.71875C6.9062 9.79094 6.77852 9.87062 6.6543 9.95508L6.45508 10.0918L6.25781 10.2246C6.08314 10.3434 5.88781 10.4114 5.67871 10.4238L5.21973 10.4521C5.00601 10.4647 4.80172 10.4125 4.61523 10.3047L4.4082 10.1855L4.2002 10.0654C4.05361 9.98058 3.91042 9.88776 3.77344 9.78906L3.38672 9.50977C3.2561 9.41563 3.1265 9.31895 2.99805 9.22168L2.61523 8.93359C2.46855 8.82238 2.33884 8.69318 2.22461 8.54883L2.07422 8.36133L1.92676 8.17383C1.82285 8.04242 1.72517 7.90639 1.63379 7.7666L1.50195 7.56738L1.37305 7.36816C1.27626 7.22003 1.19273 7.06333 1.125 6.89941L1.0332 6.67676L0.942383 6.45605C0.872527 6.28653 0.823602 6.11025 0.796875 5.92871L0.761719 5.69238L0.728516 5.45508C0.701237 5.26923 0.699844 5.0825 0.726562 4.89746L0.761719 4.66309L0.794922 4.42871C0.821289 4.24658 0.871497 4.07156 0.944336 3.9043L1.03613 3.69043L1.12988 3.47461C1.20316 3.30674 1.30041 3.1517 1.41797 3.00879L1.56836 2.82324L1.7207 2.64062C1.85275 2.48039 2.01565 2.35978 2.20801 2.28906L2.41602 2.21191L2.62695 2.13672C2.69614 2.11134 2.74815 2.0908 2.78223 2.07812C2.79893 2.07191 2.81197 2.06726 2.81934 2.06445C2.82136 2.06365 2.82422 2.06152 2.82422 2.06152C2.83791 2.05583 2.84873 2.05098 2.85254 2.0498C2.87187 2.04407 2.88932 2.04154 2.89258 2.04102C2.90094 2.03973 2.90839 2.03835 2.91113 2.03809H2.94141C2.95245 2.03761 2.96925 2.03678 2.98828 2.03613C3.02835 2.03478 3.08794 2.03161 3.16602 2.0293L3.40527 2.02148L3.64258 2.01758C3.84826 2.01165 4.04637 2.05169 4.23047 2.1416L4.43945 2.24414L4.65039 2.34766C4.80841 2.42493 4.95993 2.5181 5.10254 2.62695L5.29199 2.77441L5.4375 2.88184L5.54785 2.73926L5.69336 2.54688C5.83069 2.36683 6.014 2.24409 6.23242 2.18359L6.4668 2.11816L6.70117 2.05469C6.89473 2.00126 7.09212 1.98655 7.28906 2.0127ZM2.66992 2.20508C2.66861 2.2077 2.66712 2.21068 2.66602 2.21387C2.67216 2.20132 2.67892 2.1893 2.68555 2.17871C2.68052 2.18658 2.67476 2.19546 2.66992 2.20508ZM2.71875 2.13477C2.71616 2.13762 2.71254 2.14227 2.70898 2.14648C2.72476 2.12767 2.74212 2.11421 2.75586 2.10352C2.74658 2.11068 2.73211 2.12052 2.71875 2.13477Z" fill="#71E5C2"/>
<path d="M3 5.56488L5.1329 7.5L8 4.5" stroke="white" stroke-width="0.85" stroke-miterlimit="10"/>
</g>
<defs>
<clipPath id="clip0_8382_54452">
<rect width="12" height="12" fill="white" transform="translate(0 0.5)"/>
</clipPath>
</defs>
</svg>
