<svg width="41" height="40" viewBox="0 0 41 40" fill="none" xmlns="http://www.w3.org/2000/svg">
<g clip-path="url(#clip0_434_3435)">
<g clip-path="url(#clip1_434_3435)">
<path d="M36.6605 16.2882C36.6288 16.7624 36.5646 17.4425 36.4369 18.2599C36.181 19.8975 35.6707 22.0737 34.6537 24.2433C33.6373 26.4116 32.1215 28.5613 29.8607 30.1691C27.6044 31.7735 24.5772 32.8585 20.5004 32.8585C16.4235 32.8585 13.3963 31.7735 11.14 30.1691C8.87922 28.5614 7.36349 26.4116 6.34705 24.2433C5.33007 22.0737 4.81875 19.8975 4.56287 18.2599C4.43517 17.4426 4.37099 16.7624 4.33923 16.2882C4.33809 16.2711 4.33737 16.254 4.3363 16.2374L20.3412 21.923L20.5004 21.9796L20.6586 21.923L36.6625 16.2374C36.6614 16.254 36.6617 16.2711 36.6605 16.2882Z" fill="#171D29" stroke="#333C4A" stroke-width="0.949516"/>
<path d="M20.5 23.1114C11.2833 23.1114 5.09998 19.2002 5.09998 15.5558C5.09998 11.9114 11.2833 8.00024 20.5 8.00024C29.7166 8.00024 35.9166 11.9114 35.9166 15.5558C35.9166 19.2002 29.7166 23.1114 20.5 23.1114Z" fill="url(#paint0_linear_434_3435)"/>
<path d="M20.5 9.33329C29.15 9.33329 34.6667 13.0133 34.6667 15.5555C34.6667 18.0977 29.15 21.7777 20.5 21.7777C11.85 21.7777 6.35004 18.0977 6.35004 15.5555C6.35004 13.0133 11.8667 9.33329 20.5 9.33329ZM20.5 6.66663C11.3 6.66663 3.83337 10.6488 3.83337 15.5555C3.83337 20.4622 11.3 24.4444 20.5 24.4444C29.7 24.4444 37.1667 20.4622 37.1667 15.5555C37.1667 10.6488 29.7 6.66663 20.5 6.66663Z" fill="#171D29"/>
<path d="M12.8498 13.2784V12.8551C12.8498 12.2061 12.3237 11.6801 11.6748 11.6801C11.0258 11.6801 10.4998 12.2061 10.4998 12.8551V13.2784C10.4998 13.9273 11.0258 14.4534 11.6748 14.4534C12.3237 14.4534 12.8498 13.9273 12.8498 13.2784Z" fill="#938767"/>
<path d="M28.5083 13.0036C29.0455 13.2424 29.0467 14.0045 28.5101 14.2449C28.334 14.3238 28.1326 14.3241 27.9563 14.2457L25.2251 13.0319C24.6879 12.7931 24.6868 12.031 25.2233 11.7906C25.3994 11.7117 25.6008 11.7114 25.7772 11.7898L28.5083 13.0036Z" fill="#938767"/>
<path d="M11.1834 14.9317V14.5084C11.1834 13.8594 10.6573 13.3334 10.0084 13.3334C9.35944 13.3334 8.83337 13.8594 8.83337 14.5084V14.9317C8.83337 15.5806 9.35944 16.1067 10.0084 16.1067C10.6573 16.1067 11.1834 15.5806 11.1834 14.9317Z" fill="#938767"/>
<path d="M16.4667 18.4713L15.9334 18.7024L13.8334 17.7602L14.3667 17.5291L16.4667 18.4713Z" fill="#938767"/>
<path d="M29 16H28C27.4477 16 27 16.4477 27 17C27 17.5523 27.4477 18 28 18H28.5H29C29.5523 18 30 17.5523 30 17C30 16.4477 29.5523 16 29 16Z" fill="#938767"/>
<path d="M24 19H23C22.4477 19 22 19.4477 22 20C22 20.5523 22.4477 21 23 21H23.5H24C24.5523 21 25 20.5523 25 20C25 19.4477 24.5523 19 24 19Z" fill="#938767"/>
<path d="M23.8334 11.9999H23.2334V12.6399H23.8334V11.9999Z" fill="#96C66B"/>
<path d="M25.9166 14.9337H25.3167V15.5737H25.9166V14.9337Z" fill="#96C66B"/>
<path d="M18.283 16.9696L19.6953 15.4041C21.149 13.7927 24.5843 13.6709 27.3961 13.9532C28.7494 14.089 28.9921 15.3255 27.8771 16.0851C26.5409 16.9954 24.9611 17.973 23.8848 18.2556C22.6771 18.5726 20.5582 18.6907 18.9065 18.5426C17.8939 18.4518 17.6664 17.6531 18.283 16.9696Z" fill="#FFA6A6"/>
<path d="M8.83336 17.6302C8.5 15.5 12.5 11.5 16 13.5" stroke="#5C953B" stroke-width="1.66667"/>
<path d="M12.1666 17.6302C12.5 15 15.8333 14.4635 17.1666 15.1302" stroke="#5C953B" stroke-width="1.66667"/>
<path d="M14.6763 15.2935L16.362 12.4179C17.8696 9.84632 21.5082 9.74003 24.3725 10.2358C25.5781 10.4445 25.9785 11.9271 25.1467 12.8243C23.7111 14.3729 21.7952 16.3033 20.5515 16.8058C19.305 17.3094 17.088 17.4867 15.4157 17.2243C14.5063 17.0816 14.2107 16.0876 14.6763 15.2935Z" fill="#FFA6A6"/>
<path d="M21.9398 12.7898C20.9561 12.5075 19.4512 13.0757 17.9523 13.9064C17.0694 14.3956 15.8516 13.2887 16.362 12.4179C17.8696 9.84632 21.5082 9.74003 24.3725 10.2358C25.5781 10.4445 25.8769 11.8553 24.7713 12.3794C23.8789 12.8024 22.8626 13.0547 21.9398 12.7898Z" fill="url(#paint1_linear_434_3435)"/>
<path d="M25.2731 15.6458C24.2496 15.4549 22.662 15.8624 21.1039 16.4376C20.1426 16.7925 19.1026 16.0612 19.6953 15.4041C21.149 13.7927 24.5843 13.6709 27.3961 13.9532C28.7494 14.089 28.8286 15.2515 27.4207 15.5598C26.7136 15.7146 25.9669 15.7752 25.2731 15.6458Z" fill="url(#paint2_linear_434_3435)"/>
<path d="M12.1666 19.3485C13 17.4215 15.8333 16.1818 17.1666 16.8485" stroke="#5C953B" stroke-width="1.66667"/>
<path d="M21.2833 12.1105V12.0583C21.2833 11.842 21.108 11.6666 20.8917 11.6666C20.6754 11.6666 20.5 11.842 20.5 12.0583V12.1105C20.5 12.3268 20.6754 12.5022 20.8917 12.5022C21.108 12.5022 21.2833 12.3268 21.2833 12.1105Z" fill="#B20000"/>
<path d="M23.5166 14.0984V14.0084C23.5166 13.6356 23.2144 13.3334 22.8416 13.3334C22.4688 13.3334 22.1666 13.6356 22.1666 14.0084V14.0984C22.1666 14.4712 22.4688 14.7734 22.8416 14.7734C23.2144 14.7734 23.5166 14.4712 23.5166 14.0984Z" fill="#B20000"/>
<path d="M19 15.5C19 15.7761 19.2239 16 19.5 16C19.7761 16 20 15.7761 20 15.5C20 15.2239 19.7761 15 19.5 15C19.2239 15 19 15.2239 19 15.5Z" fill="#B20000"/>
</g>
</g>
<defs>
<linearGradient id="paint0_linear_434_3435" x1="20.5083" y1="8.00024" x2="20.5083" y2="23.1114" gradientUnits="userSpaceOnUse">
<stop stop-color="#FF4747"/>
<stop offset="1" stop-color="#FF9D00"/>
</linearGradient>
<linearGradient id="paint1_linear_434_3435" x1="16.7835" y1="11.699" x2="23.9726" y2="15.9134" gradientUnits="userSpaceOnUse">
<stop stop-color="#88C0FF"/>
<stop offset="1" stop-color="#6C7394"/>
</linearGradient>
<linearGradient id="paint2_linear_434_3435" x1="20.1167" y1="14.9369" x2="25.4424" y2="19.7413" gradientUnits="userSpaceOnUse">
<stop stop-color="#88C0FF"/>
<stop offset="1" stop-color="#6C7394"/>
</linearGradient>
<clipPath id="clip0_434_3435">
<rect width="40" height="40" fill="white" transform="translate(0.5)"/>
</clipPath>
<clipPath id="clip1_434_3435">
<rect width="33.3333" height="26.6667" fill="white" transform="translate(3.83337 6.66663)"/>
</clipPath>
</defs>
</svg>
