<svg width="16" height="16" viewBox="0 0 16 16" fill="none" xmlns="http://www.w3.org/2000/svg">
<g clip-path="url(#clip0_747_21859)">
<g clip-path="url(#clip1_747_21859)">
<circle cx="7.99992" cy="8.00016" r="6.66667" fill="#9AA3AF"/>
<path d="M14.5387 8.90124L15.1988 8.99489L15.1988 8.99489L14.5387 8.90124ZM14.4697 9.38783L13.8097 9.29418V9.29418L14.4697 9.38783ZM14.2378 10.1821L13.6312 9.90548L13.6312 9.90548L14.2378 10.1821ZM14.0345 10.6278L14.6411 10.9044V10.9044L14.0345 10.6278ZM13.8313 11.0736L13.2247 10.797V10.797L13.8313 11.0736ZM13.3896 11.7705L12.8808 11.3397L12.8808 11.3397L13.3896 11.7705ZM13.0745 12.1428L13.5833 12.5735L13.5833 12.5735L13.0745 12.1428ZM12.7593 12.5151L12.2505 12.0843L12.2505 12.0843L12.7593 12.5151ZM12.1639 13.0941L11.7471 12.5737L11.7471 12.5737L12.1639 13.0941ZM11.78 13.4014L12.1967 13.9218L12.1967 13.9218L11.78 13.4014ZM11.3962 13.7088L10.9795 13.1884L10.9795 13.1884L11.3962 13.7088ZM10.6734 14.1207L10.4371 13.4973H10.4371L10.6734 14.1207ZM10.2088 14.2968L10.4451 14.9202L10.4451 14.9202L10.2088 14.2968ZM9.74415 14.473L9.50783 13.8496H9.50783L9.74415 14.473ZM8.92768 14.6065L8.95381 13.9404H8.95381L8.92768 14.6065ZM8.43385 14.5871L8.40771 15.2533H8.40771L8.43385 14.5871ZM7.94002 14.5678L7.96615 13.9016H7.96615L7.94002 14.5678ZM7.12111 14.4508L7.28419 13.8044H7.28419L7.12111 14.4508ZM6.65361 14.3329L6.49053 14.9793L6.49054 14.9793L6.65361 14.3329ZM6.18612 14.2149L6.3492 13.5685H6.34919L6.18612 14.2149ZM5.40066 13.9603L5.6473 13.3409H5.6473L5.40066 13.9603ZM4.94611 13.7793L4.69947 14.3986H4.69947L4.94611 13.7793ZM4.49155 13.5983L4.73818 12.9789H4.73818L4.49155 13.5983ZM3.82153 13.1368L4.31206 12.6853L4.31206 12.6853L3.82153 13.1368ZM3.48955 12.7761L2.99902 13.2276L2.99902 13.2276L3.48955 12.7761ZM3.15756 12.4154L3.64809 11.9639L3.64809 11.9639L3.15756 12.4154ZM2.63698 11.765L3.18491 11.3853L3.18491 11.3853L2.63698 11.765ZM2.35785 11.3623L1.80992 11.7421L1.80992 11.7421L2.35785 11.3623ZM2.07872 10.9596L2.62665 10.5798H2.62665L2.07872 10.9596ZM1.77555 10.2052L2.43395 10.1005L1.77555 10.2052ZM1.6988 9.72235L1.0404 9.82702L1.6988 9.72235ZM1.62204 9.23952L2.28044 9.13486L1.62204 9.23952ZM1.55308 8.41881L0.88644 8.42464L1.55308 8.41881ZM1.54888 7.9382L2.21552 7.93237L1.54888 7.9382ZM1.54469 7.45758L0.878044 7.4634L1.54469 7.45758ZM1.63644 6.64585L0.987731 6.49214L0.987731 6.49214L1.63644 6.64585ZM1.74834 6.17356L2.39705 6.32727L1.74834 6.17356ZM1.86025 5.70127L1.21154 5.54756H1.21154L1.86025 5.70127ZM2.15194 4.92636L1.56217 4.61553L1.56217 4.61553L2.15194 4.92636ZM2.38246 4.48896L2.97224 4.79979V4.79979L2.38246 4.48896ZM2.61298 4.05157L2.02321 3.74074L2.02321 3.74074L2.61298 4.05157ZM3.11811 3.38621L2.6594 2.90244L2.6594 2.90244L3.11811 3.38621ZM3.48056 3.04253L3.93927 3.5263L3.93927 3.5263L3.48056 3.04253ZM3.84302 2.69885L3.38431 2.21508V2.21508L3.84302 2.69885ZM4.55149 2.26922L4.33554 1.6385L4.33554 1.6385L4.55149 2.26922ZM5.02073 2.10856L5.23668 2.73928L5.23668 2.73928L5.02073 2.10856ZM5.48996 1.9479L5.27401 1.31718L5.27401 1.31718L5.48996 1.9479ZM6.29285 1.73122L6.16339 1.07724L6.16339 1.07724L6.29285 1.73122ZM6.76614 1.63752L6.89561 2.2915V2.2915L6.76614 1.63752ZM7.23943 1.54383L7.10996 0.889851L7.23943 1.54383ZM8.05964 1.46605L8.06291 0.799396H8.06291L8.05964 1.46605ZM8.54922 1.46845L8.54595 2.13511L8.54922 1.46845ZM9.0388 1.47085L9.04207 0.804196L9.0388 1.47085ZM9.84561 1.62665L9.60097 2.24681L9.60098 2.24681L9.84561 1.62665ZM10.3032 1.80714L10.5478 1.18698V1.18698L10.3032 1.80714ZM10.7607 1.98763L10.5161 2.60779V2.60779L10.7607 1.98763ZM11.4939 2.38162L11.1118 2.92791V2.92791L11.4939 2.38162ZM11.8971 2.66365L12.2793 2.11736L12.2793 2.11736L11.8971 2.66365ZM12.3004 2.94568L11.9182 3.49197V3.49197L12.3004 2.94568ZM12.882 3.52891L12.3344 3.90913V3.90913L12.882 3.52891ZM13.1615 3.93154L13.7091 3.55133V3.55132L13.1615 3.93154ZM13.4411 4.33418L12.8935 4.7144L12.8935 4.7144L13.4411 4.33418ZM13.8389 5.05862L13.224 5.31606L13.224 5.31606L13.8389 5.05862ZM14.0264 5.50641L14.6413 5.24897L14.6413 5.24897L14.0264 5.50641ZM14.2138 5.9542L13.5989 6.21164V6.21164L14.2138 5.9542ZM14.4409 6.71849L13.7844 6.83409V6.83409L14.4409 6.71849ZM14.5201 7.16791L15.1766 7.05231V7.05231L14.5201 7.16791ZM14.5992 7.61733L13.9426 7.73292L13.9426 7.73292L14.5992 7.61733ZM14.6078 8.41466L13.9477 8.32101V8.32101L14.6078 8.41466ZM14.5387 8.90124L13.8787 8.8076L13.8097 9.29418L14.4697 9.38783L15.1298 9.48147L15.1988 8.99489L14.5387 8.90124ZM14.4697 9.38783L13.8097 9.29418C13.7794 9.50749 13.72 9.71061 13.6312 9.90548L14.2378 10.1821L14.8444 10.4586C14.9864 10.1472 15.0816 9.82083 15.1298 9.48147L14.4697 9.38783ZM14.2378 10.1821L13.6312 9.90548L13.4279 10.3513L14.0345 10.6278L14.6411 10.9044L14.8444 10.4586L14.2378 10.1821ZM14.0345 10.6278L13.4279 10.3513L13.2247 10.797L13.8313 11.0736L14.4378 11.3502L14.6411 10.9044L14.0345 10.6278ZM13.8313 11.0736L13.2247 10.797C13.1345 10.9948 13.0201 11.1752 12.8808 11.3397L13.3896 11.7705L13.8985 12.2012C14.1171 11.9429 14.2972 11.6587 14.4378 11.3502L13.8313 11.0736ZM13.3896 11.7705L12.8808 11.3397L12.5656 11.712L13.0745 12.1428L13.5833 12.5735L13.8985 12.2012L13.3896 11.7705ZM13.0745 12.1428L12.5656 11.712L12.2505 12.0843L12.7593 12.5151L13.2681 12.9458L13.5833 12.5735L13.0745 12.1428ZM12.7593 12.5151L12.2505 12.0843C12.0995 12.2627 11.9319 12.4258 11.7471 12.5737L12.1639 13.0941L12.5806 13.6144C12.8318 13.4133 13.0612 13.1903 13.2681 12.9458L12.7593 12.5151ZM12.1639 13.0941L11.7471 12.5737L11.3633 12.8811L11.78 13.4014L12.1967 13.9218L12.5806 13.6144L12.1639 13.0941ZM11.78 13.4014L11.3633 12.8811L10.9795 13.1884L11.3962 13.7088L11.8129 14.2292L12.1967 13.9218L11.78 13.4014ZM11.3962 13.7088L10.9795 13.1884C10.8165 13.319 10.6365 13.4217 10.4371 13.4973L10.6734 14.1207L10.9097 14.7441C11.2381 14.6196 11.54 14.4478 11.8129 14.2292L11.3962 13.7088ZM10.6734 14.1207L10.4371 13.4973L9.97247 13.6735L10.2088 14.2968L10.4451 14.9202L10.9097 14.7441L10.6734 14.1207ZM10.2088 14.2968L9.97247 13.6735L9.50783 13.8496L9.74415 14.473L9.98047 15.0964L10.4451 14.9202L10.2088 14.2968ZM9.74415 14.473L9.50783 13.8496C9.32722 13.9181 9.14429 13.9478 8.95381 13.9404L8.92768 14.6065L8.90154 15.2727C9.27196 15.2872 9.63335 15.228 9.98047 15.0964L9.74415 14.473ZM8.92768 14.6065L8.95381 13.9404L8.45998 13.921L8.43385 14.5871L8.40771 15.2533L8.90154 15.2727L8.92768 14.6065ZM8.43385 14.5871L8.45998 13.921L7.96615 13.9016L7.94002 14.5678L7.91388 15.2339L8.40771 15.2533L8.43385 14.5871ZM7.94002 14.5678L7.96615 13.9016C7.73075 13.8924 7.50373 13.8598 7.28419 13.8044L7.12111 14.4508L6.95803 15.0972C7.26947 15.1758 7.58839 15.2212 7.91388 15.2339L7.94002 14.5678ZM7.12111 14.4508L7.28419 13.8044L6.81669 13.6865L6.65361 14.3329L6.49054 14.9793L6.95803 15.0972L7.12111 14.4508ZM6.65361 14.3329L6.81669 13.6865L6.3492 13.5685L6.18612 14.2149L6.02304 14.8613L6.49053 14.9793L6.65361 14.3329ZM6.18612 14.2149L6.34919 13.5685C6.11254 13.5088 5.87862 13.433 5.6473 13.3409L5.40066 13.9603L5.15403 14.5796C5.439 14.6931 5.72871 14.7871 6.02304 14.8613L6.18612 14.2149ZM5.40066 13.9603L5.6473 13.3409L5.19274 13.1599L4.94611 13.7793L4.69947 14.3986L5.15403 14.5796L5.40066 13.9603ZM4.94611 13.7793L5.19274 13.1599L4.73818 12.9789L4.49155 13.5983L4.24491 14.2176L4.69947 14.3986L4.94611 13.7793ZM4.49155 13.5983L4.73818 12.9789C4.57308 12.9131 4.43304 12.8168 4.31206 12.6853L3.82153 13.1368L3.331 13.5883C3.58708 13.8665 3.89373 14.0778 4.24491 14.2176L4.49155 13.5983ZM3.82153 13.1368L4.31206 12.6853L3.98007 12.3246L3.48955 12.7761L2.99902 13.2276L3.331 13.5883L3.82153 13.1368ZM3.48955 12.7761L3.98007 12.3246L3.64809 11.9639L3.15756 12.4154L2.66703 12.8669L2.99902 13.2276L3.48955 12.7761ZM3.15756 12.4154L3.64809 11.9639C3.48031 11.7816 3.32596 11.5888 3.18491 11.3853L2.63698 11.765L2.08905 12.1448C2.26504 12.3987 2.45775 12.6395 2.66703 12.8669L3.15756 12.4154ZM2.63698 11.765L3.18491 11.3853L2.90578 10.9825L2.35785 11.3623L1.80992 11.7421L2.08905 12.1448L2.63698 11.765ZM2.35785 11.3623L2.90578 10.9825L2.62665 10.5798L2.07872 10.9596L1.53078 11.3393L1.80992 11.7421L2.35785 11.3623ZM2.07872 10.9596L2.62665 10.5798C2.52499 10.4331 2.46179 10.2756 2.43395 10.1005L1.77555 10.2052L1.11715 10.3098C1.17649 10.6831 1.3154 11.0285 1.53078 11.3393L2.07872 10.9596ZM1.77555 10.2052L2.43395 10.1005L2.3572 9.61768L1.6988 9.72235L1.0404 9.82702L1.11715 10.3098L1.77555 10.2052ZM1.6988 9.72235L2.3572 9.61768L2.28044 9.13486L1.62204 9.23952L0.963643 9.34419L1.0404 9.82702L1.6988 9.72235ZM1.62204 9.23952L2.28044 9.13486C2.24196 8.8928 2.22181 8.65226 2.21972 8.41299L1.55308 8.41881L0.88644 8.42464C0.889118 8.73125 0.914945 9.03786 0.963643 9.34419L1.62204 9.23952ZM1.55308 8.41881L2.21972 8.41299L2.21552 7.93237L1.54888 7.9382L0.882242 7.94402L0.88644 8.42464L1.55308 8.41881ZM1.54888 7.9382L2.21552 7.93237L2.21133 7.45176L1.54469 7.45758L0.878044 7.4634L0.882242 7.94402L1.54888 7.9382ZM1.54469 7.45758L2.21133 7.45176C2.20942 7.23305 2.23385 7.01602 2.28514 6.79955L1.63644 6.64585L0.987731 6.49214C0.911919 6.81209 0.875186 7.13622 0.878044 7.4634L1.54469 7.45758ZM1.63644 6.64585L2.28514 6.79955L2.39705 6.32727L1.74834 6.17356L1.09964 6.01985L0.987731 6.49214L1.63644 6.64585ZM1.74834 6.17356L2.39705 6.32727L2.50895 5.85498L1.86025 5.70127L1.21154 5.54756L1.09964 6.01985L1.74834 6.17356ZM1.86025 5.70127L2.50895 5.85498C2.55932 5.64243 2.6365 5.43684 2.74172 5.23719L2.15194 4.92636L1.56217 4.61553C1.40557 4.91268 1.28828 5.22369 1.21154 5.54756L1.86025 5.70127ZM2.15194 4.92636L2.74172 5.23719L2.97224 4.79979L2.38246 4.48896L1.79269 4.17814L1.56217 4.61553L2.15194 4.92636ZM2.38246 4.48896L2.97224 4.79979L3.20276 4.3624L2.61298 4.05157L2.02321 3.74074L1.79269 4.17814L2.38246 4.48896ZM2.61298 4.05157L3.20276 4.3624C3.29937 4.17909 3.42327 4.01557 3.57682 3.86998L3.11811 3.38621L2.6594 2.90244C2.40127 3.1472 2.18843 3.42726 2.02321 3.74074L2.61298 4.05157ZM3.11811 3.38621L3.57682 3.86998L3.93927 3.5263L3.48056 3.04253L3.02185 2.55876L2.6594 2.90244L3.11811 3.38621ZM3.48056 3.04253L3.93927 3.5263L4.30172 3.18262L3.84302 2.69885L3.38431 2.21508L3.02185 2.55876L3.48056 3.04253ZM3.84302 2.69885L4.30172 3.18262C4.43864 3.0528 4.59215 2.95996 4.76745 2.89994L4.55149 2.26922L4.33554 1.6385C3.97787 1.76097 3.65907 1.95455 3.38431 2.21508L3.84302 2.69885ZM4.55149 2.26922L4.76745 2.89994L5.23668 2.73928L5.02073 2.10856L4.80477 1.47784L4.33554 1.6385L4.55149 2.26922ZM5.02073 2.10856L5.23668 2.73928L5.70592 2.57862L5.48996 1.9479L5.27401 1.31718L4.80477 1.47784L5.02073 2.10856ZM5.48996 1.9479L5.70592 2.57862C5.94491 2.49679 6.18366 2.43244 6.42232 2.38519L6.29285 1.73122L6.16339 1.07724C5.86448 1.13642 5.56797 1.21652 5.27401 1.31718L5.48996 1.9479ZM6.29285 1.73122L6.42232 2.38519L6.89561 2.2915L6.76614 1.63752L6.63667 0.983547L6.16339 1.07724L6.29285 1.73122ZM6.76614 1.63752L6.89561 2.2915L7.36889 2.1978L7.23943 1.54383L7.10996 0.889851L6.63667 0.983547L6.76614 1.63752ZM7.23943 1.54383L7.36889 2.1978C7.59332 2.15337 7.82224 2.13157 8.05638 2.13271L8.05964 1.46605L8.06291 0.799396C7.74098 0.797818 7.42309 0.827861 7.10996 0.889851L7.23943 1.54383ZM8.05964 1.46605L8.05638 2.13271L8.54595 2.13511L8.54922 1.46845L8.55249 0.801796L8.06291 0.799396L8.05964 1.46605ZM8.54922 1.46845L8.54595 2.13511L9.03553 2.13751L9.0388 1.47085L9.04207 0.804196L8.55249 0.801796L8.54922 1.46845ZM9.0388 1.47085L9.03553 2.13751C9.23053 2.13847 9.41764 2.17449 9.60097 2.24681L9.84561 1.62665L10.0902 1.00649C9.75389 0.873807 9.40313 0.805966 9.04207 0.804196L9.0388 1.47085ZM9.84561 1.62665L9.60098 2.24681L10.0585 2.4273L10.3032 1.80714L10.5478 1.18698L10.0902 1.00649L9.84561 1.62665ZM10.3032 1.80714L10.0585 2.4273L10.5161 2.60779L10.7607 1.98763L11.0053 1.36747L10.5478 1.18698L10.3032 1.80714ZM10.7607 1.98763L10.5161 2.60779C10.7273 2.69112 10.9256 2.79766 11.1118 2.92791L11.4939 2.38162L11.876 1.83533C11.6043 1.64526 11.3138 1.48913 11.0053 1.36747L10.7607 1.98763ZM11.4939 2.38162L11.1118 2.92791L11.515 3.20994L11.8971 2.66365L12.2793 2.11736L11.876 1.83533L11.4939 2.38162ZM11.8971 2.66365L11.515 3.20994L11.9182 3.49197L12.3004 2.94568L12.6825 2.39939L12.2793 2.11736L11.8971 2.66365ZM12.3004 2.94568L11.9182 3.49197C12.0829 3.60717 12.2207 3.74542 12.3344 3.90913L12.882 3.52891L13.4296 3.14869C13.2257 2.85508 12.9757 2.60452 12.6825 2.39938L12.3004 2.94568ZM12.882 3.52891L12.3344 3.90913L12.6139 4.31176L13.1615 3.93154L13.7091 3.55132L13.4296 3.14869L12.882 3.52891ZM13.1615 3.93154L12.6139 4.31176L12.8935 4.7144L13.4411 4.33418L13.9887 3.95396L13.7091 3.55133L13.1615 3.93154ZM13.4411 4.33418L12.8935 4.7144C13.0258 4.90498 13.1358 5.10535 13.224 5.31606L13.8389 5.05862L14.4539 4.80117C14.3292 4.50328 14.1739 4.22069 13.9887 3.95396L13.4411 4.33418ZM13.8389 5.05862L13.224 5.31606L13.4114 5.76385L14.0264 5.50641L14.6413 5.24897L14.4539 4.80117L13.8389 5.05862ZM14.0264 5.50641L13.4114 5.76385L13.5989 6.21164L14.2138 5.9542L14.8288 5.69676L14.6413 5.24897L14.0264 5.50641ZM14.2138 5.9542L13.5989 6.21164C13.6875 6.42324 13.7485 6.63053 13.7844 6.83409L14.4409 6.71849L15.0975 6.60289C15.0435 6.296 14.9531 5.99376 14.8288 5.69676L14.2138 5.9542ZM14.4409 6.71849L13.7844 6.83409L13.8635 7.2835L14.5201 7.16791L15.1766 7.05231L15.0975 6.60289L14.4409 6.71849ZM14.5201 7.16791L13.8635 7.2835L13.9426 7.73292L14.5992 7.61733L15.2557 7.50173L15.1766 7.05231L14.5201 7.16791ZM14.5992 7.61733L13.9426 7.73292C13.9745 7.91389 13.9778 8.10883 13.9477 8.32101L14.6078 8.41466L15.2678 8.50831C15.3161 8.16782 15.3138 7.83121 15.2557 7.50173L14.5992 7.61733ZM14.6078 8.41466L13.9477 8.32101L13.8787 8.8076L14.5387 8.90124L15.1988 8.99489L15.2678 8.5083L14.6078 8.41466Z" fill="#9AA3AF"/>
<circle cx="8.66667" cy="2.00004" r="0.666667" fill="#4A5361"/>
<path d="M10.9333 2.90782C10.5066 2.471 9.68881 2.72581 9.33325 2.90782C9.33325 3.34456 10.0444 3.81789 10.3999 3.99996H11.9999L10.9333 2.90782Z" fill="#4A5361"/>
<path d="M10.9899 3.70538L10.7556 2.59653L10.9899 3.70538ZM10.5712 3.79385L10.3369 2.685L10.5712 3.79385ZM10.0034 3.03442L9.79297 4.14805L10.128 4.21135L10.3384 3.09772L10.5488 1.98409L10.2138 1.92079L10.0034 3.03442ZM10.3384 3.09772L10.128 4.21135C10.3118 4.24607 10.4746 4.28709 10.618 4.33278L10.9619 3.25288L11.3058 2.17298C11.0647 2.09619 10.8118 2.03377 10.5488 1.98409L10.3384 3.09772ZM10.9619 3.25288L10.618 4.33278L10.9065 4.42464L11.2504 3.34473L11.5943 2.26483L11.3058 2.17298L10.9619 3.25288ZM11.2504 3.34473L10.9065 4.42464L11.1949 4.51649L11.5388 3.43659L11.8827 2.35669L11.5943 2.26483L11.2504 3.34473ZM11.5388 3.43659L11.1949 4.51649C11.1905 4.51507 11.1656 4.50711 11.1288 4.49028C11.0986 4.47648 11.0166 4.43726 10.9228 4.36081C10.8396 4.293 10.641 4.11002 10.558 3.78695C10.4601 3.40572 10.5813 3.07224 10.7318 2.86397C10.8577 2.6897 11 2.60157 11.0512 2.57165C11.1149 2.53446 11.1643 2.51553 11.1812 2.50928C11.2149 2.49682 11.2204 2.49832 11.1743 2.50806L11.4086 3.61692L11.6429 4.72577C11.7363 4.70602 11.8519 4.67789 11.9663 4.63566C12.0235 4.61453 12.1059 4.58067 12.1951 4.52853C12.2719 4.48365 12.4325 4.38053 12.5692 4.19123C12.7305 3.96793 12.8552 3.61939 12.7534 3.22306C12.6666 2.8849 12.4567 2.68679 12.3549 2.60381C12.1599 2.44491 11.9502 2.37818 11.8827 2.35669L11.5388 3.43659ZM11.4086 3.61692L11.1743 2.50806L10.7556 2.59653L10.9899 3.70538L11.2241 4.81424L11.6429 4.72577L11.4086 3.61692ZM10.9899 3.70538L10.7556 2.59653L10.3369 2.685L10.5712 3.79385L10.8054 4.9027L11.2241 4.81424L10.9899 3.70538ZM10.5712 3.79385L10.3369 2.685C10.3119 2.69027 10.3713 2.67256 10.4796 2.6995C10.6054 2.73081 10.728 2.80572 10.8152 2.90942L9.94765 3.63869L9.08011 4.36796C9.57795 4.96019 10.2795 5.01383 10.8054 4.9027L10.5712 3.79385ZM9.94765 3.63869L10.8152 2.90942L10.6104 2.6658L9.74285 3.39507L8.87532 4.12434L9.08011 4.36796L9.94765 3.63869ZM9.74285 3.39507L10.6104 2.6658L10.4056 2.42217L9.53805 3.15144L8.67052 3.88071L8.87532 4.12434L9.74285 3.39507ZM9.53805 3.15144L10.4056 2.42217C10.408 2.42501 10.4203 2.43976 10.4373 2.46516C10.4529 2.48846 10.4844 2.53849 10.5149 2.61134C10.5564 2.71062 10.7257 3.17925 10.3869 3.64818C10.0886 4.06124 9.6597 4.08613 9.61042 4.08944C9.50426 4.09657 9.44048 4.08146 9.45791 4.08475L9.66831 2.97112L9.8787 1.85749C9.78445 1.83968 9.63148 1.81626 9.45862 1.82786C9.34264 1.83565 8.86959 1.8778 8.5495 2.32091C8.18906 2.8199 8.35908 3.33137 8.4239 3.48629C8.5011 3.6708 8.60957 3.80821 8.67052 3.88071L9.53805 3.15144ZM9.66831 2.97112L9.45791 4.08475L9.79297 4.14805L10.0034 3.03442L10.2138 1.92079L9.8787 1.85749L9.66831 2.97112Z" fill="#4A5361"/>
</g>
</g>
<defs>
<clipPath id="clip0_747_21859">
<rect width="16" height="16" fill="white"/>
</clipPath>
<clipPath id="clip1_747_21859">
<rect width="16" height="16" fill="white"/>
</clipPath>
</defs>
</svg>
