<svg width="110" height="61" viewBox="0 0 110 61" fill="none" xmlns="http://www.w3.org/2000/svg">
<path d="M1 18.6567C1 18.6567 18.4005 13.8642 31.8611 20.5814C43.4306 26.3555 50.3741 39.8284 50.3741 39.8284C50.3741 39.8284 56.6223 14.8073 74.2361 18.6567C97.4584 23.7283 109 61 109 61H104.828C104.828 61 95.9936 38.866 75.1631 38.866C59.4034 38.866 56.6223 61 56.6223 61C56.6223 61 32.5193 30.2049 1 41.7531V18.6567Z" fill="#3AC8FF"/>
<path d="M72.75 13C76.3399 13 79.25 10.0899 79.25 6.5C79.25 2.91015 76.3399 0 72.75 0C69.1601 0 66.25 2.91015 66.25 6.5C66.25 10.0899 69.1601 13 72.75 13Z" fill="#171D29"/>
</svg>
