<svg width="21" height="21" viewBox="0 0 21 21" fill="none" xmlns="http://www.w3.org/2000/svg">
<path d="M20.0164 1.25V19.25L19.1667 20.0996H1.16675L0.317139 19.25V1.25L1.16675 0.400391H19.1667L20.0164 1.25ZM7.16675 4.5C5.50044 4.5 4.41675 6.1199 4.41675 7.75C4.41675 9.12037 5.18272 10.4832 6.41675 10.8828V16.25H7.91675V10.8828C9.15078 10.4832 9.91675 9.12037 9.91675 7.75C9.91675 6.1199 8.83306 4.5 7.16675 4.5ZM11.4167 16.25H12.9167V4.25H11.4167V16.25ZM14.4167 16.25H15.9167V4.25H14.4167V16.25ZM7.16675 6C7.70958 6 8.41675 6.61868 8.41675 7.75C8.41675 8.88132 7.70958 9.5 7.16675 9.5C6.62392 9.5 5.91675 8.88132 5.91675 7.75C5.91675 6.61868 6.62392 6 7.16675 6Z" fill="#3ac8ff"/>
</svg>
