<svg width="12" height="12" viewBox="0 0 12 12" fill="none" xmlns="http://www.w3.org/2000/svg">
<g clip-path="url(#clip0_3278_83375)">
<path d="M8 5.33337C8 5.33337 8 7.00004 6 7.00004C4 7.00004 4 5.33337 4 5.33337C4 4.2288 4.89543 3.33337 6 3.33337C7.10457 3.33337 8 4.2288 8 5.33337Z" fill="#FF893A"/>
<path d="M7.78574 5.69478L8.15132 5.91152L7.78574 5.69478ZM7.75146 5.7526L7.38587 5.53586L7.75146 5.7526ZM7.425 6.42941L7.02937 6.27415L7.425 6.42941ZM7.39709 6.50051L7.79272 6.65577L7.39709 6.50051ZM7.36919 6.5716L6.97357 6.41633L7.36919 6.5716ZM6.75433 6.96799L6.73334 6.54351L6.75433 6.96799ZM6.67939 6.9717L6.70038 7.39618L6.67939 6.9717ZM5.89953 7.0652L5.97951 7.48261L5.89953 7.0652ZM5.82593 7.0793L5.74595 6.66189L5.82593 7.0793ZM5.75233 7.0934L5.83231 7.51081L5.75233 7.0934ZM5.07895 6.89219L4.78475 7.1989L5.07895 6.89219ZM5.02429 6.83976L4.73009 7.14647L5.02429 6.83976ZM4.96963 6.78733L5.26383 6.48062L4.96963 6.78733ZM4.25438 6.18772L3.99779 6.52652L4.25438 6.18772ZM3.90057 5.40303L3.4769 5.43669L3.90057 5.40303ZM4.11929 4.71058L3.79556 4.43521L4.11929 4.71058ZM4.16697 4.65452L4.49069 4.92989L4.16697 4.65452ZM4.21466 4.59846L3.89094 4.32309L4.21466 4.59846ZM4.70943 4.07203L4.41677 3.76385L4.70943 4.07203ZM4.75599 4.02781L5.04866 4.33599L4.75599 4.02781ZM4.80255 3.9836L4.50988 3.67542L4.80255 3.9836ZM5.42327 3.5883L5.25418 3.19838L5.42327 3.5883ZM5.48347 3.56219L5.65256 3.95211L5.48347 3.56219ZM6.91589 3.69205L7.19196 3.36892L6.91589 3.69205ZM6.96702 3.73574L6.69095 4.05886L6.96702 3.73574ZM7.01816 3.77943L6.74209 4.10255L7.01816 3.77943ZM7.66819 4.28273L7.91605 3.93749L7.66819 4.28273ZM7.72924 4.32656L7.48138 4.67181L7.72924 4.32656ZM8.09053 4.88288L7.66882 4.93561L8.09053 4.88288ZM8.10607 5.00715L8.52779 4.95443L8.10607 5.00715ZM7.82002 5.63695L7.45444 5.42021L7.82002 5.63695ZM7.78574 5.69478L7.42016 5.47804L7.38587 5.53586L7.75146 5.7526L8.11704 5.96934L8.15132 5.91152L7.78574 5.69478ZM7.75146 5.7526L7.38587 5.53586C7.25279 5.76034 7.13427 6.00687 7.02937 6.27415L7.425 6.42941L7.82062 6.58468C7.91103 6.35432 8.01014 6.14964 8.11704 5.96934L7.75146 5.7526ZM7.425 6.42941L7.02937 6.27415L7.00147 6.34524L7.39709 6.50051L7.79272 6.65577L7.82062 6.58468L7.425 6.42941ZM7.39709 6.50051L7.00147 6.34524L6.97357 6.41633L7.36919 6.5716L7.76482 6.72687L7.79272 6.65577L7.39709 6.50051ZM7.36919 6.5716L6.97357 6.41633C6.94833 6.48065 6.92332 6.50371 6.91099 6.51268C6.89914 6.5213 6.872 6.53666 6.80828 6.53981L6.82927 6.96429L6.85026 7.38877C7.04883 7.37895 7.24283 7.32237 7.41095 7.20009C7.5786 7.07816 7.69241 6.91137 7.76482 6.72687L7.36919 6.5716ZM6.82927 6.96429L6.80828 6.53981L6.73334 6.54351L6.75433 6.96799L6.77532 7.39248L6.85026 7.38877L6.82927 6.96429ZM6.75433 6.96799L6.73334 6.54351L6.65839 6.54722L6.67939 6.9717L6.70038 7.39618L6.77532 7.39248L6.75433 6.96799ZM6.67939 6.9717L6.65839 6.54722C6.37632 6.56117 6.09666 6.5947 5.81955 6.64779L5.89953 7.0652L5.97951 7.48261C6.21762 7.43698 6.45786 7.40818 6.70038 7.39618L6.67939 6.9717ZM5.89953 7.0652L5.81955 6.64779L5.74595 6.66189L5.82593 7.0793L5.90591 7.49671L5.97951 7.48261L5.89953 7.0652ZM5.82593 7.0793L5.74595 6.66189L5.67235 6.676L5.75233 7.0934L5.83231 7.51081L5.90591 7.49671L5.82593 7.0793ZM5.75233 7.0934L5.67235 6.676C5.55175 6.69911 5.46631 6.67483 5.37315 6.58547L5.07895 6.89219L4.78475 7.1989C5.07421 7.47655 5.43769 7.58642 5.83231 7.51081L5.75233 7.0934ZM5.07895 6.89219L5.37315 6.58547L5.31849 6.53305L5.02429 6.83976L4.73009 7.14647L4.78475 7.1989L5.07895 6.89219ZM5.02429 6.83976L5.31849 6.53305L5.26383 6.48062L4.96963 6.78733L4.67543 7.09404L4.73009 7.14647L5.02429 6.83976ZM4.96963 6.78733L5.26383 6.48062C5.06088 6.28595 4.84931 6.10515 4.62912 5.9384L4.37253 6.2772L4.11594 6.616C4.30926 6.76241 4.49576 6.92171 4.67543 7.09404L4.96963 6.78733ZM4.37253 6.2772L4.62912 5.9384L4.57004 5.89366L4.31346 6.23246L4.05687 6.57126L4.11594 6.616L4.37253 6.2772ZM4.31346 6.23246L4.57004 5.89366L4.51097 5.84892L4.25438 6.18772L3.99779 6.52652L4.05687 6.57126L4.31346 6.23246ZM4.25438 6.18772L4.51097 5.84892C4.40379 5.76775 4.34806 5.66925 4.33628 5.52104L3.91262 5.5547L3.48895 5.58836C3.51935 5.97101 3.69146 6.29453 3.99779 6.52652L4.25438 6.18772ZM3.91262 5.5547L4.33628 5.52104L4.33026 5.44521L3.90659 5.47886L3.48293 5.51252L3.48895 5.58836L3.91262 5.5547ZM3.90659 5.47886L4.33026 5.44521L4.32423 5.36937L3.90057 5.40303L3.4769 5.43669L3.48293 5.51252L3.90659 5.47886ZM3.90057 5.40303L4.32423 5.36937C4.31172 5.2119 4.35172 5.09327 4.44301 4.98595L4.11929 4.71058L3.79556 4.43521C3.55305 4.7203 3.44724 5.0633 3.4769 5.43669L3.90057 5.40303ZM4.11929 4.71058L4.44301 4.98595L4.49069 4.92989L4.16697 4.65452L3.84325 4.37915L3.79556 4.43521L4.11929 4.71058ZM4.16697 4.65452L4.49069 4.92989L4.53838 4.87383L4.21466 4.59846L3.89094 4.32309L3.84325 4.37915L4.16697 4.65452ZM4.21466 4.59846L4.53838 4.87383C4.69689 4.68748 4.85152 4.52321 5.0021 4.3802L4.70943 4.07203L4.41677 3.76385C4.24145 3.93035 4.06622 4.11703 3.89094 4.32309L4.21466 4.59846ZM4.70943 4.07203L5.0021 4.3802L5.04866 4.33599L4.75599 4.02781L4.46333 3.71964L4.41677 3.76385L4.70943 4.07203ZM4.75599 4.02781L5.04866 4.33599L5.09522 4.29177L4.80255 3.9836L4.50988 3.67542L4.46333 3.71964L4.75599 4.02781ZM4.80255 3.9836L5.09522 4.29177C5.22128 4.17206 5.36606 4.07634 5.53214 4.00432L5.36306 3.61441L5.19398 3.22449C4.93862 3.33522 4.70973 3.48564 4.50988 3.67542L4.80255 3.9836ZM5.36306 3.61441L5.53214 4.00432L5.59235 3.97822L5.42327 3.5883L5.25418 3.19838L5.19398 3.22449L5.36306 3.61441ZM5.42327 3.5883L5.59235 3.97822L5.65256 3.95211L5.48347 3.56219L5.31439 3.17227L5.25418 3.19838L5.42327 3.5883ZM5.48347 3.56219L5.65256 3.95211C5.80202 3.8873 5.9616 3.85772 6.13685 3.86548L6.15566 3.44089L6.17446 3.01631C5.87491 3.00305 5.58637 3.05433 5.31439 3.17227L5.48347 3.56219ZM6.15566 3.44089L6.13685 3.86548L6.20468 3.86848L6.22348 3.4439L6.24229 3.01931L6.17446 3.01631L6.15566 3.44089ZM6.22348 3.4439L6.20468 3.86848L6.27251 3.87148L6.29131 3.4469L6.31011 3.02232L6.24229 3.01931L6.22348 3.4439ZM6.29131 3.4469L6.27251 3.87148C6.41621 3.87785 6.53361 3.92444 6.63981 4.01517L6.91589 3.69205L7.19196 3.36892C6.94019 3.15382 6.64121 3.03698 6.31011 3.02232L6.29131 3.4469ZM6.91589 3.69205L6.63981 4.01517L6.69095 4.05886L6.96702 3.73574L7.2431 3.41261L7.19196 3.36892L6.91589 3.69205ZM6.96702 3.73574L6.69095 4.05886L6.74209 4.10255L7.01816 3.77943L7.29423 3.45631L7.2431 3.41261L6.96702 3.73574ZM7.01816 3.77943L6.74209 4.10255C6.93114 4.26408 7.13701 4.42457 7.35928 4.58415L7.60714 4.23891L7.855 3.89366C7.64993 3.74644 7.46314 3.60062 7.29423 3.45631L7.01816 3.77943ZM7.60714 4.23891L7.35928 4.58415L7.42033 4.62798L7.66819 4.28273L7.91605 3.93749L7.855 3.89366L7.60714 4.23891ZM7.66819 4.28273L7.42033 4.62798L7.48138 4.67181L7.72924 4.32656L7.97709 3.98132L7.91605 3.93749L7.66819 4.28273ZM7.72924 4.32656L7.48138 4.67181C7.61974 4.77114 7.65922 4.85885 7.66882 4.93561L8.09053 4.88288L8.51225 4.83015C8.46746 4.47195 8.26608 4.18879 7.97709 3.98132L7.72924 4.32656ZM8.09053 4.88288L7.66882 4.93561L7.67658 4.99775L8.0983 4.94502L8.52002 4.89229L8.51225 4.83015L8.09053 4.88288ZM8.0983 4.94502L7.67658 4.99775L7.68435 5.05988L8.10607 5.00715L8.52779 4.95443L8.52002 4.89229L8.0983 4.94502ZM8.10607 5.00715L7.68435 5.05988C7.69725 5.16304 7.69793 5.21192 7.69711 5.22466C7.69636 5.23633 7.69631 5.19676 7.72092 5.14111C7.73439 5.11064 7.76466 5.05373 7.82672 5.00195C7.8964 4.94381 7.9874 4.90837 8.08518 4.90837V5.33337V5.75837C8.33616 5.75837 8.45941 5.57282 8.49831 5.48486C8.53494 5.40202 8.54264 5.32168 8.54537 5.27898C8.55152 5.18298 8.54208 5.06875 8.52779 4.95443L8.10607 5.00715ZM8.08518 5.33337V4.90837H8.07343V5.33337V5.75837H8.08518V5.33337ZM8.07343 5.33337V4.90837H8.06168V5.33337V5.75837H8.07343V5.33337ZM8.06168 5.33337V4.90837C7.89449 4.90837 7.78235 5.00008 7.75169 5.02559C7.70463 5.06472 7.6663 5.10892 7.63791 5.14458C7.5795 5.21796 7.51773 5.31347 7.45444 5.42021L7.82002 5.63695L8.1856 5.85369C8.2423 5.75806 8.2808 5.70177 8.30294 5.67396C8.31483 5.65902 8.31184 5.66527 8.29521 5.67911C8.28646 5.68638 8.26555 5.70283 8.23334 5.71882C8.20225 5.73424 8.14229 5.75837 8.06168 5.75837V5.33337ZM7.82002 5.63695L7.45444 5.42021L7.42016 5.47804L7.78574 5.69478L8.15132 5.91152L8.1856 5.85369L7.82002 5.63695Z" fill="#FF893A"/>
<path d="M11 6.94995L1.00903 6.94995C0.898023 8.33517 2.84073 10.95 6.00452 10.95C9.16831 10.95 11.111 8.2314 11 6.94995Z" fill="#3AC8FF"/>
<path d="M10.303 7.07686L10.2522 6.79811L10.303 7.07686ZM9.83833 7.12601L9.83 6.84279L9.83833 7.12601ZM9.606 7.13284L9.59766 6.84963L9.606 7.13284ZM8.909 7.09603L8.84883 7.3729L8.909 7.09603ZM8.67667 7.04554L8.6165 7.32241L8.67667 7.04554ZM7.97967 6.9917L7.92333 6.71403L7.97967 6.9917ZM7.74733 7.03884L7.69099 6.76117L7.74733 7.03884ZM7.515 7.08598L7.57134 7.36366L7.515 7.08598ZM6.121 7.05048L6.07447 7.32997L6.121 7.05048ZM5.19167 6.90924L5.16111 7.19092L5.19167 6.90924ZM4.26233 6.85189L4.24012 6.56943L4.26233 6.85189ZM1.5639 7.054L1.48868 6.78083L1.5639 7.054ZM1.27838 7.13262L1.3536 7.40579L1.27838 7.13262ZM1.10563 7.90186L0.822532 7.89023L1.10563 7.90186ZM1.67973 8.60692L1.50402 8.82919L1.67973 8.60692ZM1.99356 8.96161L1.74989 9.10619L1.99356 8.96161ZM2.2318 9.36313L2.47547 9.21855L2.2318 9.36313ZM2.52756 9.7186L2.34088 9.93174L2.52756 9.7186ZM3.28824 10.2391L3.35547 9.96385L3.28824 10.2391ZM3.74979 10.3518L3.68255 10.6271L3.74979 10.3518ZM4.58274 10.809L4.42576 11.0448L4.58274 10.809ZM5.01985 10.9526L5.00781 11.2357L5.01985 10.9526ZM5.25624 10.9627L5.2442 11.2458L5.25624 10.9627ZM5.49264 10.9727L5.50468 10.6897L5.49264 10.9727ZM5.96132 10.9622L5.98639 11.2444L5.96132 10.9622ZM7.14284 10.9064L7.14646 10.6231L7.14284 10.9064ZM7.38516 10.9095L7.38155 11.1928L7.38516 10.9095ZM7.84373 10.8081L7.967 11.0632L7.84373 10.8081ZM8.27623 10.5992L8.3995 10.8543L8.27623 10.5992ZM8.68979 10.3622L8.53186 10.127L8.68979 10.3622ZM8.8871 10.2297L8.72917 9.99449L8.8871 10.2297ZM9.08441 10.0973L9.24234 10.3325L9.08441 10.0973ZM9.42525 9.77564L9.19954 9.60437L9.42525 9.77564ZM9.71231 9.39731L9.93803 9.56858L9.71231 9.39731ZM10.0123 9.03764L9.80357 8.84606L10.0123 9.03764ZM10.3253 8.69662L10.1165 8.50504L10.3253 8.69662ZM10.596 8.32186L10.8433 8.46018L10.596 8.32186ZM10.8245 7.91337L10.5772 7.77506L10.8245 7.91337ZM11.0053 7.51489L10.7373 7.42305L11.0053 7.51489ZM11.0718 7.32066L10.8038 7.22882L11.0718 7.32066ZM11.1384 7.12643L11.4064 7.21827L11.1384 7.12643ZM11.1537 6.93664L11.1293 6.65436L11.1537 6.93664ZM11.0512 6.94551L11.0757 7.22779L11.0512 6.94551ZM10.7677 6.99226L10.8184 7.27101L10.7677 6.99226ZM10.5353 7.03456L10.4846 6.75581L10.2522 6.79811L10.303 7.07686L10.3538 7.35561L10.5861 7.31331L10.5353 7.03456ZM10.303 7.07686L10.2522 6.79811C10.1111 6.82381 9.97043 6.83866 9.83 6.84279L9.83833 7.12601L9.84667 7.40922C10.016 7.40423 10.1851 7.38633 10.3538 7.35561L10.303 7.07686ZM9.83833 7.12601L9.83 6.84279L9.59766 6.84963L9.606 7.13284L9.61434 7.41605L9.84667 7.40922L9.83833 7.12601ZM9.606 7.13284L9.59766 6.84963L9.36533 6.85647L9.37367 7.13968L9.382 7.42289L9.61434 7.41605L9.606 7.13284ZM9.37367 7.13968L9.36533 6.85647C9.23397 6.86034 9.10208 6.84804 8.96917 6.81916L8.909 7.09603L8.84883 7.3729C9.0257 7.41134 9.20358 7.42814 9.382 7.42289L9.37367 7.13968ZM8.909 7.09603L8.96917 6.81916L8.73683 6.76867L8.67667 7.04554L8.6165 7.32241L8.84883 7.3729L8.909 7.09603ZM8.67667 7.04554L8.73683 6.76867L8.5045 6.71818L8.44433 6.99505L8.38417 7.27192L8.6165 7.32241L8.67667 7.04554ZM8.44433 6.99505L8.5045 6.71818C8.31137 6.67621 8.1168 6.67477 7.92333 6.71403L7.97967 6.9917L8.03601 7.26938C8.15231 7.24578 8.26752 7.24658 8.38417 7.27192L8.44433 6.99505ZM7.97967 6.9917L7.92333 6.71403L7.69099 6.76117L7.74733 7.03884L7.80367 7.31652L8.03601 7.26938L7.97967 6.9917ZM7.74733 7.03884L7.69099 6.76117L7.45866 6.80831L7.515 7.08598L7.57134 7.36366L7.80367 7.31652L7.74733 7.03884ZM7.515 7.08598L7.45866 6.80831C7.32626 6.83517 7.19479 6.84531 7.06372 6.83911L7.05033 7.12213L7.03695 7.40515C7.21566 7.4136 7.39396 7.39965 7.57134 7.36366L7.515 7.08598ZM7.05033 7.12213L7.06372 6.83911L6.83139 6.82812L6.818 7.11114L6.80461 7.39416L7.03695 7.40515L7.05033 7.12213ZM6.818 7.11114L6.83139 6.82812L6.59905 6.81713L6.58567 7.10015L6.57228 7.38317L6.80461 7.39416L6.818 7.11114ZM6.58567 7.10015L6.59905 6.81713C6.45541 6.81034 6.31159 6.79498 6.16753 6.771L6.121 7.05048L6.07447 7.32997C6.24019 7.35756 6.40614 7.37531 6.57228 7.38317L6.58567 7.10015ZM6.121 7.05048L6.16753 6.771L5.93519 6.73232L5.88867 7.01181L5.84214 7.29129L6.07447 7.32997L6.121 7.05048ZM5.88867 7.01181L5.93519 6.73232L5.70286 6.69364L5.65633 6.97313L5.60981 7.25262L5.84214 7.29129L5.88867 7.01181ZM5.65633 6.97313L5.70286 6.69364C5.54271 6.66698 5.3825 6.64495 5.22223 6.62756L5.19167 6.90924L5.16111 7.19092C5.31061 7.20714 5.46018 7.22771 5.60981 7.25262L5.65633 6.97313ZM5.19167 6.90924L5.22223 6.62756L4.98989 6.60236L4.95933 6.88404L4.92877 7.16572L5.16111 7.19092L5.19167 6.90924ZM4.95933 6.88404L4.98989 6.60236L4.75756 6.57715L4.727 6.85883L4.69644 7.14051L4.92877 7.16572L4.95933 6.88404ZM4.727 6.85883L4.75756 6.57715C4.58519 6.55845 4.41264 6.55586 4.24012 6.56943L4.26233 6.85189L4.28454 7.13435C4.42181 7.12356 4.55903 7.1256 4.69644 7.14051L4.727 6.85883ZM4.26233 6.85189L4.24012 6.56943L4.00779 6.58769L4.03 6.87016L4.05221 7.15262L4.28454 7.13435L4.26233 6.85189ZM4.03 6.87016L4.00779 6.58769L3.77546 6.60596L3.79767 6.88842L3.81988 7.17089L4.05221 7.15262L4.03 6.87016ZM3.79767 6.88842L3.77546 6.60596C3.61851 6.6183 3.46157 6.63237 3.30463 6.64816L3.333 6.93007L3.36137 7.21198C3.51421 7.1966 3.66705 7.1829 3.81988 7.17089L3.79767 6.88842ZM3.333 6.93007L3.30463 6.64816L3.0723 6.67154L3.10067 6.95345L3.12903 7.23536L3.36137 7.21198L3.333 6.93007ZM3.10067 6.95345L3.0723 6.67154L2.83997 6.69492L2.86833 6.97683L2.8967 7.25874L3.12903 7.23536L3.10067 6.95345ZM2.86833 6.97683L2.83997 6.69492C2.693 6.7097 2.5461 6.71824 2.39925 6.72053L2.40367 7.00383L2.40808 7.28712C2.57101 7.28458 2.73389 7.27512 2.8967 7.25874L2.86833 6.97683ZM2.40367 7.00383L2.39925 6.72053L2.16692 6.72415L2.17133 7.00745L2.17575 7.29075L2.40808 7.28712L2.40367 7.00383ZM2.17133 7.00745L2.16692 6.72415L1.93458 6.72777L1.939 7.01107L1.94342 7.29437L2.17575 7.29075L2.17133 7.00745ZM1.939 7.01107L1.93458 6.72777C1.76768 6.73037 1.61614 6.74574 1.48868 6.78083L1.5639 7.054L1.63912 7.32717C1.70202 7.30985 1.80054 7.29659 1.94342 7.29437L1.939 7.01107ZM1.5639 7.054L1.48868 6.78083L1.34592 6.82015L1.42114 7.09331L1.49636 7.36648L1.63912 7.32717L1.5639 7.054ZM1.42114 7.09331L1.34592 6.82015L1.20316 6.85946L1.27838 7.13262L1.3536 7.40579L1.49636 7.36648L1.42114 7.09331ZM1.27838 7.13262L1.20316 6.85946C0.919769 6.93749 0.850474 7.21005 0.842522 7.40361L1.12562 7.41524L1.40871 7.42687C1.40984 7.39952 1.41263 7.38056 1.41536 7.36842C1.4181 7.35621 1.4201 7.35387 1.41806 7.35766C1.41567 7.36207 1.40892 7.37261 1.3955 7.38367C1.38167 7.39507 1.36656 7.40222 1.3536 7.40579L1.27838 7.13262ZM1.12562 7.41524L0.842522 7.40361L0.832527 7.64692L1.11562 7.65855L1.39872 7.67018L1.40871 7.42687L1.12562 7.41524ZM1.11562 7.65855L0.832527 7.64692L0.822532 7.89023L1.10563 7.90186L1.38872 7.91349L1.39872 7.67018L1.11562 7.65855ZM1.10563 7.90186L0.822532 7.89023C0.81206 8.14514 0.915258 8.36375 1.11462 8.52135L1.29033 8.29908L1.46604 8.07682C1.4058 8.02919 1.38587 7.98298 1.38872 7.91349L1.10563 7.90186ZM1.29033 8.29908L1.11462 8.52135L1.30932 8.67527L1.48503 8.453L1.66074 8.23074L1.46604 8.07682L1.29033 8.29908ZM1.48503 8.453L1.30932 8.67527L1.50402 8.82919L1.67973 8.60692L1.85545 8.38466L1.66074 8.23074L1.48503 8.453ZM1.67973 8.60692L1.50402 8.82919C1.60834 8.91166 1.68927 9.00403 1.74989 9.10619L1.99356 8.96161L2.23722 8.81702C2.13901 8.6515 2.01073 8.50741 1.85545 8.38466L1.67973 8.60692ZM1.99356 8.96161L1.74989 9.10619L1.86901 9.30695L2.11268 9.16237L2.35635 9.01779L2.23722 8.81702L1.99356 8.96161ZM2.11268 9.16237L1.86901 9.30695L1.98813 9.50771L2.2318 9.36313L2.47547 9.21855L2.35635 9.01779L2.11268 9.16237ZM2.2318 9.36313L1.98813 9.50771C2.0829 9.66742 2.20076 9.80901 2.34088 9.93174L2.52756 9.7186L2.71424 9.50546C2.61884 9.42191 2.53953 9.32652 2.47547 9.21855L2.2318 9.36313ZM2.52756 9.7186L2.34088 9.93174L2.51751 10.0864L2.70419 9.8733L2.89087 9.66016L2.71424 9.50546L2.52756 9.7186ZM2.70419 9.8733L2.51751 10.0864L2.69415 10.2411L2.88083 10.028L3.06751 9.81487L2.89087 9.66016L2.70419 9.8733ZM2.88083 10.028L2.69415 10.2411C2.84657 10.3746 3.02347 10.4661 3.221 10.5143L3.28824 10.2391L3.35547 9.96385C3.24531 9.93694 3.1506 9.88765 3.06751 9.81487L2.88083 10.028ZM3.28824 10.2391L3.221 10.5143L3.45178 10.5707L3.51901 10.2955L3.58625 10.0202L3.35547 9.96385L3.28824 10.2391ZM3.51901 10.2955L3.45178 10.5707L3.68255 10.6271L3.74979 10.3518L3.81702 10.0766L3.58625 10.0202L3.51901 10.2955ZM3.74979 10.3518L3.68255 10.6271C3.80394 10.6567 3.91747 10.7066 4.02431 10.7777L4.18129 10.5418L4.33827 10.3059C4.17747 10.1989 4.00333 10.1221 3.81702 10.0766L3.74979 10.3518ZM4.18129 10.5418L4.02431 10.7777L4.22503 10.9113L4.38201 10.6754L4.53899 10.4395L4.33827 10.3059L4.18129 10.5418ZM4.38201 10.6754L4.22503 10.9113L4.42576 11.0448L4.58274 10.809L4.73972 10.5731L4.53899 10.4395L4.38201 10.6754ZM4.58274 10.809L4.42576 11.0448C4.6018 11.162 4.79747 11.2268 5.00781 11.2357L5.01985 10.9526L5.0319 10.6695C4.92705 10.6651 4.83131 10.6341 4.73972 10.5731L4.58274 10.809ZM5.01985 10.9526L5.00781 11.2357L5.2442 11.2458L5.25624 10.9627L5.26829 10.6796L5.0319 10.6695L5.01985 10.9526ZM5.25624 10.9627L5.2442 11.2458L5.48059 11.2558L5.49264 10.9727L5.50468 10.6897L5.26829 10.6796L5.25624 10.9627ZM5.49264 10.9727L5.48059 11.2558C5.65038 11.263 5.81901 11.2593 5.98639 11.2444L5.96132 10.9622L5.93625 10.6799C5.79391 10.6926 5.65008 10.6958 5.50468 10.6897L5.49264 10.9727ZM5.96132 10.9622L5.98639 11.2444L6.21868 11.2238L6.19361 10.9415L6.16855 10.6593L5.93625 10.6799L5.96132 10.9622ZM6.19361 10.9415L6.21868 11.2238L6.45098 11.2031L6.42591 10.9209L6.40084 10.6387L6.16855 10.6593L6.19361 10.9415ZM6.42591 10.9209L6.45098 11.2031C6.59594 11.1902 6.74456 11.1847 6.89691 11.1867L6.90052 10.9034L6.90414 10.62C6.73339 10.6179 6.5656 10.624 6.40084 10.6387L6.42591 10.9209ZM6.90052 10.9034L6.89691 11.1867L7.13923 11.1898L7.14284 10.9064L7.14646 10.6231L6.90414 10.62L6.90052 10.9034ZM7.14284 10.9064L7.13923 11.1898L7.38155 11.1928L7.38516 10.9095L7.38878 10.6262L7.14646 10.6231L7.14284 10.9064ZM7.38516 10.9095L7.38155 11.1928C7.58659 11.1955 7.78293 11.1522 7.967 11.0632L7.84373 10.8081L7.72046 10.553C7.61621 10.6034 7.50683 10.6277 7.38878 10.6262L7.38516 10.9095ZM7.84373 10.8081L7.967 11.0632L8.18325 10.9588L8.05998 10.7036L7.93671 10.4485L7.72046 10.553L7.84373 10.8081ZM8.05998 10.7036L8.18325 10.9588L8.3995 10.8543L8.27623 10.5992L8.15297 10.344L7.93671 10.4485L8.05998 10.7036ZM8.27623 10.5992L8.3995 10.8543C8.55555 10.7789 8.705 10.6933 8.84772 10.5974L8.68979 10.3622L8.53186 10.127C8.41151 10.2078 8.28525 10.2801 8.15297 10.344L8.27623 10.5992ZM8.68979 10.3622L8.84772 10.5974L9.04503 10.465L8.8871 10.2297L8.72917 9.99449L8.53186 10.127L8.68979 10.3622ZM8.8871 10.2297L9.04503 10.465L9.24234 10.3325L9.08441 10.0973L8.92648 9.86203L8.72917 9.99449L8.8871 10.2297ZM9.08441 10.0973L9.24234 10.3325C9.39982 10.2268 9.53635 10.098 9.65096 9.9469L9.42525 9.77564L9.19954 9.60437C9.12277 9.70554 9.03207 9.79114 8.92648 9.86203L9.08441 10.0973ZM9.42525 9.77564L9.65096 9.9469L9.79449 9.75774L9.56878 9.58647L9.34307 9.41521L9.19954 9.60437L9.42525 9.77564ZM9.56878 9.58647L9.79449 9.75774L9.93803 9.56858L9.71231 9.39731L9.4866 9.22604L9.34307 9.41521L9.56878 9.58647ZM9.71231 9.39731L9.93803 9.56858C10.0285 9.44931 10.1229 9.33622 10.2211 9.22921L10.0123 9.03764L9.80357 8.84606C9.69314 8.96641 9.58749 9.09309 9.4866 9.22604L9.71231 9.39731ZM10.0123 9.03764L10.2211 9.22921L10.3776 9.0587L10.1688 8.86713L9.96005 8.67555L9.80357 8.84606L10.0123 9.03764ZM10.1688 8.86713L10.3776 9.0587L10.534 8.88819L10.3253 8.69662L10.1165 8.50504L9.96005 8.67555L10.1688 8.86713ZM10.3253 8.69662L10.534 8.88819C10.6534 8.75814 10.7565 8.61531 10.8433 8.46018L10.596 8.32186L10.3487 8.18355C10.2832 8.30074 10.2058 8.40775 10.1165 8.50504L10.3253 8.69662ZM10.596 8.32186L10.8433 8.46018L10.9575 8.25593L10.7102 8.11762L10.463 7.9793L10.3487 8.18355L10.596 8.32186ZM10.7102 8.11762L10.9575 8.25593L11.0718 8.05168L10.8245 7.91337L10.5772 7.77506L10.463 7.9793L10.7102 8.11762ZM10.8245 7.91337L11.0718 8.05168C11.1551 7.9027 11.2227 7.75435 11.2733 7.60674L11.0053 7.51489L10.7373 7.42305C10.6991 7.53441 10.6462 7.65171 10.5772 7.77506L10.8245 7.91337ZM11.0053 7.51489L11.2733 7.60674L11.3399 7.4125L11.0718 7.32066L10.8038 7.22882L10.7373 7.42305L11.0053 7.51489ZM11.0718 7.32066L11.3399 7.4125L11.4064 7.21827L11.1384 7.12643L10.8704 7.03459L10.8038 7.22882L11.0718 7.32066ZM11.1384 7.12643L11.4064 7.21827C11.4296 7.15076 11.4523 7.07405 11.4579 7.00466C11.4602 6.97636 11.4647 6.90164 11.4272 6.82386C11.4053 6.77831 11.3663 6.72671 11.3028 6.69127C11.24 6.65615 11.1769 6.65023 11.1293 6.65436L11.1537 6.93664L11.1782 7.21891C11.139 7.2223 11.0833 7.21771 11.0265 7.18599C10.9692 7.15395 10.935 7.10782 10.9167 7.0698C10.8997 7.03452 10.8952 7.00446 10.8937 6.98967C10.8921 6.97375 10.8928 6.9627 10.8931 6.95907C10.8936 6.95294 10.8916 6.9726 10.8704 7.03459L11.1384 7.12643ZM11.1537 6.93664L11.1293 6.65436L11.078 6.6588L11.1025 6.94107L11.1269 7.22335L11.1782 7.21891L11.1537 6.93664ZM11.1025 6.94107L11.078 6.6588L11.0268 6.66324L11.0512 6.94551L11.0757 7.22779L11.1269 7.22335L11.1025 6.94107ZM11.0512 6.94551L11.0268 6.66324C10.9761 6.66763 10.8657 6.68641 10.7169 6.7135L10.7677 6.99226L10.8184 7.27101C10.8952 7.25703 10.9558 7.2464 11.0008 7.23898C11.0233 7.23526 11.0412 7.23249 11.0547 7.23054C11.0614 7.22957 11.0666 7.22887 11.0705 7.22839C11.0746 7.22788 11.0761 7.22776 11.0757 7.22779L11.0512 6.94551ZM10.7677 6.99226L10.7169 6.7135L10.4846 6.75581L10.5353 7.03456L10.5861 7.31331L10.8184 7.27101L10.7677 6.99226Z" fill="#3AC8FF"/>
</g>
<defs>
<clipPath id="clip0_3278_83375">
<rect width="12" height="12" fill="white"/>
</clipPath>
</defs>
</svg>
