<svg width="25" height="25" viewBox="0 0 25 25" fill="none" xmlns="http://www.w3.org/2000/svg">
<path d="M3.0332 21.25C3.0332 21.25 5.2832 12.75 12.0332 12.75C17.5332 12.75 18.7832 21.25 18.7832 21.25C18.8665 20.4167 19.3332 18.75 20.5332 18.75V21.25H18.7832H3.0332Z" fill="#3ac8ff"/>
<path d="M18.7832 21.25C18.7832 21.25 17.5332 12.75 12.0332 12.75C5.2832 12.75 3.0332 21.25 3.0332 21.25H18.7832ZM18.7832 21.25C18.8665 20.4167 19.3332 18.75 20.5332 18.75V21.25H18.7832Z" stroke="#3ac8ff" stroke-width="1.7" stroke-linejoin="bevel"/>
<path d="M12.0332 9.25C13.6901 9.25 15.0332 7.90685 15.0332 6.25C15.0332 4.59315 13.6901 3.25 12.0332 3.25C10.3763 3.25 9.0332 4.59315 9.0332 6.25C9.0332 7.90685 10.3763 9.25 12.0332 9.25Z" fill="#3ac8ff" stroke="#3ac8ff" stroke-width="1.7" stroke-linejoin="bevel"/>
</svg>
