<svg width="24" height="24" viewBox="0 0 24 24" fill="none" xmlns="http://www.w3.org/2000/svg">
<g clip-path="url(#clip0_433_6429)">
<path d="M2 10.6996C2 10.6996 5.17765 6.87547 9.41117 10.6996C13.6447 14.5238 16.8726 16.4403 20 15.9144" stroke="currentColor" stroke-width="1.7" stroke-linejoin="bevel"/>
<path d="M2 14.6995C2 14.6995 4.76648 11.6757 9 15.4999C13.2335 19.324 16.8726 20.4402 20 19.9143" stroke="currentColor" stroke-width="1.7" stroke-linejoin="bevel"/>
<path d="M2 6.03512C2 6.03512 5.94354 1.45609 10.4718 6.03512C15 10.6142 17.5 12.1142 19.5 12.1141C21 12.1142 22 11.1141 22 9.61411C22 8.11414 21 7.11416 19.5 7.11414C18 7.11414 17.5 8.61414 17.5 9.11414" stroke="currentColor" stroke-width="1.7" stroke-linejoin="bevel"/>
</g>
<defs>
<clipPath id="clip0_433_6429">
<rect width="24" height="24" fill="white"/>
</clipPath>
</defs>
</svg>
