<svg width="41" height="40" viewBox="0 0 41 40" fill="none" xmlns="http://www.w3.org/2000/svg">
<g clip-path="url(#clip0_434_3496)">
<mask id="path-1-inside-1_434_3496" fill="white">
<path d="M3.83337 11.6666C3.83337 8.9052 6.07195 6.66663 8.83337 6.66663H32.1667C34.9281 6.66663 37.1667 8.9052 37.1667 11.6666V28.3333C37.1667 31.0947 34.9281 33.3333 32.1667 33.3333H8.83337C6.07195 33.3333 3.83337 31.0947 3.83337 28.3333V11.6666Z"/>
</mask>
<path d="M3.83337 11.6666C3.83337 8.9052 6.07195 6.66663 8.83337 6.66663H32.1667C34.9281 6.66663 37.1667 8.9052 37.1667 11.6666V28.3333C37.1667 31.0947 34.9281 33.3333 32.1667 33.3333H8.83337C6.07195 33.3333 3.83337 31.0947 3.83337 28.3333V11.6666Z" fill="#171D29"/>
<path d="M3.83337 6.66663H37.1667H3.83337ZM37.1667 28.3333C37.1667 32.0152 34.1819 35 30.5 35H10.5C6.81814 35 3.83337 32.0152 3.83337 28.3333C3.83337 30.1742 6.07195 31.6666 8.83337 31.6666H32.1667C34.9281 31.6666 37.1667 30.1742 37.1667 28.3333ZM3.83337 33.3333V6.66663V33.3333ZM37.1667 6.66663V33.3333V6.66663Z" fill="#333C4A" mask="url(#path-1-inside-1_434_3496)"/>
<path d="M32.2552 28.8669L33.0249 28.5476L32.9094 28.2689L32.6421 28.1288L32.2552 28.8669ZM32.577 29.6428L31.8073 29.9621L32.1118 30.6962L32.8594 30.4268L32.577 29.6428ZM33.6146 29.2691L34.3642 28.905L34.0369 28.2312L33.3322 28.4851L33.6146 29.2691ZM32.1666 28.8204L31.7797 29.5585L31.8682 29.6049L32.2552 28.8669L32.6421 28.1288L32.5536 28.0824L32.1666 28.8204ZM32.2552 28.8669L31.4854 29.1861L31.8073 29.9621L32.577 29.6428L33.3468 29.3236L33.0249 28.5476L32.2552 28.8669ZM32.577 29.6428L32.8594 30.4268L33.897 30.0531L33.6146 29.2691L33.3322 28.4851L32.2946 28.8588L32.577 29.6428ZM33.6146 29.2691L32.865 29.6332L33.0674 30.0498L33.8169 29.6857L34.5665 29.3216L34.3642 28.905L33.6146 29.2691Z" fill="#FFBE73"/>
<mask id="mask0_434_3496" style="mask-type:alpha" maskUnits="userSpaceOnUse" x="6" y="7" width="27" height="23">
<path d="M14.8818 8.39727C12.9499 6.77624 7.98703 7.72373 7.16009 8.44514C6.33314 9.16656 6.6952 16.3227 9.09774 16.5982C11.5003 16.8736 10.3857 17.6789 11.138 19.3978C11.8903 21.1168 15.9706 24.4455 18.2214 25.3417C20.689 26.3243 29.7005 29.5345 32.2743 29.5185C32.6295 26.9156 28.9188 18.8704 26.2564 15.766C23.5939 12.6617 22.2842 11.3454 19.8167 10.3627C17.3492 9.38001 16.7031 9.92552 14.8818 8.39727Z" fill="url(#paint0_linear_434_3496)"/>
</mask>
<g mask="url(#mask0_434_3496)">
<path d="M16.3333 9.99996C14.4182 8.393 13.0445 3.29462 7 8C0.955545 12.7054 6.88171 16.4792 9.27084 16.7434C11.66 17.0076 10.5476 17.8147 11.2887 19.5243C12.0299 21.2339 16.0752 24.5333 18.3107 25.4167C20.7616 26.3852 29.7135 29.5454 32.2743 29.5185C32.6388 26.9234 28.9813 18.9228 26.3457 15.841C23.71 12.7591 22.4126 11.4531 19.9619 10.4845C17.5111 9.5159 18.1388 11.515 16.3333 9.99996Z" fill="url(#paint1_linear_434_3496)"/>
<path d="M7.2455 8.39483L6.73336 9.05221L6.79402 9.09947L6.8623 9.13483L7.2455 8.39483ZM9.19469 9.40417L9.92328 8.99969L9.80121 8.77981L9.57788 8.66416L9.19469 9.40417ZM10.3901 11.5575L9.66148 11.9619L9.80764 12.2252L10.0883 12.3343L10.3901 11.5575ZM12.6014 12.4165L13.053 11.7161L12.982 11.6703L12.9031 11.6397L12.6014 12.4165ZM14.5185 13.6529L15.0957 13.0518L15.0377 12.9962L14.9702 12.9526L14.5185 13.6529ZM16.1617 15.2306L15.5845 15.8317L15.6518 15.8963L15.7317 15.9444L16.1617 15.2306ZM18.1251 16.4132L18.6737 15.7859L18.6182 15.7374L18.5551 15.6993L18.1251 16.4132ZM19.8338 17.9076L20.4146 17.31L20.3989 17.2947L20.3824 17.2803L19.8338 17.9076ZM21.4661 19.4942L20.8853 20.0917L20.9323 20.1374L20.9858 20.1752L21.4661 19.4942ZM23.3258 20.8056L23.9677 20.2741L23.8968 20.1886L23.8061 20.1246L23.3258 20.8056ZM24.795 22.5797L24.1531 23.1113L24.1588 23.118L24.795 22.5797ZM26.279 24.3338L25.6429 24.872L25.7078 24.9488L25.7892 25.0079L26.279 24.3338ZM28.1172 25.6693L27.6274 26.3435L27.6395 26.3523L27.6519 26.3606L28.1172 25.6693ZM30.0176 26.9487L30.7484 26.5483L30.651 26.3706L30.483 26.2574L30.0176 26.9487ZM31.1627 29.0386L30.4319 29.439L30.553 29.6601L30.7763 29.7769L31.1627 29.0386ZM7.16661 8.33337L6.65447 8.99076L6.73336 9.05221L7.2455 8.39483L7.75764 7.73744L7.67875 7.67598L7.16661 8.33337ZM7.2455 8.39483L6.8623 9.13483L8.81149 10.1442L9.19469 9.40417L9.57788 8.66416L7.62869 7.65482L7.2455 8.39483ZM9.19469 9.40417L8.46609 9.80864L9.66148 11.9619L10.3901 11.5575L11.1187 11.153L9.92328 8.99969L9.19469 9.40417ZM10.3901 11.5575L10.0883 12.3343L12.2996 13.1932L12.6014 12.4165L12.9031 11.6397L10.6918 10.7807L10.3901 11.5575ZM12.6014 12.4165L12.1497 13.1168L14.0669 14.3533L14.5185 13.6529L14.9702 12.9526L13.053 11.7161L12.6014 12.4165ZM14.5185 13.6529L13.9414 14.2541L15.5845 15.8317L16.1617 15.2306L16.7388 14.6295L15.0957 13.0518L14.5185 13.6529ZM16.1617 15.2306L15.7317 15.9444L17.6952 17.127L18.1251 16.4132L18.5551 15.6993L16.5916 14.5167L16.1617 15.2306ZM18.1251 16.4132L17.5765 17.0404L19.2852 18.5348L19.8338 17.9076L20.3824 17.2803L18.6737 15.7859L18.1251 16.4132ZM19.8338 17.9076L19.253 18.5051L20.8853 20.0917L21.4661 19.4942L22.0469 18.8966L20.4146 17.31L19.8338 17.9076ZM21.4661 19.4942L20.9858 20.1752L22.8456 21.4867L23.3258 20.8056L23.8061 20.1246L21.9463 18.8131L21.4661 19.4942ZM23.3258 20.8056L22.684 21.3371L24.1532 23.1112L24.795 22.5797L25.4368 22.0482L23.9677 20.2741L23.3258 20.8056ZM24.795 22.5797L24.1588 23.118L25.6429 24.872L26.279 24.3338L26.9152 23.7955L25.4312 22.0415L24.795 22.5797ZM26.279 24.3338L25.7892 25.0079L27.6274 26.3435L28.1172 25.6693L28.6071 24.9952L26.7689 23.6596L26.279 24.3338ZM28.1172 25.6693L27.6519 26.3606L29.5522 27.64L30.0176 26.9487L30.483 26.2574L28.5826 24.9781L28.1172 25.6693ZM30.0176 26.9487L29.2868 27.3491L30.4319 29.439L31.1627 29.0386L31.8935 28.6382L30.7484 26.5483L30.0176 26.9487ZM31.1627 29.0386L30.7763 29.7769L32.6137 30.7384L33.0001 30.0001L33.3864 29.2617L31.5491 28.3002L31.1627 29.0386Z" fill="#FFBE73"/>
</g>
</g>
<defs>
<linearGradient id="paint0_linear_434_3496" x1="24.3651" y1="13.4427" x2="15.5833" y2="23.9085" gradientUnits="userSpaceOnUse">
<stop stop-color="#FFEEBE"/>
<stop offset="1" stop-color="#FFC582"/>
</linearGradient>
<linearGradient id="paint1_linear_434_3496" x1="24.4741" y1="13.534" x2="15.6923" y2="23.9998" gradientUnits="userSpaceOnUse">
<stop stop-color="#FFEEBE"/>
<stop offset="1" stop-color="#FFC582"/>
</linearGradient>
<clipPath id="clip0_434_3496">
<rect width="40" height="40" fill="white" transform="translate(0.5)"/>
</clipPath>
</defs>
</svg>
