<svg width="41" height="40" viewBox="0 0 41 40" fill="none" xmlns="http://www.w3.org/2000/svg">
<g clip-path="url(#clip0_434_3767)">
<path d="M17.8 28.75C14 28.3333 5 25 5 25H22H37C37 25 29 28.3333 25.2667 28.75V30H21H17.8V28.75Z" fill="#171D29" stroke="black" stroke-width="1.66667"/>
<ellipse cx="20.5" cy="24.1666" rx="13.3333" ry="2.5" fill="#171D29"/>
<path d="M9.73545 9.61104C12.5337 7.51825 17.0255 8.68968 19.7312 12.5773C22.4367 16.4649 22.0923 21.2525 19.2943 23.3455C16.4961 25.4384 12.0048 24.2676 9.29907 20.38C6.59334 16.4923 6.93721 11.704 9.73545 9.61104Z" fill="#52291F" stroke="#291B18"/>
<path d="M28.6851 8.29394C32.0067 9.21659 33.9777 13.5608 32.778 18.2026C31.5782 22.8445 27.7757 25.5859 24.4541 24.6632C21.1327 23.7403 19.1626 19.3956 20.3624 14.7539C21.5622 10.1123 25.3636 7.37163 28.6851 8.29394Z" fill="#5E744D" stroke="#291B18"/>
<ellipse cx="2.7845" cy="3.59089" rx="2.7845" ry="3.59089" transform="matrix(0.963519 0.267642 -0.250247 0.968182 24.611 12.1796)" fill="#6E4C40"/>
<circle cx="10.5" cy="23.3333" r="1.66667" fill="#52291F"/>
<circle cx="30.5" cy="23.3333" r="1.66667" fill="#52291F"/>
<circle cx="23.8333" cy="25" r="1.66667" fill="#52291F"/>
</g>
<defs>
<clipPath id="clip0_434_3767">
<rect width="40" height="40" fill="white" transform="translate(0.5)"/>
</clipPath>
</defs>
</svg>
