<svg width="12" height="13" viewBox="0 0 12 13" fill="none" xmlns="http://www.w3.org/2000/svg">
<path d="M9.93439 7.84668L10.0057 7.87891L10.0789 7.91016C10.1355 7.93509 10.1877 7.96819 10.2352 8.00781L10.3572 8.10938C10.4061 8.15038 10.4479 8.19895 10.4803 8.25391L10.5594 8.39062C10.5909 8.44414 10.6145 8.50226 10.6297 8.5625L10.6688 8.71582C10.684 8.77668 10.6897 8.83973 10.6863 8.90234L10.6785 9.05957C10.6753 9.11955 10.6657 9.17943 10.6492 9.2373L10.6053 9.39062C10.5891 9.44745 10.5666 9.50193 10.5399 9.55469L10.4686 9.69727C10.4422 9.74931 10.4105 9.79881 10.3758 9.8457L10.3289 9.91016L10.282 9.97363C10.2479 10.0197 10.2098 10.0635 10.1697 10.1045L10.0594 10.2188C10.02 10.2591 9.97794 10.2971 9.93439 10.333L9.87286 10.3828L9.81232 10.4336C9.7687 10.4695 9.72285 10.5041 9.6756 10.5352L9.54279 10.6221C9.49612 10.6528 9.44751 10.6808 9.39825 10.707L9.32794 10.7451L9.25861 10.7822C9.20977 10.8083 9.15886 10.8331 9.10822 10.8555L9.03595 10.8877L8.96271 10.9199C8.89283 10.9507 8.81869 10.9551 8.74591 10.9316L8.59943 10.8848C8.54541 10.8673 8.49171 10.8445 8.44025 10.8174L8.36993 10.7812L8.29962 10.7432C8.25056 10.7173 8.20176 10.6891 8.15509 10.6592L8.08868 10.6162L8.0213 10.5742C7.97385 10.5437 7.92756 10.5099 7.88361 10.4746L7.76056 10.375C7.71617 10.3393 7.67317 10.3007 7.63361 10.2598L7.57892 10.2031L7.52423 10.1445C7.49824 10.1176 7.47536 10.0879 7.45197 10.0586L7.48615 10.041L7.48712 10.04L7.69318 9.92578C7.84477 9.84156 7.99611 9.75183 8.14435 9.6582L8.55157 9.40039C8.74754 9.27654 8.92783 9.1269 9.08575 8.95117L9.08673 8.9502L9.40802 8.59082H9.40704C9.524 8.46045 9.62766 8.31814 9.71564 8.16602L9.79865 8.00977L9.88654 7.83008C9.90243 7.83547 9.91896 7.8399 9.93439 7.84668ZM8.08185 7.78516C8.14504 7.78221 8.20848 7.78878 8.26935 7.80566L8.42072 7.84766C8.48251 7.86486 8.54059 7.89321 8.59259 7.93066L8.72052 8.02344C8.74466 8.04088 8.75752 8.04264 8.76056 8.04297L8.86212 8.02637C8.87761 8.02361 8.90427 8.01351 8.9422 7.98926L9.07501 7.90332C9.12924 7.86862 9.18887 7.84468 9.25177 7.83105L9.32892 7.81445L9.33771 7.81152C9.25685 7.97303 9.15587 8.12316 9.03497 8.25781L8.71368 8.61719C8.58801 8.757 8.44381 8.87712 8.28497 8.97754L7.87677 9.23535C7.73643 9.32399 7.59404 9.4088 7.45099 9.48828L7.24396 9.60352L7.18048 9.6377L7.15802 9.59375C7.13172 9.54147 7.11057 9.48571 7.09357 9.42969L7.07111 9.35449L7.04767 9.27832C7.03026 9.22088 7.019 9.1614 7.01447 9.10156L7.00177 8.94336C6.99727 8.88316 7.00032 8.82232 7.00958 8.7627L7.0213 8.68457L7.034 8.60645C7.04364 8.54459 7.06217 8.48494 7.08966 8.42871L7.12482 8.35742L7.15997 8.28516C7.1883 8.2276 7.22591 8.1761 7.27228 8.13184L7.38751 8.02246C7.43358 7.97864 7.48591 7.94335 7.54376 7.91699L7.68829 7.85156C7.71225 7.84069 7.73209 7.83157 7.74689 7.8252C7.7589 7.82002 7.77471 7.81286 7.78595 7.80957L7.80939 7.80371L7.85822 7.79688C7.87478 7.79558 7.89721 7.79421 7.92365 7.79297L8.08185 7.78516Z" fill="#FF893A"/>
<path d="M7.28906 2.0127L7.75781 2.07324C7.9327 2.0966 8.10662 2.13745 8.27539 2.19336L8.50293 2.26758L8.72852 2.34277C8.93803 2.41233 9.1129 2.54039 9.24414 2.71777L9.38672 2.9082L9.52734 3.09961C9.62626 3.23334 9.72076 3.37217 9.80859 3.5127L9.93262 3.71191L10.0596 3.91309C10.1728 4.09435 10.2314 4.29692 10.2324 4.51074V4.98438C10.2332 5.151 10.227 5.3197 10.2139 5.48633L10.1953 5.72266L10.1768 5.96191C10.1607 6.16271 10.1036 6.35297 10.0059 6.5293L9.89062 6.74023L9.77344 6.94824C9.69905 7.08224 9.6281 7.21948 9.56055 7.3584L9.45508 7.57617L9.34961 7.79199C9.2672 7.96149 9.16124 8.11837 9.03516 8.25879L8.71387 8.61719C8.58809 8.75719 8.44417 8.87799 8.28516 8.97852L7.87695 9.23633C7.73658 9.32499 7.59425 9.40976 7.45117 9.48926L7.24414 9.60352L7.03613 9.71875C6.9062 9.79094 6.77852 9.87062 6.6543 9.95508L6.45508 10.0918L6.25781 10.2246C6.08314 10.3434 5.88781 10.4114 5.67871 10.4238L5.21973 10.4521C5.00601 10.4647 4.80172 10.4125 4.61523 10.3047L4.4082 10.1855L4.2002 10.0654C4.05361 9.98058 3.91042 9.88776 3.77344 9.78906L3.38672 9.50977C3.2561 9.41563 3.1265 9.31895 2.99805 9.22168L2.61523 8.93359C2.46855 8.82238 2.33884 8.69318 2.22461 8.54883L2.07422 8.36133L1.92676 8.17383C1.82285 8.04242 1.72517 7.90639 1.63379 7.7666L1.50195 7.56738L1.37305 7.36816C1.27626 7.22003 1.19273 7.06333 1.125 6.89941L1.0332 6.67676L0.942383 6.45605C0.872527 6.28653 0.823602 6.11025 0.796875 5.92871L0.761719 5.69238L0.728516 5.45508C0.701237 5.26923 0.699844 5.0825 0.726562 4.89746L0.761719 4.66309L0.794922 4.42871C0.821289 4.24658 0.871497 4.07156 0.944336 3.9043L1.03613 3.69043L1.12988 3.47461C1.20316 3.30674 1.30041 3.1517 1.41797 3.00879L1.56836 2.82324L1.7207 2.64062C1.85275 2.48039 2.01565 2.35978 2.20801 2.28906L2.41602 2.21191L2.62695 2.13672C2.69614 2.11134 2.74815 2.0908 2.78223 2.07812C2.79893 2.07191 2.81197 2.06726 2.81934 2.06445C2.82136 2.06365 2.82422 2.06152 2.82422 2.06152C2.83791 2.05583 2.84873 2.05098 2.85254 2.0498C2.87187 2.04407 2.88932 2.04154 2.89258 2.04102C2.90094 2.03973 2.90839 2.03835 2.91113 2.03809H2.94141C2.95245 2.03761 2.96925 2.03678 2.98828 2.03613C3.02835 2.03478 3.08794 2.03161 3.16602 2.0293L3.40527 2.02148L3.64258 2.01758C3.84826 2.01165 4.04637 2.05169 4.23047 2.1416L4.43945 2.24414L4.65039 2.34766C4.80841 2.42493 4.95993 2.5181 5.10254 2.62695L5.29199 2.77441L5.4375 2.88184L5.54785 2.73926L5.69336 2.54688C5.83069 2.36683 6.014 2.24409 6.23242 2.18359L6.4668 2.11816L6.70117 2.05469C6.89473 2.00126 7.09212 1.98655 7.28906 2.0127ZM2.66992 2.20508C2.66861 2.2077 2.66712 2.21068 2.66602 2.21387C2.67216 2.20132 2.67892 2.1893 2.68555 2.17871C2.68052 2.18658 2.67476 2.19546 2.66992 2.20508ZM2.71875 2.13477C2.71616 2.13762 2.71254 2.14227 2.70898 2.14648C2.72476 2.12767 2.74212 2.11421 2.75586 2.10352C2.74658 2.11068 2.73211 2.12052 2.71875 2.13477Z" fill="#FFA970"/>
<path d="M3 5.56488L5.1329 7.5L8 4.5" stroke="white" stroke-width="0.85" stroke-miterlimit="10"/>
</svg>
