<svg width="10" height="11" viewBox="0 0 10 11" fill="none" xmlns="http://www.w3.org/2000/svg">
<g clip-path="url(#clip0_7482_20919)">
<path d="M5.00049 1.41699C7.20435 1.41699 9.0835 2.95781 9.0835 4.96387C9.08311 6.96962 7.20412 8.51074 5.00049 8.51074C4.72539 8.51074 4.45885 8.48365 4.20068 8.43848L3.38525 9.45801L2.79248 9.25V8.05566C1.55625 7.44433 0.917743 6.28569 0.91748 4.96875C0.91748 2.96418 2.79386 1.42415 4.99561 1.42188L5.00049 1.41699ZM2.91748 5.4375H3.54248V4.72852H2.91748V5.4375ZM4.5835 5.4375H5.2085V4.72852H4.5835V5.4375ZM6.25049 4.72852V5.4375H6.87549V4.72852H6.25049Z" fill="#FF893A"/>
</g>
<defs>
<clipPath id="clip0_7482_20919">
<rect width="10" height="10" fill="white" transform="translate(0 0.5)"/>
</clipPath>
</defs>
</svg>
