<svg width="48" height="48" viewBox="0 0 48 48" fill="none" xmlns="http://www.w3.org/2000/svg">
<g clip-path="url(#clip0_9305_39201)">
<path d="M12.1161 18.5312L37.5991 21.5991" stroke="#171D29" stroke-width="1.26257"/>
<path d="M23.3344 23.334C22.2678 21.2007 24.2233 16.6673 25.3344 14.6673L34.0001 13.334L36.0001 15.334C34.8454 17.7784 32.4288 23.0673 32.0001 24.6673C31.4642 26.6673 33.3334 32.6673 30.0001 32.6673C27.3334 32.6673 24.0001 30.8895 22.6667 30.0007C23.3338 28.6673 24.4011 25.4673 23.3344 23.334Z" fill="url(#paint0_linear_9305_39201)"/>
<path d="M23.3344 23.334C22.2678 21.2007 24.2233 16.6673 25.3344 14.6673L34.0001 13.334L36.0001 15.334C34.8454 17.7784 32.4288 23.0673 32.0001 24.6673C31.4642 26.6673 33.3334 32.6673 30.0001 32.6673C27.3334 32.6673 24.0001 30.8895 22.6667 30.0007C23.3338 28.6673 24.4011 25.4673 23.3344 23.334Z" fill="url(#paint1_linear_9305_39201)"/>
<path d="M23.3344 23.334C22.2678 21.2007 24.2233 16.6673 25.3344 14.6673L34.0001 13.334L36.0001 15.334C34.8454 17.7784 32.4288 23.0673 32.0001 24.6673C31.4642 26.6673 33.3334 32.6673 30.0001 32.6673C27.3334 32.6673 24.0001 30.8895 22.6667 30.0007C23.3338 28.6673 24.4011 25.4673 23.3344 23.334Z" stroke="#333C4A" stroke-width="0.933333"/>
<mask id="mask0_9305_39201" style="mask-type:alpha" maskUnits="userSpaceOnUse" x="22" y="12" width="15" height="22">
<path d="M23.3344 23.334C22.3605 21.3861 23.9062 17.4372 25.0281 15.243C25.2157 14.8761 25.5728 14.6306 25.98 14.568L33.3323 13.4367C33.7521 13.3721 34.1775 13.5114 34.4778 13.8118L35.3364 14.6703C35.7345 15.0684 35.84 15.6721 35.6022 16.1824C34.3639 18.8395 32.3842 23.2339 32.0001 24.6673C31.4642 26.6673 33.3334 32.6673 30.0001 32.6673C27.8607 32.6673 25.2923 31.5231 23.6717 30.6116C23.0855 30.2819 22.8963 29.5498 23.125 28.9174C23.6928 27.347 24.1729 25.0109 23.3344 23.334Z" fill="url(#paint2_linear_9305_39201)" stroke="#333C4A" stroke-width="0.933333"/>
</mask>
<g mask="url(#mask0_9305_39201)">
<path d="M26.6667 22.6658C28.6667 23.3332 30.5404 22.6222 31.8738 22.6236C33.5603 22.6253 32.889 21.7771 33.3334 21.9989" stroke="url(#paint3_linear_9305_39201)" stroke-width="2.66667" stroke-linecap="round" stroke-linejoin="round"/>
<path d="M26.0989 28.8574L26.5835 27.6152L26.4132 27.5488L26.2313 27.5306L26.0989 28.8574ZM26.9283 29.1809L26.4437 30.4231L26.9283 29.1809ZM30.3613 29.3522L30.286 30.6834L30.3613 29.3522ZM32.2463 29.4741L32.1233 30.8017L32.1262 30.802L32.2463 29.4741ZM32.5666 29.503L32.699 28.1762L32.6867 28.1751L32.5666 29.503ZM25.9994 28.8475L25.8669 30.1742L25.9664 30.1841L26.0989 28.8574L26.2313 27.5306L26.1318 27.5207L25.9994 28.8475ZM26.0989 28.8574L25.6143 30.0995L26.4437 30.4231L26.9283 29.1809L27.4129 27.9388L26.5835 27.6152L26.0989 28.8574ZM26.9283 29.1809L26.4437 30.4231C27.0741 30.669 27.7505 30.8433 28.3995 30.7881L28.2865 29.4595L28.1735 28.131C28.1174 28.1358 27.8883 28.1242 27.4129 27.9388L26.9283 29.1809ZM28.2865 29.4595L28.3995 30.7881L28.9283 30.7431L28.8153 29.4145L28.7023 28.086L28.1735 28.131L28.2865 29.4595ZM28.8153 29.4145L28.9283 30.7431L29.4571 30.6981L29.3441 29.3696L29.2311 28.041L28.7023 28.086L28.8153 29.4145ZM29.3441 29.3696L29.4571 30.6981C29.7522 30.673 30.0282 30.6689 30.286 30.6834L30.3613 29.3522L30.4367 28.021C30.0433 27.9988 29.6411 28.0062 29.2311 28.041L29.3441 29.3696ZM30.3613 29.3522L30.286 30.6834L30.7744 30.7111L30.8498 29.3799L30.9251 28.0487L30.4367 28.021L30.3613 29.3522ZM30.8498 29.3799L30.7744 30.7111L31.2629 30.7387L31.3382 29.4075L31.4135 28.0763L30.9251 28.0487L30.8498 29.3799ZM31.3382 29.4075L31.2629 30.7387C31.5877 30.7571 31.7995 30.7717 31.9134 30.7823L32.0365 29.4546L32.1596 28.127C31.9936 28.1116 31.7399 28.0948 31.4135 28.0763L31.3382 29.4075ZM32.0365 29.4546L31.9134 30.7823L32.1233 30.8017L32.2463 29.4741L32.3694 28.1464L32.1596 28.127L32.0365 29.4546ZM32.2463 29.4741L32.1262 30.802L32.4464 30.8309L32.5666 29.503L32.6867 28.1751L32.3665 28.1462L32.2463 29.4741ZM32.5666 29.503L32.4341 30.8298L32.5336 30.8397L32.6661 29.513L32.7985 28.1862L32.699 28.1763L32.5666 29.503Z" fill="#D9724A"/>
<path d="M26.0989 28.8574L26.5835 27.6152L26.4132 27.5488L26.2313 27.5306L26.0989 28.8574ZM26.9283 29.1809L26.4437 30.4231L26.9283 29.1809ZM30.3613 29.3522L30.286 30.6834L30.3613 29.3522ZM32.2463 29.4741L32.1233 30.8017L32.1262 30.802L32.2463 29.4741ZM32.5666 29.503L32.699 28.1762L32.6867 28.1751L32.5666 29.503ZM25.9994 28.8475L25.8669 30.1742L25.9664 30.1841L26.0989 28.8574L26.2313 27.5306L26.1318 27.5207L25.9994 28.8475ZM26.0989 28.8574L25.6143 30.0995L26.4437 30.4231L26.9283 29.1809L27.4129 27.9388L26.5835 27.6152L26.0989 28.8574ZM26.9283 29.1809L26.4437 30.4231C27.0741 30.669 27.7505 30.8433 28.3995 30.7881L28.2865 29.4595L28.1735 28.131C28.1174 28.1358 27.8883 28.1242 27.4129 27.9388L26.9283 29.1809ZM28.2865 29.4595L28.3995 30.7881L28.9283 30.7431L28.8153 29.4145L28.7023 28.086L28.1735 28.131L28.2865 29.4595ZM28.8153 29.4145L28.9283 30.7431L29.4571 30.6981L29.3441 29.3696L29.2311 28.041L28.7023 28.086L28.8153 29.4145ZM29.3441 29.3696L29.4571 30.6981C29.7522 30.673 30.0282 30.6689 30.286 30.6834L30.3613 29.3522L30.4367 28.021C30.0433 27.9988 29.6411 28.0062 29.2311 28.041L29.3441 29.3696ZM30.3613 29.3522L30.286 30.6834L30.7744 30.7111L30.8498 29.3799L30.9251 28.0487L30.4367 28.021L30.3613 29.3522ZM30.8498 29.3799L30.7744 30.7111L31.2629 30.7387L31.3382 29.4075L31.4135 28.0763L30.9251 28.0487L30.8498 29.3799ZM31.3382 29.4075L31.2629 30.7387C31.5877 30.7571 31.7995 30.7717 31.9134 30.7823L32.0365 29.4546L32.1596 28.127C31.9936 28.1116 31.7399 28.0948 31.4135 28.0763L31.3382 29.4075ZM32.0365 29.4546L31.9134 30.7823L32.1233 30.8017L32.2463 29.4741L32.3694 28.1464L32.1596 28.127L32.0365 29.4546ZM32.2463 29.4741L32.1262 30.802L32.4464 30.8309L32.5666 29.503L32.6867 28.1751L32.3665 28.1462L32.2463 29.4741ZM32.5666 29.503L32.4341 30.8298L32.5336 30.8397L32.6661 29.513L32.7985 28.1862L32.699 28.1763L32.5666 29.503Z" fill="url(#paint4_linear_9305_39201)"/>
<path d="M26.0989 30.8662L26.5835 29.624L26.4132 29.5576L26.2313 29.5394L26.0989 30.8662ZM26.9283 31.1897L26.4437 32.4319L26.9283 31.1897ZM30.3613 31.361L30.286 32.6922L30.3613 31.361ZM32.2463 31.4829L32.1233 32.8105L32.1262 32.8108L32.2463 31.4829ZM32.5666 31.5118L32.699 30.185L32.6867 30.1839L32.5666 31.5118ZM25.9994 30.8562L25.8669 32.183L25.9664 32.1929L26.0989 30.8662L26.2313 29.5394L26.1318 29.5295L25.9994 30.8562ZM26.0989 30.8662L25.6143 32.1083L26.4437 32.4319L26.9283 31.1897L27.4129 29.9476L26.5835 29.624L26.0989 30.8662ZM26.9283 31.1897L26.4437 32.4319C27.0741 32.6778 27.7505 32.852 28.3995 32.7968L28.2865 31.4683L28.1735 30.1398C28.1174 30.1445 27.8883 30.133 27.4129 29.9476L26.9283 31.1897ZM28.2865 31.4683L28.3995 32.7968L28.9283 32.7519L28.8153 31.4233L28.7023 30.0948L28.1735 30.1398L28.2865 31.4683ZM28.8153 31.4233L28.9283 32.7519L29.4571 32.7069L29.3441 31.3784L29.2311 30.0498L28.7023 30.0948L28.8153 31.4233ZM29.3441 31.3784L29.4571 32.7069C29.7522 32.6818 30.0282 32.6776 30.286 32.6922L30.3613 31.361L30.4367 30.0298C30.0433 30.0076 29.6411 30.015 29.2311 30.0498L29.3441 31.3784ZM30.3613 31.361L30.286 32.6922L30.7744 32.7199L30.8498 31.3887L30.9251 30.0575L30.4367 30.0298L30.3613 31.361ZM30.8498 31.3887L30.7744 32.7199L31.2629 32.7475L31.3382 31.4163L31.4135 30.0851L30.9251 30.0575L30.8498 31.3887ZM31.3382 31.4163L31.2629 32.7475C31.5877 32.7659 31.7995 32.7805 31.9134 32.791L32.0365 31.4634L32.1596 30.1358C31.9936 30.1204 31.7399 30.1036 31.4135 30.0851L31.3382 31.4163ZM32.0365 31.4634L31.9134 32.791L32.1233 32.8105L32.2463 31.4829L32.3694 30.1552L32.1596 30.1358L32.0365 31.4634ZM32.2463 31.4829L32.1262 32.8108L32.4464 32.8397L32.5666 31.5118L32.6867 30.1839L32.3665 30.1549L32.2463 31.4829ZM32.5666 31.5118L32.4341 32.8386L32.5336 32.8485L32.6661 31.5218L32.7985 30.195L32.699 30.1851L32.5666 31.5118Z" fill="#FFE1D5"/>
<path d="M26.6667 18.6657C26.6667 18.6657 29.3334 19.3324 31.3334 18.4313C32.0924 18.0894 34.6667 15.999 34.6667 15.999" stroke="url(#paint5_linear_9305_39201)" stroke-width="6.66667" stroke-linecap="round" stroke-linejoin="round"/>
<path d="M27.8005 16.6641C27.8005 17.0913 27.6444 17.5797 27.4675 18.0479C27.3762 18.2896 27.2727 18.5436 27.1677 18.7988C27.0619 19.0563 26.9542 19.3171 26.8523 19.582C26.4332 20.6718 26.1682 21.6918 26.4431 22.5166C26.8903 23.8582 26.8803 25.6078 26.6912 27.2334C26.5005 28.8713 26.1196 30.4482 25.7761 31.4785L25.6062 31.9883L25.1248 31.748L23.5828 30.9766C22.7242 30.5473 22.3776 29.5434 22.6638 28.6748C22.9447 27.8223 23.2026 26.8037 23.2888 25.8555C23.3768 24.8872 23.2767 24.0874 22.9451 23.5898C22.59 23.0573 22.5213 22.3233 22.574 21.5811C22.628 20.8207 22.8172 19.9601 23.0691 19.0996C23.5735 17.3768 24.3517 15.5832 24.9158 14.4551L25.2058 13.876L27.8005 16.4707V16.6641Z" fill="url(#paint6_linear_9305_39201)"/>
<path d="M27.8005 16.6641C27.8005 17.0913 27.6444 17.5797 27.4675 18.0479C27.3762 18.2896 27.2727 18.5436 27.1677 18.7988C27.0619 19.0563 26.9542 19.3171 26.8523 19.582C26.4332 20.6718 26.1682 21.6918 26.4431 22.5166C26.8903 23.8582 26.8803 25.6078 26.6912 27.2334C26.5005 28.8713 26.1196 30.4482 25.7761 31.4785L25.6062 31.9883L25.1248 31.748L23.5828 30.9766C22.7242 30.5473 22.3776 29.5434 22.6638 28.6748C22.9447 27.8223 23.2026 26.8037 23.2888 25.8555C23.3768 24.8872 23.2767 24.0874 22.9451 23.5898C22.59 23.0573 22.5213 22.3233 22.574 21.5811C22.628 20.8207 22.8172 19.9601 23.0691 19.0996C23.5735 17.3768 24.3517 15.5832 24.9158 14.4551L25.2058 13.876L27.8005 16.4707V16.6641Z" stroke="black" stroke-width="0.933333"/>
<path d="M27.8005 16.6641C27.8005 17.0913 27.6444 17.5797 27.4675 18.0479C27.3762 18.2896 27.2727 18.5436 27.1677 18.7988C27.0619 19.0563 26.9542 19.3171 26.8523 19.582C26.4332 20.6718 26.1682 21.6918 26.4431 22.5166C26.8903 23.8582 26.8803 25.6078 26.6912 27.2334C26.5005 28.8713 26.1196 30.4482 25.7761 31.4785L25.6062 31.9883L25.1248 31.748L23.5828 30.9766C22.7242 30.5473 22.3776 29.5434 22.6638 28.6748C22.9447 27.8223 23.2026 26.8037 23.2888 25.8555C23.3768 24.8872 23.2767 24.0874 22.9451 23.5898C22.59 23.0573 22.5213 22.3233 22.574 21.5811C22.628 20.8207 22.8172 19.9601 23.0691 19.0996C23.5735 17.3768 24.3517 15.5832 24.9158 14.4551L25.2058 13.876L27.8005 16.4707V16.6641Z" stroke="#8C5E41" stroke-width="0.933333"/>
<path d="M27.8005 16.6641C27.8005 17.0913 27.6444 17.5797 27.4675 18.0479C27.3762 18.2896 27.2727 18.5436 27.1677 18.7988C27.0619 19.0563 26.9542 19.3171 26.8523 19.582C26.4332 20.6718 26.1682 21.6918 26.4431 22.5166C26.8903 23.8582 26.8803 25.6078 26.6912 27.2334C26.5005 28.8713 26.1196 30.4482 25.7761 31.4785L25.6062 31.9883L25.1248 31.748L23.5828 30.9766C22.7242 30.5473 22.3776 29.5434 22.6638 28.6748C22.9447 27.8223 23.2026 26.8037 23.2888 25.8555C23.3768 24.8872 23.2767 24.0874 22.9451 23.5898C22.59 23.0573 22.5213 22.3233 22.574 21.5811C22.628 20.8207 22.8172 19.9601 23.0691 19.0996C23.5735 17.3768 24.3517 15.5832 24.9158 14.4551L25.2058 13.876L27.8005 16.4707V16.6641Z" stroke="url(#paint7_linear_9305_39201)" stroke-width="0.933333"/>
<mask id="mask1_9305_39201" style="mask-type:alpha" maskUnits="userSpaceOnUse" x="23" y="14" width="5" height="18">
<path d="M27.3328 16.665L25.3328 14.665C24.2217 16.8873 22.2661 21.7317 23.3328 23.3317C24.1798 24.6022 23.6817 27.0776 23.1068 28.8221C22.8859 29.4926 23.1592 30.2449 23.7906 30.5606L25.3328 31.3317C25.9995 29.3317 26.828 25.1507 25.9995 22.665C25.3328 20.665 27.3328 17.9984 27.3328 16.665Z" fill="url(#paint8_linear_9305_39201)"/>
</mask>
<g mask="url(#mask1_9305_39201)">
<path d="M23.3314 21.335C23.9981 22.0016 26.6648 22.6683 26.6648 22.6683" stroke="#EF7A4C" stroke-width="2.66667" stroke-linecap="round"/>
<path d="M23.9988 15.335C23.9988 17.335 25.3321 18.0016 26.6654 18.6683" stroke="#E9AE97" stroke-width="6.66667" stroke-linecap="round"/>
<path d="M23.9988 28C24.6654 29.3333 25.3321 30.6667 26.6654 30.6667" stroke="#E9AE97" stroke-width="2.66667" stroke-linecap="round"/>
<path d="M23.1613 25.4271C22.4776 25.1536 21.7017 25.4861 21.4282 26.1699C21.1547 26.8536 21.4872 27.6295 22.171 27.903L22.6661 26.665L23.1613 25.4271ZM22.759 26.7022L22.2638 27.9401L22.2801 27.9466L22.2965 27.9527L22.759 26.7022ZM24.7048 27.3089L24.4321 28.6141L24.7048 27.3089ZM25.5546 27.5912L24.6544 28.5748L25.5546 27.5912ZM25.7029 27.7269L26.709 26.852L26.6591 26.7946L26.603 26.7433L25.7029 27.7269ZM25.9066 27.9612L24.9005 28.8362L25.1121 29.0795L25.4114 29.1992L25.9066 27.9612ZM25.5043 29.2363C26.188 29.5098 26.964 29.1773 27.2374 28.4936C27.5109 27.8098 27.1784 27.0339 26.4947 26.7604L25.9995 27.9984L25.5043 29.2363ZM22.6661 26.665L22.171 27.903L22.2638 27.9401L22.759 26.7022L23.2542 25.4642L23.1613 25.4271L22.6661 26.665ZM22.759 26.7022L22.2965 27.9527L22.9186 28.1828L23.3811 26.9323L23.8437 25.6817L23.2215 25.4516L22.759 26.7022ZM23.3811 26.9323L22.9186 28.1828C23.3526 28.3433 23.7501 28.4716 24.0814 28.5408L24.354 27.2357L24.6267 25.9305C24.4903 25.902 24.2392 25.828 23.8437 25.6817L23.3811 26.9323ZM24.354 27.2357L24.0814 28.5408L24.4321 28.6141L24.7048 27.3089L24.9774 26.0038L24.6267 25.9305L24.354 27.2357ZM24.7048 27.3089L24.4321 28.6141L24.7829 28.6874L25.0555 27.3822L25.3282 26.077L24.9774 26.0038L24.7048 27.3089ZM25.0555 27.3822L24.7829 28.6874C24.8417 28.6997 24.8561 28.7074 24.8406 28.7009C24.8315 28.6971 24.8094 28.6872 24.7785 28.6686C24.7477 28.65 24.7037 28.6199 24.6544 28.5748L25.5546 27.5912L26.4547 26.6076C26.0895 26.2733 25.6381 26.1418 25.3282 26.077L25.0555 27.3822ZM25.5546 27.5912L24.6544 28.5748L24.8027 28.7105L25.7029 27.7269L26.603 26.7433L26.4547 26.6076L25.5546 27.5912ZM25.7029 27.7269L24.6967 28.6019L24.9005 28.8362L25.9066 27.9612L26.9127 27.0863L26.709 26.852L25.7029 27.7269ZM25.9066 27.9612L25.4114 29.1992L25.5043 29.2363L25.9995 27.9984L26.4947 26.7604L26.4018 26.7233L25.9066 27.9612Z" fill="#EF7A4C"/>
</g>
<path d="M33.9987 13.334L25.5921 14.6273C25.4841 14.6439 25.4409 14.7761 25.5181 14.8534L26.9415 16.2768C27.1916 16.5268 27.5301 16.6678 27.883 16.6453C28.6147 16.5988 29.9734 16.4535 31.332 16.0007C32.9129 15.4737 34.9104 15.3633 35.6781 15.3401C35.7968 15.3365 35.8551 15.1904 35.7711 15.1064L33.9987 13.334Z" fill="url(#paint9_linear_9305_39201)" stroke="#D98369" stroke-width="0.933333" stroke-linejoin="round"/>
</g>
<path d="M23.3351 23.335C22.3611 21.387 23.9068 17.4382 25.0287 15.2439C25.2163 14.8771 25.5734 14.6316 25.9806 14.569L33.3329 13.4377C33.7527 13.3731 34.1781 13.5124 34.4785 13.8127L35.337 14.6713C35.7351 15.0694 35.8406 15.6731 35.6028 16.1833C34.3645 18.8404 32.3848 23.2348 32.0007 24.6683C31.4648 26.6683 33.334 32.6683 30.0007 32.6683C27.8613 32.6683 25.2929 31.5241 23.6723 30.6126C23.0861 30.2829 22.8969 29.5508 23.1256 28.9183C23.6934 27.348 24.1735 25.0119 23.3351 23.335Z" stroke="#333C4A" stroke-width="0.933333"/>
<path d="M10.6295 13.335L37.5979 20.0017" stroke="#171D29" stroke-width="1.26257"/>
</g>
<defs>
<linearGradient id="paint0_linear_9305_39201" x1="29.3334" y1="13.334" x2="29.3334" y2="32.6673" gradientUnits="userSpaceOnUse">
<stop stop-color="#FFEACC"/>
<stop offset="0.8442" stop-color="#E2A77C"/>
<stop offset="1" stop-color="#DD9A6E"/>
</linearGradient>
<linearGradient id="paint1_linear_9305_39201" x1="27.3334" y1="14.6673" x2="30.6667" y2="28.0006" gradientUnits="userSpaceOnUse">
<stop stop-color="#FFF2DD"/>
<stop offset="1" stop-color="#FFCAA7"/>
</linearGradient>
<linearGradient id="paint2_linear_9305_39201" x1="28.6667" y1="23.334" x2="29.3334" y2="32.6673" gradientUnits="userSpaceOnUse">
<stop stop-color="#FFF2DD"/>
<stop offset="1" stop-color="#FFCAA7"/>
</linearGradient>
<linearGradient id="paint3_linear_9305_39201" x1="30.0001" y1="19.1318" x2="30.0001" y2="25.7985" gradientUnits="userSpaceOnUse">
<stop offset="0.346813" stop-color="#FFD2C1"/>
<stop offset="0.682927" stop-color="#D9724A"/>
<stop offset="1" stop-color="#C97B5C"/>
</linearGradient>
<linearGradient id="paint4_linear_9305_39201" x1="25.9994" y1="29.111" x2="32.6661" y2="29.111" gradientUnits="userSpaceOnUse">
<stop stop-color="#D9724A"/>
<stop offset="1" stop-color="#C97B5C"/>
</linearGradient>
<linearGradient id="paint5_linear_9305_39201" x1="30.6667" y1="15.999" x2="30.6667" y2="18.9031" gradientUnits="userSpaceOnUse">
<stop stop-color="#FFF1EC"/>
<stop offset="1" stop-color="#FFD2C1"/>
</linearGradient>
<linearGradient id="paint6_linear_9305_39201" x1="25.0001" y1="14.6641" x2="25.0001" y2="31.3307" gradientUnits="userSpaceOnUse">
<stop stop-color="#FFDECA"/>
<stop offset="1" stop-color="#FFA872"/>
</linearGradient>
<linearGradient id="paint7_linear_9305_39201" x1="25.0001" y1="14.6641" x2="25.0001" y2="31.3307" gradientUnits="userSpaceOnUse">
<stop stop-color="#FFD4BA"/>
<stop offset="1" stop-color="#F79C64"/>
</linearGradient>
<linearGradient id="paint8_linear_9305_39201" x1="24.9995" y1="14.665" x2="24.9995" y2="31.3317" gradientUnits="userSpaceOnUse">
<stop stop-color="#FFDECA"/>
<stop offset="1" stop-color="#FFA872"/>
</linearGradient>
<linearGradient id="paint9_linear_9305_39201" x1="25.332" y1="15.0007" x2="35.9987" y2="15.0007" gradientUnits="userSpaceOnUse">
<stop stop-color="#D98369"/>
<stop offset="1" stop-color="#FFB89C"/>
</linearGradient>
<clipPath id="clip0_9305_39201">
<rect width="32" height="32" fill="white" transform="translate(8 8)"/>
</clipPath>
</defs>
</svg>
