<svg width="35" height="28" viewBox="0 0 35 28" fill="none" xmlns="http://www.w3.org/2000/svg">
<g clip-path="url(#clip0_435_3382)">
<path d="M33.6605 10.2882C33.6288 10.7624 33.5646 11.4425 33.4369 12.2599C33.181 13.8975 32.6707 16.0737 31.6537 18.2433C30.6373 20.4116 29.1215 22.5613 26.8607 24.1691C24.6044 25.7735 21.5772 26.8585 17.5004 26.8585C13.4235 26.8585 10.3963 25.7735 8.14001 24.1691C5.87922 22.5614 4.36349 20.4116 3.34705 18.2433C2.33007 16.0737 1.81875 13.8975 1.56287 12.2599C1.43517 11.4426 1.37099 10.7624 1.33923 10.2882C1.33809 10.2711 1.33737 10.254 1.3363 10.2374L17.3412 15.923L17.5004 15.9796L17.6586 15.923L33.6625 10.2374C33.6614 10.254 33.6617 10.2711 33.6605 10.2882Z" fill="#171D29" stroke="#333C4A" stroke-width="0.949516"/>
<path d="M17.5 17.1114C8.28331 17.1114 2.09998 13.2002 2.09998 9.5558C2.09998 5.91136 8.28331 2.00024 17.5 2.00024C26.7166 2.00024 32.9166 5.91136 32.9166 9.5558C32.9166 13.2002 26.7166 17.1114 17.5 17.1114Z" fill="url(#paint0_linear_435_3382)"/>
<path d="M17.5 3.33329C26.15 3.33329 31.6667 7.01329 31.6667 9.55552C31.6667 12.0977 26.15 15.7777 17.5 15.7777C8.85004 15.7777 3.35004 12.0977 3.35004 9.55552C3.35004 7.01329 8.86671 3.33329 17.5 3.33329ZM17.5 0.666626C8.30004 0.666626 0.833374 4.64885 0.833374 9.55552C0.833374 14.4622 8.30004 18.4444 17.5 18.4444C26.7 18.4444 34.1667 14.4622 34.1667 9.55552C34.1667 4.64885 26.7 0.666626 17.5 0.666626Z" fill="#171D29"/>
<path d="M9.84976 7.27839V6.85505C9.84976 6.20612 9.32369 5.68005 8.67476 5.68005C8.02582 5.68005 7.49976 6.20612 7.49976 6.85505V7.27839C7.49976 7.92732 8.02582 8.45339 8.67476 8.45339C9.32369 8.45339 9.84976 7.92732 9.84976 7.27839Z" fill="#938767"/>
<path d="M25.5083 7.00362C26.0455 7.2424 26.0467 8.00449 25.5101 8.24486C25.334 8.32377 25.1326 8.32407 24.9563 8.24569L22.2251 7.03185C21.6879 6.79307 21.6868 6.03098 22.2233 5.79061C22.3994 5.7117 22.6008 5.71141 22.7772 5.78979L25.5083 7.00362Z" fill="#938767"/>
<path d="M8.18337 8.93171V8.50837C8.18337 7.85944 7.65731 7.33337 7.00837 7.33337C6.35944 7.33337 5.83337 7.85944 5.83337 8.50837V8.93171C5.83337 9.58064 6.35944 10.1067 7.00837 10.1067C7.65731 10.1067 8.18337 9.58064 8.18337 8.93171Z" fill="#938767"/>
<path d="M13.4667 12.4713L12.9334 12.7024L10.8334 11.7602L11.3667 11.5291L13.4667 12.4713Z" fill="#938767"/>
<path d="M26 10H25C24.4477 10 24 10.4477 24 11C24 11.5523 24.4477 12 25 12H25.5H26C26.5523 12 27 11.5523 27 11C27 10.4477 26.5523 10 26 10Z" fill="#938767"/>
<path d="M21 13H20C19.4477 13 19 13.4477 19 14C19 14.5523 19.4477 15 20 15H20.5H21C21.5523 15 22 14.5523 22 14C22 13.4477 21.5523 13 21 13Z" fill="#938767"/>
<path d="M20.8334 5.99988H20.2334V6.63988H20.8334V5.99988Z" fill="#96C66B"/>
<path d="M22.9166 8.93372H22.3167V9.57372H22.9166V8.93372Z" fill="#96C66B"/>
<path d="M15.283 10.9696L16.6953 9.40411C18.149 7.79268 21.5843 7.67092 24.3961 7.95318C25.7494 8.08903 25.9921 9.32552 24.8771 10.0851C23.5409 10.9954 21.9611 11.973 20.8848 12.2556C19.6771 12.5726 17.5582 12.6907 15.9065 12.5426C14.8939 12.4518 14.6664 11.6531 15.283 10.9696Z" fill="#FFA6A6"/>
<path d="M5.83336 11.6302C5.5 9.5 9.49999 5.49996 13 7.50001" stroke="#5C953B" stroke-width="1.66667"/>
<path d="M9.16663 11.6302C9.5 9 12.8333 8.46351 14.1666 9.13018" stroke="#5C953B" stroke-width="1.66667"/>
<path d="M11.6763 9.29351L13.362 6.41788C14.8696 3.84632 18.5082 3.74003 21.3725 4.23585C22.5781 4.44454 22.9785 5.92707 22.1467 6.82433C20.7111 8.3729 18.7952 10.3033 17.5515 10.8058C16.305 11.3094 14.088 11.4867 12.4157 11.2243C11.5063 11.0816 11.2107 10.0876 11.6763 9.29351Z" fill="#FFA6A6"/>
<path d="M18.9398 6.78983C17.9561 6.50748 16.4512 7.07573 14.9523 7.90637C14.0694 8.39562 12.8516 7.28867 13.362 6.41788C14.8696 3.84632 18.5082 3.74003 21.3725 4.23585C22.5781 4.44454 22.8769 5.85534 21.7713 6.37939C20.8789 6.80237 19.8626 7.05467 18.9398 6.78983Z" fill="url(#paint1_linear_435_3382)"/>
<path d="M22.2731 9.64582C21.2496 9.45492 19.662 9.86235 18.1039 10.4376C17.1426 10.7925 16.1026 10.0612 16.6953 9.40411C18.149 7.79268 21.5843 7.67092 24.3961 7.95318C25.7494 8.08903 25.8286 9.25146 24.4207 9.55978C23.7136 9.71464 22.9669 9.77522 22.2731 9.64582Z" fill="url(#paint2_linear_435_3382)"/>
<path d="M9.16663 13.3485C9.99996 11.4215 12.8333 10.1818 14.1666 10.8485" stroke="#5C953B" stroke-width="1.66667"/>
<path d="M18.2833 6.11051V6.05829C18.2833 5.84198 18.108 5.66663 17.8917 5.66663C17.6754 5.66663 17.5 5.84198 17.5 6.05829V6.11051C17.5 6.32683 17.6754 6.50218 17.8917 6.50218C18.108 6.50218 18.2833 6.32683 18.2833 6.11051Z" fill="#B20000"/>
<path d="M20.5166 8.09837V8.00837C20.5166 7.63558 20.2144 7.33337 19.8416 7.33337C19.4688 7.33337 19.1666 7.63558 19.1666 8.00837V8.09837C19.1666 8.47117 19.4688 8.77337 19.8416 8.77337C20.2144 8.77337 20.5166 8.47117 20.5166 8.09837Z" fill="#B20000"/>
<path d="M16 9.5C16 9.77614 16.2239 10 16.5 10C16.7761 10 17 9.77614 17 9.5C17 9.22386 16.7761 9 16.5 9C16.2239 9 16 9.22386 16 9.5Z" fill="#B20000"/>
</g>
<defs>
<linearGradient id="paint0_linear_435_3382" x1="17.5083" y1="2.00024" x2="17.5083" y2="17.1114" gradientUnits="userSpaceOnUse">
<stop stop-color="#FF4747"/>
<stop offset="1" stop-color="#FF9D00"/>
</linearGradient>
<linearGradient id="paint1_linear_435_3382" x1="13.7835" y1="5.69897" x2="20.9726" y2="9.91342" gradientUnits="userSpaceOnUse">
<stop stop-color="#88C0FF"/>
<stop offset="1" stop-color="#6C7394"/>
</linearGradient>
<linearGradient id="paint2_linear_435_3382" x1="17.1167" y1="8.93694" x2="22.4424" y2="13.7413" gradientUnits="userSpaceOnUse">
<stop stop-color="#88C0FF"/>
<stop offset="1" stop-color="#6C7394"/>
</linearGradient>
<clipPath id="clip0_435_3382">
<rect width="33.3333" height="26.6667" fill="white" transform="translate(0.833374 0.666626)"/>
</clipPath>
</defs>
</svg>
