<svg width="40" height="40" viewBox="0 0 40 40" fill="none" xmlns="http://www.w3.org/2000/svg">
<g clip-path="url(#clip0_434_3516)">
<mask id="path-1-outside-1_434_3516" maskUnits="userSpaceOnUse" x="18.5624" y="8.45215" width="18" height="24" fill="black">
<rect fill="white" x="18.5624" y="8.45215" width="18" height="24"/>
<path d="M29.7479 9.45215C31.3414 9.45223 32.6261 10.3852 33.5487 11.6768C34.4711 12.9681 35.0731 14.6674 35.3134 16.3486L35.3866 16.8643L35.411 17.0322L32.6444 16.3398C33.0264 17.0414 33.3374 17.7688 33.5507 18.5273C34.0827 20.4202 33.9901 22.4499 32.9872 24.6748L32.7743 25.123C31.7241 27.223 29.6928 28.507 27.91 28.958C27.5201 29.0566 27.1253 29.1165 26.7421 29.1357C26.0596 30.4343 24.8814 31.2856 23.7499 30.833C22.5003 29.583 23.7498 27.9162 22.4999 25.833C22.3708 25.6179 22.1906 25.3074 21.996 24.9521C21.9769 24.9197 21.9564 24.8875 21.9374 24.8545C21.6684 24.3881 21.3989 23.8542 21.1698 23.2734C21.0458 22.9769 20.9463 22.6983 20.8885 22.4619C20.6214 21.558 20.4834 20.5721 20.6093 19.5654L20.663 19.1914C20.9683 17.3288 21.7797 15.6264 22.5116 14.3877C22.905 13.7219 23.2842 13.1768 23.5653 12.7969C23.7059 12.6069 23.8223 12.4568 23.9052 12.3535C23.9463 12.3022 23.9796 12.2623 24.0028 12.2344C24.0143 12.2205 24.0236 12.209 24.0302 12.2012C24.0333 12.1974 24.0369 12.1947 24.0389 12.1924C24.0398 12.1913 24.0403 12.1893 24.0409 12.1885L24.0419 12.1875L24.3768 11.7979L24.8319 11.9336L25.0155 11.9668L28.0487 12.5186C27.0902 11.8612 25.9678 11.4884 24.7421 11.7607L24.4032 10.9102C25.2243 10.4176 26.6724 9.81528 28.1649 9.57324C28.6778 9.49009 29.2148 9.44852 29.743 9.47363L29.7479 9.45215Z"/>
</mask>
<path d="M29.7479 9.45215L29.748 8.45215L28.7728 9.23053L29.7479 9.45215ZM33.5487 11.6768L34.3625 11.0955L34.3624 11.0955L33.5487 11.6768ZM35.3134 16.3486L36.3034 16.208L36.3033 16.2072L35.3134 16.3486ZM35.3866 16.8643L34.3965 17.0049L34.397 17.0081L35.3866 16.8643ZM35.411 17.0322L35.1682 18.0023L36.4006 16.8884L35.411 17.0322ZM32.6444 16.3398L32.8872 15.3698L31.7662 16.818L32.6444 16.3398ZM33.5507 18.5273L34.5134 18.2567L34.5133 18.2567L33.5507 18.5273ZM32.9872 24.6748L33.8905 25.1038L33.8988 25.0857L32.9872 24.6748ZM32.7743 25.123L33.6687 25.5703L33.6776 25.5521L32.7743 25.123ZM27.91 28.958L28.1552 29.9275L28.1553 29.9275L27.91 28.958ZM26.7421 29.1357L26.6919 28.137L25.8569 28.6705L26.7421 29.1357ZM23.7499 30.833L23.0427 31.54L23.3785 31.7615L23.7499 30.833ZM22.4999 25.833L21.6424 26.3475L21.6424 26.3475L22.4999 25.833ZM21.996 24.9521L22.873 24.4718L22.858 24.4453L21.996 24.9521ZM21.9374 24.8545L21.0711 25.3541L21.0711 25.3541L21.9374 24.8545ZM21.1698 23.2734L22.1 22.9064L22.0924 22.8877L21.1698 23.2734ZM20.8885 22.4619L21.86 22.2247L21.8476 22.1785L20.8885 22.4619ZM20.6093 19.5654L19.6194 19.4233L19.617 19.4414L20.6093 19.5654ZM20.663 19.1914L19.6761 19.0296L19.6731 19.0493L20.663 19.1914ZM22.5116 14.3877L21.6507 13.8789L21.6507 13.879L22.5116 14.3877ZM23.5653 12.7969L22.7615 12.202L22.7615 12.202L23.5653 12.7969ZM23.9052 12.3535L23.125 11.7279L23.125 11.7279L23.9052 12.3535ZM24.0028 12.2344L23.2334 11.5956L23.2334 11.5956L24.0028 12.2344ZM24.0302 12.2012L23.2659 11.5562L23.2657 11.5565L24.0302 12.2012ZM24.0389 12.1924L24.7942 12.8478L24.8096 12.8296L24.0389 12.1924ZM24.0409 12.1885L23.3338 11.4814L23.2314 11.6014L24.0409 12.1885ZM24.0419 12.1875L24.749 12.8946L24.8002 12.8394L24.0419 12.1875ZM24.3768 11.7979L24.6627 10.8396L23.6185 11.146L24.3768 11.7979ZM24.8319 11.9336L24.5461 12.8919L24.6539 12.9176L24.8319 11.9336ZM25.0155 11.9668L25.1945 10.9829L25.1935 10.9828L25.0155 11.9668ZM28.0487 12.5186L27.8697 13.5024L28.6143 11.6938L28.0487 12.5186ZM24.7421 11.7607L23.8131 12.1308L24.959 12.7369L24.7421 11.7607ZM24.4032 10.9102L23.8888 10.0526L23.4742 11.2803L24.4032 10.9102ZM28.1649 9.57324L28.0049 8.58613L28.0048 8.58614L28.1649 9.57324ZM29.743 9.47363L29.6956 10.4725L30.7182 9.69525L29.743 9.47363ZM29.7479 9.45215L29.7479 10.4521C30.9074 10.4522 31.9246 11.1237 32.735 12.258L33.5487 11.6768L34.3624 11.0955C33.3275 9.64684 31.7753 8.45225 29.748 8.45215L29.7479 9.45215ZM33.5487 11.6768L32.735 12.258C33.545 13.3921 34.1007 14.9312 34.3234 16.4901L35.3134 16.3486L36.3033 16.2072C36.0456 14.4037 35.3971 12.5442 34.3625 11.0955L33.5487 11.6768ZM35.3134 16.3486L34.3233 16.4893L34.3965 17.0049L35.3866 16.8643L36.3767 16.7236L36.3034 16.208L35.3134 16.3486ZM35.3866 16.8643L34.397 17.0081L34.4214 17.1761L35.411 17.0322L36.4006 16.8884L36.3762 16.7204L35.3866 16.8643ZM35.411 17.0322L35.6538 16.0621L32.8872 15.3698L32.6444 16.3398L32.4016 17.3099L35.1682 18.0023L35.411 17.0322ZM32.6444 16.3398L31.7662 16.818C32.1185 17.4652 32.3982 18.1231 32.588 18.798L33.5507 18.5273L34.5133 18.2567C34.2766 17.4146 33.9343 16.6177 33.5227 15.8616L32.6444 16.3398ZM33.5507 18.5273L32.588 18.7979C33.0544 20.4575 32.985 22.2461 32.0755 24.2639L32.9872 24.6748L33.8988 25.0857C34.9951 22.6536 35.111 20.383 34.5134 18.2567L33.5507 18.5273ZM32.9872 24.6748L32.0839 24.2458L31.871 24.694L32.7743 25.123L33.6776 25.5521L33.8905 25.1038L32.9872 24.6748ZM32.7743 25.123L31.8799 24.6758C30.9842 26.4668 29.223 27.5943 27.6648 27.9886L27.91 28.958L28.1553 29.9275C30.1625 29.4196 32.464 27.9793 33.6687 25.5703L32.7743 25.123ZM27.91 28.958L27.6648 27.9885C27.3363 28.0716 27.0068 28.1212 26.6919 28.137L26.7421 29.1357L26.7923 30.1345C27.2438 30.1118 27.7039 30.0416 28.1552 29.9275L27.91 28.958ZM26.7421 29.1357L25.8569 28.6705C25.5773 29.2024 25.2238 29.5856 24.8929 29.7878C24.5804 29.9787 24.3343 29.9897 24.1213 29.9045L23.7499 30.833L23.3785 31.7615C24.297 32.1289 25.2057 31.9405 25.9358 31.4944C26.6475 31.0594 27.2243 30.3676 27.6273 29.6009L26.7421 29.1357ZM23.7499 30.833L24.4571 30.126C24.1635 29.8323 24.125 29.5315 24.125 28.6454C24.1249 27.8034 24.136 26.6163 23.3574 25.3185L22.4999 25.833L21.6424 26.3475C22.1136 27.1329 22.1249 27.8208 22.125 28.6455C22.125 29.4261 22.0867 30.5837 23.0427 31.54L23.7499 30.833ZM22.4999 25.833L23.3574 25.3185C23.2347 25.1141 23.061 24.8149 22.873 24.4718L21.996 24.9521L21.1189 25.4325C21.3201 25.7999 21.507 26.1218 21.6424 26.3475L22.4999 25.833ZM21.996 24.9521L22.858 24.4453C22.796 24.3398 22.8389 24.416 22.8036 24.3549L21.9374 24.8545L21.0711 25.3541C21.0872 25.382 21.1026 25.4073 21.1125 25.4236C21.1243 25.4429 21.1293 25.4511 21.1339 25.459L21.996 24.9521ZM21.9374 24.8545L22.8036 24.3549C22.5547 23.9233 22.3081 23.4339 22.1 22.9064L21.1698 23.2734L20.2396 23.6404C20.4898 24.2746 20.7821 24.8529 21.0711 25.3541L21.9374 24.8545ZM21.1698 23.2734L22.0924 22.8877C21.978 22.6141 21.9002 22.3893 21.86 22.2247L20.8885 22.4619L19.9171 22.6991C19.9923 23.0072 20.1136 23.3397 20.2472 23.6592L21.1698 23.2734ZM20.8885 22.4619L21.8476 22.1785C21.609 21.3712 21.4968 20.527 21.6015 19.6895L20.6093 19.5654L19.617 19.4414C19.47 20.6172 19.6339 21.7449 19.9295 22.7453L20.8885 22.4619ZM20.6093 19.5654L21.5991 19.7076L21.6528 19.3336L20.663 19.1914L19.6731 19.0493L19.6194 19.4233L20.6093 19.5654ZM20.663 19.1914L21.6498 19.3532C21.9272 17.6608 22.6732 16.0799 23.3725 14.8964L22.5116 14.3877L21.6507 13.879C20.8862 15.1728 20.0094 16.9967 19.6761 19.0296L20.663 19.1914ZM22.5116 14.3877L23.3725 14.8964C23.7449 14.2663 24.1039 13.7501 24.3692 13.3917L23.5653 12.7969L22.7615 12.202C22.4644 12.6035 22.0652 13.1775 21.6507 13.8789L22.5116 14.3877ZM23.5653 12.7969L24.3691 13.3917C24.5029 13.211 24.6114 13.0712 24.6853 12.9791L23.9052 12.3535L23.125 11.7279C23.0333 11.8423 22.9089 12.0028 22.7615 12.202L23.5653 12.7969ZM23.9052 12.3535L24.6853 12.9791C24.7201 12.9357 24.7478 12.9026 24.7722 12.8732L24.0028 12.2344L23.2334 11.5956C23.2115 11.6221 23.1724 11.6688 23.125 11.7279L23.9052 12.3535ZM24.0028 12.2344L24.7722 12.8732C24.7806 12.863 24.7881 12.8538 24.7924 12.8487C24.7948 12.8457 24.7959 12.8443 24.7967 12.8434C24.7975 12.8424 24.7965 12.8436 24.7946 12.8458L24.0302 12.2012L23.2657 11.5565C23.2605 11.5627 23.2559 11.5682 23.2528 11.572C23.2496 11.5759 23.2464 11.5797 23.2443 11.5824C23.2394 11.5884 23.2365 11.5919 23.2334 11.5956L24.0028 12.2344ZM24.0302 12.2012L24.7944 12.8461C24.7735 12.8709 24.7549 12.8904 24.7414 12.904C24.7345 12.9108 24.7287 12.9165 24.7243 12.9207C24.72 12.9248 24.7166 12.9279 24.7152 12.9293C24.7145 12.9299 24.7139 12.9304 24.714 12.9303C24.714 12.9303 24.714 12.9303 24.7141 12.9302C24.7142 12.9302 24.7143 12.9301 24.7144 12.93C24.7146 12.9298 24.715 12.9295 24.7154 12.9291C24.7168 12.9277 24.7213 12.9236 24.7269 12.9183C24.7325 12.913 24.7414 12.9043 24.7521 12.8934C24.7627 12.8826 24.7774 12.8671 24.7942 12.8478L24.0389 12.1924L23.2837 11.5369C23.3 11.5182 23.3141 11.5033 23.3241 11.4931C23.3342 11.4828 23.3425 11.4748 23.3475 11.4701C23.3524 11.4654 23.3561 11.4619 23.3568 11.4613C23.3572 11.461 23.3577 11.4606 23.3571 11.4611C23.3568 11.4613 23.3559 11.4622 23.3548 11.4632C23.3507 11.467 23.3386 11.4783 23.3238 11.4931C23.3087 11.5083 23.2884 11.5296 23.2659 11.5562L24.0302 12.2012ZM24.0389 12.1924L24.8096 12.8296C24.8437 12.7884 24.8695 12.7504 24.8883 12.7203C24.9071 12.69 24.9215 12.6634 24.9317 12.6431C24.9421 12.6227 24.9499 12.6054 24.9551 12.5936C24.9603 12.5817 24.9642 12.5723 24.9659 12.5683C24.9667 12.5662 24.9674 12.5645 24.9674 12.5644C24.9677 12.5637 24.9671 12.5652 24.9665 12.5666C24.9655 12.5692 24.9614 12.5793 24.9557 12.5922C24.9502 12.6047 24.9399 12.6274 24.9254 12.655C24.9179 12.6692 24.9082 12.6867 24.8964 12.7063C24.8846 12.7257 24.8694 12.7494 24.8504 12.7756L24.0409 12.1885L23.2314 11.6014C23.2123 11.6276 23.197 11.6514 23.1852 11.671C23.1732 11.6907 23.1635 11.7083 23.156 11.7227C23.1413 11.7506 23.1309 11.7735 23.1252 11.7864C23.1194 11.7995 23.1152 11.81 23.114 11.8129C23.1133 11.8146 23.1127 11.8162 23.1128 11.8157C23.1129 11.8157 23.113 11.8153 23.1132 11.8148C23.1134 11.8143 23.1138 11.8134 23.1142 11.8124C23.1157 11.8087 23.1194 11.7997 23.1245 11.7882C23.1295 11.7767 23.1372 11.7598 23.1473 11.7398C23.1574 11.7199 23.1716 11.6935 23.1903 11.6635C23.2088 11.6338 23.2344 11.5961 23.2682 11.5552L24.0389 12.1924ZM24.0409 12.1885L24.748 12.8956L24.749 12.8946L24.0419 12.1875L23.3348 11.4804L23.3338 11.4814L24.0409 12.1885ZM24.0419 12.1875L24.8002 12.8394L25.1351 12.4497L24.3768 11.7979L23.6185 11.146L23.2836 11.5356L24.0419 12.1875ZM24.3768 11.7979L24.091 12.7561L24.5461 12.8919L24.8319 11.9336L25.1177 10.9753L24.6627 10.8396L24.3768 11.7979ZM24.8319 11.9336L24.6539 12.9176L24.8375 12.9508L25.0155 11.9668L25.1935 10.9828L25.0099 10.9496L24.8319 11.9336ZM25.0155 11.9668L24.8365 12.9507L27.8697 13.5024L28.0487 12.5186L28.2277 11.5347L25.1945 10.9829L25.0155 11.9668ZM28.0487 12.5186L28.6143 11.6938C27.5023 10.9313 26.099 10.4348 24.5251 10.7846L24.7421 11.7607L24.959 12.7369C25.8365 12.5419 26.678 12.7912 27.4831 13.3433L28.0487 12.5186ZM24.7421 11.7607L25.6711 11.3906L25.3322 10.5401L24.4032 10.9102L23.4742 11.2803L23.8131 12.1308L24.7421 11.7607ZM24.4032 10.9102L24.9176 11.7677C25.6368 11.3363 26.9654 10.7808 28.325 10.5603L28.1649 9.57324L28.0048 8.58614C26.3795 8.84973 24.8119 9.49887 23.8888 10.0526L24.4032 10.9102ZM28.1649 9.57324L28.325 10.5604C28.7832 10.4861 29.2495 10.4513 29.6956 10.4725L29.743 9.47363L29.7905 8.47476C29.1801 8.44574 28.5724 8.49412 28.0049 8.58613L28.1649 9.57324ZM29.743 9.47363L30.7182 9.69525L30.7231 9.67377L29.7479 9.45215L28.7728 9.23053L28.7679 9.25201L29.743 9.47363Z" fill="#333C4A" mask="url(#path-1-outside-1_434_3516)"/>
<path d="M5.14624 13.1652L37 17" stroke="#171D29" stroke-width="1.57821"/>
<path d="M25.0166 11.9669L30.165 12.9034L30.3467 13.1163C31.7647 14.7707 32.9927 16.5424 33.5508 18.5275C34.0828 20.4203 33.9902 22.45 32.9873 24.6749L32.7744 25.1222C31.7243 27.2224 29.693 28.507 27.9102 28.9581C27.0222 29.1827 26.4177 29.2891 25.5703 28.9474C24.7192 28.6041 24.0012 28.1912 23.873 27.3214L23.8545 27.1427L23.8086 26.4523L24.4863 26.3175C25.6605 26.0827 28.1544 24.2891 28.4971 20.5206L28.5195 20.1837C28.5846 18.5167 27.9945 17.0819 27.1826 15.9337C26.3515 14.7585 25.3097 13.9199 24.5918 13.4933L24.5 13.4767L24.5068 13.4415C24.5005 13.4379 24.4936 13.4343 24.4873 13.4308L24.5195 13.3741L24.7832 11.9249L25.0166 11.9669Z" fill="url(#paint0_linear_434_3516)"/>
<path d="M24.8677 11.9445L24.6411 12.7013C24.8496 12.0066 24.867 11.9499 24.8687 11.9454H24.8716C24.8731 11.9459 24.8755 11.9468 24.8775 11.9474C24.8815 11.9486 24.8869 11.9513 24.8931 11.9532C24.9056 11.9572 24.9232 11.9629 24.9439 11.9698C24.9857 11.9838 25.044 12.0037 25.1158 12.0304C25.2601 12.084 25.4618 12.164 25.7007 12.2755C26.1771 12.4978 26.8147 12.8487 27.4556 13.3615C28.746 14.3939 30.0728 16.1103 30.0728 18.7355L30.0689 19.0695C29.9868 22.4788 28.6517 24.5703 27.2525 25.8068C26.5417 26.4348 25.8308 26.8283 25.2945 27.0656C25.0259 27.1844 24.7993 27.2656 24.6353 27.3175C24.5532 27.3435 24.4856 27.3612 24.437 27.3741C24.4129 27.3806 24.3933 27.3861 24.3784 27.3898C24.3711 27.3915 24.3649 27.3935 24.3599 27.3947C24.3575 27.3952 24.3549 27.3962 24.3531 27.3966H24.3491L23.9077 27.4943L23.6011 27.1652L24.1773 26.6261L23.6001 27.1642L23.5991 27.1632C23.5984 27.1624 23.5973 27.1605 23.5962 27.1593C23.5939 27.1568 23.5902 27.1537 23.5865 27.1495C23.5787 27.1411 23.5677 27.1294 23.5542 27.1144C23.5273 27.0844 23.4893 27.0414 23.4419 26.9865C23.3472 26.8765 23.2145 26.7173 23.0581 26.5167C22.7462 26.1167 22.3349 25.5445 21.937 24.8546C21.1545 23.4978 20.3589 21.573 20.6099 19.5656L20.6636 19.1915C20.9689 17.3288 21.7803 15.6265 22.5122 14.3878C22.9056 13.7221 23.2839 13.1769 23.565 12.797C23.7056 12.6069 23.823 12.4569 23.9058 12.3536C23.947 12.3023 23.9803 12.2624 24.0034 12.2345C24.015 12.2206 24.0242 12.2091 24.0308 12.2013C24.0339 12.1976 24.0367 12.1948 24.0386 12.1925C24.0396 12.1913 24.0409 12.1894 24.0415 12.1886L24.0425 12.1876L24.3765 11.798L24.8677 11.9445Z" fill="url(#paint1_linear_434_3516)"/>
<mask id="mask0_434_3516" style="mask-type:alpha" maskUnits="userSpaceOnUse" x="23" y="11" width="11" height="19">
<path d="M32.0687 24.7697C34.3045 20.2982 32.5329 16.8787 29.7478 13.6294L24.8749 12.7434C26.4992 13.6577 29.655 16.5073 29.2836 20.5921C28.9123 24.6769 26.1891 26.7812 24.6418 27.0906C24.7966 29.4115 30.212 28.4832 32.0687 24.7697Z" fill="white"/>
<path d="M24.6418 12.701L24.8749 12.7434M24.8749 12.7434L29.7478 13.6294C32.5329 16.8787 34.3045 20.2982 32.0687 24.7697C30.212 28.4832 24.7966 29.4115 24.6418 27.0906C26.1891 26.7812 28.9123 24.6769 29.2836 20.5921C29.655 16.5073 26.4992 13.6577 24.8749 12.7434Z" stroke="white" stroke-width="1.57821"/>
</mask>
<g mask="url(#mask0_434_3516)">
<path d="M27.4269 25.2339L29.7478 28.019L32.0687 27.0906" stroke="white" stroke-width="0.928361"/>
<path d="M29.2837 21.5205L32.0688 24.3056L34.3897 23.3772" stroke="white" stroke-width="0.928361"/>
<path d="M29.2837 17.3428L32.9971 20.1279L34.3897 19.1995" stroke="white" stroke-width="0.928361"/>
</g>
<mask id="mask1_434_3516" style="mask-type:alpha" maskUnits="userSpaceOnUse" x="20" y="11" width="11" height="17">
<path d="M21.3926 19.6638C21.8568 15.9503 24.6418 12.701 24.6418 12.701C24.6418 12.701 29.2836 14.0936 29.2836 18.7354C29.2835 25.494 24.1776 26.6265 24.1776 26.6265C24.1776 26.6265 20.9541 23.1715 21.3926 19.6638Z" fill="#E29A9A" stroke="#FFD0D0" stroke-width="1.57821"/>
</mask>
<g mask="url(#mask1_434_3516)">
<path d="M20.4641 19.6637C22.785 20.1279 23.7134 16.4144 26.9626 16.8786C29.2835 17.3428 29.9024 18.7354 30.2119 18.7354" stroke="#FFD2D2" stroke-width="0.928361" stroke-linecap="square"/>
<path d="M20 15.486C22.3209 16.4144 23.2493 13.1652 26.0343 13.1652C27.4269 13.1652 28.3552 15.0219 29.2836 15.0219" stroke="#FFD2D2" stroke-width="0.928361" stroke-linecap="square"/>
<path d="M20 26.6263C22.3209 27.5547 23.2493 24.7697 26.0343 24.7697C27.4269 24.7697 28.3552 26.1622 29.2836 26.1622" stroke="#FFD2D2" stroke-width="0.928361" stroke-linecap="square"/>
<path d="M20.9283 23.3773C23.2492 22.4489 23.7134 20.1279 26.4985 20.6324C28.3552 21.0563 29.2836 21.9847 29.7478 22.4892" stroke="#FFD2D2" stroke-width="0.928361" stroke-linecap="square"/>
<path d="M24.6419 12.2368C26.9628 12.701 29.7478 15.1147 29.7478 19.1995C29.7478 24.3055 25.5702 27.0906 23.7135 27.0906" stroke="#FFE8E8" stroke-width="0.928361"/>
</g>
<path d="M3.28955 6.66663L37 15" stroke="#171D29" stroke-width="1.57821"/>
<path d="M28.165 9.57361C29.6354 9.33522 31.3039 9.42367 32.3965 10.516L32.5762 10.7015C34.3967 12.6366 35.155 15.2401 35.3135 16.349L35.4111 17.0326L31.0283 15.9359L30.8086 15.8822L30.7158 15.6742C30.4319 15.0357 29.6833 13.8637 28.6113 12.9496C27.5417 12.0374 26.2163 11.4335 24.7422 11.7611L24.4033 10.9105C25.2245 10.4179 26.6725 9.81565 28.165 9.57361Z" fill="url(#paint2_linear_434_3516)"/>
<path d="M29.748 9.45227C31.3416 9.45235 32.6262 10.3853 33.5488 11.6769C34.4712 12.9683 35.0733 14.6675 35.3135 16.3488L35.4111 17.0314L30.541 15.8156L30.7002 15.339C30.9181 14.6853 31.1345 13.5933 31.0273 12.5753C30.9207 11.5624 30.5116 10.7214 29.5752 10.3468L29.748 9.45227Z" fill="url(#paint3_radial_434_3516)"/>
<path d="M27.0834 25.4166C26.0834 22.7499 22.2223 21.8055 20.8334 22.0833C20.8334 22.9166 22.0207 25.0344 22.5 25.8333C23.75 27.9166 22.5 29.5833 23.75 30.8333C25.8334 31.6666 28.0834 28.0832 27.0834 25.4166Z" fill="#FF2626"/>
<path d="M29.1667 33.75C29.1667 34.4403 28.607 35 27.9167 35C27.2263 35 26.6667 34.4403 26.6667 33.75C26.6667 33.0596 26.393 31.6666 27.0833 31.6666C27.7737 31.6666 29.1667 33.0596 29.1667 33.75Z" fill="#FF2626" stroke="#171D29"/>
</g>
<defs>
<linearGradient id="paint0_linear_434_3516" x1="28.8399" y1="11.9249" x2="28.8399" y2="29.1666" gradientUnits="userSpaceOnUse">
<stop stop-color="#FBD2D2"/>
<stop offset="1" stop-color="white"/>
</linearGradient>
<linearGradient id="paint1_linear_434_3516" x1="25.3178" y1="11.798" x2="25.3178" y2="27.4943" gradientUnits="userSpaceOnUse">
<stop stop-color="#FFBEBE"/>
<stop offset="1" stop-color="#FF8888"/>
</linearGradient>
<linearGradient id="paint2_linear_434_3516" x1="29.9072" y1="9.46509" x2="26.9624" y2="13.6298" gradientUnits="userSpaceOnUse">
<stop stop-color="#FFD0D0"/>
<stop offset="1" stop-color="#FFBEBE"/>
</linearGradient>
<radialGradient id="paint3_radial_434_3516" cx="0" cy="0" r="1" gradientUnits="userSpaceOnUse" gradientTransform="translate(38 16) rotate(-161.872) scale(8.86481 6.82594)">
<stop stop-color="#FBD2D2"/>
<stop offset="1" stop-color="white"/>
</radialGradient>
<clipPath id="clip0_434_3516">
<rect width="40" height="40" fill="white"/>
</clipPath>
</defs>
</svg>
