<svg width="12" height="12" viewBox="0 0 12 12" fill="none" xmlns="http://www.w3.org/2000/svg">
<g clip-path="url(#clip0_818_14462)">
<g clip-path="url(#clip1_818_14462)">
<circle cx="6" cy="6" r="5" fill="#D4DEE5"/>
<path d="M10.921 7.38349L11.3453 7.40771L10.921 7.38349ZM10.6277 8.22389L10.2802 7.97924L10.6277 8.22389ZM10.3608 8.60313L10.7083 8.84778L10.3608 8.60313ZM10.0938 8.98237L9.74626 8.73772L10.0938 8.98237ZM9.45501 9.61878L9.69679 9.96831L9.45501 9.61878ZM9.08322 9.87596L9.32499 10.2255L9.08322 9.87596ZM8.71143 10.1331L8.46965 9.78361L8.71143 10.1331ZM7.92151 10.5757L7.74928 10.1871L7.92151 10.5757ZM7.08527 10.9464L7.2575 11.3349L7.08527 10.9464ZM6.2137 11.0666L6.1533 11.4873L6.2137 11.0666ZM5.76024 11.0015L5.82063 10.5808L5.76024 11.0015ZM5.30678 10.9364L5.24639 11.3571L5.30678 10.9364ZM4.45128 10.6788L4.26773 11.0621L4.45128 10.6788ZM3.64719 10.2937L3.83074 9.91043L3.64719 10.2937ZM2.95261 9.77474L3.26914 9.49113L2.95261 9.77474ZM2.36755 9.12177L2.68408 8.83816L2.36755 9.12177ZM1.85702 8.41361L1.48797 8.62439L1.85702 8.41361ZM1.63903 8.03193L1.26998 8.24271L1.63903 8.03193ZM1.42104 7.65026L1.79009 7.43948L1.42104 7.65026ZM1.2136 5.06501L0.798458 4.97398L1.2136 5.06501ZM1.7782 3.40585L1.44467 3.14244L1.7782 3.40585ZM2.33419 2.70186L2.00067 2.43845L2.33419 2.70186ZM2.96268 2.04699L2.6848 1.72542L2.96268 2.04699ZM3.66367 1.44126L3.38579 1.11968L3.66367 1.44126ZM4.4759 1.08901L4.43071 0.666421L4.4759 1.08901ZM5.39938 0.990258L5.35419 0.567668L5.39938 0.990258ZM6.29568 1.0498L6.19236 1.46205L6.29568 1.0498ZM8.44562 1.70777L8.29072 2.10354L8.44562 1.70777ZM9.59562 2.38855L9.27482 2.66732L9.59562 2.38855ZM9.89937 2.7381L9.57857 3.01687L9.89937 2.7381ZM10.2031 3.08765L10.5239 2.80888L10.2031 3.08765ZM10.5744 3.88921L10.9948 3.82638L10.5744 3.88921ZM10.642 4.34122L10.2217 4.40405L10.642 4.34122ZM10.8329 5.43393L11.2405 5.31358L10.8329 5.43393ZM10.9443 5.81131L10.5367 5.93166L10.9443 5.81131ZM10.9737 6.46116L10.5494 6.43695L10.9737 6.46116ZM10.9474 6.92233L10.523 6.89811L10.4967 7.35927L10.921 7.38349L11.3453 7.40771L11.3717 6.94654L10.9474 6.92233ZM10.921 7.38349L10.4967 7.35927C10.4837 7.58717 10.4127 7.79101 10.2802 7.97924L10.6277 8.22389L10.9753 8.46854C11.1987 8.15113 11.3233 7.79469 11.3453 7.40771L10.921 7.38349ZM10.6277 8.22389L10.2802 7.97924L10.0132 8.35848L10.3608 8.60313L10.7083 8.84778L10.9753 8.46854L10.6277 8.22389ZM10.3608 8.60313L10.0132 8.35848L9.74626 8.73772L10.0938 8.98237L10.4413 9.22702L10.7083 8.84778L10.3608 8.60313ZM10.0938 8.98237L9.74626 8.73772C9.59631 8.95071 9.41888 9.12701 9.21323 9.26925L9.45501 9.61878L9.69679 9.96831C9.98686 9.76765 10.2353 9.51968 10.4413 9.22702L10.0938 8.98237ZM9.45501 9.61878L9.21323 9.26925L8.84144 9.52643L9.08322 9.87596L9.32499 10.2255L9.69679 9.96831L9.45501 9.61878ZM9.08322 9.87596L8.84144 9.52643L8.46965 9.78361L8.71143 10.1331L8.9532 10.4827L9.32499 10.2255L9.08322 9.87596ZM8.71143 10.1331L8.46965 9.78361C8.24395 9.93973 8.00396 10.0742 7.74928 10.1871L7.92151 10.5757L8.09375 10.9642C8.39656 10.83 8.68318 10.6694 8.9532 10.4827L8.71143 10.1331ZM7.92151 10.5757L7.74928 10.1871L7.33116 10.3725L7.50339 10.761L7.67563 11.1495L8.09375 10.9642L7.92151 10.5757ZM7.50339 10.761L7.33116 10.3725L6.91304 10.5578L7.08527 10.9464L7.2575 11.3349L7.67563 11.1495L7.50339 10.761ZM7.08527 10.9464L6.91304 10.5578C6.7074 10.649 6.49751 10.678 6.27409 10.6459L6.2137 11.0666L6.1533 11.4873C6.53449 11.542 6.90565 11.4909 7.2575 11.3349L7.08527 10.9464ZM6.2137 11.0666L6.27409 10.6459L5.82063 10.5808L5.76024 11.0015L5.69985 11.4222L6.1533 11.4873L6.2137 11.0666ZM5.76024 11.0015L5.82063 10.5808L5.36718 10.5157L5.30678 10.9364L5.24639 11.3571L5.69985 11.4222L5.76024 11.0015ZM5.30678 10.9364L5.36718 10.5157C5.10639 10.4783 4.86287 10.4047 4.63483 10.2955L4.45128 10.6788L4.26773 11.0621C4.57575 11.2096 4.90257 11.3077 5.24639 11.3571L5.30678 10.9364ZM4.45128 10.6788L4.63483 10.2955L4.23279 10.103L4.04924 10.4863L3.86568 10.8696L4.26773 11.0621L4.45128 10.6788ZM4.04924 10.4863L4.23279 10.103L3.83074 9.91043L3.64719 10.2937L3.46364 10.6771L3.86568 10.8696L4.04924 10.4863ZM3.64719 10.2937L3.83074 9.91043C3.61229 9.80583 3.42619 9.66641 3.26914 9.49113L2.95261 9.77474L2.63608 10.0584C2.86908 10.3184 3.14602 10.525 3.46364 10.6771L3.64719 10.2937ZM2.95261 9.77474L3.26914 9.49113L2.97661 9.16465L2.66008 9.44826L2.34355 9.73187L2.63608 10.0584L2.95261 9.77474ZM2.66008 9.44826L2.97661 9.16465L2.68408 8.83816L2.36755 9.12177L2.05102 9.40538L2.34355 9.73187L2.66008 9.44826ZM2.36755 9.12177L2.68408 8.83816C2.50914 8.64292 2.35655 8.43129 2.22607 8.20283L1.85702 8.41361L1.48797 8.62439C1.64815 8.90483 1.83591 9.16531 2.05102 9.40538L2.36755 9.12177ZM1.85702 8.41361L2.22607 8.20283L2.00808 7.82115L1.63903 8.03193L1.26998 8.24271L1.48797 8.62439L1.85702 8.41361ZM1.63903 8.03193L2.00808 7.82115L1.79009 7.43948L1.42104 7.65026L1.05199 7.86104L1.26998 8.24271L1.63903 8.03193ZM1.42104 7.65026L1.79009 7.43948C1.67823 7.24363 1.61728 7.03437 1.60631 6.80621L1.1818 6.82662L0.757289 6.84702C0.774648 7.20814 0.873191 7.54799 1.05199 7.86104L1.42104 7.65026ZM1.1818 6.82662L1.60631 6.80621L1.58506 6.36424L1.16055 6.38465L0.736043 6.40506L0.757289 6.84702L1.1818 6.82662ZM1.16055 6.38465L1.58506 6.36424L1.56382 5.92228L1.13931 5.94269L0.714798 5.96309L0.736043 6.40506L1.16055 6.38465ZM1.13931 5.94269L1.56382 5.92228C1.55147 5.66534 1.573 5.41024 1.62874 5.15603L1.2136 5.06501L0.798458 4.97398C0.726816 5.30073 0.698822 5.63075 0.714798 5.96309L1.13931 5.94269ZM1.2136 5.06501L1.62874 5.15603L1.72427 4.72031L1.30913 4.62929L0.893992 4.53827L0.798458 4.97398L1.2136 5.06501ZM1.30913 4.62929L1.72427 4.72031L1.8198 4.28459L1.40467 4.19357L0.989527 4.10255L0.893992 4.53827L1.30913 4.62929ZM1.40467 4.19357L1.8198 4.28459C1.86962 4.05738 1.96608 3.85368 2.11172 3.66926L1.7782 3.40585L1.44467 3.14244C1.21965 3.42736 1.06709 3.74881 0.989527 4.10255L1.40467 4.19357ZM1.7782 3.40585L2.11172 3.66926L2.38972 3.31727L2.0562 3.05386L1.72267 2.79045L1.44467 3.14244L1.7782 3.40585ZM2.0562 3.05386L2.38972 3.31727L2.66772 2.96527L2.33419 2.70186L2.00067 2.43845L1.72267 2.79045L2.0562 3.05386ZM2.33419 2.70186L2.66772 2.96527C2.83585 2.75238 3.02658 2.55347 3.24056 2.36856L2.96268 2.04699L2.6848 1.72542C2.43146 1.94434 2.2032 2.182 2.00067 2.43845L2.33419 2.70186ZM2.96268 2.04699L3.24056 2.36856L3.59105 2.0657L3.31317 1.74412L3.0353 1.42255L2.6848 1.72542L2.96268 2.04699ZM3.31317 1.74412L3.59105 2.0657L3.94154 1.76283L3.66367 1.44126L3.38579 1.11968L3.0353 1.42255L3.31317 1.74412ZM3.66367 1.44126L3.94154 1.76283C4.10956 1.61764 4.29907 1.53534 4.52109 1.5116L4.4759 1.08901L4.43071 0.666421C4.03707 0.708515 3.6851 0.861046 3.38579 1.11968L3.66367 1.44126ZM4.4759 1.08901L4.52109 1.5116L4.98283 1.46223L4.93764 1.03964L4.89245 0.617044L4.43071 0.666421L4.4759 1.08901ZM4.93764 1.03964L4.98283 1.46223L5.44457 1.41285L5.39938 0.990258L5.35419 0.567668L4.89245 0.617044L4.93764 1.03964ZM5.39938 0.990258L5.44457 1.41285C5.70451 1.38505 5.95293 1.40204 6.19236 1.46205L6.29568 1.0498L6.39901 0.637549C6.05902 0.552337 5.7099 0.529629 5.35419 0.567668L5.39938 0.990258ZM6.29568 1.0498L6.19236 1.46205L6.62692 1.57096L6.73024 1.15871L6.83357 0.746465L6.39901 0.637549L6.29568 1.0498ZM6.73024 1.15871L6.62692 1.57096L7.06148 1.67988L7.16481 1.26763L7.26813 0.855381L6.83357 0.746465L6.73024 1.15871ZM7.16481 1.26763L7.06148 1.67988C7.33342 1.74803 7.6021 1.83401 7.86759 1.93792L8.0225 1.54216L8.1774 1.14639C7.87873 1.02949 7.57561 0.932446 7.26813 0.855381L7.16481 1.26763ZM8.0225 1.54216L7.86759 1.93792L8.29072 2.10354L8.44562 1.70777L8.60053 1.31201L8.1774 1.14639L8.0225 1.54216ZM8.44562 1.70777L8.29072 2.10354L8.71384 2.26915L8.86875 1.87339L9.02365 1.47762L8.60053 1.31201L8.44562 1.70777ZM8.86875 1.87339L8.71384 2.26915C8.93073 2.35404 9.11646 2.48508 9.27482 2.66732L9.59562 2.38855L9.91643 2.10978C9.66979 1.82595 9.37094 1.61355 9.02365 1.47762L8.86875 1.87339ZM9.59562 2.38855L9.27482 2.66732L9.57857 3.01687L9.89937 2.7381L10.2202 2.45933L9.91643 2.10978L9.59562 2.38855ZM9.89937 2.7381L9.57857 3.01687L9.88232 3.36642L10.2031 3.08765L10.5239 2.80888L10.2202 2.45933L9.89937 2.7381ZM10.2031 3.08765L9.88232 3.36642C10.0325 3.53926 10.1212 3.7318 10.1541 3.95204L10.5744 3.88921L10.9948 3.82638C10.9376 3.44394 10.7787 3.1021 10.5239 2.80888L10.2031 3.08765ZM10.5744 3.88921L10.1541 3.95204L10.2217 4.40405L10.642 4.34122L11.0623 4.27839L10.9948 3.82638L10.5744 3.88921ZM10.642 4.34122L10.2217 4.40405L10.2892 4.85606L10.7096 4.79323L11.1299 4.7304L11.0623 4.27839L10.642 4.34122ZM10.7096 4.79323L10.2892 4.85606C10.3344 5.15822 10.379 5.39757 10.4253 5.55428L10.8329 5.43393L11.2405 5.31358C11.2124 5.21871 11.1748 5.03092 11.1299 4.7304L10.7096 4.79323ZM10.8329 5.43393L10.4253 5.55428L10.481 5.74297L10.8886 5.62262L11.2962 5.50227L11.2405 5.31358L10.8329 5.43393ZM10.8886 5.62262L10.481 5.74297L10.5367 5.93166L10.9443 5.81131L11.3519 5.69096L11.2962 5.50227L10.8886 5.62262ZM10.9443 5.81131L10.5367 5.93166C10.5509 5.97983 10.5669 6.13016 10.5494 6.43695L10.9737 6.46116L11.398 6.48538C11.4156 6.17728 11.412 5.89438 11.3519 5.69096L10.9443 5.81131ZM10.9737 6.46116L10.5494 6.43695L10.523 6.89811L10.9474 6.92233L11.3717 6.94654L11.398 6.48538L10.9737 6.46116Z" fill="#D4DEE5"/>
<path d="M3.375 6.375C3.375 6.375 4.93125 8.25 5.60294 8.25C6.24375 8.25 9 4.5 9 4.5" stroke="white" stroke-width="0.8" stroke-miterlimit="10"/>
</g>
</g>
<defs>
<clipPath id="clip0_818_14462">
<rect width="12" height="12" fill="white"/>
</clipPath>
<clipPath id="clip1_818_14462">
<rect width="12" height="12" fill="white"/>
</clipPath>
</defs>
</svg>
