<svg width="40" height="40" viewBox="0 0 40 40" fill="none" xmlns="http://www.w3.org/2000/svg">
<g clip-path="url(#clip0_434_3414)">
<g clip-path="url(#clip1_434_3414)">
<path d="M36.1605 16.2882C36.1288 16.7624 36.0646 17.4425 35.9369 18.2599C35.681 19.8975 35.1707 22.0737 34.1537 24.2433C33.1373 26.4116 31.6215 28.5613 29.3607 30.1691C27.1044 31.7735 24.0772 32.8585 20.0004 32.8585C15.9235 32.8585 12.8963 31.7735 10.64 30.1691C8.37922 28.5614 6.86349 26.4116 5.84705 24.2433C4.83007 22.0737 4.31875 19.8975 4.06287 18.2599C3.93517 17.4426 3.87099 16.7624 3.83923 16.2882C3.83809 16.2711 3.83737 16.254 3.8363 16.2374L19.8412 21.923L20.0004 21.9796L20.1586 21.923L36.1625 16.2374C36.1614 16.254 36.1617 16.2711 36.1605 16.2882Z" fill="#171D29" stroke="#333C4A" stroke-width="0.949516"/>
<path d="M20 23.1114C10.7833 23.1114 4.59998 19.2002 4.59998 15.5558C4.59998 11.9114 10.7833 8.00024 20 8.00024C29.2166 8.00024 35.4166 11.9114 35.4166 15.5558C35.4166 19.2002 29.2166 23.1114 20 23.1114Z" fill="url(#paint0_radial_434_3414)"/>
<path d="M20 9.33329C28.65 9.33329 34.1667 13.0133 34.1667 15.5555C34.1667 18.0977 28.65 21.7777 20 21.7777C11.35 21.7777 5.85004 18.0977 5.85004 15.5555C5.85004 13.0133 11.3667 9.33329 20 9.33329ZM20 6.66663C10.8 6.66663 3.33337 10.6488 3.33337 15.5555C3.33337 20.4622 10.8 24.4444 20 24.4444C29.2 24.4444 36.6667 20.4622 36.6667 15.5555C36.6667 10.6488 29.2 6.66663 20 6.66663Z" fill="#171D29"/>
<path d="M20 19.1667C20 20.0871 19.2538 20.8333 18.3333 20.8333C17.4128 20.8333 16.6666 20.0871 16.6666 19.1667C16.6666 18.2462 17.4128 17.5 18.3333 17.5C19.2538 17.5 20 18.2462 20 19.1667Z" fill="#23553C"/>
<path d="M19.3216 20.566L19.8308 21.2256L19.3216 20.566ZM19.0406 20.783L18.5313 20.1234L19.0406 20.783ZM18.1055 21.1213L17.8988 21.9286L18.1055 21.1213ZM17.3595 20.9303L17.1527 21.7375L17.3595 20.9303ZM16.9102 18.4324L16.0962 18.6111L16.9102 18.4324ZM17.7413 17.8911L17.5276 17.0856L17.7413 17.8911ZM18.9644 17.6462L18.8175 16.8259L18.9644 17.6462ZM19.3687 17.8884L20.1615 17.6317L19.3687 17.8884ZM19.7433 18.8772L20.3668 18.3243L19.7433 18.8772ZM19.9144 19.0702L19.2909 19.6231L19.9144 19.0702ZM19.9006 19.4623L19.1107 19.1968L19.9006 19.4623ZM19.8013 19.7579L19.0113 19.4924L18.912 19.788L19.7019 20.0535L20.4918 20.3189L20.5912 20.0234L19.8013 19.7579ZM19.7019 20.0535L18.912 19.788C18.9053 19.8079 18.8878 19.8481 18.8123 19.9064L19.3216 20.566L19.8308 21.2256C20.13 20.9946 20.366 20.6931 20.4918 20.3189L19.7019 20.0535ZM19.3216 20.566L18.8123 19.9064L18.5313 20.1234L19.0406 20.783L19.5498 21.4426L19.8308 21.2256L19.3216 20.566ZM19.0406 20.783L18.5313 20.1234L18.2503 20.3403L18.7596 20.9999L19.2688 21.6595L19.5498 21.4426L19.0406 20.783ZM18.7596 20.9999L18.2503 20.3403C18.2507 20.3399 18.2564 20.3358 18.2671 20.3308C18.2781 20.3258 18.2907 20.3218 18.3034 20.3194C18.3309 20.3143 18.3377 20.3206 18.3123 20.3141L18.1055 21.1213L17.8988 21.9286C18.3719 22.0498 18.8593 21.9757 19.2688 21.6595L18.7596 20.9999ZM18.1055 21.1213L18.3123 20.3141L17.9393 20.2185L17.7325 21.0258L17.5258 21.8331L17.8988 21.9286L18.1055 21.1213ZM17.7325 21.0258L17.9393 20.2185L17.5663 20.123L17.3595 20.9303L17.1527 21.7375L17.5258 21.8331L17.7325 21.0258ZM17.3595 20.9303L17.5663 20.123C17.5677 20.1233 17.6709 20.1512 17.7606 20.274C17.8525 20.3999 17.8492 20.5144 17.8479 20.5302L17.0174 20.4615L16.1869 20.3928C16.165 20.6574 16.2084 20.9744 16.4144 21.2566C16.6181 21.5357 16.9027 21.6735 17.1527 21.7375L17.3595 20.9303ZM17.0174 20.4615L17.8479 20.5302L17.8787 20.1569L17.0482 20.0883L16.2177 20.0196L16.1869 20.3928L17.0174 20.4615ZM17.0482 20.0883L17.8787 20.1569L17.9096 19.7837L17.0791 19.715L16.2486 19.6464L16.2177 20.0196L17.0482 20.0883ZM17.0791 19.715L17.9096 19.7837C17.9356 19.4686 17.9227 19.1579 17.8573 18.8599L17.0434 19.0387L16.2294 19.2174C16.2527 19.3236 16.2637 19.4639 16.2486 19.6464L17.0791 19.715ZM17.0434 19.0387L17.8573 18.8599L17.7907 18.5567L16.9768 18.7355L16.1628 18.9143L16.2294 19.2174L17.0434 19.0387ZM16.9768 18.7355L17.7907 18.5567L17.7241 18.2536L16.9102 18.4324L16.0962 18.6111L16.1628 18.9143L16.9768 18.7355ZM16.9102 18.4324L17.7241 18.2536C17.7299 18.2801 17.7567 18.4378 17.647 18.6182C17.5371 18.799 17.384 18.848 17.3565 18.8553L17.1428 18.0498L16.9291 17.2444C16.7021 17.3046 16.4105 17.4438 16.223 17.7521C16.0358 18.06 16.046 18.3825 16.0962 18.6111L16.9102 18.4324ZM17.1428 18.0498L17.3565 18.8553L17.6557 18.7759L17.442 17.9704L17.2284 17.165L16.9291 17.2444L17.1428 18.0498ZM17.442 17.9704L17.6557 18.7759L17.955 18.6965L17.7413 17.8911L17.5276 17.0856L17.2284 17.165L17.442 17.9704ZM17.7413 17.8911L17.955 18.6965C18.1322 18.6495 18.3123 18.6096 18.4954 18.5768L18.3485 17.7565L18.2015 16.9362C17.974 16.977 17.7494 17.0268 17.5276 17.0856L17.7413 17.8911ZM18.3485 17.7565L18.4954 18.5768L18.8034 18.5216L18.6564 17.7013L18.5095 16.8811L18.2015 16.9362L18.3485 17.7565ZM18.6564 17.7013L18.8034 18.5216L19.1113 18.4665L18.9644 17.6462L18.8175 16.8259L18.5095 16.8811L18.6564 17.7013ZM18.9644 17.6462L19.1113 18.4665C19.0817 18.4718 18.9463 18.487 18.7911 18.394C18.6359 18.301 18.5853 18.1743 18.5759 18.1452L19.3687 17.8884L20.1615 17.6317C20.0879 17.4043 19.9378 17.1381 19.6478 16.9643C19.3579 16.7906 19.0525 16.7838 18.8175 16.8259L18.9644 17.6462ZM19.3687 17.8884L18.5759 18.1452L18.6723 18.4426L19.465 18.1859L20.2578 17.9291L20.1615 17.6317L19.3687 17.8884ZM19.465 18.1859L18.6723 18.4426L18.7686 18.7401L19.5614 18.4833L20.3542 18.2265L20.2578 17.9291L19.465 18.1859ZM19.5614 18.4833L18.7686 18.7401C18.8316 18.9347 18.9348 19.2215 19.1198 19.4301L19.7433 18.8772L20.3668 18.3243C20.3954 18.3566 20.4103 18.3808 20.4139 18.3869C20.4183 18.3941 20.4172 18.3933 20.4116 18.3811C20.3998 18.3555 20.3801 18.3066 20.3542 18.2265L19.5614 18.4833ZM19.7433 18.8772L19.1198 19.4301L19.2053 19.5266L19.8288 18.9737L20.4523 18.4208L20.3668 18.3243L19.7433 18.8772ZM19.8288 18.9737L19.2053 19.5266L19.2909 19.6231L19.9144 19.0702L20.5379 18.5173L20.4523 18.4208L19.8288 18.9737ZM19.9144 19.0702L19.2909 19.6231C19.1189 19.4291 19.1195 19.2269 19.1209 19.1872C19.1226 19.1392 19.1314 19.1352 19.1107 19.1968L19.9006 19.4623L20.6905 19.7278C20.7361 19.5922 20.7803 19.4244 20.7865 19.2457C20.7925 19.0753 20.7669 18.7756 20.5379 18.5173L19.9144 19.0702ZM19.9006 19.4623L19.1107 19.1968L19.0113 19.4924L19.8013 19.7579L20.5912 20.0234L20.6905 19.7278L19.9006 19.4623Z" fill="#23553C"/>
<ellipse cx="16.6667" cy="12.5" rx="1.66667" ry="0.833333" fill="#23553C"/>
<path d="M17.8336 12.6881L17.54 11.9082L17.8336 12.6881ZM17.5838 12.7822L17.8774 13.562L17.5838 12.7822ZM17.0568 12.9174L16.9342 12.0932L17.0568 12.9174ZM16.5025 12.9999L16.6251 13.8242L16.5025 12.9999ZM15.2916 12.8917L15.1599 13.7145L15.2916 12.8917ZM15.383 12.5374L14.8803 11.8727L15.383 12.5374ZM16.3173 12.057L16.0555 11.2659L16.3173 12.057ZM18.2956 11.9003L17.464 11.9526L18.2956 11.9003ZM18.3208 12.3001L19.1525 12.2478L18.3208 12.3001ZM17.8336 12.6881L17.54 11.9082L17.2902 12.0023L17.5838 12.7822L17.8774 13.562L18.1273 13.468L17.8336 12.6881ZM17.5838 12.7822L17.2902 12.0023C17.1815 12.0432 17.0634 12.074 16.9342 12.0932L17.0568 12.9174L17.1794 13.7417C17.4197 13.706 17.6529 13.6466 17.8774 13.562L17.5838 12.7822ZM17.0568 12.9174L16.9342 12.0932L16.657 12.1344L16.7797 12.9587L16.9023 13.7829L17.1794 13.7417L17.0568 12.9174ZM16.7797 12.9587L16.657 12.1344L16.3799 12.1757L16.5025 12.9999L16.6251 13.8242L16.9023 13.7829L16.7797 12.9587ZM16.5025 12.9999L16.3799 12.1757C16.2893 12.1891 16.1795 12.1899 16.0459 12.1685L15.9141 12.9913L15.7824 13.8142C16.0637 13.8592 16.3462 13.8657 16.6251 13.8242L16.5025 12.9999ZM15.9141 12.9913L16.0459 12.1685L15.7346 12.1186L15.6029 12.9415L15.4711 13.7643L15.7824 13.8142L15.9141 12.9913ZM15.6029 12.9415L15.7346 12.1186L15.4234 12.0688L15.2916 12.8917L15.1599 13.7145L15.4711 13.7643L15.6029 12.9415ZM15.2916 12.8917L15.4234 12.0688C15.4025 12.0655 15.432 12.0678 15.4855 12.0898C15.5162 12.1025 15.7125 12.1826 15.8405 12.4179C16.0084 12.7264 15.9225 13.0241 15.8346 13.1762C15.7647 13.2973 15.6844 13.3542 15.6843 13.3543L15.1817 12.6896L14.6791 12.0249C14.6119 12.0757 14.4859 12.1791 14.3915 12.3424C14.2793 12.5367 14.1903 12.8723 14.3766 13.2145C14.5229 13.4835 14.7589 13.5931 14.8507 13.6309C14.9652 13.678 15.077 13.7012 15.1599 13.7145L15.2916 12.8917ZM15.1817 12.6896L15.6843 13.3543L15.8856 13.2021L15.383 12.5374L14.8803 11.8727L14.6791 12.0249L15.1817 12.6896ZM15.383 12.5374L15.8856 13.2021L16.0869 13.0499L15.5843 12.3852L15.0816 11.7205L14.8803 11.8727L15.383 12.5374ZM15.5843 12.3852L16.0869 13.0499C16.1408 13.0091 16.2132 12.9692 16.3132 12.9361L16.0514 12.145L15.7896 11.3538C15.5352 11.438 15.2962 11.5583 15.0816 11.7205L15.5843 12.3852ZM16.0514 12.145L16.3132 12.9361L16.5791 12.8481L16.3173 12.057L16.0555 11.2659L15.7896 11.3538L16.0514 12.145ZM16.3173 12.057L16.5791 12.8481L16.845 12.7602L16.5832 11.969L16.3214 11.1779L16.0555 11.2659L16.3173 12.057ZM16.5832 11.969L16.845 12.7602C16.9587 12.7225 17.1117 12.6879 17.3117 12.6627L17.2075 11.8359L17.1034 11.0091C16.8254 11.0441 16.5621 11.0982 16.3214 11.1779L16.5832 11.969ZM17.2075 11.8359L17.3117 12.6627L17.6702 12.6175L17.5661 11.7907L17.4619 10.9639L17.1034 11.0091L17.2075 11.8359ZM17.5661 11.7907L17.6702 12.6175L18.0287 12.5724L17.9246 11.7456L17.8204 10.9188L17.4619 10.9639L17.5661 11.7907ZM17.9246 11.7456L18.0287 12.5724C18.1026 12.5631 18.0171 12.5897 17.8759 12.5309C17.7896 12.4949 17.6786 12.4246 17.5897 12.3002C17.5007 12.1756 17.4699 12.0472 17.464 11.9526L18.2956 11.9003L19.1273 11.8481C19.1172 11.6868 19.0678 11.502 18.9458 11.3312C18.8239 11.1606 18.6654 11.0543 18.5173 10.9926C18.2524 10.8821 17.9856 10.898 17.8204 10.9188L17.9246 11.7456ZM18.2956 11.9003L17.464 11.9526L17.4765 12.1525L18.3082 12.1002L19.1399 12.0479L19.1273 11.8481L18.2956 11.9003ZM18.3082 12.1002L17.4765 12.1525L17.4891 12.3524L18.3208 12.3001L19.1525 12.2478L19.1399 12.0479L18.3082 12.1002ZM18.3208 12.3001L17.4891 12.3524C17.4811 12.2246 17.5195 12.0737 17.6193 11.9501C17.7039 11.8453 17.7886 11.8146 17.7899 11.8141L18.0835 12.594L18.3771 13.3739C18.5449 13.3107 18.7525 13.1997 18.9162 12.9969C19.0951 12.7753 19.1689 12.5088 19.1525 12.2478L18.3208 12.3001ZM18.0835 12.594L17.7899 11.8141L17.54 11.9082L17.8336 12.6881L18.1273 13.468L18.3771 13.3739L18.0835 12.594Z" fill="#23553C"/>
<ellipse cx="28.5296" cy="12.8135" rx="3.11902" ry="1.66667" transform="rotate(24.5927 28.5296 12.8135)" fill="#23553C"/>
<path d="M30.8213 14.2146L30.6663 13.3958L30.8213 14.2146ZM29.9732 14.495L29.5531 13.7753L29.9732 14.495ZM28.8091 14.7895L28.2382 15.3965L28.8091 14.7895ZM27.7933 13.9344L27.3906 14.664L27.7933 13.9344ZM27.277 13.6495L27.6796 12.9199L27.277 13.6495ZM26.0556 13.1453L26.3486 12.3652L26.0556 13.1453ZM25.7747 12.0549L24.942 12.0205L24.942 12.0205L25.7747 12.0549ZM29.3473 11.1028L29.6489 10.326L29.3473 11.1028ZM30.5158 11.6951L29.9399 12.2974L30.5158 11.6951ZM31.2034 12.7293L32.0292 12.8407L31.2034 12.7293ZM31.1134 13.3967L30.2876 13.2854L31.1134 13.3967ZM31.1427 13.8257L30.4856 14.3382L31.1427 13.8257ZM31.2913 14.0163L31.9485 13.5038L31.2913 14.0163ZM30.8213 14.2146L30.6663 13.3958L30.3942 13.4473L30.5492 14.2661L30.7042 15.0849L30.9764 15.0334L30.8213 14.2146ZM30.5492 14.2661L30.3942 13.4473C30.098 13.5034 29.8166 13.6215 29.5531 13.7753L29.9732 14.495L30.3933 15.2147C30.5349 15.132 30.6375 15.0975 30.7042 15.0849L30.5492 14.2661ZM29.9732 14.495L29.5531 13.7753L29.2493 13.9526L29.6694 14.6723L30.0894 15.392L30.3933 15.2147L29.9732 14.495ZM29.6694 14.6723L29.2493 13.9526L28.9455 14.1299L29.3655 14.8496L29.7856 15.5694L30.0894 15.392L29.6694 14.6723ZM29.3655 14.8496L28.9455 14.1299C28.9581 14.1226 29.0386 14.0812 29.1641 14.0948C29.2911 14.1085 29.3643 14.1676 29.38 14.1824L28.8091 14.7895L28.2382 15.3965C28.4223 15.5696 28.6725 15.718 28.9849 15.7518C29.2959 15.7854 29.5705 15.6949 29.7856 15.5694L29.3655 14.8496ZM28.8091 14.7895L29.38 14.1824L29.1274 13.9449L28.5565 14.5519L27.9857 15.159L28.2382 15.3965L28.8091 14.7895ZM28.5565 14.5519L29.1274 13.9449L28.8749 13.7073L28.304 14.3144L27.7331 14.9215L27.9857 15.159L28.5565 14.5519ZM28.304 14.3144L28.8749 13.7073C28.6644 13.5094 28.4385 13.3387 28.1959 13.2048L27.7933 13.9344L27.3906 14.664C27.4921 14.7201 27.6068 14.8027 27.7331 14.9215L28.304 14.3144ZM27.7933 13.9344L28.1959 13.2048L27.9378 13.0624L27.5351 13.792L27.1325 14.5216L27.3906 14.664L27.7933 13.9344ZM27.5351 13.792L27.9378 13.0624L27.6796 12.9199L27.277 13.6495L26.8744 14.3791L27.1325 14.5216L27.5351 13.792ZM27.277 13.6495L27.6796 12.9199C27.4671 12.8026 27.2366 12.6987 26.9908 12.6064L26.6978 13.3865L26.4048 14.1666C26.5871 14.2351 26.7427 14.3065 26.8744 14.3791L27.277 13.6495ZM26.6978 13.3865L26.9908 12.6064L26.6697 12.4858L26.3767 13.2659L26.0837 14.046L26.4048 14.1666L26.6978 13.3865ZM26.3767 13.2659L26.6697 12.4858L26.3486 12.3652L26.0556 13.1453L25.7627 13.9255L26.0837 14.046L26.3767 13.2659ZM26.0556 13.1453L26.3486 12.3652C26.3574 12.3685 26.4346 12.4006 26.503 12.4993C26.5744 12.6023 26.5821 12.6994 26.5805 12.7359L25.7479 12.7015L24.9153 12.667C24.9049 12.9191 24.9594 13.198 25.1333 13.4489C25.3043 13.6955 25.5399 13.8418 25.7627 13.9255L26.0556 13.1453ZM25.7479 12.7015L26.5805 12.7359L26.5939 12.4126L25.7613 12.3782L24.9287 12.3438L24.9153 12.667L25.7479 12.7015ZM25.7613 12.3782L26.5939 12.4126L26.6073 12.0894L25.7747 12.0549L24.942 12.0205L24.9287 12.3438L25.7613 12.3782ZM25.7747 12.0549L26.6073 12.0894C26.6102 12.0188 26.6269 11.985 26.6432 11.9616L25.959 11.4858L25.2748 11.01C25.0631 11.3144 24.957 11.66 24.942 12.0205L25.7747 12.0549ZM25.959 11.4858L26.6432 11.9616L26.8141 11.7157L26.13 11.2399L25.4458 10.7642L25.2748 11.01L25.959 11.4858ZM26.13 11.2399L26.8141 11.7157L26.9851 11.4698L26.3009 10.9941L25.6167 10.5183L25.4458 10.7642L26.13 11.2399ZM26.3009 10.9941L26.9851 11.4698C26.9522 11.5171 26.8605 11.6147 26.6992 11.6532C26.5508 11.6887 26.4527 11.6474 26.4482 11.6455L26.778 10.8802L27.1079 10.1149C26.8993 10.025 26.6196 9.95874 26.3122 10.0321C25.9919 10.1086 25.7636 10.3072 25.6167 10.5183L26.3009 10.9941ZM26.778 10.8802L26.4482 11.6455L26.7543 11.7774L27.0842 11.0122L27.4141 10.2469L27.1079 10.1149L26.778 10.8802ZM27.0842 11.0122L26.7543 11.7774L27.0605 11.9094L27.3903 11.1441L27.7202 10.3789L27.4141 10.2469L27.0842 11.0122ZM27.3903 11.1441L27.0605 11.9094C27.4296 12.0685 27.8214 12.1018 28.2098 12.0171L28.0322 11.2029L27.8546 10.3887C27.7953 10.4016 27.7593 10.3957 27.7202 10.3789L27.3903 11.1441ZM28.0322 11.2029L28.2098 12.0171L28.5455 11.9438L28.3679 11.1296L28.1903 10.3155L27.8546 10.3887L28.0322 11.2029ZM28.3679 11.1296L28.5455 11.9438L28.8811 11.8706L28.7035 11.0564L28.5259 10.2422L28.1903 10.3155L28.3679 11.1296ZM28.7035 11.0564L28.8811 11.8706C28.9517 11.8552 28.9992 11.8616 29.0457 11.8796L29.3473 11.1028L29.6489 10.326C29.2847 10.1845 28.903 10.16 28.5259 10.2422L28.7035 11.0564ZM29.3473 11.1028L29.0457 11.8796L29.3538 11.9993L29.6554 11.2224L29.957 10.4456L29.6489 10.326L29.3473 11.1028ZM29.6554 11.2224L29.3538 11.9993L29.6619 12.1189L29.9635 11.342L30.2651 10.5652L29.957 10.4456L29.6554 11.2224ZM29.9635 11.342L29.6619 12.1189C29.763 12.1581 29.8544 12.2157 29.9399 12.2974L30.5158 11.6951L31.0917 11.0928C30.8517 10.8633 30.5748 10.6854 30.2651 10.5652L29.9635 11.342ZM30.5158 11.6951L29.9399 12.2974L30.1841 12.5309L30.76 11.9286L31.3359 11.3263L31.0917 11.0928L30.5158 11.6951ZM30.76 11.9286L30.1841 12.5309L30.4283 12.7644L31.0042 12.1621L31.5801 11.5598L31.3359 11.3263L30.76 11.9286ZM31.0042 12.1621L30.4283 12.7644C30.4284 12.7646 30.4225 12.7589 30.4142 12.7465C30.4058 12.7338 30.3969 12.717 30.3898 12.6968C30.3744 12.6529 30.3771 12.6214 30.3775 12.618L31.2034 12.7293L32.0292 12.8407C32.095 12.353 31.9348 11.899 31.5801 11.5598L31.0042 12.1621ZM31.2034 12.7293L30.3775 12.618L30.3325 12.9517L31.1584 13.063L31.9843 13.1744L32.0292 12.8407L31.2034 12.7293ZM31.1584 13.063L30.3325 12.9517L30.2876 13.2854L31.1134 13.3967L31.9393 13.5081L31.9843 13.1744L31.1584 13.063ZM31.1134 13.3967L30.2876 13.2854C30.2688 13.4249 30.2566 13.5779 30.2669 13.7277C30.2754 13.852 30.306 14.1079 30.4856 14.3382L31.1427 13.8257L31.7998 13.3132C31.8709 13.4044 31.9012 13.4887 31.914 13.5331C31.9272 13.579 31.9293 13.6093 31.9296 13.614C31.9301 13.6208 31.9281 13.5911 31.9393 13.5081L31.1134 13.3967ZM31.1427 13.8257L30.4856 14.3382L30.5599 14.4335L31.217 13.921L31.8742 13.4085L31.7998 13.3132L31.1427 13.8257ZM31.217 13.921L30.5599 14.4335L30.6342 14.5288L31.2913 14.0163L31.9485 13.5038L31.8742 13.4085L31.217 13.921ZM31.2913 14.0163L30.6342 14.5288C30.5662 14.4415 30.4397 14.2321 30.4823 13.9408C30.5241 13.6539 30.7005 13.4922 30.7825 13.4314C30.8649 13.3702 30.9329 13.3479 30.942 13.3448C30.9588 13.3391 30.9603 13.3401 30.9385 13.3443L31.0935 14.1631L31.2485 14.9818C31.3456 14.9635 31.5765 14.9175 31.7756 14.7698C31.8905 14.6845 32.0855 14.4965 32.1314 14.1815C32.1781 13.8621 32.0413 13.6228 31.9485 13.5038L31.2913 14.0163ZM31.0935 14.1631L30.9385 13.3443L30.6663 13.3958L30.8213 14.2146L30.9764 15.0334L31.2485 14.9818L31.0935 14.1631Z" fill="#23553C"/>
<ellipse cx="15.1963" cy="16.1469" rx="3.11902" ry="1.66667" transform="rotate(24.5927 15.1963 16.1469)" fill="#23553C"/>
<path d="M17.3036 18.0852L17.8536 18.7112L17.3036 18.0852ZM16.1256 17.9953L16.3828 17.2027L16.1256 17.9953ZM15.4602 17.9554L15.3183 17.1342L15.4602 17.9554ZM13.5939 17.5296L13.0911 18.1941L13.5939 17.5296ZM13.2256 16.9932L12.4274 17.2326L13.2256 16.9932ZM13.0256 16.3265L13.8238 16.087L13.0256 16.3265ZM12.8814 15.7775L12.065 15.945L12.8814 15.7775ZM12.8371 15.5619L12.0208 15.7294L12.8371 15.5619ZM12.7928 15.3462L13.6092 15.1787L12.7928 15.3462ZM12.8244 14.7887L12.0108 14.6082L12.8244 14.7887ZM15.9965 14.484L16.2374 13.6862L15.9965 14.484ZM17.1362 15.0579L17.8378 14.6082L17.1362 15.0579ZM17.5016 15.6279L16.8 16.0776L17.5016 15.6279ZM17.9963 16.783L17.2119 17.0643L17.9963 16.783ZM18.0833 17.166L17.2636 17.0163L18.0833 17.166ZM18.0494 17.3519L18.8692 17.5017L18.0494 17.3519ZM17.7895 17.6583L17.2395 17.0323L17.7895 17.6583ZM17.5465 17.8718L16.9965 17.2457L16.7536 17.4592L17.3036 18.0852L17.8536 18.7112L18.0966 18.4978L17.5465 17.8718ZM17.3036 18.0852L16.7536 17.4592C16.7661 17.4482 16.8085 17.4173 16.8781 17.4033C16.9471 17.3893 16.9954 17.4014 17.0061 17.4049L16.749 18.1975L16.4919 18.9902C16.9747 19.1468 17.4673 19.0507 17.8536 18.7112L17.3036 18.0852ZM16.749 18.1975L17.0061 17.4049L16.6944 17.3038L16.4373 18.0964L16.1802 18.8891L16.4919 18.9902L16.749 18.1975ZM16.4373 18.0964L16.6944 17.3038L16.3828 17.2027L16.1256 17.9953L15.8685 18.788L16.1802 18.8891L16.4373 18.0964ZM16.1256 17.9953L16.3828 17.2027C16.0343 17.0896 15.6745 17.0727 15.3183 17.1342L15.4602 17.9554L15.602 18.7765C15.7176 18.7566 15.8014 18.7663 15.8685 18.788L16.1256 17.9953ZM15.4602 17.9554L15.3183 17.1342L14.9646 17.1953L15.1064 18.0165L15.2483 18.8376L15.602 18.7765L15.4602 17.9554ZM15.1064 18.0165L14.9646 17.1953L14.6108 17.2564L14.7526 18.0776L14.8945 18.8988L15.2483 18.8376L15.1064 18.0165ZM14.7526 18.0776L14.6108 17.2564C14.5987 17.2585 14.5933 17.2584 14.5934 17.2584C14.5938 17.2584 14.5983 17.2585 14.6056 17.2602C14.613 17.2619 14.6202 17.2644 14.6263 17.2673C14.6324 17.2702 14.6347 17.2721 14.6334 17.2711L14.1306 17.9357L13.6277 18.6002C14.0039 18.8849 14.4484 18.9758 14.8945 18.8988L14.7526 18.0776ZM14.1306 17.9357L14.6334 17.2711L14.3651 17.0681L13.8622 17.7326L13.3594 18.3971L13.6277 18.6002L14.1306 17.9357ZM13.8622 17.7326L14.3651 17.0681L14.0968 16.8651L13.5939 17.5296L13.0911 18.1941L13.3594 18.3971L13.8622 17.7326ZM13.5939 17.5296L14.0968 16.8651C14.0641 16.8403 14.0415 16.8128 14.0238 16.7538L13.2256 16.9932L12.4274 17.2326C12.543 17.6181 12.766 17.9481 13.0911 18.1941L13.5939 17.5296ZM13.2256 16.9932L14.0238 16.7538L13.9238 16.4204L13.1256 16.6598L12.3274 16.8993L12.4274 17.2326L13.2256 16.9932ZM13.1256 16.6598L13.9238 16.4204L13.8238 16.087L13.0256 16.3265L12.2274 16.5659L12.3274 16.8993L13.1256 16.6598ZM13.0256 16.3265L13.8238 16.087C13.7607 15.8766 13.7202 15.7198 13.6977 15.6099L12.8814 15.7775L12.065 15.945C12.1015 16.1227 12.1572 16.3319 12.2274 16.5659L13.0256 16.3265ZM12.8814 15.7775L13.6977 15.6099L13.6534 15.3943L12.8371 15.5619L12.0208 15.7294L12.065 15.945L12.8814 15.7775ZM12.8371 15.5619L13.6534 15.3943L13.6092 15.1787L12.7928 15.3462L11.9765 15.5138L12.0208 15.7294L12.8371 15.5619ZM12.7928 15.3462L13.6092 15.1787C13.6122 15.1933 13.6084 15.1854 13.6106 15.1461C13.6128 15.1077 13.6201 15.0497 13.638 14.9691L12.8244 14.7887L12.0108 14.6082C11.9482 14.8906 11.9136 15.2072 11.9765 15.5138L12.7928 15.3462ZM12.8244 14.7887L13.638 14.9691L13.7138 14.6272L12.9002 14.4467L12.0867 14.2663L12.0108 14.6082L12.8244 14.7887ZM12.9002 14.4467L13.7138 14.6272L13.7896 14.2852L12.9761 14.1048L12.1625 13.9244L12.0867 14.2663L12.9002 14.4467ZM12.9761 14.1048L13.7896 14.2852C13.7848 14.307 13.7534 14.414 13.6346 14.5067C13.5176 14.5979 13.4109 14.6009 13.3981 14.6007L13.4088 13.7674L13.4195 12.9342C13.1687 12.931 12.871 12.9886 12.6098 13.1923C12.3467 13.3974 12.2179 13.6747 12.1625 13.9244L12.9761 14.1048ZM13.4088 13.7674L13.3981 14.6007L13.755 14.6053L13.7656 13.772L13.7763 12.9388L13.4195 12.9342L13.4088 13.7674ZM13.7656 13.772L13.755 14.6053L14.1118 14.6099L14.1225 13.7766L14.1332 12.9433L13.7763 12.9388L13.7656 13.772ZM14.1225 13.7766L14.1118 14.6099C14.2308 14.6114 14.3234 14.6362 14.4026 14.6763L14.7789 13.9328L15.1553 13.1893C14.835 13.0272 14.4901 12.9479 14.1332 12.9433L14.1225 13.7766ZM14.7789 13.9328L14.4026 14.6763L14.7021 14.8279L15.0785 14.0844L15.4548 13.3409L15.1553 13.1893L14.7789 13.9328ZM15.0785 14.0844L14.7021 14.8279L15.0016 14.9796L15.378 14.2361L15.7544 13.4926L15.4548 13.3409L15.0785 14.0844ZM15.378 14.2361L15.0016 14.9796C15.2445 15.1025 15.496 15.2034 15.7557 15.2818L15.9965 14.484L16.2374 13.6862C16.0717 13.6362 15.9109 13.5718 15.7544 13.4926L15.378 14.2361ZM15.9965 14.484L15.7557 15.2818L16.0747 15.3781L16.3155 14.5803L16.5564 13.7825L16.2374 13.6862L15.9965 14.484ZM16.3155 14.5803L16.0747 15.3781L16.3937 15.4744L16.6345 14.6766L16.8754 13.8788L16.5564 13.7825L16.3155 14.5803ZM16.6345 14.6766L16.3937 15.4744C16.4028 15.4771 16.4081 15.4795 16.4107 15.4808C16.4132 15.4821 16.4145 15.483 16.4152 15.4835C16.4154 15.4837 16.4225 15.4887 16.4346 15.5076L17.1362 15.0579L17.8378 14.6082C17.6107 14.2539 17.2815 14.0014 16.8754 13.8788L16.6345 14.6766ZM17.1362 15.0579L16.4346 15.5076L16.6173 15.7926L17.3189 15.3429L18.0205 14.8932L17.8378 14.6082L17.1362 15.0579ZM17.3189 15.3429L16.6173 15.7926L16.8 16.0776L17.5016 15.6279L18.2032 15.1782L18.0205 14.8932L17.3189 15.3429ZM17.5016 15.6279L16.8 16.0776C16.8913 16.2199 16.9577 16.3554 17.0039 16.4842L17.7883 16.2029L18.5727 15.9216C18.4802 15.6637 18.3555 15.4159 18.2032 15.1782L17.5016 15.6279ZM17.7883 16.2029L17.0039 16.4842L17.1079 16.7742L17.8923 16.493L18.6767 16.2117L18.5727 15.9216L17.7883 16.2029ZM17.8923 16.493L17.1079 16.7742L17.2119 17.0643L17.9963 16.783L18.7807 16.5017L18.6767 16.2117L17.8923 16.493ZM17.9963 16.783L17.2119 17.0643C17.2257 17.1029 17.2362 17.1345 17.244 17.1598C17.2518 17.1855 17.2558 17.2011 17.2574 17.2084C17.2594 17.2171 17.2567 17.2075 17.2545 17.1846C17.2534 17.1725 17.2521 17.1525 17.2525 17.1265C17.2529 17.1011 17.255 17.063 17.2636 17.0163L18.0833 17.166L18.9031 17.3157C18.941 17.1081 18.901 16.9198 18.8827 16.8391C18.8578 16.7296 18.8211 16.6144 18.7807 16.5017L17.9963 16.783ZM18.0833 17.166L17.2636 17.0163L17.2466 17.1093L18.0664 17.259L18.8861 17.4087L18.9031 17.3157L18.0833 17.166ZM18.0664 17.259L17.2466 17.1093L17.2296 17.2022L18.0494 17.3519L18.8692 17.5017L18.8861 17.4087L18.0664 17.259ZM18.0494 17.3519L17.2296 17.2022C17.2412 17.1389 17.2588 17.0891 17.2729 17.0553C17.2873 17.021 17.3014 16.9952 17.3112 16.9789C17.3298 16.9477 17.3432 16.9327 17.3404 16.936C17.3343 16.9431 17.3059 16.974 17.2395 17.0323L17.7895 17.6583L18.3395 18.2844C18.435 18.2004 18.5309 18.109 18.6114 18.0141C18.665 17.9509 18.821 17.7654 18.8692 17.5017L18.0494 17.3519ZM17.7895 17.6583L17.2395 17.0323L16.9965 17.2457L17.5465 17.8718L18.0966 18.4978L18.3395 18.2844L17.7895 17.6583Z" fill="#23553C"/>
<ellipse cx="21.5123" cy="12.4716" rx="2.06452" ry="2.52532" transform="rotate(24.5927 21.5123 12.4716)" fill="#23553C"/>
<path d="M23.0534 14.3267L22.2638 14.0602L23.0534 14.3267ZM22.61 14.7998L22.2834 14.0331L22.61 14.7998ZM22.2786 14.941L21.9521 14.1743L22.2786 14.941ZM21.9472 15.0821L22.2738 15.8488L21.9472 15.0821ZM21.031 14.8696L20.5999 15.5828L21.031 14.8696ZM20.7386 14.6928L21.1698 13.9797L20.7386 14.6928ZM20.1672 14.353L20.5878 13.6335L20.1672 14.353ZM19.6094 14.0269L19.1888 14.7463L19.6094 14.0269ZM19.5185 13.2249L18.7191 12.9895L19.5185 13.2249ZM19.6842 12.2619L18.8528 12.3195L19.6842 12.2619ZM19.6617 11.9378L20.4931 11.8802L19.6617 11.9378ZM20.5069 10.8874L20.1636 10.128L20.5069 10.8874ZM21.2719 10.3578L20.7343 9.72106L21.2719 10.3578ZM22.7264 10.1434L22.877 9.3238L22.7264 10.1434ZM23.1403 10.5208L23.9451 10.3046L23.1403 10.5208ZM23.3105 11.1547L22.5057 11.3709L23.3105 11.1547ZM23.4791 12.3481L22.6496 12.4271L23.4791 12.3481ZM23.4776 12.8128L22.6561 12.6732L23.4776 12.8128ZM23.4189 13.1581L22.5974 13.0185L23.4189 13.1581ZM23.1655 13.9947L22.3759 13.7282L22.2638 14.0602L23.0534 14.3267L23.843 14.5932L23.955 14.2612L23.1655 13.9947ZM23.0534 14.3267L22.2638 14.0602C22.2623 14.0648 22.2622 14.0637 22.265 14.0589C22.268 14.0539 22.2725 14.0475 22.2785 14.0411C22.2845 14.0347 22.2896 14.0308 22.292 14.0291C22.2943 14.0276 22.2922 14.0294 22.2834 14.0331L22.61 14.7998L22.9365 15.5665C23.3691 15.3823 23.6899 15.0467 23.843 14.5932L23.0534 14.3267ZM22.61 14.7998L22.2834 14.0331L21.9521 14.1743L22.2786 14.941L22.6052 15.7076L22.9365 15.5665L22.61 14.7998ZM22.2786 14.941L21.9521 14.1743L21.6207 14.3154L21.9472 15.0821L22.2738 15.8488L22.6052 15.7076L22.2786 14.941ZM21.9472 15.0821L21.6207 14.3154C21.6102 14.3199 21.6308 14.3094 21.6732 14.3118C21.7173 14.3143 21.747 14.3287 21.7546 14.3333L21.3234 15.0464L20.8923 15.7596C21.3307 16.0246 21.822 16.0412 22.2738 15.8488L21.9472 15.0821ZM21.3234 15.0464L21.7546 14.3333L21.4622 14.1565L21.031 14.8696L20.5999 15.5828L20.8923 15.7596L21.3234 15.0464ZM21.031 14.8696L21.4622 14.1565L21.1698 13.9797L20.7386 14.6928L20.3074 15.4059L20.5999 15.5828L21.031 14.8696ZM20.7386 14.6928L21.1698 13.9797C20.9715 13.8598 20.7775 13.7444 20.5878 13.6335L20.1672 14.353L19.7467 15.0724C19.9289 15.1789 20.1158 15.2901 20.3074 15.4059L20.7386 14.6928ZM20.1672 14.353L20.5878 13.6335L20.3088 13.4705L19.8883 14.1899L19.4678 14.9094L19.7467 15.0724L20.1672 14.353ZM19.8883 14.1899L20.3088 13.4705L20.0299 13.3074L19.6094 14.0269L19.1888 14.7463L19.4678 14.9094L19.8883 14.1899ZM19.6094 14.0269L20.0299 13.3074C20.0586 13.3242 20.1493 13.3894 20.2018 13.5266C20.2532 13.6606 20.2291 13.7618 20.2239 13.7797L19.4245 13.5444L18.6251 13.309C18.5571 13.5398 18.5325 13.828 18.6455 14.1229C18.7597 14.4209 18.9742 14.6208 19.1888 14.7463L19.6094 14.0269ZM19.4245 13.5444L20.2239 13.7797L20.3179 13.4602L19.5185 13.2249L18.7191 12.9895L18.6251 13.309L19.4245 13.5444ZM19.5185 13.2249L20.3179 13.4602L20.412 13.1407L19.6126 12.9054L18.8132 12.6701L18.7191 12.9895L19.5185 13.2249ZM19.6126 12.9054L20.412 13.1407C20.5019 12.8352 20.5375 12.5216 20.5155 12.2043L19.6842 12.2619L18.8528 12.3195C18.8608 12.4342 18.8486 12.5496 18.8132 12.6701L19.6126 12.9054ZM19.6842 12.2619L20.5155 12.2043L20.4931 11.8802L19.6617 11.9378L18.8304 11.9954L18.8528 12.3195L19.6842 12.2619ZM19.6617 11.9378L20.4931 11.8802L20.4706 11.5562L19.6393 11.6138L18.8079 11.6714L18.8304 11.9954L19.6617 11.9378ZM19.6393 11.6138L20.4706 11.5562C20.4723 11.5807 20.4709 11.6662 20.4116 11.7652C20.3525 11.864 20.2782 11.9053 20.2568 11.915L19.9135 11.1556L19.5702 10.3963C19.351 10.4954 19.1321 10.6577 18.9816 10.9092C18.8309 11.1609 18.7913 11.4308 18.8079 11.6714L19.6393 11.6138ZM19.9135 11.1556L20.2568 11.915L20.5535 11.7808L20.2102 11.0215L19.8669 10.2622L19.5702 10.3963L19.9135 11.1556ZM20.2102 11.0215L20.5535 11.7808L20.8501 11.6467L20.5069 10.8874L20.1636 10.128L19.8669 10.2622L20.2102 11.0215ZM20.5069 10.8874L20.8501 11.6467C21.1137 11.5276 21.3569 11.3767 21.5754 11.1922L21.0377 10.5555L20.5001 9.9188C20.4063 9.99798 20.2956 10.0684 20.1636 10.128L20.5069 10.8874ZM21.0377 10.5555L21.5754 11.1922L21.8095 10.9945L21.2719 10.3578L20.7343 9.72106L20.5001 9.9188L21.0377 10.5555ZM21.2719 10.3578L21.8095 10.9945L22.0437 10.7967L21.5061 10.16L20.9685 9.52332L20.7343 9.72106L21.2719 10.3578ZM21.5061 10.16L22.0437 10.7967C22.0292 10.809 22.0001 10.827 21.9615 10.8364C21.925 10.8453 21.9067 10.8401 21.9185 10.8423L22.069 10.0227L22.2195 9.20305C21.7804 9.12239 21.3339 9.2148 20.9685 9.52332L21.5061 10.16ZM22.069 10.0227L21.9185 10.8423L22.2472 10.9027L22.3977 10.083L22.5483 9.26343L22.2195 9.20305L22.069 10.0227ZM22.3977 10.083L22.2472 10.9027L22.5759 10.963L22.7264 10.1434L22.877 9.3238L22.5483 9.26343L22.3977 10.083ZM22.7264 10.1434L22.5759 10.963C22.5621 10.9605 22.4996 10.9447 22.4328 10.8837C22.3651 10.822 22.3411 10.7581 22.3355 10.7369L23.1403 10.5208L23.9451 10.3046C23.8827 10.0722 23.7613 9.83964 23.5557 9.65216C23.3509 9.46543 23.1099 9.36659 22.877 9.3238L22.7264 10.1434ZM23.1403 10.5208L22.3355 10.7369L22.4206 11.0539L23.2254 10.8377L24.0302 10.6216L23.9451 10.3046L23.1403 10.5208ZM23.2254 10.8377L22.4206 11.0539L22.5057 11.3709L23.3105 11.1547L24.1154 10.9385L24.0302 10.6216L23.2254 10.8377ZM23.3105 11.1547L22.5057 11.3709C22.5518 11.5424 22.5803 11.6994 22.5939 11.8428L23.4235 11.7638L24.2531 11.6848C24.2296 11.4386 24.1828 11.1896 24.1154 10.9385L23.3105 11.1547ZM23.4235 11.7638L22.5939 11.8428L22.6217 12.1349L23.4513 12.0559L24.2809 11.9769L24.2531 11.6848L23.4235 11.7638ZM23.4513 12.0559L22.6217 12.1349L22.6496 12.4271L23.4791 12.3481L24.3087 12.2691L24.2809 11.9769L23.4513 12.0559ZM23.4791 12.3481L22.6496 12.4271C22.6569 12.504 22.6595 12.5634 22.6593 12.6076C22.6593 12.6294 22.6585 12.6457 22.6577 12.6573C22.6568 12.6689 22.6559 12.6739 22.6561 12.6732L23.4776 12.8128L24.2992 12.9525C24.3365 12.7329 24.3302 12.4947 24.3087 12.2691L23.4791 12.3481ZM23.4776 12.8128L22.6561 12.6732L22.6267 12.8458L23.4483 12.9855L24.2698 13.1251L24.2992 12.9525L23.4776 12.8128ZM23.4483 12.9855L22.6267 12.8458L22.5974 13.0185L23.4189 13.1581L24.2405 13.2978L24.2698 13.1251L23.4483 12.9855ZM23.4189 13.1581L22.5974 13.0185C22.5892 13.0665 22.5596 13.184 22.488 13.3962L23.2775 13.6627L24.0671 13.9292C24.1448 13.6989 24.2095 13.48 24.2405 13.2978L23.4189 13.1581ZM23.2775 13.6627L22.488 13.3962L22.3759 13.7282L23.1655 13.9947L23.955 14.2612L24.0671 13.9292L23.2775 13.6627Z" fill="#23553C"/>
<ellipse cx="26.8618" cy="18.0654" rx="3.11902" ry="1.66667" transform="rotate(-31.9682 26.8618 18.0654)" fill="#23553C"/>
<path d="M29.5836 17.0493L28.7561 17.148L29.5836 17.0493ZM29.6215 17.3669L30.4489 17.2681L29.6215 17.3669ZM29.5146 17.9924L28.7605 17.6379L29.5146 17.9924ZM29.2251 18.6083L29.9793 18.9628L29.2251 18.6083ZM28.8293 19.141L29.3852 19.7619L28.8293 19.141ZM28.5782 19.3658L28.0223 18.745L28.5782 19.3658ZM27.7393 19.8717L27.602 19.0497L27.7393 19.8717ZM27.0659 19.9842L27.2032 20.8061L27.0659 19.9842ZM26.1156 20.3623L26.5028 21.1003L26.1156 20.3623ZM25.0623 20.1365L24.4125 20.6582L25.0623 20.1365ZM24.4098 19.3335L23.7697 19.8671L24.4098 19.3335ZM24.0679 18.3682L24.5334 19.0593L24.0679 18.3682ZM24.3641 18.1686L24.8297 18.8598L24.3641 18.1686ZM24.6604 17.969L24.1948 17.2779L24.6604 17.969ZM26.4817 16.214L26.7643 16.998L26.4817 16.214ZM27.1044 16.0708L27.189 16.8998L27.1044 16.0708ZM28.2758 16.1176L27.8332 16.8236L28.2758 16.1176ZM28.732 16.4036L29.1747 15.6975L28.732 16.4036ZM29.097 16.5134L29.293 17.3234L29.097 16.5134ZM29.3709 16.4472L29.1748 15.6372L29.3709 16.4472ZM29.5457 16.7317L28.7182 16.8304L29.5457 16.7317ZM29.5836 17.0493L28.7561 17.148L28.794 17.4656L29.6215 17.3669L30.4489 17.2681L30.411 16.9505L29.5836 17.0493ZM29.6215 17.3669L28.794 17.4656C28.7996 17.5124 28.795 17.5644 28.7605 17.6379L29.5146 17.9924L30.2688 18.3469C30.4273 18.0098 30.4939 17.6448 30.4489 17.2681L29.6215 17.3669ZM29.5146 17.9924L28.7605 17.6379L28.6157 17.9458L29.3699 18.3003L30.124 18.6549L30.2688 18.3469L29.5146 17.9924ZM29.3699 18.3003L28.6157 17.9458L28.4709 18.2538L29.2251 18.6083L29.9793 18.9628L30.124 18.6549L29.3699 18.3003ZM29.2251 18.6083L28.4709 18.2538C28.4215 18.3589 28.3567 18.4456 28.2734 18.5202L28.8293 19.141L29.3852 19.7619C29.6367 19.5367 29.8357 19.2683 29.9793 18.9628L29.2251 18.6083ZM28.8293 19.141L28.2734 18.5202L28.0223 18.745L28.5782 19.3658L29.1341 19.9867L29.3852 19.7619L28.8293 19.141ZM28.5782 19.3658L28.0223 18.745L27.7713 18.9698L28.3271 19.5906L28.883 20.2115L29.1341 19.9867L28.5782 19.3658ZM28.3271 19.5906L27.7713 18.9698C27.7231 19.0129 27.6729 19.0379 27.602 19.0497L27.7393 19.8717L27.8766 20.6936C28.2547 20.6304 28.5964 20.4681 28.883 20.2115L28.3271 19.5906ZM27.7393 19.8717L27.602 19.0497L27.2653 19.106L27.4026 19.9279L27.5399 20.7498L27.8766 20.6936L27.7393 19.8717ZM27.4026 19.9279L27.2653 19.106L26.9286 19.1622L27.0659 19.9842L27.2032 20.8061L27.5399 20.7498L27.4026 19.9279ZM27.0659 19.9842L26.9286 19.1622C26.6156 19.2145 26.3169 19.3157 26.0352 19.4634L26.4224 20.2014L26.8096 20.9393C26.937 20.8724 27.0673 20.8288 27.2032 20.8061L27.0659 19.9842ZM26.4224 20.2014L26.0352 19.4634L25.7284 19.6244L26.1156 20.3623L26.5028 21.1003L26.8096 20.9393L26.4224 20.2014ZM26.1156 20.3623L25.7284 19.6244L25.4217 19.7854L25.8088 20.5233L26.196 21.2612L26.5028 21.1003L26.1156 20.3623ZM25.8088 20.5233L25.4217 19.7854C25.4416 19.7749 25.5467 19.7282 25.6985 19.7607C25.8485 19.7929 25.9222 19.8765 25.932 19.8887L25.2822 20.4104L24.6323 20.9321C24.7887 21.1269 25.0235 21.3206 25.3491 21.3904C25.6764 21.4606 25.9716 21.379 26.196 21.2612L25.8088 20.5233ZM25.2822 20.4104L25.932 19.8887L25.7122 19.6148L25.0623 20.1365L24.4125 20.6582L24.6323 20.9321L25.2822 20.4104ZM25.0623 20.1365L25.7122 19.6148L25.4923 19.341L24.8424 19.8626L24.1926 20.3843L24.4125 20.6582L25.0623 20.1365ZM24.8424 19.8626L25.4923 19.341C25.3427 19.1546 25.1953 18.9743 25.05 18.8L24.4098 19.3335L23.7697 19.8671C23.9081 20.0331 24.049 20.2055 24.1926 20.3843L24.8424 19.8626ZM24.4098 19.3335L25.05 18.8L24.8372 18.5447L24.1971 19.0783L23.5569 19.6118L23.7697 19.8671L24.4098 19.3335ZM24.1971 19.0783L24.8372 18.5447L24.6245 18.2895L23.9843 18.823L23.3442 19.3565L23.5569 19.6118L24.1971 19.0783ZM23.9843 18.823L24.6245 18.2895C24.6403 18.3084 24.7662 18.4726 24.7185 18.7322C24.6968 18.8502 24.6463 18.9364 24.6049 18.9887C24.5662 19.0376 24.5344 19.0587 24.5334 19.0593L24.0679 18.3682L23.6023 17.677C23.4169 17.8019 23.1511 18.0398 23.0792 18.4312C23.0037 18.8424 23.1866 19.1674 23.3442 19.3565L23.9843 18.823ZM24.0679 18.3682L24.5334 19.0593L24.8297 18.8598L24.3641 18.1686L23.8986 17.4775L23.6023 17.677L24.0679 18.3682ZM24.3641 18.1686L24.8297 18.8598L25.126 18.6602L24.6604 17.969L24.1948 17.2779L23.8986 17.4775L24.3641 18.1686ZM24.6604 17.969L25.126 18.6602C25.4381 18.45 25.6873 18.1723 25.8547 17.8313L25.1067 17.4639L24.3587 17.0966C24.3261 17.163 24.2777 17.2221 24.1948 17.2779L24.6604 17.969ZM25.1067 17.4639L25.8547 17.8313L26.0048 17.5257L25.2568 17.1584L24.5088 16.7911L24.3587 17.0966L25.1067 17.4639ZM25.2568 17.1584L26.0048 17.5257L26.1548 17.2202L25.4068 16.8529L24.6588 16.4855L24.5088 16.7911L25.2568 17.1584ZM25.4068 16.8529L26.1548 17.2202C26.1593 17.2111 26.1621 17.2073 26.1622 17.2071C26.1623 17.207 26.1606 17.2093 26.157 17.2126C26.1533 17.2159 26.1496 17.2185 26.1467 17.2203C26.1438 17.222 26.1437 17.2216 26.1477 17.2202L25.8651 16.4362L25.5826 15.6523C25.1652 15.8027 24.85 16.0962 24.6588 16.4855L25.4068 16.8529ZM25.8651 16.4362L26.1477 17.2202L26.456 17.1091L26.1734 16.3251L25.8909 15.5411L25.5826 15.6523L25.8651 16.4362ZM26.1734 16.3251L26.456 17.1091L26.7643 16.998L26.4817 16.214L26.1991 15.43L25.8909 15.5411L26.1734 16.3251ZM26.4817 16.214L26.7643 16.998C26.9082 16.9461 27.0494 16.9141 27.189 16.8998L27.1044 16.0708L27.0198 15.2418C26.7402 15.2703 26.4662 15.3338 26.1991 15.43L26.4817 16.214ZM27.1044 16.0708L27.189 16.8998L27.5034 16.8678L27.4189 16.0387L27.3343 15.2097L27.0198 15.2418L27.1044 16.0708ZM27.4189 16.0387L27.5034 16.8678L27.8179 16.8357L27.7333 16.0066L27.6487 15.1776L27.3343 15.2097L27.4189 16.0387ZM27.7333 16.0066L27.8179 16.8357C27.8504 16.8324 27.8623 16.8354 27.8592 16.8348C27.8578 16.8345 27.854 16.8336 27.8486 16.8314C27.8432 16.8293 27.8378 16.8266 27.8332 16.8236L28.2758 16.1176L28.7185 15.4115C28.383 15.2012 28.0095 15.1408 27.6487 15.1776L27.7333 16.0066ZM28.2758 16.1176L27.8332 16.8236L28.0612 16.9666L28.5039 16.2606L28.9466 15.5545L28.7185 15.4115L28.2758 16.1176ZM28.5039 16.2606L28.0612 16.9666L28.2893 17.1096L28.732 16.4036L29.1747 15.6975L28.9466 15.5545L28.5039 16.2606ZM28.732 16.4036L28.2893 17.1096C28.4773 17.2275 28.8542 17.4296 29.293 17.3234L29.097 16.5134L28.901 15.7035C29.0413 15.6695 29.1447 15.6947 29.1775 15.7046C29.2105 15.7145 29.2113 15.7205 29.1747 15.6975L28.732 16.4036ZM29.097 16.5134L29.293 17.3234L29.4299 17.2903L29.2339 16.4803L29.0379 15.6704L28.901 15.7035L29.097 16.5134ZM29.2339 16.4803L29.4299 17.2903L29.5669 17.2571L29.3709 16.4472L29.1748 15.6372L29.0379 15.6704L29.2339 16.4803ZM29.3709 16.4472L29.5669 17.2571C29.4273 17.2909 29.2466 17.2885 29.0687 17.2019C28.904 17.1219 28.8141 17.0049 28.773 16.938C28.7045 16.8265 28.7091 16.7543 28.7182 16.8304L29.5457 16.7317L30.3731 16.6329C30.3569 16.4973 30.3198 16.2718 30.193 16.0654C30.1228 15.9512 29.9996 15.8014 29.7976 15.7031C29.5823 15.5984 29.36 15.5924 29.1748 15.6372L29.3709 16.4472ZM29.5457 16.7317L28.7182 16.8304L28.7561 17.148L29.5836 17.0493L30.411 16.9505L30.3731 16.6329L29.5457 16.7317Z" fill="#23553C"/>
<ellipse cx="11.7711" cy="16.421" rx="2.45602" ry="2.89474" transform="rotate(24.5927 11.7711 16.421)" fill="#23553C"/>
<path d="M13.5574 17.8584L14.1246 18.4689L13.5574 17.8584ZM13.3339 18.0661L12.7666 17.4557L13.3339 18.0661ZM12.8749 18.4358L12.4027 17.7492L12.8749 18.4358ZM12.4038 18.7598L12.8761 19.4464L12.4038 18.7598ZM11.8905 18.9268L11.9055 19.76L11.8905 18.9268ZM11.6126 18.9318L11.5976 18.0986L11.6126 18.9318ZM11.3347 18.9368L11.3197 18.1036L11.3347 18.9368ZM10.7977 18.833L11.1202 18.0646L10.7977 18.833ZM10.5386 18.7243L10.2162 19.4927L10.5386 18.7243ZM10.2794 18.6155L9.957 19.384L10.2794 18.6155ZM9.81109 18.2687L10.4371 17.7187L9.81109 18.2687ZM9.39273 17.7925L8.76668 18.3425L9.39273 17.7925ZM9.22343 17.2377L10.0502 17.3418L9.22343 17.2377ZM9.26333 16.9209L8.43652 16.8168L9.26333 16.9209ZM10.1763 14.7203L9.60094 14.1175L10.1763 14.7203ZM10.8846 14.2366L10.6813 13.4284L10.8846 14.2366ZM11.1582 14.1678L10.9549 13.3596L11.1582 14.1678ZM13.4412 14.4512L12.9502 15.1245L13.4412 14.4512ZM13.983 15.1304L13.2736 15.5677L13.983 15.1304ZM14.1421 15.3885L14.8515 14.9512L14.1421 15.3885ZM14.3077 15.9655L13.4745 15.9825L14.3077 15.9655ZM14.3208 16.6032L13.4876 16.6202L14.3208 16.6032ZM14.2466 17.0523L14.9549 17.4913L14.2466 17.0523ZM14.0851 17.3128L13.3768 16.8738L14.0851 17.3128ZM13.7809 17.6508L14.3481 18.2612L13.7809 17.6508ZM13.5574 17.8584L12.9901 17.248L12.7666 17.4557L13.3339 18.0661L13.9012 18.6766L14.1246 18.4689L13.5574 17.8584ZM13.3339 18.0661L12.7666 17.4557C12.6454 17.5683 12.524 17.6657 12.4027 17.7492L12.8749 18.4358L13.3471 19.1224C13.5398 18.9899 13.7244 18.8408 13.9012 18.6766L13.3339 18.0661ZM12.8749 18.4358L12.4027 17.7492L12.1671 17.9112L12.6394 18.5978L13.1116 19.2844L13.3471 19.1224L12.8749 18.4358ZM12.6394 18.5978L12.1671 17.9112L11.9316 18.0731L12.4038 18.7598L12.8761 19.4464L13.1116 19.2844L12.6394 18.5978ZM12.4038 18.7598L11.9316 18.0731C11.9052 18.0913 11.8923 18.0933 11.8755 18.0936L11.8905 18.9268L11.9055 19.76C12.2591 19.7536 12.5884 19.6442 12.8761 19.4464L12.4038 18.7598ZM11.8905 18.9268L11.8755 18.0936L11.5976 18.0986L11.6126 18.9318L11.6276 19.765L11.9055 19.76L11.8905 18.9268ZM11.6126 18.9318L11.5976 18.0986L11.3197 18.1036L11.3347 18.9368L11.3497 19.77L11.6276 19.765L11.6126 18.9318ZM11.3347 18.9368L11.3197 18.1036C11.2516 18.1048 11.1874 18.0928 11.1202 18.0646L10.7977 18.833L10.4753 19.6015C10.7536 19.7182 11.0474 19.7754 11.3497 19.77L11.3347 18.9368ZM10.7977 18.833L11.1202 18.0646L10.861 17.9559L10.5386 18.7243L10.2162 19.4927L10.4753 19.6015L10.7977 18.833ZM10.5386 18.7243L10.861 17.9559L10.6019 17.8471L10.2794 18.6155L9.957 19.384L10.2162 19.4927L10.5386 18.7243ZM10.2794 18.6155L10.6019 17.8471C10.5596 17.8294 10.504 17.7947 10.4371 17.7187L9.81109 18.2687L9.18505 18.8187C9.39714 19.0601 9.65369 19.2567 9.957 19.384L10.2794 18.6155ZM9.81109 18.2687L10.4371 17.7187L10.228 17.4806L9.60191 18.0306L8.97587 18.5806L9.18505 18.8187L9.81109 18.2687ZM9.60191 18.0306L10.228 17.4806L10.0188 17.2425L9.39273 17.7925L8.76668 18.3425L8.97587 18.5806L9.60191 18.0306ZM9.39273 17.7925L10.0188 17.2425C10.0186 17.2423 10.0224 17.2467 10.0277 17.2559C10.0331 17.2653 10.0386 17.2774 10.0429 17.2915C10.0523 17.3223 10.0501 17.3426 10.0502 17.3418L9.22343 17.2377L8.39663 17.1335C8.34047 17.5795 8.46844 18.003 8.76668 18.3425L9.39273 17.7925ZM9.22343 17.2377L10.0502 17.3418L10.0901 17.0251L9.26333 16.9209L8.43652 16.8168L8.39663 17.1335L9.22343 17.2377ZM9.26333 16.9209L10.0901 17.0251L10.13 16.7083L9.30322 16.6042L8.47642 16.5001L8.43652 16.8168L9.26333 16.9209ZM9.30322 16.6042L10.13 16.7083C10.1497 16.5518 10.1836 16.4067 10.2303 16.2718L9.44273 15.9994L8.65516 15.7271C8.56901 15.9762 8.50989 16.2343 8.47642 16.5001L9.30322 16.6042ZM9.44273 15.9994L10.2303 16.2718L10.3299 15.9837L9.54234 15.7114L8.75478 15.439L8.65516 15.7271L9.44273 15.9994ZM9.54234 15.7114L10.3299 15.9837L10.4295 15.6957L9.64196 15.4233L8.85439 15.151L8.75478 15.439L9.54234 15.7114ZM9.64196 15.4233L10.4295 15.6957C10.4532 15.6273 10.4869 15.5759 10.5343 15.5306L9.95894 14.9278L9.38357 14.325C9.14119 14.5563 8.96355 14.8353 8.85439 15.151L9.64196 15.4233ZM9.95894 14.9278L10.5343 15.5306L10.7517 15.3232L10.1763 14.7203L9.60094 14.1175L9.38357 14.325L9.95894 14.9278ZM10.1763 14.7203L10.7517 15.3232L10.969 15.1157L10.3937 14.5129L9.8183 13.9101L9.60094 14.1175L10.1763 14.7203ZM10.3937 14.5129L10.969 15.1157C11.0168 15.0701 11.0543 15.0532 11.0879 15.0448L10.8846 14.2366L10.6813 13.4284C10.3501 13.5118 10.0604 13.679 9.8183 13.9101L10.3937 14.5129ZM10.8846 14.2366L11.0879 15.0448L11.3615 14.9759L11.1582 14.1678L10.9549 13.3596L10.6813 13.4284L10.8846 14.2366ZM11.1582 14.1678L11.3615 14.9759L11.635 14.9071L11.4317 14.099L11.2284 13.2908L10.9549 13.3596L11.1582 14.1678ZM11.4317 14.099L11.635 14.9071C11.771 14.8729 11.9007 14.8527 12.0248 14.8448L11.9716 14.0131L11.9185 13.1815C11.6875 13.1962 11.4573 13.2332 11.2284 13.2908L11.4317 14.099ZM11.9716 14.0131L12.0248 14.8448L12.2911 14.8278L12.2379 13.9961L12.1848 13.1645L11.9185 13.1815L11.9716 14.0131ZM12.2379 13.9961L12.2911 14.8278L12.5574 14.8107L12.5042 13.9791L12.4511 13.1475L12.1848 13.1645L12.2379 13.9961ZM12.5042 13.9791L12.5574 14.8107C12.5523 14.8111 12.5387 14.8107 12.5218 14.8057C12.5054 14.8008 12.4988 14.7953 12.5031 14.7984L12.9941 14.1251L13.4851 13.4518C13.1851 13.233 12.8306 13.1232 12.4511 13.1475L12.5042 13.9791ZM12.9941 14.1251L12.5031 14.7984L12.7266 14.9614L13.2177 14.2881L13.7087 13.6148L13.4851 13.4518L12.9941 14.1251ZM13.2177 14.2881L12.7266 14.9614L12.9502 15.1245L13.4412 14.4512L13.9322 13.7779L13.7087 13.6148L13.2177 14.2881ZM13.4412 14.4512L12.9502 15.1245C13.0038 15.1635 13.0597 15.2207 13.1145 15.3096L13.8239 14.8723L14.5332 14.435C14.3759 14.1797 14.1767 13.9562 13.9322 13.7779L13.4412 14.4512ZM13.8239 14.8723L13.1145 15.3096L13.2736 15.5677L13.983 15.1304L14.6923 14.6931L14.5332 14.435L13.8239 14.8723ZM13.983 15.1304L13.2736 15.5677L13.4327 15.8258L14.1421 15.3885L14.8515 14.9512L14.6923 14.6931L13.983 15.1304ZM14.1421 15.3885L13.4327 15.8258C13.4567 15.8647 13.4731 15.9105 13.4745 15.9825L14.3077 15.9655L15.1409 15.9484C15.1336 15.5952 15.0396 15.2565 14.8515 14.9512L14.1421 15.3885ZM14.3077 15.9655L13.4745 15.9825L13.4811 16.3014L14.3142 16.2843L15.1474 16.2673L15.1409 15.9484L14.3077 15.9655ZM14.3142 16.2843L13.4811 16.3014L13.4876 16.6202L14.3208 16.6032L15.1539 16.5861L15.1474 16.2673L14.3142 16.2843ZM14.3208 16.6032L13.4876 16.6202C13.4883 16.6556 13.4877 16.6832 13.4866 16.704C13.4854 16.725 13.4838 16.7361 13.4833 16.739C13.4828 16.7423 13.4841 16.7323 13.4906 16.7127C13.497 16.6935 13.5109 16.6575 13.5382 16.6133L14.2466 17.0523L14.9549 17.4913C15.1455 17.1838 15.1587 16.819 15.1539 16.5861L14.3208 16.6032ZM14.2466 17.0523L13.5382 16.6133L13.4575 16.7435L14.1658 17.1826L14.8741 17.6216L14.9549 17.4913L14.2466 17.0523ZM14.1658 17.1826L13.4575 16.7435L13.3768 16.8738L14.0851 17.3128L14.7934 17.7519L14.8741 17.6216L14.1658 17.1826ZM14.0851 17.3128L13.3768 16.8738C13.3851 16.8603 13.3811 16.8696 13.3493 16.9049C13.3197 16.9378 13.2756 16.9827 13.2136 17.0403L13.7809 17.6508L14.3481 18.2612C14.509 18.1117 14.6785 17.9372 14.7934 17.7519L14.0851 17.3128ZM13.7809 17.6508L13.2136 17.0403L12.9901 17.248L13.5574 17.8584L14.1246 18.4689L14.3481 18.2612L13.7809 17.6508Z" fill="#23553C"/>
<circle cx="9.16671" cy="15.8333" r="0.833333" fill="#030303"/>
<circle cx="27.5" cy="15.8333" r="0.833333" fill="#030303"/>
<circle cx="22.5" cy="12.5" r="0.833333" fill="#030303"/>
<circle cx="22.5" cy="19.1667" r="0.833333" fill="#030303"/>
<circle cx="15.8333" cy="19.1667" r="0.833333" fill="#030303"/>
<ellipse cx="13.5259" cy="18.0794" rx="1.66667" ry="0.833333" transform="rotate(-22.7353 13.5259 18.0794)" fill="#FF8F0F"/>
<path d="M14.4972 17.9546L13.9337 17.3406L14.4972 17.9546ZM14.0777 18.25L13.6875 17.5137L14.0777 18.25ZM13.1341 18.6669L13.2962 19.4843L13.1341 18.6669ZM12.632 18.7664L12.7941 19.5839L12.632 18.7664ZM12.3656 18.6457L11.5356 18.7203L12.3656 18.6457ZM14.0568 17.5473L14.2235 18.3638L14.0568 17.5473ZM14.4942 17.4814L14.5615 18.312L14.4942 17.4814ZM14.8734 17.4506L14.8062 16.62L14.8734 17.4506ZM14.6858 17.7815L14.1223 17.1675L13.9337 17.3406L14.4972 17.9546L15.0607 18.5686L15.2493 18.3955L14.6858 17.7815ZM14.4972 17.9546L13.9337 17.3406C13.8614 17.4071 13.78 17.4647 13.6875 17.5137L14.0777 18.25L14.4679 18.9864C14.6833 18.8723 14.8815 18.7329 15.0607 18.5686L14.4972 17.9546ZM14.0777 18.25L13.6875 17.5137L13.4566 17.6361L13.8469 18.3724L14.2371 19.1087L14.4679 18.9864L14.0777 18.25ZM13.8469 18.3724L13.4566 17.6361L13.2258 17.7584L13.616 18.4947L14.0062 19.2311L14.2371 19.1087L13.8469 18.3724ZM13.616 18.4947L13.2258 17.7584C13.142 17.8028 13.0581 17.8324 12.972 17.8494L13.1341 18.6669L13.2962 19.4843C13.5448 19.435 13.7821 19.3498 14.0062 19.2311L13.616 18.4947ZM13.1341 18.6669L12.972 17.8494L12.7209 17.8992L12.883 18.7167L13.0451 19.5341L13.2962 19.4843L13.1341 18.6669ZM12.883 18.7167L12.7209 17.8992L12.4698 17.949L12.632 18.7664L12.7941 19.5839L13.0451 19.5341L12.883 18.7167ZM12.632 18.7664L12.4698 17.949C12.4702 17.949 12.4975 17.9433 12.5441 17.9446C12.5899 17.9458 12.6787 17.9545 12.7839 18.0022C12.8978 18.0538 13.0087 18.1418 13.0888 18.2664C13.165 18.3848 13.189 18.498 13.1955 18.571L12.3656 18.6457L11.5356 18.7203C11.5621 19.0151 11.7264 19.3527 12.0958 19.5201C12.3788 19.6484 12.6532 19.6118 12.7941 19.5839L12.632 18.7664ZM12.3656 18.6457L13.1955 18.571L13.1802 18.4005L12.3502 18.4751L11.5202 18.5498L11.5356 18.7203L12.3656 18.6457ZM12.3502 18.4751L13.1802 18.4005L13.1649 18.2299L12.3349 18.3046L11.5049 18.3792L11.5202 18.5498L12.3502 18.4751ZM12.3349 18.3046L13.1649 18.2299C13.1719 18.3083 13.1642 18.3948 13.1359 18.4816C13.1079 18.5674 13.0659 18.6347 13.0253 18.6834C12.9508 18.7727 12.8843 18.7965 12.9021 18.7887L12.568 18.0253L12.2339 17.2619C11.9639 17.38 11.4451 17.7143 11.5049 18.3792L12.3349 18.3046ZM12.568 18.0253L12.9021 18.7887L13.1505 18.68L12.8164 17.9166L12.4823 17.1531L12.2339 17.2619L12.568 18.0253ZM12.8164 17.9166L13.1505 18.68L13.3989 18.5713L13.0648 17.8078L12.7307 17.0444L12.4823 17.1531L12.8164 17.9166ZM13.0648 17.8078L13.3989 18.5713C13.5146 18.5206 13.6241 18.4862 13.7278 18.465L13.5611 17.6485L13.3944 16.832C13.1677 16.8783 12.9463 16.9501 12.7307 17.0444L13.0648 17.8078ZM13.5611 17.6485L13.7278 18.465L13.9757 18.4144L13.809 17.5979L13.6423 16.7814L13.3944 16.832L13.5611 17.6485ZM13.809 17.5979L13.9757 18.4144L14.2235 18.3638L14.0568 17.5473L13.8901 16.7308L13.6423 16.7814L13.809 17.5979ZM14.0568 17.5473L14.2235 18.3638C14.3659 18.3347 14.4773 18.3188 14.5615 18.312L14.4942 17.4814L14.427 16.6507C14.2584 16.6644 14.0782 16.6924 13.8901 16.7308L14.0568 17.5473ZM14.4942 17.4814L14.5615 18.312L14.7511 18.2966L14.6838 17.466L14.6166 16.6354L14.427 16.6507L14.4942 17.4814ZM14.6838 17.466L14.7511 18.2966L14.9407 18.2813L14.8734 17.4506L14.8062 16.62L14.6166 16.6354L14.6838 17.466ZM14.8734 17.4506L14.9407 18.2813C14.93 18.2821 14.9038 18.2838 14.867 18.2817C14.8335 18.2798 14.765 18.2734 14.6805 18.2451C14.5969 18.2172 14.4554 18.1536 14.3317 18.0103C14.1955 17.8525 14.1362 17.6623 14.1352 17.4876C14.1334 17.211 14.2749 17.0384 14.2773 17.0351C14.3059 16.9968 14.3247 16.9818 14.3109 16.9944L14.8744 17.6084L15.4379 18.2223C15.487 18.1773 15.5529 18.1124 15.6128 18.0322C15.6466 17.9869 15.8037 17.7801 15.8018 17.4772C15.8006 17.2894 15.7373 17.0879 15.5932 16.921C15.4615 16.7685 15.3081 16.6976 15.2087 16.6644C15.0288 16.6042 14.8673 16.6151 14.8062 16.62L14.8734 17.4506ZM14.8744 17.6084L14.3109 16.9944L14.1223 17.1675L14.6858 17.7815L15.2493 18.3955L15.4379 18.2223L14.8744 17.6084Z" fill="#FF8F0F"/>
<ellipse cx="11.8393" cy="12.9591" rx="1.66667" ry="0.833333" transform="rotate(17.3528 11.8393 12.9591)" fill="#FF8F0F"/>
<path d="M11.3797 13.9774L11.5662 14.7896L11.3797 13.9774ZM10.8462 13.7685L11.537 13.3023L10.8462 13.7685ZM10.414 12.7087L9.74665 12.2096L10.414 12.7087ZM11.6368 12.4925L11.2703 13.2409L11.6368 12.4925ZM13.3131 12.734L14.1357 12.6006L13.3131 12.734ZM13.3521 12.9747L12.5295 13.1081L13.3521 12.9747ZM13.3911 13.2155L12.5685 13.3488L13.3911 13.2155ZM13.1725 13.528L12.9488 12.7252L13.1725 13.528ZM12.9148 13.5998L12.6912 12.797L12.4335 12.8688L12.6571 13.6716L12.8807 14.4743L13.1384 14.4025L12.9148 13.5998ZM12.6571 13.6716L12.4335 12.8688C12.2771 12.9124 12.0907 12.9592 11.8731 13.0091L12.0595 13.8214L12.246 14.6336C12.4815 14.5795 12.6936 14.5264 12.8807 14.4743L12.6571 13.6716ZM12.0595 13.8214L11.8731 13.0091L11.5332 13.0872L11.7196 13.8994L11.9061 14.7116L12.246 14.6336L12.0595 13.8214ZM11.7196 13.8994L11.5332 13.0872L11.1933 13.1652L11.3797 13.9774L11.5662 14.7896L11.9061 14.7116L11.7196 13.8994ZM11.3797 13.9774L11.1933 13.1652C11.2074 13.162 11.282 13.1497 11.3803 13.1882C11.4791 13.2269 11.527 13.2875 11.537 13.3023L10.8462 13.7685L10.1554 14.2346C10.2945 14.4407 10.4959 14.6318 10.7725 14.7401C11.0487 14.8483 11.3255 14.8449 11.5662 14.7896L11.3797 13.9774ZM10.8462 13.7685L11.537 13.3023L11.3433 13.0154L10.6526 13.4815L9.96178 13.9476L10.1554 14.2346L10.8462 13.7685ZM10.6526 13.4815L11.3433 13.0154L11.1497 12.7284L10.4589 13.1945L9.76814 13.6607L9.96178 13.9476L10.6526 13.4815ZM10.4589 13.1945L11.1497 12.7284C11.1326 12.703 11.171 12.7482 11.1807 12.8529C11.1858 12.9088 11.1819 12.9742 11.1623 13.0427C11.1428 13.1109 11.1123 13.1664 11.0813 13.2078L10.414 12.7087L9.74665 12.2096C9.57596 12.4379 9.49422 12.7159 9.52107 13.0063C9.54573 13.273 9.65618 13.4947 9.76814 13.6607L10.4589 13.1945ZM10.414 12.7087L11.0813 13.2078L11.23 13.009L10.5627 12.5099L9.89536 12.0108L9.74665 12.2096L10.414 12.7087ZM10.5627 12.5099L11.23 13.009L11.3788 12.8101L10.7114 12.311L10.0441 11.8119L9.89536 12.0108L10.5627 12.5099ZM10.7114 12.311L11.3788 12.8101C11.3283 12.8776 11.2138 12.9822 11.0328 13.0142C10.8704 13.0429 10.7641 12.9931 10.7525 12.9874L11.119 12.239L11.4855 11.4906C11.3013 11.4004 11.0409 11.3203 10.7426 11.373C10.4257 11.429 10.1937 11.6119 10.0441 11.8119L10.7114 12.311ZM11.119 12.239L10.7525 12.9874L11.0114 13.1142L11.3779 12.3657L11.7444 11.6173L11.4855 11.4906L11.119 12.239ZM11.3779 12.3657L11.0114 13.1142L11.2703 13.2409L11.6368 12.4925L12.0033 11.7441L11.7444 11.6173L11.3779 12.3657ZM11.6368 12.4925L11.2703 13.2409C11.6053 13.405 11.965 13.4498 12.3162 13.4176L12.2403 12.5878L12.1643 11.7579C12.0561 11.7678 12.0134 11.7491 12.0033 11.7441L11.6368 12.4925ZM12.2403 12.5878L12.3162 13.4176L12.6608 13.3861L12.5849 12.5563L12.5089 11.7264L12.1643 11.7579L12.2403 12.5878ZM12.5849 12.5563L12.6608 13.3861L13.0054 13.3546L12.9294 12.5247L12.8535 11.6949L12.5089 11.7264L12.5849 12.5563ZM12.9294 12.5247L13.0054 13.3546C13.0439 13.3511 12.9418 13.3709 12.7986 13.2929C12.7187 13.2493 12.6411 13.1827 12.5816 13.0937C12.5239 13.0073 12.4998 12.9248 12.4905 12.8673L13.3131 12.734L14.1357 12.6006C14.0869 12.3 13.915 12.0033 13.5967 11.8297C13.3256 11.6819 13.0447 11.6774 12.8535 11.6949L12.9294 12.5247ZM13.3131 12.734L12.4905 12.8673L12.5295 13.1081L13.3521 12.9747L14.1747 12.8414L14.1357 12.6006L13.3131 12.734ZM13.3521 12.9747L12.5295 13.1081L12.5685 13.3488L13.3911 13.2155L14.2137 13.0821L14.1747 12.8414L13.3521 12.9747ZM13.3911 13.2155L12.5685 13.3488C12.5569 13.2773 12.5532 13.1077 12.6732 12.9363C12.7847 12.7769 12.9225 12.7326 12.9488 12.7252L13.1725 13.528L13.3961 14.3308C13.5942 14.2756 13.8544 14.1552 14.0388 13.8917C14.2316 13.6161 14.2513 13.3142 14.2137 13.0821L13.3911 13.2155ZM13.1725 13.528L12.9488 12.7252L12.6912 12.797L12.9148 13.5998L13.1384 14.4025L13.3961 14.3308L13.1725 13.528Z" fill="#FF8F0F"/>
<ellipse cx="25.1933" cy="16.555" rx="1.66667" ry="0.833333" transform="rotate(30 25.1933 16.555)" fill="#FF8F0F"/>
<path d="M26.1209 17.3439L26.1925 16.5136L26.1209 17.3439ZM25.863 17.3216L25.7914 18.1519L25.863 17.3216ZM24.7991 17.0522L25.0434 16.2555L24.7991 17.0522ZM24.1072 16.5628L23.5295 17.1634L24.1072 16.5628ZM26.0098 16.2989L26.1983 15.4872L26.0098 16.2989ZM26.6399 17.1531L25.8066 17.1419L26.6399 17.1531ZM26.1209 17.3439L26.1925 16.5136L25.9346 16.4914L25.863 17.3216L25.7914 18.1519L26.0493 18.1741L26.1209 17.3439ZM25.863 17.3216L25.9346 16.4914C25.826 16.482 25.7084 16.4594 25.5807 16.4203L25.3364 17.217L25.0921 18.0137C25.3227 18.0844 25.5561 18.1316 25.7914 18.1519L25.863 17.3216ZM25.3364 17.217L25.5807 16.4203L25.3121 16.3379L25.0678 17.1346L24.8235 17.9313L25.0921 18.0137L25.3364 17.217ZM25.0678 17.1346L25.3121 16.3379L25.0434 16.2555L24.7991 17.0522L24.5548 17.8489L24.8235 17.9313L25.0678 17.1346ZM24.7991 17.0522L25.0434 16.2555C24.9949 16.2406 24.9477 16.2149 24.8965 16.1657L24.3188 16.7663L23.7411 17.3669C23.9721 17.589 24.2451 17.754 24.5548 17.8489L24.7991 17.0522ZM24.3188 16.7663L24.8965 16.1657L24.6849 15.9622L24.1072 16.5628L23.5295 17.1634L23.7411 17.3669L24.3188 16.7663ZM24.1072 16.5628L24.6849 15.9622L24.4733 15.7586L23.8956 16.3593L23.3179 16.9599L23.5295 17.1634L24.1072 16.5628ZM23.8956 16.3593L24.4733 15.7586C24.4797 15.7649 24.6 15.8804 24.6149 16.1047C24.6312 16.3524 24.5069 16.5089 24.4621 16.5542L23.8698 15.968L23.2774 15.3819C23.1088 15.5522 22.9268 15.8365 22.9518 16.2146C22.9753 16.5693 23.1704 16.818 23.3179 16.9599L23.8956 16.3593ZM23.8698 15.968L24.4621 16.5542L24.6478 16.3665L24.0555 15.7803L23.4632 15.1941L23.2774 15.3819L23.8698 15.968ZM24.0555 15.7803L24.6478 16.3665L24.8336 16.1788L24.2413 15.5926L23.6489 15.0064L23.4632 15.1941L24.0555 15.7803ZM24.2413 15.5926L24.8336 16.1788C24.7813 16.2316 24.6464 16.3311 24.4422 16.3317C24.2583 16.3323 24.1539 16.2512 24.1461 16.245L24.6628 15.5913L25.1796 14.9375C25.0146 14.8071 24.7613 14.664 24.4369 14.6651C24.0921 14.6662 23.8251 14.8284 23.6489 15.0064L24.2413 15.5926ZM24.6628 15.5913L24.1461 16.245L24.3819 16.4314L24.8986 15.7776L25.4153 15.1238L25.1796 14.9375L24.6628 15.5913ZM24.8986 15.7776L24.3819 16.4314L24.6176 16.6178L25.1344 15.964L25.6511 15.3102L25.4153 15.1238L24.8986 15.7776ZM25.1344 15.964L24.6176 16.6178C24.8799 16.825 25.1797 16.9616 25.5014 17.0364L25.69 16.2246L25.8785 15.4129C25.7738 15.3886 25.7033 15.3514 25.6511 15.3102L25.1344 15.964ZM25.69 16.2246L25.5014 17.0364L25.8212 17.1106L26.0098 16.2989L26.1983 15.4872L25.8785 15.4129L25.69 16.2246ZM26.0098 16.2989L25.8212 17.1106L26.1411 17.1849L26.3296 16.3732L26.5181 15.5615L26.1983 15.4872L26.0098 16.2989ZM26.3296 16.3732L26.1411 17.1849C26.1661 17.1907 26.083 17.1783 25.9862 17.0837C25.9339 17.0325 25.8858 16.9649 25.8533 16.8832C25.8213 16.8026 25.8122 16.7283 25.813 16.6715L26.6462 16.6827L27.4795 16.694C27.4834 16.4033 27.3782 16.1137 27.1512 15.8918C26.9488 15.694 26.7063 15.6052 26.5181 15.5615L26.3296 16.3732ZM26.6462 16.6827L25.813 16.6715L25.8098 16.9067L26.6431 16.9179L27.4763 16.9292L27.4795 16.694L26.6462 16.6827ZM26.6431 16.9179L25.8098 16.9067L25.8066 17.1419L26.6399 17.1531L27.4731 17.1644L27.4763 16.9292L26.6431 16.9179ZM26.6399 17.1531L25.8066 17.1419C25.8075 17.076 25.8318 16.8532 26.0463 16.6782C26.2417 16.5189 26.4334 16.5344 26.4504 16.5359L26.3788 17.3661L26.3072 18.1964C26.4962 18.2127 26.8174 18.2001 27.0998 17.9697C27.4013 17.7238 27.4701 17.3871 27.4731 17.1644L26.6399 17.1531ZM26.3788 17.3661L26.4504 16.5359L26.1925 16.5136L26.1209 17.3439L26.0493 18.1741L26.3072 18.1964L26.3788 17.3661Z" fill="#FF8F0F"/>
<ellipse cx="28.4922" cy="12.9029" rx="1.66667" ry="0.833333" transform="rotate(-15 28.4922 12.9029)" fill="#FF8F0F"/>
<path d="M29.8556 13.0585L30.624 13.3811L29.8556 13.0585ZM29.7324 13.3519L28.964 13.0293L29.7324 13.3519ZM29.0046 13.9395L28.6401 13.1901L29.0046 13.9395ZM28.7023 14.0865L29.0668 14.8359L28.7023 14.0865ZM28.0321 14.1938L27.9424 15.0223L28.0321 14.1938ZM27.0604 13.3827L26.2419 13.2261L27.0604 13.3827ZM27.1266 13.0369L27.9451 13.1934L27.1266 13.0369ZM29.6234 11.8828L30.27 11.3571L29.6234 11.8828ZM29.9425 12.2753L29.2959 12.801L29.9425 12.2753ZM29.8556 13.0585L29.0873 12.7359L28.964 13.0293L29.7324 13.3519L30.5008 13.6745L30.624 13.3811L29.8556 13.0585ZM29.7324 13.3519L28.964 13.0293C28.9623 13.0334 28.9615 13.0344 28.9622 13.0334C28.9628 13.0324 28.9639 13.031 28.965 13.0299C28.9661 13.0288 28.9658 13.0293 28.963 13.0313C28.9601 13.0334 28.9537 13.0376 28.9424 13.0431L29.3069 13.7925L29.6714 14.5418C30.0438 14.3607 30.3356 14.0679 30.5008 13.6745L29.7324 13.3519ZM29.3069 13.7925L28.9424 13.0431L28.6401 13.1901L29.0046 13.9395L29.3691 14.6889L29.6714 14.5418L29.3069 13.7925ZM29.0046 13.9395L28.6401 13.1901L28.3378 13.3371L28.7023 14.0865L29.0668 14.8359L29.3691 14.6889L29.0046 13.9395ZM28.7023 14.0865L28.3378 13.3371C28.2913 13.3598 28.2275 13.3767 28.1217 13.3653L28.0321 14.1938L27.9424 15.0223C28.3273 15.0639 28.7103 15.0093 29.0668 14.8359L28.7023 14.0865ZM28.0321 14.1938L28.1217 13.3653L27.7537 13.3255L27.6641 14.154L27.5745 14.9825L27.9424 15.0223L28.0321 14.1938ZM27.6641 14.154L27.7537 13.3255L27.3857 13.2857L27.2961 14.1142L27.2065 14.9427L27.5745 14.9825L27.6641 14.154ZM27.2961 14.1142L27.3857 13.2857C27.3865 13.2857 27.4238 13.2895 27.4801 13.3147C27.5405 13.3418 27.622 13.3937 27.6929 13.4842C27.8466 13.6806 27.8156 13.8703 27.8128 13.8851L26.9943 13.7285L26.1758 13.572C26.1289 13.8173 26.1261 14.1865 26.3804 14.5115C26.6266 14.826 26.9734 14.9174 27.2065 14.9427L27.2961 14.1142ZM26.9943 13.7285L27.8128 13.8851L27.8789 13.5393L27.0604 13.3827L26.2419 13.2261L26.1758 13.572L26.9943 13.7285ZM27.0604 13.3827L27.8789 13.5393L27.9451 13.1934L27.1266 13.0369L26.3081 12.8803L26.2419 13.2261L27.0604 13.3827ZM27.1266 13.0369L27.9451 13.1934C27.9488 13.1739 27.9448 13.2152 27.8976 13.2746C27.8442 13.342 27.7726 13.3854 27.7107 13.4043L27.4676 12.6072L27.2245 11.8101C26.6737 11.9781 26.3947 12.4276 26.3081 12.8803L27.1266 13.0369ZM27.4676 12.6072L27.7107 13.4043L27.9856 13.3205L27.7425 12.5234L27.4994 11.7263L27.2245 11.8101L27.4676 12.6072ZM27.7425 12.5234L27.9856 13.3205L28.2605 13.2366L28.0174 12.4396L27.7743 11.6425L27.4994 11.7263L27.7425 12.5234ZM28.0174 12.4396L28.2605 13.2366C28.5122 13.1599 28.7584 13.0492 28.9985 12.9121L28.5852 12.1884L28.1719 11.4648C28.0214 11.5508 27.8891 11.6075 27.7743 11.6425L28.0174 12.4396ZM28.5852 12.1884L28.9985 12.9121L29.2913 12.7448L28.878 12.0212L28.4647 11.2975L28.1719 11.4648L28.5852 12.1884ZM28.878 12.0212L29.2913 12.7448L29.5842 12.5775L29.1709 11.8539L28.7576 11.1302L28.4647 11.2975L28.878 12.0212ZM29.1709 11.8539L29.5842 12.5775C29.6052 12.5655 29.5259 12.6186 29.3773 12.6091C29.2976 12.604 29.2138 12.5814 29.1358 12.5388C29.0598 12.4973 29.0083 12.4472 28.9768 12.4085L29.6234 11.8828L30.27 11.3571C30.089 11.1346 29.819 10.9673 29.4837 10.9458C29.1842 10.9267 28.9319 11.0307 28.7576 11.1302L29.1709 11.8539ZM29.6234 11.8828L28.9768 12.4085L29.1364 12.6048L29.7829 12.079L30.4295 11.5533L30.27 11.3571L29.6234 11.8828ZM29.7829 12.079L29.1364 12.6048L29.2959 12.801L29.9425 12.2753L30.5891 11.7495L30.4295 11.5533L29.7829 12.079ZM29.9425 12.2753L29.2959 12.801C29.2451 12.7385 29.2073 12.6511 29.2003 12.5575C29.1942 12.4748 29.2152 12.4311 29.2105 12.4424L29.9788 12.765L30.7472 13.0876C30.9121 12.6948 30.9422 12.1839 30.5891 11.7495L29.9425 12.2753ZM29.9788 12.765L29.2105 12.4424L29.0873 12.7359L29.8556 13.0585L30.624 13.3811L30.7472 13.0876L29.9788 12.765Z" fill="#FF8F0F"/>
<ellipse cx="20" cy="15" rx="3.33333" ry="1.66667" fill="#B78561"/>
<path d="M22.848 15.7694L23.5528 16.214L22.848 15.7694ZM21.8431 16.4847L22.2415 17.2166L21.8431 16.4847ZM21.2391 16.5432L21.4728 15.7434L21.2391 16.5432ZM20.9161 16.4489L20.6824 17.2488L20.9161 16.4489ZM19.3991 16.1698L19.3131 16.9987L19.3991 16.1698ZM18.4641 16.2249L18.3549 15.3987L18.4641 16.2249ZM18.1417 16.2675L18.251 17.0936L18.1417 16.2675ZM17.6331 16.0776L18.2835 15.5565L17.6331 16.0776ZM16.8733 13.9696L16.6186 13.1761L16.8733 13.9696ZM19.4751 13.524L19.2696 12.7164L19.4751 13.524ZM19.7807 13.4462L19.5753 12.6386L19.7807 13.4462ZM21.9671 13.4801L22.3846 12.759L21.9671 13.4801ZM22.5331 13.8079L22.1155 14.529L22.5331 13.8079ZM22.9454 14.2288L23.6899 13.8544L22.9454 14.2288ZM23.204 14.743L22.4595 15.1174L23.204 14.743ZM23.1715 15.2565L22.4667 14.8119L23.1715 15.2565ZM23.0098 15.5129L22.3049 15.0684L22.1432 15.3248L22.848 15.7694L23.5528 16.214L23.7146 15.9575L23.0098 15.5129ZM22.848 15.7694L22.1432 15.3248C22.1155 15.3687 22.0763 15.409 22.0069 15.4468L22.4052 16.1788L22.8036 16.9107C23.1088 16.7446 23.3648 16.512 23.5528 16.214L22.848 15.7694ZM22.4052 16.1788L22.0069 15.4468L21.7258 15.5998L22.1242 16.3317L22.5225 17.0637L22.8036 16.9107L22.4052 16.1788ZM22.1242 16.3317L21.7258 15.5998L21.4448 15.7527L21.8431 16.4847L22.2415 17.2166L22.5225 17.0637L22.1242 16.3317ZM21.8431 16.4847L21.4448 15.7527C21.4434 15.7535 21.4457 15.7521 21.4514 15.7503C21.4572 15.7485 21.4641 15.747 21.4712 15.7463C21.4783 15.7457 21.4829 15.746 21.4843 15.7461C21.4855 15.7463 21.4819 15.746 21.4728 15.7434L21.2391 16.5432L21.0054 17.3431C21.4199 17.4643 21.8499 17.4298 22.2415 17.2166L21.8431 16.4847ZM21.2391 16.5432L21.4728 15.7434L21.1498 15.649L20.9161 16.4489L20.6824 17.2488L21.0054 17.3431L21.2391 16.5432ZM20.9161 16.4489L21.1498 15.649L20.8268 15.5546L20.5931 16.3545L20.3593 17.1544L20.6824 17.2488L20.9161 16.4489ZM20.5931 16.3545L20.8268 15.5546C20.5703 15.4797 20.3162 15.4271 20.0657 15.4011L19.9797 16.23L19.8938 17.0589C20.0304 17.073 20.1851 17.1035 20.3593 17.1544L20.5931 16.3545ZM19.9797 16.23L20.0657 15.4011L19.7754 15.371L19.6894 16.1999L19.6034 17.0288L19.8938 17.0589L19.9797 16.23ZM19.6894 16.1999L19.7754 15.371L19.485 15.3409L19.3991 16.1698L19.3131 16.9987L19.6034 17.0288L19.6894 16.1999ZM19.3991 16.1698L19.485 15.3409C19.2197 15.3134 18.9496 15.3201 18.6772 15.3561L18.7864 16.1823L18.8956 17.0084C19.053 16.9876 19.1914 16.986 19.3131 16.9987L19.3991 16.1698ZM18.7864 16.1823L18.6772 15.3561L18.3549 15.3987L18.4641 16.2249L18.5733 17.051L18.8956 17.0084L18.7864 16.1823ZM18.4641 16.2249L18.3549 15.3987L18.0325 15.4414L18.1417 16.2675L18.251 17.0936L18.5733 17.051L18.4641 16.2249ZM18.1417 16.2675L18.0325 15.4414C18.0338 15.4412 18.0789 15.436 18.1449 15.4606C18.2145 15.4866 18.261 15.5285 18.2835 15.5565L17.6331 16.0776L16.9827 16.5986C17.3085 17.0052 17.7787 17.1561 18.251 17.0936L18.1417 16.2675ZM17.6331 16.0776L18.2835 15.5565L18.0972 15.324L17.4468 15.845L16.7964 16.3661L16.9827 16.5986L17.6331 16.0776ZM17.4468 15.845L18.0972 15.324L17.9108 15.0914L17.2605 15.6125L16.6101 16.1335L16.7964 16.3661L17.4468 15.845ZM17.2605 15.6125L17.9108 15.0914C17.8428 15.0065 17.7723 14.8901 17.7059 14.7322L16.9376 15.055L16.1694 15.3779C16.2851 15.6531 16.4298 15.9084 16.6101 16.1335L17.2605 15.6125ZM16.9376 15.055L17.7059 14.7322L17.5693 14.4073L16.8011 14.7302L16.0329 15.0531L16.1694 15.3779L16.9376 15.055ZM16.8011 14.7302L17.5693 14.4073L17.4328 14.0824L16.6645 14.4053L15.8963 14.7282L16.0329 15.0531L16.8011 14.7302ZM16.6645 14.4053L17.4328 14.0824C17.4364 14.0911 17.508 14.2686 17.4 14.494C17.3494 14.5996 17.279 14.6698 17.2225 14.7111C17.1699 14.7496 17.1312 14.762 17.128 14.763L16.8733 13.9696L16.6186 13.1761C16.3943 13.2481 16.0712 13.4102 15.8969 13.7738C15.7193 14.1445 15.8016 14.5029 15.8963 14.7282L16.6645 14.4053ZM16.8733 13.9696L17.128 14.763L17.4733 14.6522L17.2187 13.8587L16.964 13.0652L16.6186 13.1761L16.8733 13.9696ZM17.2187 13.8587L17.4733 14.6522L17.8187 14.5413L17.564 13.7479L17.3093 12.9544L16.964 13.0652L17.2187 13.8587ZM17.564 13.7479L17.8187 14.5413C17.9851 14.4879 18.127 14.4646 18.2476 14.4612L18.2243 13.6282L18.201 12.7952C17.9016 12.8036 17.6033 12.86 17.3093 12.9544L17.564 13.7479ZM18.2243 13.6282L18.2476 14.4612L18.5627 14.4524L18.5393 13.6194L18.516 12.7864L18.201 12.7952L18.2243 13.6282ZM18.5393 13.6194L18.5627 14.4524L18.8777 14.4436L18.8544 13.6105L18.831 12.7775L18.516 12.7864L18.5393 13.6194ZM18.8544 13.6105L18.8777 14.4436C19.1492 14.436 19.4172 14.3986 19.6805 14.3316L19.4751 13.524L19.2696 12.7164C19.1254 12.7531 18.9795 12.7734 18.831 12.7775L18.8544 13.6105ZM19.4751 13.524L19.6805 14.3316L19.9862 14.2538L19.7807 13.4462L19.5753 12.6386L19.2696 12.7164L19.4751 13.524ZM19.7807 13.4462L19.9862 14.2538L20.2919 14.176L20.0864 13.3684L19.8809 12.5608L19.5753 12.6386L19.7807 13.4462ZM20.0864 13.3684L20.2919 14.176C20.4214 14.1431 20.5562 14.1274 20.6986 14.1302L20.7151 13.2971L20.7315 12.4639C20.4432 12.4582 20.159 12.4901 19.8809 12.5608L20.0864 13.3684ZM20.7151 13.2971L20.6986 14.1302L21.0216 14.1366L21.038 13.3034L21.0545 12.4703L20.7315 12.4639L20.7151 13.2971ZM21.038 13.3034L21.0216 14.1366L21.3446 14.143L21.361 13.3098L21.3775 12.4767L21.0545 12.4703L21.038 13.3034ZM21.361 13.3098L21.3446 14.143C21.417 14.1444 21.4813 14.1618 21.5495 14.2013L21.9671 13.4801L22.3846 12.759C22.0755 12.5799 21.7357 12.4838 21.3775 12.4767L21.361 13.3098ZM21.9671 13.4801L21.5495 14.2013L21.8325 14.3652L22.2501 13.644L22.6677 12.9228L22.3846 12.759L21.9671 13.4801ZM22.2501 13.644L21.8325 14.3652L22.1155 14.529L22.5331 13.8079L22.9507 13.0867L22.6677 12.9228L22.2501 13.644ZM22.5331 13.8079L22.1155 14.529C22.1835 14.5684 22.1972 14.5959 22.2009 14.6033L22.9454 14.2288L23.6899 13.8544C23.5212 13.519 23.26 13.2658 22.9507 13.0867L22.5331 13.8079ZM22.9454 14.2288L22.2009 14.6033L22.3302 14.8603L23.0747 14.4859L23.8192 14.1115L23.6899 13.8544L22.9454 14.2288ZM23.0747 14.4859L22.3302 14.8603L22.4595 15.1174L23.204 14.743L23.9485 14.3685L23.8192 14.1115L23.0747 14.4859ZM23.204 14.743L22.4595 15.1174C22.4442 15.087 22.4239 15.0262 22.4289 14.9473C22.4337 14.8707 22.4595 14.8233 22.4667 14.8119L23.1715 15.2565L23.8764 15.7011C24.1299 15.2991 24.1743 14.8176 23.9485 14.3685L23.204 14.743ZM23.1715 15.2565L22.4667 14.8119L22.3049 15.0684L23.0098 15.5129L23.7146 15.9575L23.8764 15.7011L23.1715 15.2565Z" fill="#B78561"/>
</g>
</g>
<defs>
<radialGradient id="paint0_radial_434_3414" cx="0" cy="0" r="1" gradientUnits="userSpaceOnUse" gradientTransform="translate(20 15.8333) rotate(90) scale(5.83333 11.8961)">
<stop stop-color="#103D01"/>
<stop offset="0.0432692" stop-color="#355C23"/>
<stop offset="1" stop-color="#E4E7AA"/>
</radialGradient>
<clipPath id="clip0_434_3414">
<rect width="40" height="40" fill="white"/>
</clipPath>
<clipPath id="clip1_434_3414">
<rect width="33.3333" height="26.6667" fill="white" transform="translate(3.33337 6.66663)"/>
</clipPath>
</defs>
</svg>
