
<svg width="24" height="24" viewBox="0 0 24 24" fill="none" xmlns="http://www.w3.org/2000/svg">
<g clip-path="url(#clip0_7293_157)">
<circle cx="12" cy="12" r="3.15" stroke="#74808E" stroke-width="1.7"/>
<path d="M17 7C16 6 17 4.5 17.5 4L14 2.5C14 3.5 13.5 5 12 5C10.5 5 10 3.5 10 2.5L6.5 4C7 4.5 8.5 5.5 7.5 7C6.5 8.5 4.5 7.5 4 7L2.5 10C3 10 5 10.5 5 12C5 13.5 3 14 2.5 14L4 17.5C4.5 17 6 16 7 17C8 18 7 19.5 6.5 20L10 21.5C10 21 10.5 19 12 19C13.5 19 14 21 14 21.5L17.5 20C17 19.5 16 18 17 17C18 16 19.5 17 20 17.5L21.5 14C21 14 19 13.5 19 12C19 10.5 21 10 21.5 10L20 6.5C19.5 7 18 8 17 7Z" stroke="#74808E" stroke-width="1.7" stroke-linejoin="bevel"/>
</g>
<defs>
<clipPath id="clip0_7293_157">
<rect width="24" height="24" fill="white"/>
</clipPath>
</defs>
</svg>
