<svg width="16" height="16" viewBox="0 0 16 16" fill="none" xmlns="http://www.w3.org/2000/svg">
<circle cx="7.99967" cy="7.99967" r="6.66667" fill="#11BB69"/>
<path d="M8.36764 0.691081C8.70864 0.686233 9.04814 0.715685 9.38587 0.779622L9.84186 0.863737L10.2934 0.952279C10.7028 1.03014 11.0638 1.21705 11.3648 1.50566L11.6968 1.82441L12.0333 2.14316C12.2531 2.35393 12.468 2.55894 12.6796 2.7541L13.0028 3.05072L13.3216 3.34733C13.5591 3.56643 13.7803 3.80753 13.9856 4.06895L14.2689 4.42754L14.5479 4.78171C14.7976 5.09964 14.9547 5.46566 15.0083 5.86634L15.0658 6.3179L15.1278 6.76947C15.1675 7.06805 15.1948 7.29712 15.2031 7.43796L15.2208 7.79212C15.2309 7.96799 15.2095 8.22162 15.1721 8.51374L15.057 9.39915C15.0099 9.76588 14.8967 10.1139 14.7161 10.4351L14.4992 10.8247L14.2822 11.2098C14.1356 11.4702 13.9833 11.7292 13.8307 11.989L13.3791 12.7593C13.1951 13.0724 12.96 13.3467 12.6796 13.5827L12.3299 13.8794L11.9801 14.1716C11.6873 14.4178 11.3557 14.596 10.9885 14.7028L10.1119 14.9596C9.78328 15.055 9.44918 15.1158 9.11139 15.1411L8.66426 15.1721L8.21712 15.2075C7.84069 15.2356 7.47279 15.1846 7.11921 15.057L6.69863 14.9064L6.28249 14.7559C6.00871 14.6569 5.73517 14.5593 5.46348 14.4682L5.05176 14.3309L4.63561 14.1937C4.28081 14.0746 3.96431 13.8807 3.69264 13.6226L3.37832 13.3216L3.05957 13.0205C2.84156 12.8134 2.62418 12.597 2.40879 12.3742L2.09447 12.051L1.78014 11.7234C1.47852 11.4113 1.3059 11.0272 1.27103 10.5945L1.23118 10.1429L1.19577 9.68691C1.17061 9.37452 1.15344 9.07051 1.14707 8.77494L1.13822 8.34994L1.12936 7.92051C1.12239 7.59183 1.15594 7.26635 1.22676 6.94655L1.31973 6.53483L1.40827 6.11869C1.4765 5.81087 1.57378 5.51007 1.69603 5.21556L1.85983 4.81712L2.02806 4.41869C2.14719 4.13196 2.28382 3.8425 2.44421 3.5554L2.89577 2.74967C3.10299 2.37874 3.40722 2.0966 3.79004 1.91296L4.20176 1.71374L4.6179 1.51452C4.91782 1.37065 5.22529 1.24641 5.53874 1.14707L6.40645 0.872591C6.74708 0.764878 7.09772 0.709595 7.45566 0.704362L7.91165 0.695508L8.36764 0.691081ZM7.92494 1.82884L7.47337 1.8377C7.22515 1.84132 6.98253 1.87836 6.74733 1.9528L6.31348 2.09004L5.88405 2.22728C5.62185 2.31032 5.36222 2.41148 5.10931 2.53275L4.27702 2.93119C4.10663 3.01308 3.98117 3.13527 3.88744 3.30306L3.43587 4.10879C3.29527 4.36047 3.174 4.60911 3.07285 4.85254L2.90905 5.25098L2.74082 5.64941C2.64346 5.88397 2.5687 6.12431 2.51504 6.3666L2.42207 6.77832L2.33353 7.19447C2.2826 7.42511 2.25756 7.65983 2.2627 7.89837L2.2804 8.74837C2.28627 9.0207 2.30113 9.3062 2.32467 9.59837L2.36452 10.0499L2.39994 10.5059C2.4141 10.6775 2.4768 10.8133 2.59473 10.9354L2.90905 11.263L3.22337 11.5861C3.42769 11.7975 3.63304 12.0016 3.83874 12.1971L4.15749 12.5025L4.47624 12.8036C4.62819 12.9476 4.80181 13.0519 4.99863 13.1179L5.41035 13.2551L5.8265 13.3968C6.1059 13.4906 6.38649 13.5873 6.66764 13.689L7.08379 13.8395L7.50436 13.99C7.70602 14.0628 7.91387 14.0905 8.13301 14.0742L8.58014 14.0432L9.02728 14.0077C9.28556 13.9884 9.54311 13.9445 9.79759 13.8705L10.2359 13.7421L10.6697 13.6137C10.8853 13.5511 11.0775 13.4485 11.2497 13.3038L11.9492 12.7195C12.1336 12.5643 12.2831 12.3839 12.4007 12.1838L12.8523 11.4135C13.0014 11.1596 13.1517 10.9063 13.295 10.652L13.7288 9.88171C13.8376 9.68866 13.9038 9.48089 13.9325 9.25749L14.0476 8.37207C14.0854 8.07715 14.095 7.91791 14.0919 7.85853L14.0786 7.68145L14.0697 7.50436C14.0642 7.4104 14.0433 7.22066 14.0033 6.91999L13.9458 6.46842L13.8838 6.01686C13.8571 5.81716 13.7822 5.64404 13.658 5.48561L13.3791 5.12702L13.0958 4.76842C12.9264 4.55282 12.7469 4.35605 12.5557 4.17962L11.9093 3.58639C11.6926 3.38649 11.4739 3.17715 11.2497 2.96217L10.9132 2.64342L10.5812 2.32025C10.4379 2.18309 10.2741 2.10009 10.0809 2.06348L9.62936 1.97936L9.1778 1.89082C8.91315 1.84066 8.64573 1.82054 8.38093 1.82441L7.92494 1.82884Z" fill="#11BB69"/>
<path d="M4.5 8.5C4.5 8.5 6.575 11 7.47059 11C8.325 11 12 6 12 6" stroke="#EAFFEF" stroke-width="1.06667" stroke-miterlimit="10"/>
</svg>
